<?xml version="1.0" encoding="UTF-8"?>
<svg xmlns="http://www.w3.org/2000/svg" width="512" height="512" viewBox="0 0 512 512">
  <path d="M 101 45 L 100 46 L 99 46 L 98 46 L 97 46 L 96 46 L 95 46 L 94 46 L 93 46 L 92 46 L 91 46 L 90 46 L 89 46 L 88 46 L 87 46 L 86 47 L 85 47 L 84 47 L 83 47 L 82 47 L 81 47 L 80 47 L 79 47 L 78 47 L 77 48 L 76 48 L 75 48 L 74 48 L 73 48 L 72 48 L 71 49 L 70 49 L 69 49 L 68 49 L 67 49 L 66 50 L 65 50 L 64 50 L 63 50 L 62 51 L 61 51 L 60 52 L 59 53 L 58 54 L 57 55 L 56 56 L 56 57 L 55 58 L 55 59 L 55 60 L 55 61 L 55 62 L 54 63 L 54 64 L 54 65 L 54 66 L 54 67 L 54 68 L 54 69 L 54 70 L 54 71 L 54 72 L 54 73 L 54 74 L 54 75 L 54 76 L 54 77 L 54 78 L 54 79 L 54 80 L 54 81 L 54 82 L 54 83 L 54 84 L 54 85 L 54 86 L 54 87 L 54 88 L 54 89 L 54 90 L 54 91 L 54 92 L 54 93 L 54 94 L 54 95 L 54 96 L 54 97 L 54 98 L 54 99 L 54 100 L 54 101 L 54 102 L 54 103 L 54 104 L 54 105 L 54 106 L 54 107 L 54 108 L 54 109 L 53 110 L 52 110 L 51 110 L 50 110 L 49 110 L 48 110 L 47 110 L 46 110 L 45 110 L 44 110 L 43 110 L 42 110 L 41 110 L 40 110 L 39 110 L 38 110 L 37 110 L 36 110 L 35 110 L 34 110 L 33 110 L 32 110 L 31 110 L 30 110 L 29 110 L 28 110 L 27 110 L 26 110 L 25 110 L 24 110 L 23 110 L 22 110 L 21 110 L 20 110 L 19 110 L 18 110 L 17 110 L 16 110 L 15 110 L 14 110 L 13 110 L 12 110 L 11 110 L 10 111 L 9 111 L 8 111 L 7 112 L 6 113 L 5 113 L 4 114 L 3 115 L 3 116 L 2 117 L 1 118 L 1 119 L 1 120 L 0 121 L 0 122 L 0 123 L 0 124 L 0 125 L 0 126 L 0 127 L 0 128 L 0 129 L 0 130 L 0 131 L 0 132 L 0 133 L 0 134 L 0 135 L 0 136 L 0 137 L 0 138 L 0 139 L 0 140 L 0 141 L 0 142 L 0 143 L 0 144 L 0 145 L 0 146 L 0 147 L 0 148 L 0 149 L 0 150 L 0 151 L 0 152 L 0 153 L 0 154 L 0 155 L 0 156 L 0 157 L 0 158 L 0 159 L 0 160 L 0 161 L 0 162 L 0 163 L 0 164 L 0 165 L 0 166 L 0 167 L 0 168 L 0 169 L 0 170 L 0 171 L 0 172 L 0 173 L 0 174 L 0 175 L 0 176 L 0 177 L 0 178 L 0 179 L 0 180 L 0 181 L 0 182 L 0 183 L 0 184 L 0 185 L 0 186 L 0 187 L 0 188 L 0 189 L 0 190 L 0 191 L 0 192 L 0 193 L 0 194 L 0 195 L 0 196 L 0 197 L 0 198 L 0 199 L 0 200 L 0 201 L 0 202 L 0 203 L 0 204 L 0 205 L 0 206 L 0 207 L 0 208 L 0 209 L 0 210 L 0 211 L 0 212 L 0 213 L 0 214 L 0 215 L 0 216 L 0 217 L 0 218 L 0 219 L 0 220 L 0 221 L 0 222 L 0 223 L 0 224 L 0 225 L 0 226 L 0 227 L 0 228 L 0 229 L 0 230 L 0 231 L 0 232 L 0 233 L 0 234 L 0 235 L 0 236 L 0 237 L 0 238 L 0 239 L 0 240 L 0 241 L 0 242 L 0 243 L 0 244 L 0 245 L 0 246 L 0 247 L 0 248 L 0 249 L 0 250 L 0 251 L 0 252 L 0 253 L 0 254 L 0 255 L 0 256 L 0 257 L 0 258 L 0 259 L 0 260 L 0 261 L 0 262 L 0 263 L 0 264 L 0 265 L 0 266 L 0 267 L 0 268 L 0 269 L 0 270 L 0 271 L 0 272 L 0 273 L 0 274 L 0 275 L 0 276 L 0 277 L 0 278 L 0 279 L 0 280 L 0 281 L 0 282 L 0 283 L 0 284 L 0 285 L 0 286 L 0 287 L 0 288 L 0 289 L 0 290 L 0 291 L 0 292 L 0 293 L 0 294 L 0 295 L 0 296 L 0 297 L 0 298 L 0 299 L 0 300 L 0 301 L 0 302 L 0 303 L 0 304 L 0 305 L 0 306 L 0 307 L 0 308 L 0 309 L 0 310 L 0 311 L 0 312 L 0 313 L 0 314 L 0 315 L 0 316 L 0 317 L 0 318 L 0 319 L 0 320 L 0 321 L 0 322 L 0 323 L 0 324 L 0 325 L 0 326 L 0 327 L 0 328 L 0 329 L 0 330 L 0 331 L 0 332 L 0 333 L 0 334 L 0 335 L 0 336 L 0 337 L 0 338 L 0 339 L 0 340 L 0 341 L 0 342 L 0 343 L 0 344 L 0 345 L 0 346 L 0 347 L 0 348 L 0 349 L 0 350 L 0 351 L 0 352 L 0 353 L 0 354 L 0 355 L 0 356 L 0 357 L 0 358 L 0 359 L 0 360 L 0 361 L 0 362 L 0 363 L 0 364 L 0 365 L 0 366 L 0 367 L 0 368 L 0 369 L 0 370 L 0 371 L 0 372 L 0 373 L 0 374 L 0 375 L 0 376 L 0 377 L 0 378 L 0 379 L 0 380 L 0 381 L 0 382 L 0 383 L 0 384 L 0 385 L 0 386 L 0 387 L 0 388 L 0 389 L 0 390 L 0 391 L 0 392 L 0 393 L 0 394 L 0 395 L 0 396 L 0 397 L 0 398 L 0 399 L 0 400 L 0 401 L 0 402 L 0 403 L 0 404 L 0 405 L 0 406 L 0 407 L 0 408 L 0 409 L 0 410 L 0 411 L 0 412 L 0 413 L 0 414 L 0 415 L 0 416 L 0 417 L 0 418 L 0 419 L 0 420 L 0 421 L 0 422 L 0 423 L 0 424 L 0 425 L 0 426 L 0 427 L 0 428 L 0 429 L 0 430 L 0 431 L 0 432 L 0 433 L 0 434 L 0 435 L 0 436 L 0 437 L 0 438 L 0 439 L 0 440 L 0 441 L 0 442 L 0 443 L 0 444 L 0 445 L 0 446 L 0 447 L 0 448 L 0 449 L 1 450 L 1 451 L 1 452 L 2 453 L 2 454 L 3 455 L 4 456 L 5 457 L 6 458 L 7 458 L 8 459 L 9 459 L 10 460 L 11 460 L 12 460 L 13 460 L 14 460 L 15 460 L 16 460 L 17 460 L 18 459 L 19 459 L 20 459 L 21 459 L 22 458 L 23 458 L 24 458 L 25 457 L 26 457 L 27 457 L 28 457 L 29 456 L 30 456 L 31 456 L 32 456 L 33 455 L 34 455 L 35 455 L 36 454 L 37 454 L 38 454 L 39 454 L 40 453 L 41 453 L 42 453 L 43 453 L 44 452 L 45 452 L 46 452 L 47 452 L 48 452 L 49 451 L 50 451 L 51 451 L 52 451 L 53 450 L 54 450 L 55 450 L 56 450 L 57 450 L 58 449 L 59 449 L 60 449 L 61 449 L 62 448 L 63 448 L 64 448 L 65 448 L 66 448 L 67 447 L 68 447 L 69 447 L 70 447 L 71 447 L 72 447 L 73 446 L 74 446 L 75 446 L 76 446 L 77 446 L 78 446 L 79 445 L 80 445 L 81 445 L 82 445 L 83 445 L 84 445 L 85 444 L 86 444 L 87 444 L 88 444 L 89 444 L 90 444 L 91 444 L 92 443 L 93 443 L 94 443 L 95 443 L 96 443 L 97 443 L 98 443 L 99 443 L 100 442 L 101 442 L 102 442 L 103 442 L 104 442 L 105 442 L 106 442 L 107 442 L 108 442 L 109 442 L 110 441 L 111 441 L 112 441 L 113 441 L 114 441 L 115 441 L 116 441 L 117 441 L 118 441 L 119 441 L 120 441 L 121 441 L 122 441 L 123 441 L 124 441 L 125 441 L 126 441 L 127 441 L 128 440 L 129 440 L 130 440 L 131 440 L 132 440 L 133 440 L 134 440 L 135 440 L 136 440 L 137 440 L 138 440 L 139 440 L 140 440 L 141 440 L 142 440 L 143 440 L 144 440 L 145 441 L 146 441 L 147 441 L 148 441 L 149 441 L 150 441 L 151 441 L 152 441 L 153 441 L 154 441 L 155 441 L 156 441 L 157 441 L 158 441 L 159 441 L 160 441 L 161 441 L 162 441 L 163 442 L 164 442 L 165 442 L 166 442 L 167 442 L 168 442 L 169 442 L 170 442 L 171 442 L 172 443 L 173 443 L 174 443 L 175 443 L 176 443 L 177 443 L 178 443 L 179 444 L 180 444 L 181 444 L 182 444 L 183 444 L 184 444 L 185 444 L 186 445 L 187 445 L 188 445 L 189 445 L 190 445 L 191 446 L 192 446 L 193 446 L 194 446 L 195 446 L 196 447 L 197 447 L 198 447 L 199 447 L 200 448 L 201 448 L 202 448 L 203 448 L 204 448 L 205 449 L 206 449 L 207 449 L 208 450 L 209 450 L 210 450 L 211 450 L 212 451 L 213 451 L 214 451 L 215 452 L 216 452 L 217 452 L 218 452 L 219 453 L 220 453 L 221 453 L 222 454 L 223 454 L 224 454 L 225 455 L 226 455 L 227 455 L 228 456 L 229 456 L 230 456 L 231 457 L 232 457 L 233 458 L 234 458 L 235 458 L 236 459 L 237 459 L 238 460 L 239 460 L 240 460 L 241 461 L 242 461 L 243 462 L 244 462 L 245 462 L 246 463 L 247 463 L 248 464 L 249 464 L 250 465 L 251 465 L 252 465 L 253 466 L 254 466 L 255 466 L 256 466 L 257 466 L 258 465 L 259 465 L 260 465 L 261 464 L 262 464 L 263 463 L 264 463 L 265 463 L 266 462 L 267 462 L 268 461 L 269 461 L 270 460 L 271 460 L 272 460 L 273 459 L 274 459 L 275 458 L 276 458 L 277 458 L 278 457 L 279 457 L 280 457 L 281 456 L 282 456 L 283 456 L 284 455 L 285 455 L 286 454 L 287 454 L 288 454 L 289 454 L 290 453 L 291 453 L 292 453 L 293 452 L 294 452 L 295 452 L 296 451 L 297 451 L 298 451 L 299 450 L 300 450 L 301 450 L 302 450 L 303 449 L 304 449 L 305 449 L 306 449 L 307 448 L 308 448 L 309 448 L 310 448 L 311 447 L 312 447 L 313 447 L 314 447 L 315 446 L 316 446 L 317 446 L 318 446 L 319 446 L 320 445 L 321 445 L 322 445 L 323 445 L 324 445 L 325 445 L 326 444 L 327 444 L 328 444 L 329 444 L 330 444 L 331 444 L 332 443 L 333 443 L 334 443 L 335 443 L 336 443 L 337 443 L 338 443 L 339 442 L 340 442 L 341 442 L 342 442 L 343 442 L 344 442 L 345 442 L 346 442 L 347 442 L 348 442 L 349 441 L 350 441 L 351 441 L 352 441 L 353 441 L 354 441 L 355 441 L 356 441 L 357 441 L 358 441 L 359 441 L 360 441 L 361 441 L 362 441 L 363 441 L 364 441 L 365 441 L 366 440 L 367 440 L 368 440 L 369 440 L 370 440 L 371 440 L 372 440 L 373 440 L 374 440 L 375 440 L 376 440 L 377 440 L 378 440 L 379 440 L 380 440 L 381 440 L 382 440 L 383 441 L 384 441 L 385 441 L 386 441 L 387 441 L 388 441 L 389 441 L 390 441 L 391 441 L 392 441 L 393 441 L 394 441 L 395 441 L 396 441 L 397 441 L 398 441 L 399 441 L 400 441 L 401 442 L 402 442 L 403 442 L 404 442 L 405 442 L 406 442 L 407 442 L 408 442 L 409 442 L 410 442 L 411 443 L 412 443 L 413 443 L 414 443 L 415 443 L 416 443 L 417 443 L 418 443 L 419 443 L 420 444 L 421 444 L 422 444 L 423 444 L 424 444 L 425 444 L 426 444 L 427 445 L 428 445 L 429 445 L 430 445 L 431 445 L 432 445 L 433 446 L 434 446 L 435 446 L 436 446 L 437 446 L 438 446 L 439 447 L 440 447 L 441 447 L 442 447 L 443 447 L 444 448 L 445 448 L 446 448 L 447 448 L 448 448 L 449 449 L 450 449 L 451 449 L 452 449 L 453 449 L 454 450 L 455 450 L 456 450 L 457 450 L 458 451 L 459 451 L 460 451 L 461 451 L 462 451 L 463 452 L 464 452 L 465 452 L 466 452 L 467 453 L 468 453 L 469 453 L 470 453 L 471 454 L 472 454 L 473 454 L 474 454 L 475 455 L 476 455 L 477 455 L 478 455 L 479 456 L 480 456 L 481 456 L 482 456 L 483 457 L 484 457 L 485 457 L 486 458 L 487 458 L 488 458 L 489 458 L 490 459 L 491 459 L 492 459 L 493 460 L 494 460 L 495 460 L 496 460 L 497 460 L 498 460 L 499 460 L 500 460 L 501 459 L 502 459 L 503 459 L 504 458 L 505 457 L 506 456 L 507 455 L 508 454 L 509 453 L 509 452 L 509 451 L 510 450 L 510 449 L 510 448 L 510 447 L 510 446 L 510 445 L 510 444 L 510 443 L 510 442 L 510 441 L 510 440 L 510 439 L 510 438 L 510 437 L 510 436 L 510 435 L 510 434 L 510 433 L 510 432 L 510 431 L 510 430 L 510 429 L 510 428 L 510 427 L 510 426 L 510 425 L 510 424 L 510 423 L 510 422 L 510 421 L 510 420 L 510 419 L 510 418 L 510 417 L 510 416 L 510 415 L 510 414 L 510 413 L 510 412 L 510 411 L 510 410 L 510 409 L 510 408 L 510 407 L 510 406 L 510 405 L 510 404 L 510 403 L 510 402 L 510 401 L 510 400 L 510 399 L 510 398 L 510 397 L 510 396 L 510 395 L 510 394 L 510 393 L 510 392 L 510 391 L 510 390 L 510 389 L 510 388 L 510 387 L 510 386 L 510 385 L 510 384 L 510 383 L 510 382 L 510 381 L 510 380 L 510 379 L 510 378 L 510 377 L 510 376 L 510 375 L 510 374 L 510 373 L 510 372 L 510 371 L 510 370 L 510 369 L 510 368 L 510 367 L 510 366 L 510 365 L 510 364 L 510 363 L 510 362 L 510 361 L 510 360 L 510 359 L 510 358 L 510 357 L 510 356 L 510 355 L 510 354 L 510 353 L 510 352 L 510 351 L 510 350 L 510 349 L 510 348 L 510 347 L 510 346 L 510 345 L 510 344 L 510 343 L 510 342 L 510 341 L 510 340 L 510 339 L 510 338 L 510 337 L 510 336 L 510 335 L 510 334 L 510 333 L 510 332 L 510 331 L 510 330 L 510 329 L 510 328 L 510 327 L 510 326 L 510 325 L 510 324 L 510 323 L 510 322 L 510 321 L 510 320 L 510 319 L 510 318 L 510 317 L 510 316 L 510 315 L 510 314 L 510 313 L 510 312 L 510 311 L 510 310 L 510 309 L 510 308 L 510 307 L 510 306 L 510 305 L 510 304 L 510 303 L 510 302 L 510 301 L 510 300 L 510 299 L 510 298 L 510 297 L 510 296 L 510 295 L 510 294 L 510 293 L 510 292 L 510 291 L 510 290 L 510 289 L 510 288 L 510 287 L 510 286 L 510 285 L 510 284 L 510 283 L 510 282 L 510 281 L 510 280 L 510 279 L 510 278 L 510 277 L 510 276 L 510 275 L 510 274 L 510 273 L 510 272 L 510 271 L 510 270 L 510 269 L 510 268 L 510 267 L 510 266 L 510 265 L 510 264 L 510 263 L 510 262 L 510 261 L 510 260 L 510 259 L 510 258 L 510 257 L 510 256 L 510 255 L 510 254 L 510 253 L 510 252 L 510 251 L 510 250 L 510 249 L 510 248 L 510 247 L 510 246 L 510 245 L 510 244 L 510 243 L 510 242 L 510 241 L 510 240 L 510 239 L 510 238 L 510 237 L 510 236 L 510 235 L 510 234 L 510 233 L 510 232 L 510 231 L 510 230 L 510 229 L 510 228 L 510 227 L 510 226 L 510 225 L 510 224 L 510 223 L 510 222 L 510 221 L 510 220 L 510 219 L 510 218 L 510 217 L 510 216 L 510 215 L 510 214 L 510 213 L 510 212 L 510 211 L 510 210 L 510 209 L 510 208 L 510 207 L 510 206 L 510 205 L 510 204 L 510 203 L 510 202 L 510 201 L 510 200 L 510 199 L 510 198 L 510 197 L 510 196 L 510 195 L 510 194 L 510 193 L 510 192 L 510 191 L 510 190 L 510 189 L 510 188 L 510 187 L 510 186 L 510 185 L 510 184 L 510 183 L 510 182 L 510 181 L 510 180 L 510 179 L 510 178 L 510 177 L 510 176 L 510 175 L 510 174 L 510 173 L 510 172 L 510 171 L 510 170 L 510 169 L 510 168 L 510 167 L 510 166 L 510 165 L 510 164 L 510 163 L 510 162 L 510 161 L 510 160 L 510 159 L 510 158 L 510 157 L 510 156 L 510 155 L 510 154 L 510 153 L 510 152 L 510 151 L 510 150 L 510 149 L 510 148 L 510 147 L 510 146 L 510 145 L 510 144 L 510 143 L 510 142 L 510 141 L 510 140 L 510 139 L 510 138 L 510 137 L 510 136 L 510 135 L 510 134 L 510 133 L 510 132 L 510 131 L 510 130 L 510 129 L 510 128 L 510 127 L 510 126 L 510 125 L 510 124 L 510 123 L 510 122 L 510 121 L 510 120 L 509 119 L 509 118 L 508 117 L 508 116 L 507 115 L 506 114 L 505 113 L 504 112 L 503 112 L 502 111 L 501 111 L 500 111 L 499 110 L 498 110 L 497 110 L 496 110 L 495 110 L 494 110 L 493 110 L 492 110 L 491 110 L 490 110 L 489 110 L 488 110 L 487 110 L 486 110 L 485 110 L 484 110 L 483 110 L 482 110 L 481 110 L 480 110 L 479 110 L 478 110 L 477 110 L 476 110 L 475 110 L 474 110 L 473 110 L 472 110 L 471 110 L 470 110 L 469 110 L 468 110 L 467 110 L 466 110 L 465 110 L 464 110 L 463 110 L 462 110 L 461 110 L 460 110 L 459 110 L 458 109 L 458 108 L 458 107 L 458 106 L 458 105 L 458 104 L 458 103 L 458 102 L 458 101 L 458 100 L 458 99 L 458 98 L 458 97 L 458 96 L 458 95 L 458 94 L 458 93 L 458 92 L 458 91 L 458 90 L 458 89 L 458 88 L 458 87 L 458 86 L 458 85 L 458 84 L 458 83 L 458 82 L 458 81 L 458 80 L 458 79 L 458 78 L 458 77 L 458 76 L 458 75 L 458 74 L 458 73 L 458 72 L 458 71 L 458 70 L 458 69 L 458 68 L 458 67 L 458 66 L 458 65 L 458 64 L 458 63 L 458 62 L 458 61 L 458 60 L 458 59 L 457 58 L 457 57 L 456 56 L 456 55 L 455 54 L 454 53 L 453 52 L 452 52 L 451 51 L 450 51 L 449 50 L 448 50 L 447 50 L 446 49 L 445 49 L 444 49 L 443 49 L 442 49 L 441 49 L 440 49 L 439 49 L 438 48 L 437 48 L 436 48 L 435 48 L 434 48 L 433 48 L 432 48 L 431 48 L 430 48 L 429 48 L 428 48 L 427 47 L 426 47 L 425 47 L 424 47 L 423 47 L 422 47 L 421 47 L 420 47 L 419 47 L 418 47 L 417 47 L 416 47 L 415 47 L 414 47 L 413 47 L 412 47 L 411 47 L 410 47 L 409 47 L 408 47 L 407 47 L 406 47 L 405 47 L 404 47 L 403 47 L 402 47 L 401 47 L 400 47 L 399 47 L 398 47 L 397 47 L 396 47 L 395 47 L 394 47 L 393 47 L 392 47 L 391 47 L 390 47 L 389 48 L 388 48 L 387 48 L 386 48 L 385 48 L 384 48 L 383 48 L 382 48 L 381 48 L 380 48 L 379 48 L 378 49 L 377 49 L 376 49 L 375 49 L 374 49 L 373 49 L 372 49 L 371 50 L 370 50 L 369 50 L 368 50 L 367 50 L 366 50 L 365 51 L 364 51 L 363 51 L 362 51 L 361 51 L 360 51 L 359 52 L 358 52 L 357 52 L 356 52 L 355 53 L 354 53 L 353 53 L 352 53 L 351 53 L 350 54 L 349 54 L 348 54 L 347 54 L 346 55 L 345 55 L 344 55 L 343 56 L 342 56 L 341 56 L 340 56 L 339 57 L 338 57 L 337 57 L 336 58 L 335 58 L 334 58 L 333 59 L 332 59 L 331 59 L 330 60 L 329 60 L 328 60 L 327 61 L 326 61 L 325 62 L 324 62 L 323 62 L 322 63 L 321 63 L 320 64 L 319 64 L 318 64 L 317 65 L 316 65 L 315 66 L 314 66 L 313 67 L 312 67 L 311 68 L 310 68 L 309 69 L 308 69 L 307 70 L 306 70 L 305 71 L 304 71 L 303 72 L 302 72 L 301 73 L 300 73 L 299 74 L 298 74 L 297 75 L 296 76 L 295 76 L 294 77 L 293 77 L 292 78 L 291 79 L 290 79 L 289 80 L 288 81 L 287 81 L 286 82 L 285 83 L 284 84 L 283 84 L 282 85 L 281 86 L 280 87 L 279 87 L 278 88 L 277 89 L 276 90 L 275 91 L 274 91 L 273 92 L 272 93 L 271 94 L 270 95 L 269 96 L 268 97 L 267 98 L 266 99 L 265 100 L 264 101 L 263 102 L 262 103 L 261 104 L 260 105 L 259 106 L 258 107 L 258 108 L 257 109 L 256 110 L 255 109 L 254 108 L 254 107 L 253 106 L 252 105 L 251 104 L 250 103 L 249 102 L 249 101 L 248 100 L 247 99 L 246 98 L 245 97 L 244 96 L 243 95 L 242 94 L 241 93 L 240 92 L 239 91 L 238 90 L 237 89 L 236 89 L 235 88 L 234 87 L 233 86 L 232 85 L 231 84 L 230 84 L 229 83 L 228 82 L 227 81 L 226 81 L 225 80 L 224 79 L 223 78 L 222 78 L 221 77 L 220 76 L 219 76 L 218 75 L 217 74 L 216 74 L 215 73 L 214 73 L 213 72 L 212 71 L 211 71 L 210 70 L 209 70 L 208 69 L 207 69 L 206 68 L 205 68 L 204 67 L 203 67 L 202 66 L 201 66 L 200 65 L 199 65 L 198 64 L 197 64 L 196 63 L 195 63 L 194 62 L 193 62 L 192 61 L 191 61 L 190 61 L 189 60 L 188 60 L 187 59 L 186 59 L 185 59 L 184 58 L 183 58 L 182 58 L 181 57 L 180 57 L 179 56 L 178 56 L 177 56 L 176 56 L 175 55 L 174 55 L 173 55 L 172 54 L 171 54 L 170 54 L 169 53 L 168 53 L 167 53 L 166 53 L 165 52 L 164 52 L 163 52 L 162 52 L 161 51 L 160 51 L 159 51 L 158 51 L 157 50 L 156 50 L 155 50 L 154 50 L 153 50 L 152 49 L 151 49 L 150 49 L 149 49 L 148 49 L 147 48 L 146 48 L 145 48 L 144 48 L 143 48 L 142 48 L 141 48 L 140 47 L 139 47 L 138 47 L 137 47 L 136 47 L 135 47 L 134 47 L 133 47 L 132 46 L 131 46 L 130 46 L 129 46 L 128 46 L 127 46 L 126 46 L 125 46 L 124 46 L 123 46 L 122 46 L 121 46 L 120 46 L 119 46 L 118 46 L 117 45 L 116 45 L 115 45 L 114 45 L 113 45 L 112 45 L 111 45 L 110 45 L 109 45 L 108 45 L 107 45 L 106 45 L 105 45 L 104 45 L 103 45 L 102 45 Z M 100 73 L 101 72 L 102 72 L 103 72 L 104 72 L 105 72 L 106 72 L 107 72 L 108 72 L 109 72 L 110 72 L 111 72 L 112 72 L 113 72 L 114 72 L 115 72 L 116 72 L 117 72 L 118 73 L 119 73 L 120 73 L 121 73 L 122 73 L 123 73 L 124 73 L 125 73 L 126 73 L 127 73 L 128 73 L 129 73 L 130 73 L 131 74 L 132 74 L 133 74 L 134 74 L 135 74 L 136 74 L 137 74 L 138 74 L 139 75 L 140 75 L 141 75 L 142 75 L 143 75 L 144 75 L 145 76 L 146 76 L 147 76 L 148 76 L 149 76 L 150 77 L 151 77 L 152 77 L 153 77 L 154 77 L 155 78 L 156 78 L 157 78 L 158 78 L 159 79 L 160 79 L 161 79 L 162 80 L 163 80 L 164 80 L 165 80 L 166 81 L 167 81 L 168 81 L 169 82 L 170 82 L 171 82 L 172 83 L 173 83 L 174 83 L 175 84 L 176 84 L 177 85 L 178 85 L 179 85 L 180 86 L 181 86 L 182 87 L 183 87 L 184 88 L 185 88 L 186 88 L 187 89 L 188 89 L 189 90 L 190 90 L 191 91 L 192 91 L 193 92 L 194 92 L 195 93 L 196 94 L 197 94 L 198 95 L 199 95 L 200 96 L 201 96 L 202 97 L 203 98 L 204 98 L 205 99 L 206 100 L 207 100 L 208 101 L 209 102 L 210 103 L 211 103 L 212 104 L 213 105 L 214 106 L 215 106 L 216 107 L 217 108 L 218 109 L 219 110 L 220 111 L 221 112 L 222 113 L 223 114 L 224 115 L 225 116 L 226 117 L 227 118 L 228 119 L 229 120 L 230 121 L 231 122 L 232 123 L 232 124 L 233 125 L 234 126 L 235 127 L 235 128 L 236 129 L 237 130 L 237 131 L 238 132 L 239 133 L 239 134 L 240 135 L 241 136 L 241 137 L 242 138 L 242 139 L 242 140 L 242 141 L 242 142 L 242 143 L 242 144 L 242 145 L 242 146 L 242 147 L 242 148 L 242 149 L 242 150 L 242 151 L 242 152 L 242 153 L 242 154 L 242 155 L 242 156 L 242 157 L 242 158 L 242 159 L 242 160 L 242 161 L 242 162 L 242 163 L 242 164 L 242 165 L 242 166 L 242 167 L 242 168 L 242 169 L 242 170 L 242 171 L 242 172 L 242 173 L 242 174 L 242 175 L 242 176 L 242 177 L 242 178 L 242 179 L 242 180 L 242 181 L 242 182 L 242 183 L 242 184 L 242 185 L 242 186 L 242 187 L 242 188 L 242 189 L 242 190 L 242 191 L 242 192 L 242 193 L 242 194 L 242 195 L 242 196 L 242 197 L 242 198 L 242 199 L 242 200 L 242 201 L 242 202 L 242 203 L 242 204 L 242 205 L 242 206 L 242 207 L 242 208 L 242 209 L 242 210 L 242 211 L 242 212 L 242 213 L 242 214 L 242 215 L 242 216 L 242 217 L 242 218 L 242 219 L 242 220 L 242 221 L 242 222 L 242 223 L 242 224 L 242 225 L 242 226 L 242 227 L 242 228 L 242 229 L 242 230 L 242 231 L 242 232 L 242 233 L 242 234 L 242 235 L 242 236 L 242 237 L 242 238 L 242 239 L 242 240 L 242 241 L 242 242 L 242 243 L 242 244 L 242 245 L 242 246 L 242 247 L 242 248 L 242 249 L 242 250 L 242 251 L 242 252 L 242 253 L 242 254 L 242 255 L 242 256 L 242 257 L 242 258 L 242 259 L 242 260 L 242 261 L 242 262 L 242 263 L 242 264 L 242 265 L 242 266 L 242 267 L 242 268 L 242 269 L 242 270 L 242 271 L 242 272 L 242 273 L 242 274 L 242 275 L 242 276 L 242 277 L 242 278 L 242 279 L 242 280 L 242 281 L 242 282 L 242 283 L 242 284 L 242 285 L 242 286 L 242 287 L 242 288 L 242 289 L 242 290 L 242 291 L 242 292 L 242 293 L 242 294 L 242 295 L 242 296 L 242 297 L 242 298 L 242 299 L 242 300 L 242 301 L 242 302 L 242 303 L 242 304 L 242 305 L 242 306 L 242 307 L 242 308 L 242 309 L 242 310 L 242 311 L 242 312 L 242 313 L 242 314 L 242 315 L 242 316 L 242 317 L 242 318 L 242 319 L 242 320 L 242 321 L 242 322 L 242 323 L 242 324 L 242 325 L 242 326 L 242 327 L 242 328 L 242 329 L 242 330 L 242 331 L 242 332 L 242 333 L 242 334 L 242 335 L 242 336 L 242 337 L 242 338 L 242 339 L 242 340 L 242 341 L 242 342 L 242 343 L 242 344 L 242 345 L 242 346 L 242 347 L 242 348 L 242 349 L 242 350 L 242 351 L 242 352 L 242 353 L 242 354 L 242 355 L 242 356 L 242 357 L 242 358 L 242 359 L 242 360 L 242 361 L 242 362 L 242 363 L 242 364 L 242 365 L 242 366 L 242 367 L 242 368 L 242 369 L 242 370 L 242 371 L 242 372 L 242 373 L 242 374 L 242 375 L 242 376 L 242 377 L 242 378 L 242 379 L 242 380 L 242 381 L 242 382 L 242 383 L 242 384 L 242 385 L 242 386 L 242 387 L 242 388 L 242 389 L 242 390 L 242 391 L 242 392 L 242 393 L 242 394 L 242 395 L 242 396 L 242 397 L 242 398 L 241 399 L 240 399 L 239 398 L 238 397 L 237 397 L 236 396 L 235 395 L 234 394 L 233 394 L 232 393 L 231 392 L 230 392 L 229 391 L 228 391 L 227 390 L 226 389 L 225 389 L 224 388 L 223 388 L 222 387 L 221 386 L 220 386 L 219 385 L 218 385 L 217 384 L 216 384 L 215 383 L 214 382 L 213 382 L 212 381 L 211 381 L 210 380 L 209 380 L 208 379 L 207 379 L 206 378 L 205 378 L 204 377 L 203 377 L 202 376 L 201 376 L 200 375 L 199 375 L 198 375 L 197 374 L 196 374 L 195 373 L 194 373 L 193 372 L 192 372 L 191 372 L 190 371 L 189 371 L 188 370 L 187 370 L 186 370 L 185 369 L 184 369 L 183 368 L 182 368 L 181 368 L 180 367 L 179 367 L 178 367 L 177 366 L 176 366 L 175 366 L 174 365 L 173 365 L 172 365 L 171 364 L 170 364 L 169 364 L 168 364 L 167 363 L 166 363 L 165 363 L 164 362 L 163 362 L 162 362 L 161 362 L 160 361 L 159 361 L 158 361 L 157 361 L 156 360 L 155 360 L 154 360 L 153 360 L 152 359 L 151 359 L 150 359 L 149 359 L 148 358 L 147 358 L 146 358 L 145 358 L 144 358 L 143 357 L 142 357 L 141 357 L 140 357 L 139 357 L 138 357 L 137 356 L 136 356 L 135 356 L 134 356 L 133 356 L 132 356 L 131 355 L 130 355 L 129 355 L 128 355 L 127 355 L 126 355 L 125 355 L 124 355 L 123 354 L 122 354 L 121 354 L 120 354 L 119 354 L 118 354 L 117 354 L 116 354 L 115 354 L 114 354 L 113 353 L 112 353 L 111 353 L 110 353 L 109 353 L 108 353 L 107 353 L 106 353 L 105 353 L 104 353 L 103 353 L 102 353 L 101 353 L 100 353 L 99 353 L 98 353 L 97 353 L 96 353 L 95 353 L 94 353 L 93 353 L 92 353 L 91 353 L 90 353 L 89 353 L 88 353 L 87 353 L 86 353 L 85 353 L 84 353 L 83 353 L 82 353 L 81 353 L 80 352 L 80 351 L 80 350 L 80 349 L 80 348 L 80 347 L 80 346 L 80 345 L 80 344 L 80 343 L 80 342 L 80 341 L 80 340 L 80 339 L 80 338 L 80 337 L 80 336 L 80 335 L 80 334 L 80 333 L 80 332 L 80 331 L 80 330 L 80 329 L 80 328 L 80 327 L 80 326 L 80 325 L 80 324 L 80 323 L 80 322 L 80 321 L 80 320 L 80 319 L 80 318 L 80 317 L 80 316 L 80 315 L 80 314 L 80 313 L 80 312 L 80 311 L 80 310 L 80 309 L 80 308 L 80 307 L 80 306 L 80 305 L 80 304 L 80 303 L 80 302 L 80 301 L 80 300 L 80 299 L 80 298 L 80 297 L 80 296 L 80 295 L 80 294 L 80 293 L 80 292 L 80 291 L 80 290 L 80 289 L 80 288 L 80 287 L 80 286 L 80 285 L 80 284 L 80 283 L 80 282 L 80 281 L 80 280 L 80 279 L 80 278 L 80 277 L 80 276 L 80 275 L 80 274 L 80 273 L 80 272 L 80 271 L 80 270 L 80 269 L 80 268 L 80 267 L 80 266 L 80 265 L 80 264 L 80 263 L 80 262 L 80 261 L 80 260 L 80 259 L 80 258 L 80 257 L 80 256 L 80 255 L 80 254 L 80 253 L 80 252 L 80 251 L 80 250 L 80 249 L 80 248 L 80 247 L 80 246 L 80 245 L 80 244 L 80 243 L 80 242 L 80 241 L 80 240 L 80 239 L 80 238 L 80 237 L 80 236 L 80 235 L 80 234 L 80 233 L 80 232 L 80 231 L 81 230 L 80 229 L 81 228 L 81 227 L 81 226 L 81 225 L 81 224 L 81 223 L 81 222 L 81 221 L 81 220 L 81 219 L 81 218 L 81 217 L 81 216 L 81 215 L 81 214 L 81 213 L 81 212 L 81 211 L 81 210 L 81 209 L 81 208 L 81 207 L 81 206 L 81 205 L 81 204 L 81 203 L 81 202 L 81 201 L 81 200 L 81 199 L 81 198 L 81 197 L 81 196 L 81 195 L 81 194 L 81 193 L 81 192 L 81 191 L 81 190 L 81 189 L 81 188 L 81 187 L 81 186 L 81 185 L 81 184 L 81 183 L 81 182 L 81 181 L 81 180 L 81 179 L 81 178 L 81 177 L 81 176 L 81 175 L 81 174 L 81 173 L 81 172 L 81 171 L 81 170 L 81 169 L 81 168 L 81 167 L 81 166 L 81 165 L 81 164 L 81 163 L 81 162 L 81 161 L 81 160 L 81 159 L 81 158 L 81 157 L 81 156 L 81 155 L 81 154 L 81 153 L 81 152 L 81 151 L 81 150 L 81 149 L 81 148 L 81 147 L 81 146 L 81 145 L 81 144 L 81 143 L 81 142 L 81 141 L 81 140 L 81 139 L 81 138 L 81 137 L 81 136 L 81 135 L 81 134 L 81 133 L 81 132 L 81 131 L 81 130 L 81 129 L 81 128 L 81 127 L 81 126 L 81 125 L 81 124 L 81 123 L 81 122 L 81 121 L 81 120 L 81 119 L 81 118 L 81 117 L 81 116 L 81 115 L 81 114 L 81 113 L 81 112 L 81 111 L 81 110 L 81 109 L 81 108 L 81 107 L 81 106 L 81 105 L 81 104 L 81 103 L 81 102 L 81 101 L 81 100 L 81 99 L 81 98 L 81 97 L 81 96 L 81 95 L 81 94 L 81 93 L 81 92 L 81 91 L 81 90 L 81 89 L 81 88 L 81 87 L 81 86 L 81 85 L 81 84 L 81 83 L 81 82 L 81 81 L 81 80 L 81 79 L 81 78 L 81 77 L 81 76 L 81 75 L 82 74 L 83 74 L 84 74 L 85 74 L 86 74 L 87 74 L 88 73 L 89 73 L 90 73 L 91 73 L 92 73 L 93 73 L 94 73 L 95 73 L 96 73 L 97 73 L 98 73 L 99 73 Z M 390 75 L 391 74 L 392 74 L 393 74 L 394 74 L 395 74 L 396 74 L 397 74 L 398 74 L 399 74 L 400 74 L 401 74 L 402 74 L 403 74 L 404 74 L 405 74 L 406 74 L 407 74 L 408 74 L 409 74 L 410 74 L 411 74 L 412 74 L 413 74 L 414 74 L 415 74 L 416 74 L 417 74 L 418 74 L 419 74 L 420 74 L 421 74 L 422 74 L 423 74 L 424 74 L 425 74 L 426 74 L 427 75 L 428 75 L 429 75 L 430 75 L 431 76 L 431 77 L 431 78 L 431 79 L 431 80 L 431 81 L 431 82 L 431 83 L 431 84 L 431 85 L 431 86 L 431 87 L 431 88 L 431 89 L 431 90 L 431 91 L 431 92 L 431 93 L 431 94 L 431 95 L 431 96 L 431 97 L 431 98 L 431 99 L 431 100 L 431 101 L 431 102 L 431 103 L 431 104 L 431 105 L 431 106 L 431 107 L 431 108 L 431 109 L 431 110 L 431 111 L 431 112 L 431 113 L 431 114 L 431 115 L 431 116 L 431 117 L 431 118 L 431 119 L 431 120 L 431 121 L 431 122 L 431 123 L 431 124 L 431 125 L 431 126 L 431 127 L 431 128 L 431 129 L 431 130 L 431 131 L 431 132 L 431 133 L 431 134 L 431 135 L 431 136 L 431 137 L 431 138 L 431 139 L 431 140 L 431 141 L 431 142 L 431 143 L 431 144 L 431 145 L 431 146 L 431 147 L 431 148 L 431 149 L 431 150 L 431 151 L 431 152 L 431 153 L 431 154 L 431 155 L 431 156 L 431 157 L 431 158 L 431 159 L 431 160 L 431 161 L 431 162 L 431 163 L 431 164 L 431 165 L 431 166 L 431 167 L 431 168 L 431 169 L 431 170 L 431 171 L 431 172 L 431 173 L 431 174 L 431 175 L 431 176 L 431 177 L 431 178 L 431 179 L 431 180 L 431 181 L 431 182 L 431 183 L 431 184 L 431 185 L 431 186 L 431 187 L 431 188 L 431 189 L 431 190 L 431 191 L 431 192 L 431 193 L 431 194 L 431 195 L 431 196 L 431 197 L 431 198 L 431 199 L 431 200 L 431 201 L 431 202 L 431 203 L 431 204 L 431 205 L 431 206 L 431 207 L 431 208 L 431 209 L 431 210 L 431 211 L 431 212 L 431 213 L 431 214 L 431 215 L 431 216 L 431 217 L 431 218 L 431 219 L 431 220 L 431 221 L 431 222 L 431 223 L 431 224 L 431 225 L 431 226 L 431 227 L 431 228 L 431 229 L 431 230 L 431 231 L 431 232 L 431 233 L 431 234 L 431 235 L 431 236 L 431 237 L 431 238 L 431 239 L 431 240 L 431 241 L 431 242 L 431 243 L 431 244 L 431 245 L 431 246 L 431 247 L 431 248 L 431 249 L 431 250 L 431 251 L 431 252 L 431 253 L 431 254 L 431 255 L 431 256 L 431 257 L 431 258 L 431 259 L 431 260 L 431 261 L 431 262 L 431 263 L 431 264 L 431 265 L 431 266 L 431 267 L 431 268 L 431 269 L 431 270 L 431 271 L 431 272 L 431 273 L 431 274 L 431 275 L 431 276 L 431 277 L 431 278 L 431 279 L 431 280 L 431 281 L 431 282 L 431 283 L 431 284 L 431 285 L 431 286 L 431 287 L 431 288 L 431 289 L 431 290 L 431 291 L 431 292 L 431 293 L 431 294 L 431 295 L 431 296 L 431 297 L 431 298 L 431 299 L 431 300 L 431 301 L 431 302 L 431 303 L 431 304 L 431 305 L 431 306 L 431 307 L 431 308 L 431 309 L 431 310 L 431 311 L 431 312 L 431 313 L 431 314 L 431 315 L 431 316 L 431 317 L 431 318 L 431 319 L 431 320 L 431 321 L 431 322 L 431 323 L 431 324 L 431 325 L 431 326 L 431 327 L 431 328 L 431 329 L 431 330 L 431 331 L 431 332 L 431 333 L 431 334 L 431 335 L 431 336 L 431 337 L 431 338 L 431 339 L 431 340 L 431 341 L 431 342 L 431 343 L 431 344 L 431 345 L 431 346 L 431 347 L 431 348 L 431 349 L 431 350 L 431 351 L 430 352 L 429 352 L 428 352 L 427 352 L 426 352 L 425 352 L 424 351 L 423 351 L 422 351 L 421 351 L 420 351 L 419 351 L 418 351 L 417 351 L 416 351 L 415 351 L 414 351 L 413 351 L 412 351 L 411 351 L 410 351 L 409 351 L 408 351 L 407 351 L 406 352 L 405 352 L 404 352 L 403 352 L 402 352 L 401 352 L 400 352 L 399 352 L 398 352 L 397 352 L 396 352 L 395 352 L 394 352 L 393 353 L 392 353 L 391 353 L 390 353 L 389 353 L 388 353 L 387 353 L 386 353 L 385 354 L 384 354 L 383 354 L 382 354 L 381 354 L 380 354 L 379 355 L 378 355 L 377 355 L 376 355 L 375 355 L 374 356 L 373 356 L 372 356 L 371 356 L 370 356 L 369 357 L 368 357 L 367 357 L 366 357 L 365 358 L 364 358 L 363 358 L 362 358 L 361 359 L 360 359 L 359 359 L 358 359 L 357 360 L 356 360 L 355 360 L 354 361 L 353 361 L 352 361 L 351 362 L 350 362 L 349 362 L 348 363 L 347 363 L 346 363 L 345 364 L 344 364 L 343 364 L 342 365 L 341 365 L 340 365 L 339 366 L 338 366 L 337 366 L 336 367 L 335 367 L 334 368 L 333 368 L 332 368 L 331 369 L 330 369 L 329 370 L 328 370 L 327 371 L 326 371 L 325 371 L 324 372 L 323 372 L 322 373 L 321 373 L 320 374 L 319 374 L 318 375 L 317 375 L 316 376 L 315 376 L 314 376 L 313 377 L 312 377 L 311 378 L 310 378 L 309 379 L 308 379 L 307 380 L 306 381 L 305 381 L 304 382 L 303 382 L 302 383 L 301 383 L 300 384 L 299 384 L 298 385 L 297 385 L 296 386 L 295 387 L 294 387 L 293 388 L 292 388 L 291 389 L 290 389 L 289 390 L 288 391 L 287 391 L 286 392 L 285 392 L 284 393 L 283 394 L 282 394 L 281 395 L 280 395 L 279 396 L 278 397 L 277 397 L 276 398 L 275 399 L 274 399 L 273 400 L 272 401 L 271 401 L 270 402 L 269 401 L 269 400 L 269 399 L 269 398 L 269 397 L 269 396 L 269 395 L 269 394 L 269 393 L 269 392 L 269 391 L 269 390 L 269 389 L 269 388 L 269 387 L 269 386 L 269 385 L 269 384 L 269 383 L 269 382 L 269 381 L 269 380 L 269 379 L 269 378 L 269 377 L 269 376 L 269 375 L 269 374 L 269 373 L 269 372 L 269 371 L 269 370 L 269 369 L 269 368 L 269 367 L 269 366 L 269 365 L 269 364 L 269 363 L 269 362 L 269 361 L 269 360 L 269 359 L 269 358 L 269 357 L 269 356 L 269 355 L 269 354 L 269 353 L 269 352 L 269 351 L 269 350 L 269 349 L 269 348 L 269 347 L 269 346 L 269 345 L 269 344 L 269 343 L 269 342 L 269 341 L 269 340 L 269 339 L 269 338 L 269 337 L 269 336 L 269 335 L 269 334 L 269 333 L 269 332 L 269 331 L 269 330 L 269 329 L 269 328 L 269 327 L 269 326 L 269 325 L 269 324 L 269 323 L 269 322 L 269 321 L 269 320 L 269 319 L 269 318 L 269 317 L 269 316 L 269 315 L 269 314 L 269 313 L 269 312 L 269 311 L 269 310 L 269 309 L 269 308 L 269 307 L 269 306 L 269 305 L 269 304 L 269 303 L 269 302 L 269 301 L 269 300 L 269 299 L 269 298 L 269 297 L 269 296 L 269 295 L 269 294 L 269 293 L 269 292 L 269 291 L 269 290 L 269 289 L 269 288 L 269 287 L 269 286 L 269 285 L 269 284 L 269 283 L 269 282 L 269 281 L 269 280 L 269 279 L 269 278 L 269 277 L 269 276 L 269 275 L 269 274 L 269 273 L 269 272 L 269 271 L 269 270 L 269 269 L 269 268 L 269 267 L 269 266 L 269 265 L 269 264 L 269 263 L 269 262 L 269 261 L 269 260 L 269 259 L 269 258 L 269 257 L 269 256 L 269 255 L 269 254 L 269 253 L 269 252 L 269 251 L 269 250 L 269 249 L 269 248 L 269 247 L 269 246 L 269 245 L 269 244 L 269 243 L 269 242 L 269 241 L 269 240 L 269 239 L 269 238 L 269 237 L 269 236 L 269 235 L 269 234 L 269 233 L 269 232 L 269 231 L 269 230 L 269 229 L 269 228 L 269 227 L 269 226 L 269 225 L 269 224 L 269 223 L 269 222 L 269 221 L 269 220 L 269 219 L 269 218 L 269 217 L 269 216 L 269 215 L 269 214 L 269 213 L 269 212 L 269 211 L 269 210 L 269 209 L 269 208 L 269 207 L 269 206 L 269 205 L 269 204 L 269 203 L 269 202 L 269 201 L 269 200 L 269 199 L 269 198 L 269 197 L 269 196 L 269 195 L 269 194 L 269 193 L 269 192 L 269 191 L 269 190 L 269 189 L 269 188 L 269 187 L 269 186 L 269 185 L 269 184 L 269 183 L 269 182 L 269 181 L 269 180 L 269 179 L 269 178 L 269 177 L 269 176 L 269 175 L 269 174 L 269 173 L 269 172 L 269 171 L 269 170 L 269 169 L 269 168 L 269 167 L 269 166 L 269 165 L 269 164 L 269 163 L 269 162 L 269 161 L 269 160 L 269 159 L 269 158 L 269 157 L 269 156 L 269 155 L 269 154 L 269 153 L 269 152 L 269 151 L 269 150 L 269 149 L 269 148 L 269 147 L 269 146 L 269 145 L 269 144 L 269 143 L 269 142 L 269 141 L 269 140 L 269 139 L 269 138 L 270 137 L 271 136 L 271 135 L 272 134 L 273 133 L 273 132 L 274 131 L 275 130 L 276 129 L 276 128 L 277 127 L 278 126 L 279 125 L 280 124 L 281 123 L 282 122 L 283 121 L 283 120 L 284 119 L 285 118 L 286 117 L 287 116 L 288 116 L 289 115 L 290 114 L 291 113 L 292 112 L 293 111 L 294 110 L 295 109 L 296 109 L 297 108 L 298 107 L 299 106 L 300 106 L 301 105 L 302 104 L 303 103 L 304 103 L 305 102 L 306 101 L 307 101 L 308 100 L 309 99 L 310 99 L 311 98 L 312 98 L 313 97 L 314 97 L 315 96 L 316 95 L 317 95 L 318 94 L 319 94 L 320 93 L 321 93 L 322 92 L 323 92 L 324 91 L 325 91 L 326 90 L 327 90 L 328 90 L 329 89 L 330 89 L 331 88 L 332 88 L 333 87 L 334 87 L 335 87 L 336 86 L 337 86 L 338 86 L 339 85 L 340 85 L 341 84 L 342 84 L 343 84 L 344 83 L 345 83 L 346 83 L 347 83 L 348 82 L 349 82 L 350 82 L 351 81 L 352 81 L 353 81 L 354 81 L 355 80 L 356 80 L 357 80 L 358 80 L 359 79 L 360 79 L 361 79 L 362 79 L 363 78 L 364 78 L 365 78 L 366 78 L 367 78 L 368 77 L 369 77 L 370 77 L 371 77 L 372 77 L 373 77 L 374 76 L 375 76 L 376 76 L 377 76 L 378 76 L 379 76 L 380 76 L 381 75 L 382 75 L 383 75 L 384 75 L 385 75 L 386 75 L 387 75 L 388 75 L 389 75 Z M 27 138 L 28 137 L 29 137 L 30 137 L 31 137 L 32 137 L 33 137 L 34 137 L 35 137 L 36 137 L 37 137 L 38 137 L 39 137 L 40 137 L 41 137 L 42 137 L 43 137 L 44 137 L 45 137 L 46 137 L 47 137 L 48 137 L 49 137 L 50 137 L 51 137 L 52 137 L 53 137 L 54 138 L 54 139 L 54 140 L 54 141 L 54 142 L 54 143 L 54 144 L 54 145 L 54 146 L 54 147 L 54 148 L 54 149 L 54 150 L 54 151 L 54 152 L 54 153 L 54 154 L 54 155 L 54 156 L 54 157 L 54 158 L 54 159 L 54 160 L 54 161 L 54 162 L 54 163 L 54 164 L 54 165 L 54 166 L 54 167 L 54 168 L 54 169 L 54 170 L 54 171 L 54 172 L 54 173 L 54 174 L 54 175 L 54 176 L 54 177 L 54 178 L 54 179 L 54 180 L 54 181 L 54 182 L 54 183 L 54 184 L 54 185 L 54 186 L 54 187 L 54 188 L 54 189 L 54 190 L 54 191 L 54 192 L 54 193 L 54 194 L 54 195 L 54 196 L 54 197 L 54 198 L 54 199 L 54 200 L 54 201 L 54 202 L 54 203 L 54 204 L 54 205 L 54 206 L 54 207 L 54 208 L 54 209 L 54 210 L 54 211 L 54 212 L 54 213 L 54 214 L 54 215 L 54 216 L 54 217 L 54 218 L 54 219 L 54 220 L 54 221 L 54 222 L 54 223 L 54 224 L 54 225 L 54 226 L 54 227 L 54 228 L 54 229 L 54 230 L 54 231 L 54 232 L 54 233 L 54 234 L 54 235 L 54 236 L 54 237 L 53 238 L 53 239 L 53 240 L 53 241 L 53 242 L 53 243 L 53 244 L 53 245 L 53 246 L 53 247 L 53 248 L 53 249 L 53 250 L 53 251 L 53 252 L 53 253 L 53 254 L 53 255 L 53 256 L 53 257 L 53 258 L 53 259 L 53 260 L 53 261 L 53 262 L 53 263 L 53 264 L 53 265 L 53 266 L 53 267 L 53 268 L 53 269 L 53 270 L 53 271 L 53 272 L 53 273 L 53 274 L 53 275 L 53 276 L 53 277 L 53 278 L 53 279 L 53 280 L 53 281 L 53 282 L 53 283 L 53 284 L 53 285 L 53 286 L 53 287 L 53 288 L 53 289 L 53 290 L 53 291 L 53 292 L 53 293 L 53 294 L 53 295 L 53 296 L 53 297 L 53 298 L 53 299 L 53 300 L 53 301 L 53 302 L 53 303 L 53 304 L 53 305 L 53 306 L 53 307 L 53 308 L 53 309 L 53 310 L 53 311 L 53 312 L 53 313 L 53 314 L 53 315 L 53 316 L 53 317 L 53 318 L 53 319 L 53 320 L 53 321 L 53 322 L 53 323 L 53 324 L 53 325 L 53 326 L 53 327 L 53 328 L 53 329 L 53 330 L 53 331 L 53 332 L 53 333 L 53 334 L 53 335 L 53 336 L 53 337 L 53 338 L 53 339 L 53 340 L 53 341 L 53 342 L 53 343 L 53 344 L 53 345 L 53 346 L 53 347 L 53 348 L 53 349 L 53 350 L 53 351 L 53 352 L 53 353 L 53 354 L 53 355 L 53 356 L 53 357 L 53 358 L 53 359 L 53 360 L 53 361 L 53 362 L 53 363 L 53 364 L 53 365 L 53 366 L 53 367 L 53 368 L 53 369 L 53 370 L 53 371 L 54 372 L 54 373 L 54 374 L 55 375 L 56 376 L 57 377 L 58 378 L 59 379 L 60 379 L 61 380 L 62 380 L 63 380 L 64 381 L 65 381 L 66 381 L 67 381 L 68 381 L 69 381 L 70 380 L 71 380 L 72 380 L 73 380 L 74 380 L 75 380 L 76 380 L 77 380 L 78 380 L 79 380 L 80 380 L 81 380 L 82 380 L 83 380 L 84 380 L 85 380 L 86 380 L 87 380 L 88 380 L 89 380 L 90 380 L 91 380 L 92 380 L 93 380 L 94 380 L 95 380 L 96 380 L 97 380 L 98 380 L 99 380 L 100 380 L 101 380 L 102 380 L 103 380 L 104 380 L 105 380 L 106 380 L 107 380 L 108 380 L 109 380 L 110 380 L 111 380 L 112 380 L 113 381 L 114 381 L 115 381 L 116 381 L 117 381 L 118 381 L 119 381 L 120 381 L 121 381 L 122 382 L 123 382 L 124 382 L 125 382 L 126 382 L 127 382 L 128 382 L 129 382 L 130 383 L 131 383 L 132 383 L 133 383 L 134 383 L 135 383 L 136 384 L 137 384 L 138 384 L 139 384 L 140 384 L 141 385 L 142 385 L 143 385 L 144 385 L 145 385 L 146 386 L 147 386 L 148 386 L 149 386 L 150 387 L 151 387 L 152 387 L 153 387 L 154 388 L 155 388 L 156 388 L 157 389 L 158 389 L 159 389 L 160 389 L 161 390 L 162 390 L 163 390 L 164 391 L 165 391 L 166 391 L 167 392 L 168 392 L 169 392 L 170 393 L 171 393 L 172 393 L 173 394 L 174 394 L 175 394 L 176 395 L 177 395 L 178 396 L 179 396 L 180 396 L 181 397 L 182 397 L 183 398 L 184 398 L 185 398 L 186 399 L 187 399 L 188 400 L 189 400 L 190 401 L 191 401 L 192 402 L 193 402 L 194 403 L 195 403 L 196 404 L 197 404 L 198 405 L 199 405 L 200 406 L 201 406 L 202 407 L 203 407 L 204 408 L 205 408 L 206 409 L 207 410 L 208 410 L 209 411 L 210 411 L 211 412 L 212 413 L 213 413 L 214 414 L 215 414 L 216 415 L 217 416 L 218 416 L 219 417 L 220 418 L 221 418 L 222 419 L 223 420 L 224 421 L 225 421 L 226 422 L 227 423 L 228 424 L 229 424 L 230 425 L 231 426 L 232 427 L 231 428 L 230 428 L 229 428 L 228 427 L 227 427 L 226 427 L 225 426 L 224 426 L 223 426 L 222 425 L 221 425 L 220 425 L 219 424 L 218 424 L 217 424 L 216 424 L 215 423 L 214 423 L 213 423 L 212 423 L 211 422 L 210 422 L 209 422 L 208 422 L 207 421 L 206 421 L 205 421 L 204 421 L 203 420 L 202 420 L 201 420 L 200 420 L 199 420 L 198 419 L 197 419 L 196 419 L 195 419 L 194 419 L 193 418 L 192 418 L 191 418 L 190 418 L 189 418 L 188 418 L 187 417 L 186 417 L 185 417 L 184 417 L 183 417 L 182 417 L 181 417 L 180 416 L 179 416 L 178 416 L 177 416 L 176 416 L 175 416 L 174 416 L 173 415 L 172 415 L 171 415 L 170 415 L 169 415 L 168 415 L 167 415 L 166 415 L 165 415 L 164 415 L 163 415 L 162 414 L 161 414 L 160 414 L 159 414 L 158 414 L 157 414 L 156 414 L 155 414 L 154 414 L 153 414 L 152 414 L 151 414 L 150 414 L 149 414 L 148 414 L 147 414 L 146 414 L 145 414 L 144 414 L 143 414 L 142 413 L 141 413 L 140 413 L 139 413 L 138 413 L 137 413 L 136 413 L 135 413 L 134 413 L 133 413 L 132 413 L 131 413 L 130 413 L 129 414 L 128 414 L 127 414 L 126 414 L 125 414 L 124 414 L 123 414 L 122 414 L 121 414 L 120 414 L 119 414 L 118 414 L 117 414 L 116 414 L 115 414 L 114 414 L 113 414 L 112 414 L 111 414 L 110 414 L 109 415 L 108 415 L 107 415 L 106 415 L 105 415 L 104 415 L 103 415 L 102 415 L 101 415 L 100 415 L 99 415 L 98 416 L 97 416 L 96 416 L 95 416 L 94 416 L 93 416 L 92 416 L 91 416 L 90 416 L 89 417 L 88 417 L 87 417 L 86 417 L 85 417 L 84 417 L 83 417 L 82 418 L 81 418 L 80 418 L 79 418 L 78 418 L 77 418 L 76 418 L 75 419 L 74 419 L 73 419 L 72 419 L 71 419 L 70 419 L 69 420 L 68 420 L 67 420 L 66 420 L 65 420 L 64 421 L 63 421 L 62 421 L 61 421 L 60 421 L 59 422 L 58 422 L 57 422 L 56 422 L 55 422 L 54 423 L 53 423 L 52 423 L 51 423 L 50 423 L 49 424 L 48 424 L 47 424 L 46 424 L 45 424 L 44 425 L 43 425 L 42 425 L 41 425 L 40 426 L 39 426 L 38 426 L 37 426 L 36 427 L 35 427 L 34 427 L 33 427 L 32 428 L 31 428 L 30 428 L 29 428 L 28 428 L 27 427 L 27 426 L 27 425 L 27 424 L 27 423 L 27 422 L 27 421 L 27 420 L 27 419 L 27 418 L 27 417 L 27 416 L 27 415 L 27 414 L 27 413 L 27 412 L 27 411 L 27 410 L 27 409 L 27 408 L 27 407 L 27 406 L 27 405 L 27 404 L 27 403 L 27 402 L 27 401 L 27 400 L 27 399 L 27 398 L 27 397 L 27 396 L 27 395 L 27 394 L 27 393 L 27 392 L 27 391 L 27 390 L 27 389 L 27 388 L 27 387 L 27 386 L 27 385 L 27 384 L 27 383 L 27 382 L 27 381 L 27 380 L 27 379 L 27 378 L 27 377 L 27 376 L 27 375 L 27 374 L 27 373 L 27 372 L 27 371 L 27 370 L 27 369 L 27 368 L 27 367 L 27 366 L 27 365 L 27 364 L 27 363 L 27 362 L 27 361 L 27 360 L 27 359 L 27 358 L 27 357 L 27 356 L 27 355 L 27 354 L 27 353 L 27 352 L 27 351 L 27 350 L 27 349 L 27 348 L 27 347 L 27 346 L 27 345 L 27 344 L 27 343 L 27 342 L 27 341 L 27 340 L 27 339 L 27 338 L 27 337 L 27 336 L 27 335 L 27 334 L 27 333 L 27 332 L 27 331 L 27 330 L 27 329 L 27 328 L 27 327 L 27 326 L 27 325 L 27 324 L 27 323 L 27 322 L 27 321 L 27 320 L 27 319 L 27 318 L 27 317 L 27 316 L 27 315 L 27 314 L 27 313 L 27 312 L 27 311 L 27 310 L 27 309 L 27 308 L 27 307 L 27 306 L 27 305 L 27 304 L 27 303 L 27 302 L 27 301 L 27 300 L 27 299 L 27 298 L 27 297 L 27 296 L 27 295 L 27 294 L 27 293 L 27 292 L 27 291 L 27 290 L 27 289 L 27 288 L 27 287 L 27 286 L 27 285 L 27 284 L 27 283 L 27 282 L 27 281 L 27 280 L 27 279 L 27 278 L 27 277 L 27 276 L 27 275 L 27 274 L 27 273 L 27 272 L 27 271 L 27 270 L 27 269 L 27 268 L 27 267 L 27 266 L 27 265 L 27 264 L 27 263 L 27 262 L 27 261 L 27 260 L 27 259 L 27 258 L 27 257 L 27 256 L 27 255 L 27 254 L 27 253 L 27 252 L 27 251 L 27 250 L 27 249 L 27 248 L 27 247 L 27 246 L 27 245 L 27 244 L 27 243 L 27 242 L 27 241 L 27 240 L 27 239 L 27 238 L 27 237 L 27 236 L 27 235 L 27 234 L 27 233 L 27 232 L 27 231 L 27 230 L 27 229 L 27 228 L 27 227 L 27 226 L 27 225 L 27 224 L 27 223 L 27 222 L 27 221 L 27 220 L 27 219 L 27 218 L 27 217 L 27 216 L 27 215 L 27 214 L 27 213 L 27 212 L 27 211 L 27 210 L 27 209 L 27 208 L 27 207 L 27 206 L 27 205 L 27 204 L 27 203 L 27 202 L 27 201 L 27 200 L 27 199 L 27 198 L 27 197 L 27 196 L 27 195 L 27 194 L 27 193 L 27 192 L 27 191 L 27 190 L 27 189 L 27 188 L 27 187 L 27 186 L 27 185 L 27 184 L 27 183 L 27 182 L 27 181 L 27 180 L 27 179 L 27 178 L 27 177 L 27 176 L 27 175 L 27 174 L 27 173 L 27 172 L 27 171 L 27 170 L 27 169 L 27 168 L 27 167 L 27 166 L 27 165 L 27 164 L 27 163 L 27 162 L 27 161 L 27 160 L 27 159 L 27 158 L 27 157 L 27 156 L 27 155 L 27 154 L 27 153 L 27 152 L 27 151 L 27 150 L 27 149 L 27 148 L 27 147 L 27 146 L 27 145 L 27 144 L 27 143 L 27 142 L 27 141 L 27 140 L 27 139 Z M 458 138 L 459 137 L 460 137 L 461 137 L 462 137 L 463 137 L 464 137 L 465 137 L 466 137 L 467 137 L 468 137 L 469 137 L 470 137 L 471 137 L 472 137 L 473 137 L 474 137 L 475 137 L 476 137 L 477 137 L 478 137 L 479 137 L 480 137 L 481 137 L 482 137 L 483 138 L 483 139 L 483 140 L 483 141 L 483 142 L 483 143 L 483 144 L 483 145 L 483 146 L 483 147 L 483 148 L 483 149 L 483 150 L 483 151 L 483 152 L 483 153 L 483 154 L 483 155 L 483 156 L 483 157 L 483 158 L 483 159 L 483 160 L 483 161 L 483 162 L 483 163 L 483 164 L 483 165 L 483 166 L 483 167 L 483 168 L 483 169 L 483 170 L 483 171 L 483 172 L 483 173 L 483 174 L 483 175 L 483 176 L 483 177 L 483 178 L 483 179 L 483 180 L 483 181 L 483 182 L 483 183 L 483 184 L 483 185 L 483 186 L 483 187 L 483 188 L 483 189 L 483 190 L 483 191 L 483 192 L 483 193 L 483 194 L 483 195 L 483 196 L 483 197 L 483 198 L 483 199 L 483 200 L 483 201 L 483 202 L 483 203 L 483 204 L 483 205 L 483 206 L 483 207 L 483 208 L 483 209 L 483 210 L 483 211 L 483 212 L 483 213 L 483 214 L 483 215 L 483 216 L 483 217 L 483 218 L 483 219 L 483 220 L 483 221 L 483 222 L 483 223 L 483 224 L 483 225 L 483 226 L 483 227 L 483 228 L 483 229 L 483 230 L 483 231 L 483 232 L 483 233 L 483 234 L 483 235 L 483 236 L 483 237 L 483 238 L 483 239 L 483 240 L 483 241 L 483 242 L 483 243 L 483 244 L 483 245 L 483 246 L 483 247 L 483 248 L 483 249 L 483 250 L 483 251 L 483 252 L 483 253 L 483 254 L 483 255 L 483 256 L 483 257 L 483 258 L 483 259 L 483 260 L 483 261 L 483 262 L 483 263 L 483 264 L 483 265 L 483 266 L 483 267 L 483 268 L 483 269 L 483 270 L 483 271 L 483 272 L 483 273 L 483 274 L 483 275 L 483 276 L 483 277 L 483 278 L 483 279 L 483 280 L 483 281 L 483 282 L 483 283 L 483 284 L 483 285 L 483 286 L 483 287 L 483 288 L 483 289 L 483 290 L 483 291 L 483 292 L 483 293 L 483 294 L 483 295 L 483 296 L 483 297 L 483 298 L 483 299 L 483 300 L 483 301 L 483 302 L 483 303 L 483 304 L 483 305 L 483 306 L 483 307 L 483 308 L 483 309 L 483 310 L 483 311 L 483 312 L 483 313 L 483 314 L 483 315 L 483 316 L 483 317 L 483 318 L 483 319 L 483 320 L 483 321 L 483 322 L 483 323 L 483 324 L 483 325 L 483 326 L 483 327 L 483 328 L 483 329 L 483 330 L 483 331 L 483 332 L 483 333 L 483 334 L 483 335 L 483 336 L 483 337 L 483 338 L 483 339 L 483 340 L 483 341 L 483 342 L 483 343 L 483 344 L 483 345 L 483 346 L 483 347 L 483 348 L 483 349 L 483 350 L 483 351 L 483 352 L 483 353 L 483 354 L 483 355 L 483 356 L 483 357 L 483 358 L 483 359 L 483 360 L 483 361 L 483 362 L 483 363 L 483 364 L 483 365 L 483 366 L 483 367 L 483 368 L 483 369 L 483 370 L 483 371 L 483 372 L 483 373 L 483 374 L 483 375 L 483 376 L 483 377 L 483 378 L 483 379 L 483 380 L 483 381 L 483 382 L 483 383 L 483 384 L 483 385 L 483 386 L 483 387 L 483 388 L 483 389 L 483 390 L 483 391 L 483 392 L 483 393 L 483 394 L 483 395 L 483 396 L 483 397 L 483 398 L 483 399 L 483 400 L 483 401 L 483 402 L 483 403 L 483 404 L 483 405 L 483 406 L 483 407 L 483 408 L 483 409 L 483 410 L 483 411 L 483 412 L 483 413 L 483 414 L 483 415 L 483 416 L 483 417 L 483 418 L 483 419 L 483 420 L 483 421 L 483 422 L 483 423 L 483 424 L 483 425 L 483 426 L 483 427 L 483 428 L 482 429 L 481 428 L 480 428 L 479 428 L 478 427 L 477 427 L 476 427 L 475 427 L 474 426 L 473 426 L 472 426 L 471 426 L 470 426 L 469 425 L 468 425 L 467 425 L 466 425 L 465 424 L 464 424 L 463 424 L 462 424 L 461 423 L 460 423 L 459 423 L 458 423 L 457 423 L 456 422 L 455 422 L 454 422 L 453 422 L 452 422 L 451 421 L 450 421 L 449 421 L 448 421 L 447 421 L 446 420 L 445 420 L 444 420 L 443 420 L 442 420 L 441 420 L 440 419 L 439 419 L 438 419 L 437 419 L 436 419 L 435 419 L 434 418 L 433 418 L 432 418 L 431 418 L 430 418 L 429 418 L 428 418 L 427 417 L 426 417 L 425 417 L 424 417 L 423 417 L 422 417 L 421 417 L 420 416 L 419 416 L 418 416 L 417 416 L 416 416 L 415 416 L 414 416 L 413 416 L 412 415 L 411 415 L 410 415 L 409 415 L 408 415 L 407 415 L 406 415 L 405 415 L 404 415 L 403 415 L 402 415 L 401 414 L 400 414 L 399 414 L 398 414 L 397 414 L 396 414 L 395 414 L 394 414 L 393 414 L 392 414 L 391 414 L 390 414 L 389 414 L 388 414 L 387 414 L 386 414 L 385 414 L 384 414 L 383 414 L 382 414 L 381 414 L 380 413 L 379 413 L 378 413 L 377 413 L 376 413 L 375 413 L 374 413 L 373 413 L 372 413 L 371 413 L 370 413 L 369 413 L 368 413 L 367 414 L 366 414 L 365 414 L 364 414 L 363 414 L 362 414 L 361 414 L 360 414 L 359 414 L 358 414 L 357 414 L 356 414 L 355 414 L 354 414 L 353 414 L 352 414 L 351 414 L 350 414 L 349 414 L 348 414 L 347 415 L 346 415 L 345 415 L 344 415 L 343 415 L 342 415 L 341 415 L 340 415 L 339 415 L 338 415 L 337 416 L 336 416 L 335 416 L 334 416 L 333 416 L 332 416 L 331 416 L 330 416 L 329 417 L 328 417 L 327 417 L 326 417 L 325 417 L 324 417 L 323 417 L 322 418 L 321 418 L 320 418 L 319 418 L 318 418 L 317 419 L 316 419 L 315 419 L 314 419 L 313 419 L 312 419 L 311 420 L 310 420 L 309 420 L 308 420 L 307 421 L 306 421 L 305 421 L 304 421 L 303 421 L 302 422 L 301 422 L 300 422 L 299 422 L 298 423 L 297 423 L 296 423 L 295 423 L 294 424 L 293 424 L 292 424 L 291 425 L 290 425 L 289 425 L 288 425 L 287 426 L 286 426 L 285 425 L 286 424 L 287 423 L 288 423 L 289 422 L 290 421 L 291 421 L 292 420 L 293 419 L 294 419 L 295 418 L 296 418 L 297 417 L 298 416 L 299 416 L 300 415 L 301 414 L 302 414 L 303 413 L 304 413 L 305 412 L 306 412 L 307 411 L 308 410 L 309 410 L 310 409 L 311 409 L 312 408 L 313 408 L 314 407 L 315 406 L 316 406 L 317 405 L 318 405 L 319 404 L 320 404 L 321 403 L 322 403 L 323 402 L 324 402 L 325 401 L 326 401 L 327 400 L 328 400 L 329 399 L 330 399 L 331 398 L 332 398 L 333 398 L 334 397 L 335 397 L 336 396 L 337 396 L 338 395 L 339 395 L 340 394 L 341 394 L 342 394 L 343 393 L 344 393 L 345 392 L 346 392 L 347 392 L 348 391 L 349 391 L 350 391 L 351 390 L 352 390 L 353 389 L 354 389 L 355 389 L 356 388 L 357 388 L 358 388 L 359 387 L 360 387 L 361 387 L 362 387 L 363 386 L 364 386 L 365 386 L 366 385 L 367 385 L 368 385 L 369 385 L 370 384 L 371 384 L 372 384 L 373 384 L 374 383 L 375 383 L 376 383 L 377 383 L 378 382 L 379 382 L 380 382 L 381 382 L 382 382 L 383 381 L 384 381 L 385 381 L 386 381 L 387 381 L 388 381 L 389 380 L 390 380 L 391 380 L 392 380 L 393 380 L 394 380 L 395 380 L 396 379 L 397 379 L 398 379 L 399 379 L 400 379 L 401 379 L 402 379 L 403 379 L 404 379 L 405 379 L 406 379 L 407 378 L 408 378 L 409 378 L 410 378 L 411 378 L 412 378 L 413 378 L 414 378 L 415 378 L 416 378 L 417 378 L 418 378 L 419 378 L 420 378 L 421 378 L 422 378 L 423 378 L 424 379 L 425 379 L 426 379 L 427 379 L 428 379 L 429 379 L 430 379 L 431 379 L 432 379 L 433 379 L 434 379 L 435 379 L 436 380 L 437 380 L 438 380 L 439 380 L 440 380 L 441 380 L 442 380 L 443 381 L 444 381 L 445 381 L 446 381 L 447 380 L 448 380 L 449 380 L 450 380 L 451 379 L 452 379 L 453 378 L 454 377 L 455 376 L 456 375 L 456 374 L 457 373 L 457 372 L 458 371 L 458 370 L 458 369 L 458 368 L 458 367 L 458 366 L 458 365 L 458 364 L 458 363 L 458 362 L 458 361 L 458 360 L 458 359 L 458 358 L 458 357 L 458 356 L 458 355 L 458 354 L 458 353 L 458 352 L 458 351 L 458 350 L 458 349 L 458 348 L 458 347 L 458 346 L 458 345 L 458 344 L 458 343 L 458 342 L 458 341 L 458 340 L 458 339 L 458 338 L 458 337 L 458 336 L 458 335 L 458 334 L 458 333 L 458 332 L 458 331 L 458 330 L 458 329 L 458 328 L 458 327 L 458 326 L 458 325 L 458 324 L 458 323 L 458 322 L 458 321 L 458 320 L 458 319 L 458 318 L 458 317 L 458 316 L 458 315 L 458 314 L 458 313 L 458 312 L 458 311 L 458 310 L 458 309 L 458 308 L 458 307 L 458 306 L 458 305 L 458 304 L 458 303 L 458 302 L 458 301 L 458 300 L 458 299 L 458 298 L 458 297 L 458 296 L 458 295 L 458 294 L 458 293 L 458 292 L 458 291 L 458 290 L 458 289 L 458 288 L 458 287 L 458 286 L 458 285 L 458 284 L 458 283 L 458 282 L 458 281 L 458 280 L 458 279 L 458 278 L 458 277 L 458 276 L 458 275 L 458 274 L 458 273 L 458 272 L 458 271 L 458 270 L 458 269 L 458 268 L 458 267 L 458 266 L 458 265 L 458 264 L 458 263 L 458 262 L 458 261 L 458 260 L 458 259 L 458 258 L 458 257 L 458 256 L 458 255 L 458 254 L 458 253 L 458 252 L 458 251 L 458 250 L 458 249 L 458 248 L 458 247 L 458 246 L 458 245 L 458 244 L 458 243 L 458 242 L 458 241 L 458 240 L 458 239 L 458 238 L 458 237 L 458 236 L 458 235 L 458 234 L 458 233 L 458 232 L 458 231 L 458 230 L 458 229 L 458 228 L 458 227 L 458 226 L 458 225 L 458 224 L 458 223 L 458 222 L 458 221 L 458 220 L 458 219 L 458 218 L 458 217 L 458 216 L 458 215 L 458 214 L 458 213 L 458 212 L 458 211 L 458 210 L 458 209 L 458 208 L 458 207 L 458 206 L 458 205 L 458 204 L 458 203 L 458 202 L 458 201 L 458 200 L 458 199 L 458 198 L 458 197 L 458 196 L 458 195 L 458 194 L 458 193 L 458 192 L 458 191 L 458 190 L 458 189 L 458 188 L 458 187 L 458 186 L 458 185 L 458 184 L 458 183 L 458 182 L 458 181 L 458 180 L 458 179 L 458 178 L 458 177 L 458 176 L 458 175 L 458 174 L 458 173 L 458 172 L 458 171 L 458 170 L 458 169 L 458 168 L 458 167 L 458 166 L 458 165 L 458 164 L 458 163 L 458 162 L 458 161 L 458 160 L 458 159 L 458 158 L 458 157 L 458 156 L 458 155 L 458 154 L 458 153 L 458 152 L 458 151 L 458 150 L 458 149 L 458 148 L 458 147 L 458 146 L 458 145 L 458 144 L 458 143 L 458 142 L 458 141 L 458 140 L 458 139 Z" fill="#000" fill-rule="evenodd" clip-rule="evenodd"/>
</svg>
