<svg xmlns="http://www.w3.org/2000/svg" width="512" height="512" viewBox="0 0 512 512">
  <g fill="none" stroke="#B88F4E" stroke-width="16" stroke-linecap="round" stroke-linejoin="round">
    <path d="M 263.4 97.3 L 302.6 177.7 Q 310.0 193.0 326.8 195.5 L 415.2 208.5 Q 432.0 211.0 419.8 222.9 L 356.2 285.1 Q 344.0 297.0 346.9 313.8 L 362.1 402.2 Q 365.0 419.0 350.0 411.0 L 271.0 369.0 Q 256.0 361.0 241.0 369.0 L 162.0 411.0 Q 147.0 419.0 149.9 402.2 L 165.1 313.8 Q 168.0 297.0 155.8 285.1 L 92.2 222.9 Q 80.0 211.0 96.8 208.5 L 185.2 195.5 Q 202.0 193.0 209.4 177.7 L 248.6 97.3 Q 256.0 82.0 263.4 97.3 Z"/>
  </g>
</svg>
