<svg xmlns="http://www.w3.org/2000/svg" width="1584" height="1586.667" viewBox="0 0 1188 1190"><path d="M0 137.5C0 215.4.4 275 .9 275s5.3-2.1 10.7-4.6c43.4-20.1 95.6-35.2 143.4-41.3 20.1-2.6 25.8-3.1 47.3-4 9.8-.5 17.9-1 18.2-1.3.2-.2.9-10.5 1.5-22.9 3.3-70.2 16.8-127.7 44.4-189.7C268.9 5.6 271 .7 271 .5c0-.3-61-.5-135.5-.5H0zM294 3.6c23.6 4.4 61.6 13.8 83.5 20.7 37.4 11.8 66.4 23.5 103 41.7 39.7 19.7 73.4 40.3 107.2 65.3 11.9 8.9 14.4 10.3 15.4 9.1 2.2-2.7 32.4-25 45.4-33.6 83.5-55 172.2-85.4 274.7-94.4l7.7-.6 1.5 3.7c27.5 65.7 46.4 139.4 49.8 194l.3 4 6 .2c62.7 2.4 117.6 13.9 174.8 36.5 15.1 6.1 17.7 7.4 17.7 9.2 0 3.7-5.8 38.6-9.1 54.6-15.5 76.3-44.7 151.8-84.9 219.5-8.3 14-26.8 42.2-34.2 52.3l-3.9 5.3 5.1 6.2c30.6 36.8 54.7 73.4 75 114.2 13.4 27 22 47.7 31 74.5 13.4 40.1 19.9 69.4 26.9 122 .5 3.7.9-189.1 1-450.8L1188 0 731.8.1 275.5.2z"/><path d="M291.9 45.6c-9.4 22.1-19.7 56.9-25.4 86.3-4.7 24.4-8.5 62.3-8.5 85.2v7.6l3.1.7c1.7.3 4.9.6 7 .6 7.1 0 36.4 4.1 53.4 7.5 20.5 4.1 44.2 10.8 62.5 17.7 57.6 21.5 85.1 42.1 182.1 136l27.6 26.7 28.8-29.7c45.7-47.1 78.2-78 101.5-96.7 49.6-39.7 124.4-66 206.4-72.5 7.1-.5 13.5-1 14.3-1 1 0 1.2-1.1.8-4.8-2-18.8-2.9-25.5-5.1-38.7-5.6-33.6-17.1-75.6-30.9-112.3l-2.8-7.3-5.1.6C795.5 64.7 695.8 109 614.7 178.9c-6.4 5.5-12.2 10.1-12.7 10.1s-6.7-4.7-13.7-10.3C507.6 113.4 411.1 66.6 312.5 45c-7.7-1.7-15-3.3-16.3-3.5-1.9-.5-2.6.2-4.3 4.1M629 310.5 602.5 337 576 310.5 549.5 284l26.5-26.5 26.5-26.5 26.5 26.5 26.5 26.5zM982.6 262.6c-2 38.8-10.7 76.7-25.3 110.4-5.1 11.8-7.5 16.2-14.7 27-19.1 28.8-62.6 78.9-143.4 164.8l-28.4 30.3 6.4 6.7c3.5 3.7 25 26.3 47.9 50.2 79.8 83.6 95.6 101.3 111.4 125.1 25.8 38.7 41.8 89 45.7 143.9.6 9.1 1.2 16.6 1.3 16.8.4.6 32-3.9 44-6.3 35.9-7.1 78.5-20.2 114-34.9l6-2.5-.3-4.1c-.5-7.3-5.1-30.9-9.8-49.8-11.3-46.3-30.9-95.4-54.6-137.2-16.7-29.5-41.2-63.8-63.9-89.3-6.3-7.1-12.9-14.6-14.7-16.7l-3.3-3.8 12.3-16.4c62-82.3 103.3-173.8 123.2-272.8 5.1-25.7 5.8-22.6-5.4-26.7-15-5.4-45.1-13.9-61.5-17.2-25.1-5.1-46.7-7.7-77.1-9.5l-9.1-.6z"/><path d="M925.5 252.1c-47.3 4.5-96 17.8-136 37.3-21 10.3-39.6 23.5-65 46-11.9 10.6-99.1 97.9-100.6 100.8-.8 1.4 5.3 8.4 34.5 39.5 19.4 20.8 47.3 49.6 61.8 64.1l26.5 26.3 42.4-44.8c89.2-94.1 102.2-108.7 118.2-132.8 21.4-32.4 35.7-79.1 38.5-125.4l.7-12.1-6 .1c-3.3.1-10 .6-15 1M201 261.7c-52.5 2.8-100.3 12.9-147.4 31.1l-11.8 4.6.6 4.8c.4 2.7 3.3 15.4 6.5 28.1 24.3 96.4 70.6 187.8 133.5 263.7 4.3 5.2 8.1 10 8.3 10.7.3.6-4.5 6.9-10.5 14-67.9 79.7-111.1 176.8-124.6 280.8-.8 6-1.4 11-1.3 11.1s7.2 2.7 15.7 5.7c36.4 12.9 72.2 22.3 105.6 27.7 12.6 2.1 37.6 5 43 5h3.1l.6-14.8c2.4-55.3 18.1-117.6 41.3-163.3 18.1-35.7 48-71.8 124.7-150.8 13.6-13.9 24.7-25.6 24.7-26s-13.6-14.7-30.1-31.7c-64.8-66.5-93.4-99.8-111.1-129.6-19.4-32.7-35.4-78.7-43.2-123.8-3-16.9-5.6-37.6-5.6-43.7V261l-8.2.2c-4.6.1-10.8.3-13.8.5"/><path d="M259.6 264.7c6.3 56.4 17.8 98.8 37.5 137.5 16.3 31.9 46.1 67.3 119.1 141.3l23.7 24 63.5-63.5c35-34.9 63.6-63.8 63.6-64.1 0-.7-57.9-56.4-76-73.1-55.4-51.2-80.8-67.8-128.9-84.2-29.9-10.3-60.6-16.7-96.2-20.1l-6.6-.6zM.1 733.7 0 1190h136c74.8 0 136-.2 136-.4s-2.3-5.4-5-11.6c-26.1-57.7-40.9-117.7-44.6-180.2l-.7-11.7-6.6-.6c-3.6-.3-13.1-1.2-21.1-2.1-49.3-5.1-104.6-19.5-163.2-42.4l-15.6-6.1.4-5.7c1.4-16.1 4.7-44.1 6.5-54.7 15.8-94 52.7-179.6 109.8-254.8 6.1-8.1 11.1-14.9 11.1-15.1 0-.3-4.2-6-9.4-12.8-36.2-47.7-70.1-108.4-92.9-166.3C24.5 384.1 12.1 340.7 3.5 295L.2 277.5zM553.4 510.7c-22.5 24.1-50.3 53.7-61.6 65.9l-20.6 22.1 47.1 47c26 25.9 54.4 53.4 63.1 61.1l16 14.1 14-13.2c7.7-7.3 18.8-17.9 24.6-23.7 14.5-14.4 82.5-87.7 82.5-89 0-1.8-49.4-53.5-87.2-91.3L594.5 467zM409.8 651.2c-94.2 97.7-111.5 121.5-131.3 180.4-7.5 22.2-14.5 54-17.5 78.9-.9 8-3 33.7-3 37.4 0 1.1 1.7 1.3 9.7.7 45.5-3.2 92.2-17.9 124.3-39.3 23.2-15.4 35.9-26.8 124.6-111.5l52.1-49.8-16.6-16.3c-14.8-14.5-36.1-33.5-99.3-88.5-10.2-8.9-18.8-16.2-19.1-16.2s-11 10.9-23.9 24.2M738 639.7c-58.9 54.9-76.3 71.7-92 88.7L628 748l47.7 42.8c95.2 85.1 112.9 99.9 134.8 113.2 33.2 20.1 77.9 32.9 121 34.7l15 .6-.7-12.6c-2.6-47.1-17.1-94.2-39.5-128.2-10.6-16.1-27.6-36.1-57.2-67.5-17.7-18.7-98.2-103-98.4-103-.1 0-5.8 5.3-12.7 11.7"/><path d="M592.4 776.1c-17.5 18-90.9 87.1-119.4 112.4-48.1 42.8-73.4 61.3-98.3 71.9-33.3 14.2-67.2 22.2-106.6 25.1l-9.4.7.7 12.5c2 37 11.1 83.6 23.6 119.7 3.9 11.4 10.9 29.7 11.6 30.5.7.7 34.2-7.2 52.4-12.4 90.1-25.9 170.5-68.1 242.9-127.3l12.3-10.2 3.2 2.8c35.7 30.2 52.8 42.7 83.1 60.9 61.5 36.9 128.8 60.9 200 71.3 20.7 3 18.8 3.5 22.5-6.8 17.2-47.2 29-95.6 33-134.2.6-5.8 1.2-11.9 1.4-13.6l.4-3.1-13.7-.7c-56.8-2.7-108.4-18.4-149-45.3-24.2-16.1-41.7-31-151.5-129.3-17.5-15.7-32.4-28.8-33-29.2-.8-.4-3.2 1.3-6.2 4.3m36.8 102.6c14.2 14.2 25.8 26.2 25.8 26.8 0 1.3-51.2 52.5-52.5 52.5S550 906.8 550 905.5s51.2-52.5 52.5-52.5c.5 0 12.6 11.6 26.7 25.7"/><path d="M1172.5 923.6c-58.7 25.5-119.9 43.1-170 48.9-22.7 2.6-20.5 1.8-20.5 7.3 0 7-2.7 29.8-5.6 46.2-7.2 42.3-20.6 88.9-38.4 133.7l-5.8 14.8-9.3-.2c-27.5-.7-77.2-9.2-113.1-19.4-70.3-19.9-134.9-52.1-193.7-96.6l-14.4-10.9-14.6 10.9c-84.5 63.6-183.7 107.2-291.6 128.2l-17 3.3 454.8.1 454.7.1v-136.5c0-75.1-.1-136.5-.2-136.5-.2.1-7 3-15.3 6.6"/></svg>