<?xml version="1.0" encoding="UTF-8"?>
<svg xmlns="http://www.w3.org/2000/svg" width="528" height="179" viewBox="0 0 528 179" fill="none">
  <g clip-path="url(#clip0_6033_8562)">
    <path d="M202.22 108.004C200.53 127.354 213.72 143.354 232.28 145.594L229.69 175.234C210.14 173.924 193.61 164.144 183.41 149.524C170.65 164.144 152.41 173.924 132.63 175.234L135.22 145.594C154.17 143.354 170.17 127.354 171.86 108.004C173.55 88.6541 160.36 72.6541 141.8 70.4141L144.39 40.7741C163.94 42.0841 180.47 51.8641 190.67 66.4841C203.43 51.8641 221.67 42.0841 241.45 40.7741L238.86 70.4141C219.91 72.6541 203.91 88.6541 202.22 108.004ZM193.58 33.2741C202.75 34.0741 210.84 27.2941 211.64 18.1241C212.44 8.95411 205.66 0.864109 196.49 0.0641087C187.32 -0.735891 179.23 6.04411 178.43 15.2141C177.63 24.3841 184.41 32.4741 193.58 33.2741Z" fill="#ED2124"></path>
    <path d="M465.02 132.324L470.66 67.8841H453.39L455.75 40.9241H473.02L475.99 6.99414H505.26L502.29 40.9241H527.34L524.98 67.8841H499.93L494.44 130.614C493.24 144.294 497.79 148.104 509.78 148.104H517.95L515.59 175.064H505.7C474.72 175.064 462.33 162.964 465.01 132.324H465.02Z" fill="#1A2745"></path>
    <path d="M340.72 174.274C331.71 171.774 323.6 168.094 317.14 163.494L334.18 140.484C338.98 144.434 344.66 147.324 351.21 149.294C358.01 151.394 365.96 152.454 374.27 152.454C383.1 152.454 389.93 151.274 394.77 148.644C399.6 146.144 402.2 142.064 402.65 136.944C403.28 129.714 399.45 123.794 380.17 121.164L364.69 118.794C339.32 114.984 325.84 101.694 327.83 78.9441C329.03 65.2641 335.22 54.7441 345.85 47.7741C356.19 41.0641 370.58 37.9141 387.32 37.9141C396.55 37.9141 405.7 38.8341 413.31 40.6741C422.48 42.9141 430.6 46.4641 437.43 51.3241L420.69 73.9441C416 70.2641 410.43 67.6341 403.99 65.9241C397.93 64.3441 391.01 63.5541 384.29 63.5541C375.85 63.5541 369.95 64.7341 365.25 67.2341C360.43 69.6041 357.75 73.1541 357.29 78.4141C356.56 86.6941 361.97 91.1741 376.68 93.4041L392.16 95.7741C422.34 100.374 434.18 114.314 432.31 135.624C431.06 149.954 424.18 160.744 413.68 167.714C402.9 174.944 388.25 178.104 371.24 178.104C360.3 178.104 349.87 176.784 340.72 174.294V174.274Z" fill="#1A2745"></path>
    <path d="M269.72 40.9341H299.25L287.51 175.064H257.98L269.72 40.9341Z" fill="#1A2745"></path>
    <path d="M8.98007 158.894C1.46007 148.374 -1.55993 134.694 0.770073 108.004C3.07007 81.7041 8.51007 67.7641 17.8801 57.1141C28.7101 44.8841 43.9501 37.9141 64.5201 37.9141C85.0901 37.9141 99.2701 44.6241 107.93 57.1141C115.3 67.7641 118.05 81.5741 115.75 107.874L114.82 118.524H28.8601C28.2901 132.594 29.8801 138.514 33.8001 143.374C37.9401 148.764 44.6101 152.444 56.2101 152.444C63.7201 152.444 70.5901 150.864 76.2301 148.104C81.6001 145.474 86.0501 141.394 89.4101 136.134L111.32 150.864C105.43 159.414 97.5801 166.254 88.2101 170.854C78.4401 175.584 66.6201 178.084 53.5601 178.084C32.2001 178.084 17.8901 171.374 8.97007 158.884L8.98007 158.894ZM87.7101 95.2441C88.3501 83.4141 86.9901 77.8841 83.9501 73.4141C79.9901 67.4941 73.1901 63.8141 62.3801 63.8141C51.5701 63.8141 43.8401 67.7541 39.0101 73.2841C35.0501 77.8841 32.7201 83.4141 31.0201 95.2441H87.7101Z" fill="#1A2745"></path>
  </g>
  <defs>
    <clipPath id="clip0_6033_8562">
      <rect width="527.34" height="178.104" fill="white"></rect>
    </clipPath>
  </defs>
</svg>
