<svg
   xmlns:dc="http://purl.org/dc/elements/1.1/"
   xmlns:cc="http://creativecommons.org/ns#"
   xmlns:rdf="http://www.w3.org/1999/02/22-rdf-syntax-ns#"
   xmlns:svg="http://www.w3.org/2000/svg"
   xmlns="http://www.w3.org/2000/svg"
   version="1.0"
   width="531.49603"
   height="531.50269"
   id="svg31506">
  <defs
     id="defs31508" />
  <path
     d="m 0,531.50271 531.49606,0 L 531.49606,0 0,0 0,531.50271 z"
     id="path31196"
     style="fill:#ed1c24;fill-opacity:1;fill-rule:nonzero;stroke:none" />
  <path
     d="m 0,531.50271 531.49606,0 L 531.49606,0 0,0 0,531.50271 z"
     id="path31198"
     style="fill:#ed1c24;fill-opacity:1;fill-rule:nonzero;stroke:none" />
  <path
     d="m 202.73555,158.67383 10.68424,0 c 1.11943,-10.8432 4.19288,-24.21672 16.53308,-35.41099 10.87633,-9.8695 24.19022,-14.43995 38.23274,-14.43995 25.92567,0 45.49909,16.14228 63.03899,16.14228 l 0,11.43273 c -20.3749,0 -39.10709,-16.37411 -63.03899,-16.37411 -10.57825,0 -21.45458,3.62324 -30.1053,11.47247 -7.98834,7.24647 -11.16778,15.93032 -12.51242,27.17757 l 22.70649,0 c 5.63025,0 6.31913,-2.37132 6.31913,-6.5046 0,-9.47869 7.82275,-17.52665 18.53348,-17.52665 14.7314,0 30.40338,7.45844 48.82425,7.45844 3.74246,0 6.82917,-0.23846 10.67099,-0.92072 l 0,2.98073 c -9.48533,4.81552 -20.87831,6.69669 -34.28494,6.69669 -11.9229,0 -15.61899,-1.00683 -21.01079,-1.00683 -8.10094,0 -11.99576,2.43095 -11.99576,8.13407 0,3.19931 2.42432,12.34681 2.42432,12.34681 l -43.12775,0 c -0.56965,8.08108 -1.2784,18.23541 -1.78181,24.94535 l 12.32032,0 0,13.36689 c 8.06783,2.72901 15.71835,7.84261 15.71835,17.98369 0,8.8097 -6.61058,14.32735 -15.71835,17.29482 l 0,13.15493 c 1.82156,0.4438 6.35888,0.71537 9.05478,0.71537 8.02808,0 16.97687,-1.82155 21.77915,-4.51083 l 0,31.93349 -12.11498,0 0,-16.80466 c -2.77539,0.54978 -7.10075,1.03995 -10.49877,1.03995 -9.49196,0 -13.68484,-1.0267 -20.33516,-2.76877 l 0,-30.74119 c 5.54414,-1.03332 15.49313,-3.39803 15.49313,-9.31311 0,-6.36549 -9.91587,-8.55798 -15.49313,-10.00198 l 0,-9.69066 -13.22779,0 c 0.90747,-12.2011 1.84143,-24.40219 2.70915,-36.60329 l -9.79665,0 0,-11.65794 m 303.07997,203.75563 -13.96968,0 c -0.4173,-1.1393 -0.70212,-2.28522 -0.85446,-3.45102 -0.15234,-1.16579 -0.31134,-2.33158 -0.46368,-3.504 -0.48354,-4.45784 -1.90764,-7.51805 -4.27902,-9.18725 -2.37792,-1.67583 -6.21972,-2.46407 -11.53206,-2.38458 l -10.0152,0 0,18.52685 -12.47934,0 0,-48.8375 28.64148,0 c 2.1726,-0.0132 4.37832,0.053 6.61056,0.19209 2.23884,0.14573 4.39824,0.4438 6.47808,0.90747 3.45768,0.8611 6.14694,2.4177 8.06124,4.6698 1.9209,2.2521 2.89458,4.86851 2.9211,7.84924 0.0331,3.41127 -0.82134,6.35225 -2.5767,8.83619 -1.7553,2.47731 -4.61676,4.26574 -8.57784,5.37192 2.47734,0.6955 4.37172,1.51686 5.68986,2.45744 1.31154,0.94721 2.46408,2.4442 3.44442,4.49758 0.74184,1.61622 1.19226,3.28542 1.35126,4.99437 0.15894,1.70895 0.32454,3.41127 0.49674,5.10697 0.17226,1.35126 0.52332,2.66941 1.05324,3.95443 z m -14.5857,-33.97362 c -0.053,-2.46407 -0.9141,-4.12002 -2.57664,-4.96788 -1.6692,-0.84785 -3.8286,-1.23865 -6.47148,-1.17904 l -17.48028,0 0,12.88335 17.48028,0 c 2.87472,0.0464 5.1003,-0.43055 6.66354,-1.4175 1.56984,-0.99357 2.36472,-2.76213 2.38458,-5.31893 m -49.57272,33.94712 -16.2549,0 c -2.60316,0.0199 -5.36532,-0.0729 -8.2665,-0.29144 -2.9079,-0.21859 -5.59716,-0.68226 -8.0745,-1.39101 -3.60336,-1.16579 -6.47148,-3.00722 -8.5977,-5.52427 -2.12628,-2.52368 -3.64314,-5.35206 -4.55718,-8.47188 -0.91412,-3.12645 -1.36454,-6.17341 -1.33804,-9.14089 -0.0397,-4.32536 0.93394,-8.41226 2.92114,-12.2607 1.98048,-3.85507 5.19966,-6.98814 9.64428,-9.41247 2.0004,-0.99357 4.1664,-1.63608 6.48474,-1.94078 2.32494,-0.29807 4.64328,-0.43055 6.95502,-0.39743 l 21.08364,0 0,8.71034 -16.2549,0 c -1.40424,-0.0132 -3.05358,0.0331 -4.94796,0.1391 -1.90104,0.0994 -3.53052,0.35106 -4.88844,0.74187 -1.71552,0.56965 -3.11982,1.47049 -4.21938,2.70914 -1.0068,1.14593 -1.6692,2.39783 -1.97388,3.75572 -0.31134,1.3645 -0.52992,2.74226 -0.6624,4.14651 l 32.94696,0 0,8.6441 -32.94696,0 c 0.3246,3.0867 1.17906,5.45141 2.57004,7.0875 1.39104,1.63608 3.31194,2.74889 5.75616,3.34503 2.44416,0.59615 5.41164,0.87435 8.89578,0.84123 l 15.72498,0 0,8.71033 m -46.61853,-48.79112 -25.65409,48.83749 -12.47267,0 -24.68701,-48.83749 14.05577,0 17.21533,36.75563 17.48691,-36.75563 14.05576,0 M 303,313.3125 c -9.96225,0.0199 -17.27908,2.13762 -21.96875,6.34375 -4.68305,4.21275 -7.01515,10.41145 -6.96875,18.625 -0.0331,2.23885 0.20871,4.48176 0.71875,6.6875 0.32456,1.38438 0.76935,2.75387 1.3125,4.125 1.39763,3.56362 3.87388,6.54154 7.4375,8.90625 2.82175,1.70232 6.05578,2.90776 9.71875,3.65625 3.66961,0.74187 7.2071,1.11365 10.625,1.09375 9.41246,-0.0397 16.43244,-2.12336 21.0625,-6.25 3.28542,-2.93436 5.42117,-6.76872 6.375,-11.53125 0.38418,-1.95403 0.5625,-4.06039 0.5625,-6.3125 0.0596,-8.23342 -2.22694,-14.50038 -6.84375,-18.8125 C 320.40782,315.53164 313.06159,313.3456 303,313.3125 z m 0.0937,8.21875 c 4.04717,0.0397 7.15126,0.78613 9.34375,2.25 2.19249,1.45724 3.70327,3.41756 4.53125,5.875 0.82797,2.45081 1.2272,5.17366 1.1875,8.1875 0.0331,2.55017 -0.22485,4.93251 -0.78125,7.125 -0.10598,0.40405 -0.19327,0.79669 -0.3125,1.1875 -0.79485,2.51043 -2.29613,4.5144 -4.46875,6.03125 -2.17261,1.52348 -5.29948,2.30405 -9.40625,2.34375 -4.13327,-0.0331 -7.31889,-0.79089 -9.53125,-2.28125 -2.21236,-1.49036 -3.74115,-3.47156 -4.5625,-5.96875 -0.1391,-0.43054 -0.2624,-0.86871 -0.375,-1.3125 -0.56303,-2.15275 -0.81435,-4.52557 -0.78125,-7.0625 -0.0398,-3.06021 0.33489,-5.81719 1.15625,-8.28125 0.81473,-2.46407 2.32551,-4.41776 4.53125,-5.875 2.19911,-1.45062 5.36861,-2.18565 9.46875,-2.21875 z m -37.97497,40.91808 -15.37391,0 -23.80604,-35.8018 0,35.8018 -11.94939,0 0,-48.83749 15.98992,0 23.28276,36.39132 0,-36.39132 11.85666,0 0,48.83749 m -63.06548,0 -15.37391,0 -23.81267,-35.8018 0,35.8018 -11.94276,0 0,-48.83749 15.9833,0 23.28276,36.39132 0,-36.39132 11.86328,0 0,48.83749 m -57.36236,0 -14.67179,0 -5.62363,-11.34662 -22.31568,0 -5.62363,11.34662 -14.57905,0 24.24321,-48.83749 14.32073,0 24.24984,48.83749 z m -23.10392,-19.99072 -8.34603,-17.12922 -8.34603,17.12922 16.69206,0 m -46.10848,19.99072 -12.39319,0 0,-20.2093 -22.66674,0 0,20.2093 -12.47267,0 0,-48.83749 12.47267,0 0,19.99071 22.66674,0 0,-19.99071 12.39319,0 0,48.83749 m 342.41886,59.22366 -16.24824,0 c -2.60976,0.0199 -5.36532,-0.0795 -8.27317,-0.29145 -2.90123,-0.21858 -5.59714,-0.68225 -8.06782,-1.391 -3.60999,-1.1658 -6.47811,-3.00722 -8.60436,-5.5309 -2.12625,-2.52368 -3.6431,-5.34543 -4.55719,-8.47188 -0.91409,-3.11982 -1.35789,-6.16678 -1.33802,-9.13426 -0.0397,-4.32536 0.93396,-8.41226 2.92112,-12.26733 1.98052,-3.84845 5.1997,-6.98152 9.64429,-9.40584 2.0004,-0.99357 4.16639,-1.64271 6.49135,-1.94078 2.31835,-0.29807 4.63669,-0.43055 6.9484,-0.40405 l 21.08364,0 0,8.71696 -16.24824,0 c -1.40424,-0.0132 -3.06018,0.0331 -4.95462,0.13247 -1.90105,0.10598 -3.53051,0.35769 -4.8884,0.74187 -1.71556,0.57627 -3.11982,1.47712 -4.21938,2.70915 -1.00681,1.15254 -1.6692,2.40445 -1.97389,3.76233 -0.3047,1.35789 -0.52991,2.74227 -0.66239,4.14652 l 32.94692,0 0,8.63748 -32.94692,0 c 0.32457,3.09332 1.18567,5.4514 2.57667,7.08749 1.38438,1.63609 3.30529,2.75551 5.74949,3.35166 2.44422,0.58952 5.41164,0.87434 8.89578,0.8346 l 15.72498,0 0,8.71696 m -54.69957,-14.42007 c 0.007,1.74206 -0.31133,3.45763 -0.94059,5.14009 -0.63588,1.68907 -1.60959,3.21918 -2.92111,4.59693 -1.65595,1.64934 -3.49738,2.80188 -5.52427,3.45764 -2.03352,0.66238 -4.18626,1.03995 -6.45824,1.1393 -2.27197,0.0927 -4.59693,0.12586 -6.96826,0.0861 l -29.43631,0 0,-8.71034 26.72054,0 c 1.68907,0.0331 3.41789,-0.0397 5.1997,-0.22521 1.77519,-0.17884 3.28542,-0.67563 4.51745,-1.47711 1.23204,-0.80148 1.88117,-2.113 1.92754,-3.93456 -0.0397,-1.6692 -0.74187,-3.0867 -2.09975,-4.24587 -1.04657,-0.84785 -2.3051,-1.38438 -3.76896,-1.60959 -1.45725,-0.22521 -2.89462,-0.32457 -4.29225,-0.29145 l -10.77034,0 c -1.74869,0.007 -3.59674,-0.0861 -5.55077,-0.2782 -1.95403,-0.19209 -3.76233,-0.53653 -5.43817,-1.03994 -3.01384,-1.07306 -5.31231,-2.77538 -6.88878,-5.12022 -1.57647,-2.33821 -2.37133,-4.8354 -2.38458,-7.4783 0.0132,-2.0269 0.51666,-4.06041 1.51023,-6.09393 1.0002,-2.02689 2.40446,-3.72921 4.23263,-5.10697 2.39121,-1.60297 5.0871,-2.56342 8.08107,-2.86812 3.0006,-0.31132 5.98794,-0.43055 8.9753,-0.35106 l 28.9395,0 0,8.71034 -26.131,0 c -1.82818,-0.0397 -3.63649,-0.0199 -5.42492,0.0729 -1.78181,0.0927 -3.27217,0.51666 -4.45784,1.27177 -1.19229,0.76174 -1.81492,2.11963 -1.86129,4.07366 0.0464,1.72882 0.61601,2.99397 1.7222,3.78883 1.09955,0.79486 2.46406,1.29827 4.09352,1.50361 1.62946,0.21196 3.2523,0.30469 4.87514,0.27157 l 9.37272,0 c 2.27859,-0.0331 4.51082,0.053 6.70331,0.25833 2.19249,0.20534 4.34523,0.72863 6.45161,1.57648 2.87474,1.24528 4.92813,3.05358 6.17341,5.42491 1.24529,2.37134 1.85468,4.85527 1.82156,7.45844 m -61.92619,-3e-5 c 0,1.74206 -0.31132,3.45763 -0.94721,5.14009 -0.63588,1.68907 -1.60296,3.21918 -2.9211,4.59693 -1.64934,1.64934 -3.49076,2.80188 -5.52428,3.45764 -2.02689,0.66238 -4.17964,1.03995 -6.45161,1.1393 -2.27197,0.0927 -4.59693,0.12586 -6.97489,0.0861 l -29.4363,0 0,-8.71034 26.72053,0 c 1.68907,0.0331 3.42452,-0.0397 5.1997,-0.22521 1.78182,-0.17884 3.28542,-0.67563 4.52408,-1.47711 1.23204,-0.80148 1.87455,-2.113 1.92754,-3.93456 -0.0464,-1.6692 -0.74187,-3.0867 -2.09976,-4.24587 -1.04656,-0.84785 -2.30509,-1.38438 -3.76896,-1.60959 -1.46386,-0.22521 -2.89461,-0.32457 -4.29224,-0.29145 l -10.77697,0 c -1.74869,0.007 -3.59674,-0.0861 -5.55077,-0.2782 -1.9474,-0.19209 -3.76233,-0.53653 -5.43154,-1.03994 -3.01384,-1.07306 -5.31231,-2.77538 -6.88878,-5.12022 -1.5831,-2.33821 -2.37795,-4.8354 -2.38458,-7.4783 0.0132,-2.0269 0.51666,-4.06041 1.51023,-6.09393 0.99358,-2.02689 2.40445,-3.72921 4.22601,-5.10697 2.3912,-1.60297 5.0871,-2.56342 8.08769,-2.86812 2.99397,-0.31132 5.98794,-0.43055 8.97529,-0.35106 l 28.93951,0 0,8.71034 -26.13763,0 c -1.82818,-0.0397 -3.62986,-0.0199 -5.41829,0.0729 -1.78181,0.0927 -3.27217,0.51666 -4.46446,1.27177 -1.19229,0.76174 -1.80831,2.11963 -1.85468,4.07366 0.0464,1.72882 0.61602,2.99397 1.71558,3.78883 1.10618,0.79486 2.47068,1.29827 4.10015,1.50361 1.62283,0.21196 3.2523,0.30469 4.86851,0.27157 l 9.37272,0 c 2.2786,-0.0331 4.51745,0.053 6.70994,0.25833 2.19249,0.20534 4.33861,0.72863 6.45161,1.57648 2.86812,1.24528 4.92813,3.05358 6.16679,5.42491 1.24528,2.37134 1.85467,4.85527 1.82817,7.45844 m -64.50285,14.42004 -16.25488,0 c -2.60316,0.0199 -5.3653,-0.0795 -8.26654,-0.29145 -2.90786,-0.21858 -5.59714,-0.68225 -8.07445,-1.391 -3.60998,-1.1658 -6.47148,-3.00722 -8.59773,-5.5309 -2.12625,-2.52368 -3.6431,-5.34543 -4.55719,-8.47188 -0.91409,-3.11982 -1.36451,-6.16678 -1.33802,-9.13426 -0.0397,-4.32536 0.93396,-8.41226 2.92112,-12.26733 1.98052,-3.84845 5.1997,-6.98152 9.63766,-9.40584 2.00703,-0.99357 4.17302,-1.64271 6.49136,-1.94078 2.32496,-0.29807 4.64331,-0.43055 6.95502,-0.40405 l 21.08365,0 0,8.71696 -16.25488,0 c -1.40425,-0.0132 -3.05358,0.0331 -4.948,0.13247 -1.90104,0.10598 -3.5305,0.35769 -4.88839,0.74187 -1.71557,0.57627 -3.11982,1.47712 -4.21938,2.70915 -1.00681,1.15254 -1.6692,2.40445 -1.97389,3.76233 -0.31133,1.35789 -0.52991,2.74227 -0.66239,4.14652 l 32.94693,0 0,8.63748 -32.94693,0 c 0.32457,3.09332 1.17904,5.4514 2.57005,7.08749 1.391,1.63609 3.31191,2.75551 5.75611,3.35166 2.44419,0.58952 5.41167,0.87434 8.8958,0.8346 l 15.72497,0 0,8.71696 m -55.13013,0.0464 -11.94939,0 0,-36.68277 -15.2878,36.68277 -12.83036,0 -14.49294,-36.68277 0,36.68277 -11.86328,0 0,-48.8375 18.27515,0 14.58567,38.14663 15.2878,-38.14663 18.27515,0 0,48.8375"
     id="path31228"
     style="fill:#ffffff;fill-opacity:1;fill-rule:nonzero;stroke:none" />
</svg>
