<?xml version="1.0" encoding="utf-8"?>
<!-- Generator: Adobe Illustrator 24.1.2, SVG Export Plug-In . SVG Version: 6.00 Build 0)  -->
<svg version="1.1" id="Ebene_1" xmlns="http://www.w3.org/2000/svg" xmlns:xlink="http://www.w3.org/1999/xlink" x="0px" y="0px"
	 viewBox="0 0 720 174.07" style="enable-background:new 0 0 720 174.07;" xml:space="preserve">
<style type="text/css">
	.st0{clip-path:url(#SVGID_2_);fill:#E53009;}
	.st1{clip-path:url(#SVGID_2_);fill:#FFFFFF;}
</style>
<g>
	<g>
		<path d="M294.36,169.93h-36.03V29.99h-46.14V0H340.5v29.99h-46.14V169.93z"/>
		<path d="M402.69,104.72v65.21h-36.03V0h49.51c23.09,0,40.18,4.2,51.26,12.61c11.08,8.41,16.62,21.17,16.62,38.3
			c0,10-2.75,18.89-8.25,26.68c-5.5,7.79-13.29,13.89-23.36,18.31c25.57,38.2,42.23,62.88,49.98,74.04h-39.98l-40.56-65.21H402.69z
			 M402.69,75.43h11.62c11.39,0,19.8-1.9,25.22-5.7c5.42-3.8,8.14-9.76,8.14-17.9c0-8.06-2.77-13.79-8.31-17.2
			c-5.54-3.41-14.12-5.11-25.75-5.11h-10.93V75.43z"/>
		<path d="M523.8,169.93V0h36.03v169.93H523.8z"/>
		<path d="M720,53c0,18.29-5.72,32.27-17.14,41.96c-11.43,9.69-27.68,14.53-48.76,14.53h-15.46v60.44h-36.03V0h54.28
			c20.61,0,36.28,4.44,47.02,13.31C714.64,22.18,720,35.41,720,53z M638.64,79.97h11.86c11.08,0,19.37-2.19,24.87-6.57
			c5.5-4.38,8.25-10.75,8.25-19.12c0-8.45-2.31-14.68-6.92-18.71c-4.61-4.03-11.84-6.04-21.68-6.04h-16.39V79.97z"/>
	</g>
	<g>
		<defs>
			<rect id="SVGID_1_" x="0" y="5.17" width="168.91" height="166.58"/>
		</defs>
		<clipPath id="SVGID_2_">
			<use xlink:href="#SVGID_1_"  style="overflow:visible;"/>
		</clipPath>
		<path class="st0" d="M168.9,114.05v60.02h-60.02C137.9,165.96,160.79,143.07,168.9,114.05"/>
		<path class="st0" d="M0,86.71c0,45.03,36.5,81.54,81.54,81.54c45.03,0,81.54-36.51,81.54-81.54c0-45.03-36.5-81.54-81.54-81.54
			C36.5,5.17,0,41.68,0,86.71"/>
		<path class="st1" d="M43.68,86.71c0,20.91,16.95,37.86,37.86,37.86c20.91,0,37.86-16.95,37.86-37.86
			c0-20.91-16.95-37.86-37.86-37.86C60.63,48.85,43.68,65.8,43.68,86.71"/>
	</g>
</g>
</svg>
