<svg xmlns="http://www.w3.org/2000/svg" viewBox="0 0 64 64" width="64" height="64" aria-label="Das gewisse Etwas">
  <g stroke="#1F2937" stroke-width="2.4" stroke-linecap="round" stroke-linejoin="round" fill="none">
    <path d="M21 44c1.4-8.2 5.7-13.7 10.8-18.5 2.8-2.6 4.2-5.4 4.2-9 4.6 1.6 8 5.9 8 11 0 4.8-2.3 9.2-6.1 12.4"/>
    <path d="M28.5 34.5c1.7.2 3-.8 3.3-2.3-.1 2 1.2 3.2 2.8 3.6"/>
    <path d="M30.5 40.5c1.5 1 3.4 1.1 5 0"/>
    <path d="M24 47c2.8 1.6 5.3 2.5 8 2.5 3.4 0 6.5-1.4 9-3.7"/>
    <path d="M46 17l1.1 2.8L50 21l-2.9 1.2L46 25l-1.1-2.8L42 21l2.9-1.2z"/>
    <path d="M49 29l.8 2 2 .8-2 .8-.8 2-.8-2-2-.8 2-.8z"/>
  </g>
</svg>