<svg xmlns="http://www.w3.org/2000/svg" viewBox="0 0 64 64" width="64" height="64" aria-label="Stil-Findung">
  <g stroke="#1F2937" stroke-width="2.4" stroke-linecap="round" stroke-linejoin="round" fill="none">
    <path d="M28 14c-6.6 0-12 5.4-12 12v10c0 6.6 5.4 12 12 12h2v4h-7"/>
    <path d="M30 52h6c6.6 0 12-5.4 12-12V26c0-6.6-5.4-12-12-12h-8"/>
    <path d="M22 28c1.5-3.8 5.2-6.5 9.5-6.5"/>
    <path d="M43 17l1.3 3.2L48 21.5l-3.7 1.3L43 26l-1.3-3.2L38 21.5l3.7-1.3z"/>
    <path d="M24 48l5 8h10l5-8"/>
  </g>
</svg>