<svg xmlns="http://www.w3.org/2000/svg" viewBox="1 3 21 17" width="18" height="18" aria-hidden="true" focusable="false">
      <path fill="currentColor" d="M21.94 4.66c.3-1.13-.77-2.07-1.83-1.67L2.89 9.63c-1.24.47-1.21 2.25.05 2.68l4.31 1.58 1.67 5.28c.38 1.2 1.93 1.45 2.66.43l2.35-3.28 4.18 3.08c1 .74 2.42.19 2.68-1.03l1.15-5.34 0 0 0 0 0 0 0 0 0 0 .01-.03.01-.04 0-.01 0-.01 0-.02.01-.04 0-.01 0-.02.01-.03 0-.01 0-.02 0-.03 0-.01 0-.02.01-.04 0-.01 0-.02.01-.03 0-.01 0-.02.01-.03 0-.01 0-.02.01-.04v-.01l.01-.03v-.01l.01-.04 1.19-5.49zM9.89 13.3l8.07-6.34-6.22 7.59-.23 2.34-1.62-3.59z"/>
</svg>
