<svg xmlns="http://www.w3.org/2000/svg" width="1345.747" height="1164.049" viewBox="0 0 1009.31 873.037"><path d="M652.119.592c-26 3.3-57.6 15.2-77.4 29.2-2.9 2-5.8 3.5-6.4 3.1s-.7-.1-.2.7c.6 1 .4 1.2-.9.7-.9-.4-1.5-.3-1.2.2.6.9-13.4 11.7-14.6 11.3q-.75-.15-.6.6c.2.4-3.8 4.6-8.7 9.4-5 4.8-12 12.2-15.5 16.4-3.6 4.3-7.4 8.7-8.5 9.9s-2.4 2.9-3 3.8c-.5.8-4.5 6.8-8.8 13.2-26.7 39.6-46.5 91.4-57.2 149.5-7.3 39.9-9 59.2-8.9 103.5 0 34 1.3 55.8 3.4 59.3.7 1.2.8-1.5.3-8.8-1.5-19.6-.8-78 1.1-97.5 3.2-34 10-72.4 17.1-97.5 7.2-25.1 21.8-64.3 24.8-66.2.6-.4.8-.8.4-.8-.9 0 5.4-12.5 12.6-25 15.8-27.2 37.7-53 60.1-70.8 11.1-8.9 19.5-14.4 20.6-13.7.6.4.9.2.8-.4-.6-2.1 22.9-13.7 37.9-18.7 18-5.9 27.7-7.5 49.3-8.1 16.9-.5 21.1-.2 31.7 1.6 15.2 2.6 27.6 6.6 42.1 13.6 9.3 4.5 24.4 13.4 29.5 17.5 10.7 8.4 27.5 24.7 34.2 33 27.7 34.3 47.4 79 57.4 130 4.7 24.1 7.7 52.9 8.6 83.6.4 14.3.3 16.3-1.2 17.5-.9.8-4.3 5-7.5 9.3-4.2 5.6-5.7 7.1-5.1 5 .4-1.6.7-14.4.7-28.4-.5-107.2-34.7-193.7-94.5-238.8-28.2-21.3-59.3-32.2-91.7-32.2-25.5.1-47 5.3-71.5 17.6-5.9 3-11.3 5.2-11.9 4.8s-.8-.3-.4.4c.4.6-3 3.5-8.1 6.9-8.3 5.5-26 20-31.2 25.7-1.3 1.4-2.8 2.3-3.3 2q-.75-.45-.6.3c.5 1.6-3 5.5-4.3 4.8-.8-.5-1-.4-.5.4.9 1.3-4.8 8.3-5.9 7.3q-.6-.6-.3.3c.1.5-1.6 3.5-3.9 6.6-6 8-16.3 22.9-16.3 23.4 0 .3-1.9 3.5-4.2 7.2-5.7 9.4-17.8 34.5-23.1 48.3-26.7 69.5-37.4 154.9-30.1 241 2.2 25.9 11 71.3 17.3 89 2.9 8.1 2.5 3.8-.9-10.2-23.6-97.7-19.3-214.3 11.4-303.5 7.6-21.9 21-51.7 28.9-64.1 15.9-25 24.8-36.4 40.8-52.3 42.1-41.9 94.9-60 145.4-49.8 24.7 5 48.7 17.1 70.7 35.5 20.9 17.6 43.3 49.2 56.5 79.9 5.5 12.6 13 35.7 16.8 51 7.6 31.4 10.5 57.4 11.2 100l.5 32.1-4.9 10.4c-15.4 32.2-16.9 46.8-7.2 71.3 2.6 6.5 2.9 8.2 2 11-.5 1.7-1.9 8.1-3.1 14.2-6.2 31.4-20 78.5-32.2 109.3-3.4 8.6-1.1 7.2 3.1-1.9 8.3-18.1 19.1-49.8 25.6-75.9 4.1-16.2 8.5-38.1 8.5-42.5l.1-4 3.5 7c2 3.8 3.9 7.4 4.4 8 2.5 3.2 16.2 32.3 18.3 39 5.1 16.2 5.5 26.4 2 44.2-1.6 8.1-1.7 8.3-5.2 9.4-7.4 2.4-21.8 9.9-28.2 14.7-9.4 7.1-15 15.2-24.6 35.2-16.5 34.1-22.5 45.4-23.8 44.3-.4-.5-.5-.3-.1.4.8 1.4.1 2.5-9.8 16.8-20.2 28.9-42.5 52-67.8 69.8-3.7 2.6-7 4.7-7.4 4.7s-1.5.6-2.3 1.4c-3.1 2.8-24.5 12.8-34.5 16.1-16.5 5.5-25.2 6.9-42.6 6.9-17.9 0-24-.8-48-6.9-27.8-7-33.6-7.8-48.5-7.2-15.7.6-26.6 3.5-40 10.4-17.7 9-30 20.6-53.7 50.3-16.6 20.9-30.2 34.7-41.3 42.1-19.8 13.2-37.8 18.9-59.9 18.9-16.3 0-30.8-3.4-55-13-22.7-8.9-31.3-11.4-44.4-13-15.5-1.9-30.9.9-45.7 8.3-5.5 2.7-7.9 4.6-7 5.5.1.2 2.1-.6 4.4-1.7 12-6.2 24.5-9.1 39.2-9.1 14.8 0 22.9 1.9 49.4 11.7 30.3 11.2 38.7 13.4 54.8 14 14.3.6 23.8-.5 36.2-4.4 12.6-3.9 31.5-14.5 40.1-22.6l3.2-2.9.7 22.1c.4 12.2 1.1 22.1 1.5 22.1 2 0 1.9-41-.1-43.6-.5-.7.9-2.9 3.9-6 9.5-10.1 16.6-18.7 30.7-37 3.3-4.3 10.5-12.3 16.1-17.9 28.3-28.4 60-37.1 100.4-27.6 6.9 1.6 13.7 3.4 15.1 3.9 6.7 2.6 29.3 6.4 41.1 6.9 38.5 1.7 77-13.1 112.8-43.3 20.7-17.4 49.6-51.3 60.6-70.9.6-1.1 2.3-4 3.8-6.5 2.8-4.6 18.3-35.9 24.2-48.7 7.2-15.8 15.5-24.9 30.4-33.5 5.4-3.1 17.1-8.1 17.6-7.5.5.5-1.8 6.4-5.4 13.7-10.1 20.7-31.9 47.3-56.3 68.6-4.9 4.2-8.7 7.9-8.4 8.2 1.9 2 30-23.5 43.4-39.3 7.8-9.2 17.7-23.6 21.5-31.3 1.5-2.9 3-5.1 3.4-4.8.4.2.8-.6.8-1.7.1-1.2 1.3-5.1 2.7-8.7l2.5-6.5 22.8-7.6c45.1-15 68.4-26.8 89.7-45.3 15.7-13.8 22.5-26.8 19.8-38.4-3-13.5-17.4-19.8-31.7-14l-6 2.4 4.3-7.6c16.3-28.8 22-64.6 14.7-92.5-.9-3.3-3.7-10.2-6.2-15.4-19.3-39.8-69-44.3-105.8-9.5l-3 2.9.4-9.2c.5-10.8-1.3-40.6-3.4-57.1-4.9-38.7-14-73.3-26.8-102.2-9.7-21.9-21.5-41.8-33.6-57-15.6-19.6-38.8-39.6-58.1-50.1-2.4-1.3-4.6-2.6-4.9-2.9s-1.8-1-3.5-1.7c-1.6-.6-7-2.8-12-4.8-4.9-2.1-15.1-5.3-22.5-7.2-12.6-3.2-14.7-3.5-32.5-3.8-10.4-.2-22.1 0-26 .5m292.9 273.5c22 5.7 37.7 23.9 43 49.7 2.4 11.5 2.1 32.3-.5 45.1-3.6 17.4-9.7 32.4-19.7 48.5l-4.5 7.4-3.2-3.5c-5.2-5.7-12.8-9.1-20.5-9.1-18.5 0-27.1 17.7-18.1 37.1 1.7 3.6 2.8 6.9 2.5 7.4s-.1.8.3.7c.5-.2 3.3 2.5 6.1 5.9s5.6 6.4 6.2 6.8c.6.3.8 1.1.4 1.6-.3.5-.1.8.4.7 1-.3 17.7 15.1 17 15.7-.2.3-5.1 2.6-10.9 5.3-13.5 6.4-30.9 12.9-48.4 18.2-7.7 2.4-14.9 4.7-15.9 5.3-1.6.8-1.8.6-1.2-.9.4-1 1.4-6.6 2.3-12.3 3.4-21.6-.6-36.6-19-72.9l-11.8-23.3 2-12.7c2.7-17.4 3.9-28.2 5.1-45.2 1.2-18.1 1.2-17.6 0-16.4-.5.5-2.3 12-4 25.4-4.9 39.9-5.2 42.2-6.2 40.8-1.3-2.1-3.8-10.8-4.8-17.5-2.5-15.4 6.2-42.3 20.8-64.6 2.5-3.7 4.9-6.7 5.3-6.7.5 0 .9-.6.9-1.3 0-.8.9-2.2 2.1-3.3l2.1-1.9-.6 6.5c-.3 3.6-1.1 14.6-1.7 24.5s-1.7 23.8-2.5 31c-3 27.3-4.4 39.3-5.8 48.5-.9 5.5-1.1 9.9-.6 10.4 1 1 1.1.5 3.4-11.9 4.7-24.6 8.2-55.2 9.6-85.9 1-18.9.9-23-.2-23.7-1-.7.8-2.9 6.7-8.5 11.1-10.7 25.8-18.9 38-21.4 6.7-1.3 19.8-1.1 25.9.5m4.1 142.9c1.9.8 5.3 3.3 7.6 5.6 3.3 3.2 4 4.5 3.4 6.3-.4 1.2-1 4.1-1.2 6.4-.4 3.6-.2 4.2 1.8 4.8 1.7.6 2.7.2 4.1-1.5 2.1-2.6 2.2-3.8.8-7.6-.9-2.4-.7-3.1 1.7-5.7 1.5-1.6 5.1-4.1 7.8-5.5 6.7-3.4 17.2-3.7 22.5-.6 9 5.2 10.7 15.8 4.5 28-3.2 6.5-12.7 17.2-20.7 23.3-5.7 4.5-22.1 15.1-23.2 15.1-2 0-16.7-14.1-16-15.2.4-.6.2-.8-.4-.5-1.3.9-9.3-7.9-14.4-15.7-4.1-6.3-6.8-14-6.8-19 0-7.9 4.5-15.6 10.5-18.2 4-1.8 13.7-1.7 18 0m13.2 19.3c-.3 1-.5.2-.5-1.7s.2-2.7.5-1.8c.2 1 .2 2.6 0 3.5"/><path d="M631.019 112.692c.3 7.2.9 13.5 1.2 14 1.6 2.6 2.3-1.2 1.8-10.4-.6-13-1.2-16.7-2.6-16.7-.8 0-.9 3.8-.4 13.1M757.319 110.492c-.3 3.8-1.2 8.9-1.9 11.2-1.5 5.2-7.1 11.1-11.8 12.5-4.7 1.3-4.7 2.9-.2 4.2 2.2.7 5.1 2.1 6.5 3.2 3.4 2.7 6.5 11.3 7.3 20 .9 9.3 2.9 9.4 3.9.2.3-3.7 1.1-8.4 1.7-10.5 1.6-5.4 7.2-11.4 11.9-12.8 4.8-1.5 4.6-2.8-.6-4.6-7.8-2.7-11.1-8.3-12.8-21.4-1.4-10.9-3.2-11.8-4-2m9 22.7c1.5 1.3 3.2 2.3 3.7 2.4.4 0-1 1.8-3.2 3.9-2.3 2.2-4.8 6.1-5.9 9l-1.9 5.1-1.2-4.5c-.8-3.2-2.6-5.9-5.7-8.9l-4.4-4.3 2.4-1.3c3-1.6 7.4-8 8.2-12.1.6-2.9.6-2.9 2.9 2.7 1.3 3.2 3.6 6.8 5.1 8M568.619 110.792c.1 1.4 1.4 3.7 11 19 3.6 5.6 6.7 10.7 7 11.3 2.3 4.7 6 8.1 6 5.6 0-.5-3.4-6.5-7.6-13.3-4.2-6.7-9.3-14.9-11.2-18.1-3.3-5.4-5.3-7.1-5.2-4.5M297.119 125.992c-39.6 6.6-71.5 35.6-79.2 72-1.4 6.9-1.4 22.4.2 27.1.5 1.8.1 2-4.7 2-3.9 0-7 .8-11.9 3.2-19.5 9.5-28 34.7-16.9 50.1 1.9 2.8 2.4 4.3 1.9 6.2-1.2 4.4-.9 14.5.6 19.6 3.2 10.3 12.3 18.9 22.6 21.4 7.3 1.8 9.8.3 3.2-1.9-7.1-2.4-12.9-6.6-16.6-12-1.7-2.6-3.7-5.1-4.4-5.6-2.1-1.7-3.3-6.4-3.2-12.8.1-4.8.3-5.5.8-3.2 4.2 17.1 26.1 30.4 43.8 26.5 3.2-.7 7.1-1.2 8.8-1.2 1.6.1 3.9-.5 5.2-1.3 1.2-.8 3-1.5 4-1.5 3.2 0 11.9-5.7 16.1-10.5 9.8-11.1 10.1-30.3.8-40.5-1.2-1.4-2.8-4.5-3.5-7-2.8-9.9-9.1-18.2-17.2-22.7-3.3-1.9-4.9-3.4-4.9-4.8 0-2.5 3.6-9.6 5.8-11.2 2.5-2 .5-2.7-2.4-.9-2.5 1.7-6.3 8.6-6.4 11.6 0 1.3-1.4 1.6-7.5 1.6-4.1 0-7.5-.4-7.5-.8 0-.5-.6-.8-1.4-.8-2.2 0-2.7-2.7-2.7-14.5.1-30.4 15.9-56.3 44.4-72.8 21.3-12.3 51.9-16 72.9-8.8 11 3.8 23.4 11.3 29.6 17.9 1.3 1.3 2.6 2.2 2.9 1.8 2.1-2-12.8-15.1-22.4-19.6-14.4-6.8-34.2-9.4-50.8-6.6m-74.1 104.3c.4.4-.8 1.5-2.6 2.5l-3.3 1.9 4-.8c16-3.2 30.2 3.1 37.3 16.6 3.6 6.7 4 8.1 1.4 5.8-2.3-2.1-7-3.8-7.6-2.8-.3.4.1.8.9.8 3.3 0 12.3 10.2 10.9 12.4-.2.4.3.9 1.1 1.3.8.3 1.5 0 1.5-.7.1-.7 1 .7 2.1 3.1 4.7 10 3.2 23.3-3.4 30.4-1.8 1.9-2.6 2.7-1.9 1.7 4.3-5.5 7.6-22.2 5.2-25.9-.8-1.2-1-1-1 1 0 3.7-2.6 13.2-5.1 18.4-2.8 6-9.7 13.9-11.6 13.2-.8-.3-1.1-.2-.8.3.8 1.4-.5 1.9-9.2 4.2-19.5 5.2-38.5-2.4-46.3-18.5-2.5-5.2-3.2-14.7-1.7-22 .8-3.5.7-3.8-.6-2.7-.9.6-2.1 3.4-2.7 6.1-.7 2.8-1.6 4.7-2.2 4.4-.5-.3-.7-1.3-.4-2.1s.2-1.2-.3-.9c-1.5 1-3.1-5.4-3.1-12.5 0-15.8 10.1-29.8 24.9-34.3 4.9-1.6 13.3-2.1 14.5-.9"/><path d="M218.519 248.192c-6.6 1.8-14.5 7.5-17 12.3-1 1.9-1.6 3.7-1.4 3.9.2.3 2.6-1.8 5.2-4.5 10.3-10.9 28.4-12.6 39.9-3.8 5 3.8 9.3 10.9 10 16.7.8 6.2 2.4 6.2 2.4 0 0-5.6-2.5-11.4-7.1-16.7-2.1-2.4-2.7-3.6-1.6-3.2.9.3 1.7.2 1.7-.2 0-1.5-14-5.3-20.5-5.7-3.4-.2-8.4.3-11.6 1.2M651.119 152.992c-16.7 3.3-32.5 11.7-37.1 19.6-1.1 1.8-3.2 3.4-5.4 4.1-5.7 1.9-12.8 7.7-16.8 13.8-2 3.1-3.7 5.8-3.7 6.1s-.9 3-2 6c-3.3 9.8-1.8 23.3 3.3 29.2 2.7 3.2 3.1 1.9 1-2.8-4.2-9.5-3.4-21.2 2.2-32.4 2.9-5.8 13.7-17 16.4-17 .9 0 3-1.6 4.7-3.5 1.8-1.9 3.6-3.2 4.2-2.8.6.3.7.2.4-.4-1.5-2.4 15.6-11.9 26.8-14.9 9.8-2.6 32.6-2.6 41 0 11 3.3 21.3 9.5 30.9 18.5l4.9 4.6-2.4-4.4c-4.7-8.7-19.9-18.9-33.9-22.7-7.9-2.1-26-2.7-34.5-1M374.619 155.792c0 .7 2.5 2 6 3.1 7 2 13.1 7.5 16.4 14.7 2.2 4.9 2.8 16.5 1.2 23-.8 3.3-.7 3.4 1 1.8 2.6-2.6 4.5-13.1 3.3-19.1-2.5-13.3-11.1-22.1-23.6-24.2-3.3-.5-4.3-.4-4.3.7M537.819 163.792c.5 1.6 22.8 16.8 24.6 16.8 2.7 0 .5-2-11-9.9s-14.4-9.4-13.6-6.9M374.619 175.492c0 4-3.5 19.4-5.9 25.5-5.1 13.3-9.8 20.4-20 30.6-14.1 14-27.6 20.3-46.8 21.7-4.6.3-8.3 1-8.3 1.4 0 1.4 15.9 1 23.5-.6 3.9-.8 10.8-3.3 15.5-5.6 7.3-3.5 10-5.5 19-14.7 9.4-9.5 11.2-11.9 15.8-21.2 2.9-5.8 6.1-14.1 7.2-18.4 2.1-8.4 2.7-19.6 1-19.6-.5 0-1 .4-1 .9M723.919 183.692c6.9 9.5 11.2 20.4 12.6 32 1.1 8.4.6 14.7-1.9 24-2.2 8.1-3.6 9.9-7.8 9.9-5.6.1-11 3-18.3 10.1-7.9 7.6-9.9 11.3-10.6 18.8-.6 6.8 2.3 17.4 6.3 22.6 2.9 3.9 3.9 4.3 4.8 1.9.3-.9.2-1.2-.4-.9-.6.4-1.9-1.4-3-3.8-1.7-3.8-1.8-5.3-1-9.6 1.2-6.4 3.9-11.6 8.2-16 3.4-3.5 11.9-8.1 15.1-8.1.9 0 1.7-.5 1.7-1.1 0-1.6-8.5-.2-13 2.1-5.2 2.7-10.5 8.8-12.5 14.5-2.8 7.7-3.8 7.9-3.1.5 1.1-12.1 8.9-23.1 18.8-26.7 4-1.4 9.1-1.7 8.3-.4-.9 1.6 1.2 2.2 2.5.6 1.4-1.6 3.3-1.1 7.8 2.2 3.1 2.3 5.1 5.4 7.3 11 1 2.6 1 2.7-.9.9-1.2-1-2.2-1.3-2.6-.7-.4.5-.1 1.3.5 1.6.5.4.8 1.4.5 2.2s-.2 1.2.3.9c2.7-1.7 2.8 10.3.2 15.9l-1.9 4 .5-3.6c.7-4.7-1.3-6-2.1-1.5-.8 4.3-5.7 11.1-9.8 13.6-1.8 1.1-5.2 2.2-7.5 2.6-5.4.8-4.6 2.4 1.3 2.4s10.3-2 15.8-7c6.4-5.9 8.6-11 9.3-21.8.5-8.2.3-9.5-2-14.5-2.4-5.4-7-9.8-11.5-11.2-1.3-.4-2.1-1-2-1.3 8.5-15.8 8.9-35.6 1-53.2-2.6-5.9-7.5-12.6-10.4-14.1-2.2-1.2-2.2-1.2-.5 1.2"/><path d="M611.319 188.192c-1.3 7 2.9 23 8.8 33 3.9 6.6 11.5 14 20.1 19.6 8 5.2 10.8 8.5 12.6 15.2 1.5 5.8 3 6 2.7.3-.3-4.7-4.9-11.5-11.9-17.4-2.1-1.8-4.9-5-6.1-7-1.3-2-2.5-3.1-2.7-2.4-.2.6.2 1.9 1 2.8 1.2 1.5 1.1 1.5-.9.5-3.6-2-11.1-11.9-14.7-19.6-3.3-6.9-6.6-18.9-6.6-24 0-3.4-1.7-4.2-2.3-1M799.619 195.092c-14.8 11.8-16 12.8-20.9 16.9-4.1 3.4-6.3 6.6-4.7 6.6.7 0 18.8-14.1 19.7-15.4.4-.5 1.2-.5 1.9-.1.8.5 1.1.4.7-.2s2.7-3.7 6.8-6.9c4-3.2 7.6-6.5 7.9-7.2 1.2-2.8-2.4-.8-11.4 6.3M603.919 193.192c-4 5.6-7.5 13.7-8.9 20.6-1.3 6.3-1.3 7.9.2 15.2l1.6 8.3-4.1 9.8c-2.3 5.4-4.1 10.6-4.1 11.6s1.1 3.1 2.5 4.7c1.9 2.2 2.5 4.1 2.5 7.5 0 2.5.5 4.9 1 5.2.6.3 1 1.8 1 3.3s.7 3.6 1.5 4.6c.9 1.1 1.5 4.1 1.5 6.8 0 11.5 5 15.6 16.7 13.7 16.2-2.5 16.8-2.4 17.7 2.6.3 1.7.6 10.6.6 20 .1 15.4-.3 18.7-2.5 26.2-1 3.3 1.1 2.9 2.9-.5 2.7-5.3 3.9-15.9 3.4-31.8-.7-21.4-2.3-23.5-16.3-20.9-15.4 3-18.5 1.7-18.5-7.3 0-2.8-.6-6.9-1.4-8.9-2.9-8.1-3.6-11.1-3.6-14.7 0-2.8-.8-4.7-3-7.3-3-3.3-3-3.4-1.4-7.1 7-16.1 7.4-18 5.3-28.4-1.4-6.9.7-17.9 5.2-27.7 3.3-7 3.4-10.1.2-5.5M392.119 195.292c-1.8 9.2-3.1 13.5-5.5 19-3.1 6.7-10.3 17.2-14.7 21.4-4.3 4-13.4 10.3-17.4 12.1-3.2 1.4-3.9 1.5-5.5.3-4-3-7.4-1.9-13.6 4.6l-5.8 6.1 4-.7c2.2-.4 6.8-1.5 10.2-2.6 4.1-1.2 6.6-1.5 7.2-.9 1.5 1.5 2.9 1.2 2.3-.4-.4-.9 1.5-2.3 5.6-4.2 10.4-4.9 24.4-19.9 29.6-31.9 2.5-5.7 6.1-18.8 6.1-22.1 0-3.4-1.9-3.9-2.5-.7m-45.5 54.3c1.1.7.3 1.4-3.4 2.9-5.3 2.3-7 2.6-6 1 .6-1.1 6.5-4.9 7.4-4.9.3 0 1.2.4 2 1"/><path d="M398.719 203.592c-.1.8.6 7.1 1.4 14 1.7 14.2 1.4 17.6-2.6 27.8-3.4 8.5-3.6 13-1.3 29l1.6 11.3-3 3.2c-3.5 3.6-5.2 7.5-5.2 11.6 0 1.5-.9 3.8-2 5.1s-2 3.2-2 4.2c0 1.1-1.1 3.4-2.5 5.2-1.4 1.9-3.2 6.4-4.2 10.7-2 8.8-5.3 12.9-10.4 12.9-1.8 0-9.3-2-16.6-4.5-13.4-4.6-17.9-5.3-21.3-3.5-4.1 2.2-11.2 26.8-12.6 43.6-.8 9.3.4 14 4.7 19.5l2.8 3.7-5.2 1.1c-36.1 7.8-49.3 9.3-66.3 7.2-17.1-2.1-28.8-6.3-35.6-12.8l-3.6-3.5 6.9-3.5c7.5-3.7 16.8-11.7 21.4-18.2 1.5-2.2 3.2-3.8 3.8-3.4.6.3.7.1.3-.5s.6-3.7 2.3-6.9c6-12.1 12.1-32.9 12.1-41.8 0-6.4-1.6-3.7-3.9 6.7-5.3 23.3-13.1 39.9-23.6 50.3-8.2 8.2-12.7 10.6-32.5 17.1-17 5.5-19.9 6.9-26.9 12.4-9.9 7.8-17 23-20.7 44.1-2 11.4-2.3 32.7-.5 45.9 2.7 20.2 10 50.9 20.2 85 4.4 14.5 16.4 51.4 18.4 56.3.6 1.3-3.1-.1-13.1-5.2-22.5-11.2-39-16.1-55.3-16.1-7.5 0-8.2-.2-7.5-1.8 1.3-2.9 1.7-19.8.5-25.1-1.7-7.8-5.6-14.9-13.6-24.5-4.3-5.2-8.1-10.9-9-13.4-2.4-7.1-2.9-16.5-1.5-25.8 1-6.1 1-8.8.2-9.6-.6-.6-4.2-1.3-8-1.6l-6.8-.4-1.3-17.2-1.3-17.2 3.3-7.7c2.4-5.9 4-8.2 6.5-9.8 4.6-2.8 16.1-15.4 19.5-21.4 6.8-11.8 12.6-35.9 8.4-34.7-.5.1-3.7 2.6-7.1 5.5-12.5 10.7-22.1 27.6-25 43.7-.7 4.1-2.4 9.9-3.8 12.9l-2.5 5.4-.5-3.4c-.3-1.9-1.9-12.9-3.6-24.6-2.7-19.7-2.8-21.4-1.5-26.1 1.5-4.8 5.5-9.1 8-8.3.6.1.7-.1.3-.5-.4-.3 1.3-2.9 3.8-5.7 5.5-6.1 12.1-19.6 13.9-28.6 1.6-7.4 2.2-17.7 1.1-18.8s-10.4 8.7-15.6 16.4c-7.1 10.7-10.3 20.3-12.6 38.6-.3 2.7-.7 4.7-1 4.4-.2-.2-1.3-6-2.5-12.8-1.9-11.9-1.9-12.8-.3-21.7 3-16.7.3-32-8.8-50.2-2.4-4.7-4.7-8.5-5.3-8.5-1.9 0-3.6 14.7-3.1 26.5.6 14.1 2.3 20.8 8.1 32.5 2.8 5.7 4.8 11.4 5.4 15.5.5 3.6 1.9 13 3.1 21 1.1 8 2.3 15.8 2.5 17.4.5 2.7.3 2.6-3.1-1.8-2-2.6-3.7-5.8-3.8-7.1 0-1.3-.3-2.2-.6-2s-1.9-2.2-3.5-5.3c-6.3-12.2-20.9-24-36.2-29.3-4.6-1.5-5.3-1.6-5.3-.3 0 3.1 12.3 22.4 14.3 22.4.5 0 .6.7.3 1.6-.3.8-.2 1.3.3 1 .8-.6 3.3 1.7 2.8 2.5-.1.2 0 .3.1.2.2-.1 3 1.7 6.1 4 5.1 3.8 9.5 6.1 18.4 9.6 1.8.7 4.5 3.8 7.5 8.6 4.8 7.4 4.8 7.5 6.6 21.7.9 7.9 1.9 15.9 2.2 17.8s.4 3.3.1 3c-1.4-1.5-7.7-10.1-7.7-10.6 0-.3-1.5-2.8-3.3-5.7-8.3-12.8-22.2-22.3-38.4-26-3.2-.8-6.4-1.2-7-1-1.9.7 6.1 11.4 13.4 18.3 7.5 7.1 15.2 11.7 26.6 16 8 3.1 8.7 3.6 12.8 9.4 4.3 6 4.3 6.2 5.4 18.1l1 12-6.7.5c-9 .7-9.4 1.2-7.8 10.5 1.7 10.2.9 21.5-2.2 28.5-1.4 3-5 8.4-8.2 12-6.5 7.5-10.6 14.2-13.2 22-2.5 7.3-2.5 23.8 0 32.9 2 7.4 6.5 17.7 9.5 22l2.1 2.9-7.3 5.8c-22 17.7-35.1 35.1-39.8 53-4.4 16.9.8 32.5 13.4 39.8 4.6 2.7 9.8 3.7 10.4 2.1.2-.6-1.6-1.6-4-2.2-13.1-3.5-20.7-19.6-17.3-36.4 3.6-17.1 15.2-33.7 35.6-51.2 12.4-10.5 35.9-24.3 51.1-30 22.3-8.4 44.7-8.2 68 .3 7.3 2.7 30.8 14 34 16.3.9.7 4.4 6.8 7.8 13.7 6.2 12.3 10.8 19.6 11.8 18.6.3-.2-.3-2-1.2-3.8-8.6-16.5-14.3-30.5-23.3-57.3-7.8-23.2-16.5-52.9-21.7-74-11.6-47.4-13-72.3-5.8-100 5.1-19.9 12.1-30 24.7-35.9 10.9-5.2 26.9-10.2 27.4-8.6 1.2 3.4 7.8 9 14.2 11.9 20 9.3 51.8 10.1 81.5 2.1 3.9-1 10.2-2.4 14.2-3.1 7.2-1.2 7.3-1.2 13.7 2 3.5 1.7 13.8 5.8 22.8 9 17.9 6.4 28 11 27.2 12.3-.3.5-.2.8.3.7 2.1-.4 3.4.2 2.7 1.3-.4.6-.3.8.3.5 1.6-1 9.7 6.7 14.8 13.8 8 11.1 12.1 21.5 25 63 8.5 27.1 20.9 55.5 38.2 87.3 2.5 4.5 6 11.9 7.9 16.5 1.8 4.5 3.7 8 4.1 7.7 2-1.3-2.1-11.8-12.1-31.5-17.1-33.3-28.4-59.4-26.5-60.6 4.4-2.7 16.6-1.6 23.7 2 5.7 2.9 7.8 6 9.7 14.1 1 4.1 4.4 16.3 7.6 27s6.5 22.4 7.4 26c7.6 29.7 5.5 57.8-5.7 74-7.8 11.4-19.8 13.6-34.1 6.3-6.4-3.2-14.3-9.2-13.9-10.5.1-.5-.2-.7-.7-.4-1.1.7-12.2-11.1-20-21.3-13.8-18.2-33-49.7-57.2-94-7.7-14.1-10-17.3-11.6-15.8-.9.9 27.5 52.6 38.4 69.9 1.2 2.1 2.3 4 2.3 4.2 0 .3 1.8 3.3 3.9 6.6 3.7 5.6 3.8 6.2 2.6 8.8-1.5 3.1-7.8 30.9-9.6 42.2-.7 4.4-.9 12.8-.6 20.4.4 10.3.2 13.8-1.1 17.2-1.5 4.1-1.5 4.4 1.3 11.1 1.5 3.7 3.6 8.1 4.5 9.8 6.2 10.7 18.2 46.4 22 65.7 1.6 8 3.5 8.9 2.6 1.2-2.3-20.3-11.4-48.4-24.2-74.9-3.9-8-4-8.9-1.8-14 1.2-3.1 1.3-5.1.5-11.8-1.2-10.5 0-21.9 4.9-47.1 3.5-17.7 5-23.5 5-19.8 0 2.1 15.1 23.1 23.1 32.1 15.1 17.3 29.6 26.8 42.1 27.8 9.4.8 14.1-.9 20.5-7.3 7.8-7.8 12.1-18.4 14.4-35.9 2.1-16.6 0-30.8-9.8-64.5-3.6-12.4-7.7-27-9-32.5-2.3-9.2-2.8-10.3-6.8-14s-4.6-5-8.9-19c-4.9-16.3-10.6-37.5-14.1-52.6-1.5-6.4-4.3-13.7-8.3-22-7-14.4-14.2-35.5-17.7-52-3.1-14.9-3.8-16.2-9.7-20-2.7-1.7-8.5-7.2-13.1-12.2-8-8.8-12.2-11.7-17-11.7h-2.4l1.9-8.3c1.1-4.5 3-9.6 4.3-11.3s2.7-4.4 3.1-6 1.4-3.4 2.1-3.9c.8-.6 1.8-3.6 2.2-6.8.6-4.5 1.4-6.4 3.9-8.8 1.7-1.6 3.3-4.2 3.6-5.7s-.3-8.1-1.2-14.7c-1-6.6-1.7-12.8-1.4-13.8.3-1.1 1.4-1.7 3.3-1.7 1.6 0 2.9-.5 2.9-1 0-.6-1.3-1-3-1-1.6 0-3-.2-3-.5 0-.2 1.4-3.8 3-8 2.5-6.4 3-8.9 3-16.3 0-9-1.9-19.4-4.5-24-.8-1.5-1.4-2-1.4-1.2m-339.7 139.5c.8 3.1.9 3.5 2.5 10 1.2 4.5 1.3 19.1.2 21.8-.4 1.1-1.4-2.4-2.5-9.5-1-6.2-2.2-12-2.7-12.8-1.7-3-.8 8.6 1.6 23.5.9 5.4-1.3 1.3-4.6-8.5-3.5-10.5-4.8-23.9-3.4-36.7l.7-6.8 3.8 8c2 4.5 4 9.4 4.4 11m284.2-8.2c6.1 2.1 7 2.7 7.4 5.3.7 4.2 5.7 7 17.3 9.6l10.2 2.3-8 1.1c-8.3 1.2-19.5 5.2-22.7 8.1-3.7 3.3-1 7.9 5.4 8.9l3.5.6-2.4 2.4c-4 4-2.3 7.2 4.5 8.3 3.3.6 4 1.3 7.2 7.2 7.1 13.1 12.5 21.8 13.7 21.9 1.6 0-1.8-8.9-5.9-15.3-1.8-2.8-5.5-9.6-8.1-15.1-4-8.5-4.6-10.2-3.4-11.3 2.2-2.2 9.2 3.8 15.7 13.4 6.7 10 10.2 13.7 14.7 15.9 3.9 1.8 6.6.7 4.5-1.8-.8-1-.8-2.7 0-5.8 1.1-4.9.5-15.4-1.2-21-.5-1.9-2.4-5.1-4.1-7-1.8-1.9-4.5-5.6-6-8.1-2.7-4.4-3.2-4.6-10.6-6.4-11.1-2.5-16.6-4.3-19.1-6.1-3.4-2.4-2.6-3.5 1.6-2 7.1 2.5 12.9 2.9 16.7 1 2.6-1.2 4.7-1.4 8.2-.9 4.5.6 5.6 1.5 15.8 11.9 6.1 6.1 12.4 11.9 14.2 12.8 2.5 1.3 3.3 2.5 3.8 5.5 3.2 18.8 12.4 47.2 20.5 63.3 3.1 6.3 6.1 13.1 6.4 15 2.5 12.1 16.4 63.2 19.1 70.1.5 1.4 0 1.5-5.6.3-5.8-1.2-12.1-.8-16.9 1.1-1.6.6-2.9-2.6-10-26.5-11.4-38.5-19.6-54.7-33.1-66.2-9.7-8.2-14.9-10.7-43.4-20.9-17.9-6.4-26.8-11.7-30.1-18.1-3.2-6.1-.4-30.4 5.3-46 3.9-11 4.1-11.1 14.9-7.5m42 23c3.9 4.1 7.9 12.7 6 12.7-.3 0-3-1.3-6-2.9-5.2-2.6-6.4-2.9-15.4-2.7-6.1.1-10.5.7-11.8 1.5-2.5 1.6-7.9.3-7.9-2 0-1.7 12.9-6.7 20.4-7.8 9.8-1.5 12.4-1.3 14.7 1.2m-291.7 6.9c-1.8 14.3-8 27.5-17.4 36.8l-5.2 5.1.8-6.3c1.1-9 4.3-18.4 8.6-25.6 3.9-6.5 11.8-16.2 13.2-16.2.4 0 .4 2.8 0 6.2m293.1 7.1c5.8 2.9 6.5 3.6 6.8 6.5.2 1.7 0 3.2-.3 3.2s-2.3-1.1-4.3-2.5-5.1-2.5-6.8-2.5c-3.3 0-6-2.2-4.9-3.9.3-.6 0-.9-.7-.6s-1.9-.4-2.6-1.5c-1.1-1.9-1-2 2.5-1.9 2.1 0 6.7 1.4 10.3 3.2m-26.3 6.3c-.3.3-1.5 0-2.7-.6-1.7-.9-1.9-1.4-.9-2.6s1.4-1.1 2.6.6c.8 1.2 1.3 2.4 1 2.6m27.8 4.1c5.7 2.8 6.6 4.7 4.6 9.7-.7 1.7-1 1.7-4.2-1.1-3.7-3.3-8.7-11.3-7-11.3.6 0 3.5 1.2 6.6 2.7m-357.5 18.6c7.6 6.9 20.1 18.9 22.5 21.7l2 2.3-4.3-2.2c-2.3-1.2-4-2.6-3.7-3.1s-.1-.7-.9-.4c-1.9.7-8.8-4.1-14.7-10.3-4.5-4.6-12.9-16.3-12.9-17.8 0-.8 3.9 2.4 12 9.8m7.5-1.2c5.5 4.1 9.6 8.9 13.5 15.4l2.3 4-4.2-4c-2.3-2.2-3.9-4.5-3.7-5.1s-.1-1.1-.8-1c-1.1.1-8.3-5.7-17.5-14.2l-3.6-3.3 4.5 2.2c2.4 1.2 6.7 3.9 9.5 6m71.9 14.1c-3 14.5-9.2 25.6-20.4 36.3l-7.3 7 .6-4.1c.9-5.4 5.4-18.9 7.9-23.3 3.5-6.2 8.5-12.5 14.3-18 3.1-2.9 5.8-5.2 6-4.9.2.2-.3 3.3-1.1 7m-80.4 27.2c7.8 2.7 15 7.1 21.6 13.3 4.8 4.5 11 13 10.1 13.9-1.1 1.1-17.1-6-22.6-10-3-2.2-18.1-17.8-18.1-18.7 0-1.3 1.1-1.2 9 1.5m60.5 74.3c-.4 1-.9 6.5-1.2 12.3-.8 16.2 2.3 24.6 14.2 37.9 2.5 2.9 4.5 5.8 4.5 6.5 0 .8.7 1.9 1.5 2.6 4.1 3.4 6.8 22.4 4.9 34.1-.6 3.4-.9 3.7-4.8 4.3-12.7 2-31.8 9.8-48.5 19.9-5.2 3.1-9.7 5.7-10.1 5.7-1.4 0-8.2-15.5-10.1-22.8-2.5-10-2.6-24.9-.1-32.9 2.1-6.7 4.8-11.1 12.7-20.8 6.7-8.3 8.8-12.2 10.5-19.4 1.3-5.3.9-22.1-.5-26.9l-.7-2.2h14.2c13.1 0 14.2.1 13.5 1.7M626.619 211.692c0 2 4.9 9.4 8.9 13.3 2.2 2.2 3.7 4.4 3.4 4.9-.3.6-.1.7.5.3.7-.4 2.7.4 4.4 1.7 4.7 3.5 10.5 6.2 16.5 7.7l5.1 1.3-2.4 1.9c-1.3 1.1-2.2 2.4-1.8 2.9.3.5 1.7 0 3.1-1.1 3.4-2.6 5.9-2.5 8.8.5 5.2 5.1 1.3 19.8-6.7 25.1-3.3 2.2-3.7 3.9-.8 3.1 3.8-1 5.3 5.4 2.4 9.8-2.5 3.8-6.9 3.2-9.3-1.2-1.7-3.3-1.4-5.6 1.4-9.8 3.1-4.4 2.5-5.6-1.3-2.8-5.7 4.2-6 14.4-.5 18 6.7 4.4 14.3.2 14.3-7.8 0-2.2-.4-4.9-1-5.9-.8-1.4-.2-2.9 2.5-7 1.9-2.9 3.8-7 4.1-9.1 1.6-9.6 4.1-2.1 2.9 8.6-.6 5.7-.3 7.2 1.8 11.9 1.4 3 3.4 6 4.5 6.7 1.7 1.1 1.8 1.7 1 4.8-1.3 4.4-.4 26.1 1.2 31.4.6 2.1 1.5 3.5 2 3.2.6-.3.8 0 .5.7-2.7 8-28.2 83.2-30 88.8-13.3 40.8-21.6 78.9-26.6 122-1.7 15.3-2 21.6-1.5 36 1.2 32.9 5.4 71.8 9.7 89.9 6.1 26.3 22.7 36.2 45.6 27.1 8-3.2 12.1-5.6 11.1-6.5-.3-.3-2.5.4-5 1.5-26.4 11.6-42.9 3.1-48.7-25.3-6.5-31.1-10.8-93.1-8.2-117.2 3.7-34.7 10.8-72.1 19.1-100.5 4.1-14 6.8-22.7 15.3-48.7.5-1.8 1.5-2.9 2-2.6.6.3.7.1.3-.5-.3-.6 3.2-12.5 7.8-26.4 9.2-27.3 11.9-38.4 9.7-39.7-.9-.6-1.4-5.5-1.7-16.8-.4-13.6-.2-16.3 1.1-17.6 1.4-1.4 1.2-1.8-1.4-3.6-1.6-1.2-3.9-4.1-5.1-6.5-1.9-4-2-5.5-1.4-13 .6-7.9.5-8.9-1.9-13.8-4-8.1-7-10.4-19.4-14.7-6-2.1-13.1-5.1-15.7-6.6-6.4-3.7-14.8-11.5-17.1-15.9-1.9-3.5-3.5-4.7-3.5-2.5M528.819 216.792c.4 1.2 16.5 4.7 22.3 4.7 5.5.1 1.1-1.9-8.5-4-10.8-2.2-14.3-2.4-13.8-.7"/><path d="M332.619 259.592c-2.3 1.4-1.9 14.4.7 20.1l2 4.6-2.3 2.2c-4.9 4.7-5.5 14.1-1.3 19.5 6.1 7.7 15.7 7.2 21.4-1.1 4.8-7.1 2.5-17.6-4.6-21.4-3.6-1.9-4.2.5-1 3.4 6.9 6.1 4.3 18.1-4.3 20.3-7.9 1.9-13.8-12.5-7.5-18.2 1.5-1.3 2.2-1.5 3.1-.6 1.4 1.4 4.8 1.6 4.8.3 0-.5-.6-1.1-1.3-1.4-3.8-1.5-9.7-19.7-8.4-26.2.2-1.4.4-2.5.3-2.5 0 0-.8.4-1.6 1M788.119 266.492c-7.5.9-5.2 2.7 2.9 2.2 9.2-.4 9.9-.6 10.4-1.9.4-1.3-4.2-1.4-13.3-.3M319.819 274.692c-6.5 6-16.4 10.8-25.4 12.3-7.4 1.3-8.1 2.6-1.2 2.6 10.1 0 24.1-6.8 30-14.6 4.2-5.4 2.3-5.6-3.4-.3M534.419 281.192c-.3.5-.8 3.8-1.2 7.2-.4 3.5-1.2 7.6-1.7 9-1.5 3.9-5.7 8-9 8.7-4 .9-3.6 2.1 1.5 4.3 5.3 2.4 8.2 7.7 9.2 17 1 9.7 2.8 9.5 3.7-.5.3-2.8 1.5-7.2 2.6-9.8 1.6-3.7 2.9-5 6.6-6.6 4.2-1.8 6-3.9 3.4-3.9-.6 0-2.7-.7-4.5-1.6-4.4-2.1-7-7-7.9-15.4-.7-6.6-1.8-10-2.7-8.4m6.4 24.6c2.9 2.5 2.7 3.5-.7 2.8-.5-.1-.7.1-.3.5.3.4-.5 2.3-1.8 4.2-1.3 2-2.4 4.3-2.4 5.2s-1-.3-2.1-2.7c-1.2-2.3-3.2-5.1-4.5-6.1l-2.3-1.8 2.9-2.2c1.7-1.2 3.4-3.8 4.1-6.1l1.2-4.1 1.3 3.8c.7 2.1 2.8 5 4.6 6.5M301.719 294.692c-3.6 4.6-11.6 9.5-18.7 11.5-3.5 1-6.4 2.3-6.4 2.8 0 1.5 9-.3 14.6-2.8 5.5-2.5 14.4-10.7 14.4-13.2 0-2.1-1.3-1.6-3.9 1.7M694.619 313.492c.6 1.2 1.5 2.1 1.9 2.1 1.2 0 16.4 20.1 16.4 21.7 0 .7.4 1 .8.7.4-.2 1-.1 1.2.3.3.5.6 10.9.8 23.2l.4 22.5-9 3.3c-4.9 1.7-10.2 3.5-11.7 3.9-6 1.4-5.4 2.8 5.2 11.4l10.1 8.2-2.4 4.1c-1.3 2.3-4.1 7.5-6.2 11.4-2.1 4.1-4.2 7-4.8 6.6q-.9-.45-.3.6c.4.6 0 2.4-1 3.8-.9 1.5-3.4 5.9-5.4 9.7-2.1 3.9-7.7 14.1-12.4 22.6-9.6 17.1-33.6 64.8-33.6 66.7 0 3.3 2.1.1 9.3-14 11.6-22.8 16.2-30.8 17.2-30 .4.5.5.3.1-.4-.8-1.5 9.5-20.4 10.8-19.6.5.3.6.1.2-.6-.4-.6 2-6.1 5.5-12.4 17.4-31.3 25.9-47.4 25.9-49 0-1-3.6-4.5-8.5-8.4-4.7-3.7-8.3-6.9-8-7.2.3-.2 5.3-2.1 11.3-4.2l10.7-3.7-.3-22-.3-22.1 6.8 3.3c6.9 3.4 12 5.5 29 12 15.3 5.8 17.3 7.2 21.3 14.8 3.8 7 6.6 24.6 11 67.8 6.6 65.6 8.8 114.6 5.4 121.3-1.5 2.9-8.9 13.9-11.4 17-.5.6-3.3 4.1-6.2 7.7-7.8 9.8-19.6 22.9-38.4 43-4.4 4.7-8.8 9.6-9.9 11-2.2 2.7-12.9 12-13.9 12-.3 0-.6-.6-.6-1.3 0-4.1-13.9-28.4-21.2-37-4.4-5.1-4.8-6-3.6-7.5.7-.9 5.1-6 9.8-11.2s12.1-13.8 16.5-19 8.5-10.1 9.2-10.8 4.7-5.6 8.8-10.7c4.2-5.1 8.1-9.5 8.8-9.8.9-.3.9-1.3 0-4.9-.7-2.4-.9-5.4-.6-6.6.5-2.1.2-5.4-3.8-40.7-2.4-21.8-2.7-23.1-4.1-21.7-.7.7-.7 4.6.1 12.8l1.1 11.9-11.7 27.8-11.6 27.9.9 11.1.9 11-7.1 8.1c-3.9 4.5-10.6 11.9-14.8 16.6-6.6 7.3-7.7 8.9-7.2 11.2.3 1.6.2 2.8-.3 2.8s-1.2-1.6-1.5-3.5c-.8-4.1-2.6-4.7-2.6-.9 0 4.9 5.1 25.6 8.6 34.8 4.8 12.6 9.5 22.6 10.6 22.6s1-.3-1.6-8.2l-2-5.8 4.9-4.5c2.7-2.5 5.3-4.5 5.7-4.5 1 0 5.8 10.2 5.8 12.3 0 1 .7 1.7 1.6 1.7 1 0 1.4.5 1 1.6-.3.8-.2 1.3.2 1 .4-.2 1.3 2.6 2 6.2 2.2 12.1 4.6 21.2 5.4 21.2 1 0 .3-6.3-2.3-21l-1.9-10.5 3.4-3.5c1.9-1.9 7.9-8 13.3-13.5 22.7-23.1 39.8-42.4 52.3-59 12.6-16.7 12.5-16.4 12.4-39-.3-44.6-9.6-142.1-15.5-161.9-2.8-9.5-5.9-14-11.9-17.7-1.4-.9-9.9-4.4-19-7.9-18.5-7-29.8-12.3-32-15-.8-.9-4.4-5.5-8-10.1-7.2-9.4-10.2-12.4-14.3-14.6-2.7-1.4-2.8-1.4-1.7.6m40.5 211.6c.4 7.1 1.1 14.3 1.5 15.8.7 2 .6 2.9-.4 3.3-.7.3-5 5.1-9.5 10.8s-9.3 11.3-10.5 12.5l-2.3 2.2-.7-8.5c-.8-9.5-1.6-6.9 11.4-37.1 2.6-6.1 5.5-13.3 6.6-16l1.8-5 .7 4.5c.4 2.5 1.1 10.3 1.4 17.5m-43.2 96.9c5.7 8 10.1 15.6 9 15.6-.4 0-.2.4.6.9 1.1.7.4 2.1-3.4 6.5-2.6 3.1-5.2 5.3-5.6 4.9-1.1-1.1-8.8-24.8-9.5-29.4-.4-2.5-.2-4.4.6-5.4 1.6-2 2.7-1.1 8.3 6.9M778.619 316.492c0 1 25.6 13.7 29.6 14.7 3.7 1 2.8-1.2-1.3-3.2-26.5-12.6-28.3-13.3-28.3-11.5M628.719 323.192c-4 1.7-15 10.4-21 16.6-1.6 1.6-14.9 6.3-34.1 12-13.4 3.9-16.9 5.7-21.4 10.9-6.3 7.4-6.3 7.6-19.6 78.4-6.3 33.5-11.4 57.2-18.8 87.3-3.2 12.9-5.4 23.5-5.1 23.8 1.2.7 6.4-17.2 12.8-43.1 7-28.3 11.5-50 17.6-83.5 6.2-34.8 7.4-40.8 9.2-47 3.6-12.8 8.2-17.8 19.8-21.4 23.5-7.3 30.9-9.5 31.1-9.3.2.1-1.6 2.3-3.9 4.7-14.1 15-18.7 20.4-18.7 21.6 0 .8 2.1 3.7 4.6 6.4l4.7 5-9.6 4.5c-5.3 2.5-10.1 5.3-10.6 6.3s-2 8.5-3.3 16.7c-2 13.1-2.3 18.5-2.3 43 .1 23.4.4 30.7 2.3 44.5 3.2 23.2 3.3 24 4.4 24s1-1-1.9-31.5c-2.9-30.9-2.2-59.9 2.3-86.4.8-4.6 1.4-8.5 1.4-8.8 0-.2 4.8-2.6 10.7-5.4s10.9-5.2 11.2-5.4c.2-.2-2-3.1-4.9-6.5l-5.2-6 2.7-3.2c7.5-9.1 29-30.9 37.9-38.5 5.6-4.8 10.5-9 11-9.5 1.8-1.5.1-1.6-3.3-.2"/><path d="M625.219 343.292c-14.1 23.2-31.8 65.4-39.5 94.4-4 15.3-5.5 23.8-9.1 53.9-4.6 38.5-7.7 58.8-11.6 76.5-3.2 14.5-23 94.3-24.1 97.2-.3.7-.1 1.3.4 1.3 2.7 0 21.4-68.7 29.3-107.9 2.1-10.8 5.5-32.9 7.5-49.1 7.2-59.4 8.2-64.4 18.8-95 9.8-28.4 24.9-61.3 27.2-59.2.5.4.5.1.1-.6-.4-.6.2-2.9 1.3-5 1-2 2.1-4.6 2.4-5.7s.8-2.8 1.2-3.8c1.5-3.5-1.1-1.5-3.9 3"/><path d="M664.619 366.792c-15.8 5.6-29.6 7.2-36.7 4.3-6.4-2.7-7.3-1.4-1.6 2.5 3.2 2.2 4.7 2.5 12.2 2.4 9.3-.1 16.2-1.7 27.9-6.7 10.6-4.6 9.4-6.4-1.8-2.5M757.219 372.092c-1.7 1.3-3.4 2.1-3.9 1.8-.6-.3-.7-.1-.4.4.4.6-1.3 3.9-3.6 7.5-7.9 11.7-14.5 32-16.6 51.3-1.9 16.5-1.9 17.5-1 18.1.5.3.9.1.9-.5 0-4.1 5.5-32.2 8.1-40.8 4.1-14.2 11.1-28.5 17-34.6 4-4.2 4.9-5.8 3-5.7-.3.1-1.9 1.2-3.5 2.5M857.719 438.692c-.5 1.3-2.9 10.7-5.4 20.9-4.5 17.8-14.7 50.9-22.1 71.3-2.1 5.7-3.1 9.7-2.4 9.5 2.9-1 16.4-37.6 23.2-63.3 5.7-21.4 10.4-47.9 6.7-38.4M548.319 463.592c-.3.8-1.5 10.7-2.7 22-4 37.7-5.7 46-21.4 104.2-3.1 11.3-5.6 21.2-5.6 21.9 0 10.7 21.7-64.3 25.9-89.6 1-6.1 4.6-39.8 5.4-51.1.5-5.9-.6-10.7-1.6-7.4M171.119 495.192c1.8 9.9 13.1 42.3 30.3 86.9 23.8 61.7 29.3 81.3 27.8 98.6-.6 5.8-.4 8.5.7 10.6 1.7 3.4.9 12.2-1.4 16.8-.9 1.6-5 9.5-9.2 17.5-7.5 14.5-10.6 22.8-7.5 20.2.9-.7 2.6-3.4 4-6s5.9-11.2 10.1-19.2c5.2-10.1 7.8-16.1 8.2-19.6l.7-5.1 8.7 2.8c10.2 3.3 25.5 6.4 38.4 7.9 5 .6 10.3 1.3 11.7 1.6 12.1 2.1 62.3 1.1 69-1.4 4.4-1.6.6-1.9-14.5-1.1-17 1-48.1-.3-66-2.6-20.7-2.7-44.2-8.4-48.1-11.6-.9-.7-1.2-4.3-1.2-12.7.1-21.7-4.9-38.5-33.7-113.2-4.8-12.4-12.6-33.9-17.4-47.9s-9.3-25.7-10-25.9c-1.1-.4-1.2.4-.6 3.4M751.719 534.892c-3.9 1.5-5.8 4.4-2.1 3.2 5-1.6 15.5-.9 19.9 1.2 3.6 1.8 4.2 1.9 3.9.5-.9-4.5-14.7-7.5-21.7-4.9M748.219 543.492c.9.9 13.1 5.1 14.7 5.1 1.8 0-.8-2.3-4.7-4.1-4.1-1.9-11.8-2.7-10-1M585.619 544.392c0 .4 1.4 1.6 3.1 2.6s2.9 1.9 2.7 2.1-2.3-.1-4.8-.5c-9.4-1.9-11.2-.4-2.7 2.3 14.7 4.5 45.7 8.5 45.7 5.8 0-.5-3.3-1.4-7.2-2.1-13.1-2.1-19.5-3.9-27.1-7.5-7.7-3.6-9.7-4.1-9.7-2.7M575.619 569.392c0 1.6 9.5 5.1 19.7 7.3 11.1 2.3 35.3 3.8 35.3 2.1 0-.5-3.3-1.3-7.2-1.7-12.7-1.2-37.8-5.6-46-8.1-1-.3-1.8-.1-1.8.4M803.419 577.292c-.8 1-3.4 4.9-5.8 8.8-3.5 5.7-13.7 20.4-17.2 25-16.6 21.2-21.8 26.9-26.2 28.5-9.2 3.4-19.9 8.5-18.4 8.8.9.2 5.1-1.1 9.4-2.7 4.3-1.7 7.9-2.9 8.1-2.7.5.5-19.1 19.1-25 23.7-2.6 2.1-4.3 4-3.8 4.3 1.5 1 16.8-11.2 27.3-21.7 6.9-6.9 12.1-11.3 15.8-13.2 7.7-3.8 16-9.6 15.4-10.7-.3-.5-1.1-.5-1.7 0-.7.6-4.2 2.6-7.9 4.6l-6.8 3.6 8.8-10.9c12-15.1 31.4-45.3 29.9-46.7-.2-.2-1 .4-1.9 1.3M588.119 579.792c-.8 2.7-3.5 32-4.5 49.8-1.1 20.5-1.3 48-.4 50.4 1.6 4.2 2.4-.9 2.4-15.5 0-19.5 1.6-50.3 3.5-69.8.8-7.9 1.5-14.8 1.5-15.2 0-1.4-2-1.1-2.5.3M112.119 625.892c-9.7 2.9-19.8 11.5-24.5 20.8-1.3 2.4-2.8 4.7-3.4 5.1s-.8.8-.5.8c.4 0-.4 3-1.7 6.6-1.4 3.6-3 10.7-3.6 15.8l-1.2 9.3-11.7.6c-13.6.7-17.2 2-19.4 7.3-2 4.8-7.7 36.6-7.3 40.6.3 3.2.3 3.2 2-1.8.9-2.8 2.8-11.6 4.3-19.5s3-14.8 3.5-15.3c1.4-1.4 6.5 1.8 6.3 3.9-.2 2.2-1.8 25.4-3.3 46.5-1.9 27.7-3.1 42.6-3.5 46-.3 1.9-.6 7.8-.7 13.1l-.3 9.7-2.4-1.9c-1.3-1.1-3-1.9-3.7-1.9-2.4 0-11.5-10-12-13.3-.3-1.8 1.5-13.3 3.9-25.7 2.5-12.4 4.8-25.4 5.1-29l.5-6.5-2.4 7.2c-3.3 9.9-10.5 45.8-10.5 52.6 0 5.1.3 5.9 3.7 9.2 2 1.9 4.3 3.5 5.1 3.5s3.7 2.1 6.4 4.6c8.7 8.1 6.3 8 53.6 3.9 22.9-1.9 51.3-4.4 63-5.5s21.7-2 22.3-2c.5 0 .9-.5.9-1 0-2-26.8-.6-82.5 4.4-47.5 4.3-44.6 4.2-46.2 2-1.2-1.5-1.4-3.9-.9-11.4 1.4-22.4 3.7-56.5 4.6-68.5.6-7.2 1.3-17.7 1.7-23.5.8-13.5 1.3-11.9 5.8 20 3.8 27.1 4.3 28.8 10.2 32.2 6.1 3.6 47.3 5.2 47.3 1.8 0-.4-6-1-13.2-1.4-27.9-1.4-34.7-2.9-36.8-7.9-.6-1.2-2.8-14.8-4.9-30.2-4.1-29.1-4.9-32.6-8.2-36.1l-2-2.1 12.3-.7c20.5-1.1 76-3.5 97.3-4.1l20-.7 2.7 2.6c1.4 1.4 3.1 4 3.7 5.8 1.6 5 4 19.6 5.6 34.8 1.8 16.7 2.4 19.7 3.5 17.9.9-1.4 1-1.2 2.9 8 .7 3.3.6 5.1-.3 7-2.4 4.6-9.5 27.3-12.6 40.1-3.3 13.6-2.6 18.8.9 6.8 5.4-18.4 13.5-41.8 14.1-41.1 1.4 1.6 6.4 28.9 6.4 35.1 0 6.9.7 7.8 2.6 3.1 1.6-3.8.3-15-3.9-34.4-2.6-11.6-2.7-13.3-1.5-16.7 1.4-4 .9-4.9-1.1-2.2-1.2 1.7-3.8-10.3-10.6-47.6-2.2-12.5-4.9-18.4-9.1-20.6-1.7-.9-6-1.4-12-1.4h-9.3l-1.7-10.7c-3.2-19.6-13.7-36.1-26.8-42.2-4.4-2-7.3-2.6-14-2.8-4.7-.1-10.3.3-12.5 1m23.7 4.5c2.6 1.1 6.3 3.3 8.3 4.9 4.6 3.6 9.8 11 8.9 12.5-.4.6-.3.8.3.5 1.5-.9 5.9 9.5 7.6 18.3 2.9 14.2 2.9 14 .3 14-2.1 0-2.4-.6-3.6-7.8-2.4-15-8-26.6-16.5-34-1.8-1.7-3.2-3.2-3-3.4s-.4-.4-1.3-.5-4.3-.9-7.5-1.8c-5.2-1.5-6.2-1.5-12 0-12.9 3.3-20.9 11.6-26.7 27.5-1.6 4.1-3.1 10.2-3.5 13.5-1 9.9-1.3 10.5-4.1 10.5-2.6 0-2.6 0-1.9-5.8 3.3-28 15.6-45.7 35-50.6 4.2-1 15.1.2 19.7 2.2m-2.8 7.2c6.2 2.4 11.2 7.3 15.1 15.1 3.1 6 6.5 18.7 6.5 24 0 4.7.4 4.6-23.5 5.4-9.3.3-22.5.8-29.2 1.2l-12.3.6v-3.1c0-5.6 3-17.6 6.1-24.2 3.8-8.2 7-12.4 11.9-15.6 8.6-5.7 16.4-6.7 25.4-3.4m-79.5 54c1 .5 2.1 1.6 2.4 2.4.5 1.2 0 1.3-2.5.5-3.7-1-4.2-1.4-3.3-2.8.8-1.3 1.2-1.4 3.4-.1"/><path d="M159.619 677.592c0 .5.5 1 1.1 1 .5 0 .7-.5.4-1-.3-.6-.8-1-1.1-1-.2 0-.4.4-.4 1M840.119 653.992c-14.7 3.4-30.7 11.3-40.6 20.1-11.2 10-16.1 19.5-19.8 38.8-2.3 11.9-2.6 16.7-1.1 16.7.6 0 1-.9 1-1.9 0-2.6 5.4-23.4 7.8-30.4 5.8-16.4 22.5-30.1 46.6-38.2 9.9-3.3 22-3.5 30.2-.4l5.6 2.1-4.1 1.9c-2.3 1-6.5 3.4-9.4 5.2-3.2 2.2-7.9 4.1-12.5 5.1-14 3-28.2 12.9-33.4 23-2.9 5.6-5.8 14.4-5.8 17.5 0 3.6 1.4 1.6 3.5-4.9 3.6-11.2 8.3-17.6 17.8-24.4 5.6-4 19.3-9.6 23.7-9.6.8 0 4.6-2 8.4-4.5 10.2-6.6 16.6-8.7 25.2-8.3 4.7.2 8 .9 9.9 2.2l2.9 1.9-4.3 1.9c-2.4 1-4.2 2.1-3.9 2.3.3.3 3.7-.1 7.7-1 4-.8 9.5-1.5 12.3-1.5 6.1 0 14.2 3.4 13.4 5.7-.3.8-.2 1.2.3.9s1.4 0 2 .8c.9 1.1 0 1.4-5 2-8.5.8-19.2 4.8-26.6 9.8-6.7 4.6-9.9 8.6-3.8 4.8l3.5-2.2-3 4.9c-4.3 6.9-5.6 15.3-4.1 26.2 2.4 16.6 10.8 32 27.3 49.7 5.6 6 12.1 13 14.2 15.3 10.1 11.1 13.6 20.2 10 25.7-2.4 3.6-11.4 7.5-23.9 10.3-19.1 4.4-25.4 7.1-28.1 12.3-2 3.8-1.2 7.1 2.4 9.6 3.4 2.4 7.2 3.7 7.2 2.3 0-.5-.8-1.2-1.8-1.5-2.4-.8-6.2-4.4-6.2-5.9 0-2.1 4.8-6.9 6.1-6.1q1.05.6.6-.3c-.9-1.5 2.8-2.8 19.6-6.8 21.9-5.2 28.6-9.4 28.7-18.1.1-8.2-5.4-16.7-21.4-33.5-22.7-23.8-31.6-40.7-31.6-60v-7.7l5.3-.7c21.4-2.6 68.2-10.4 76.1-12.6 2.2-.6 4.6-1.8 5.5-2.7 1.5-1.5 1.4-1.5-.4-.8-1.1.4-5.1 1.1-9 1.6-3.8.5-17.8 2.7-31 4.9-21.8 3.8-44.7 7.1-45.2 6.7-.1-.1.6-2 1.6-4.2 2.4-5.4 7.6-11.1 12.1-13.4 5.6-2.8 21.3-5.3 29-4.6 9.1.9 36.7 5.3 41.3 6.6l3.7 1.1v9.3c0 5.1.3 16.1.7 24.5 1 23.1 2.5 17.5 3.1-11.1.4-24.1.4-24.3-1.7-25.6-2.4-1.4-24.6-5.4-40.6-7.2-5.5-.7-10.2-1.6-10.4-2.2-.8-2.3-6.4-7.7-9.5-9.2-2.2-1-6.1-1.6-10.9-1.6-6.8 0-8.1-.3-12.7-3.2-5.2-3.3-7.1-3.5-20.7-2.7-1 .1-4.5-1-7.9-2.5-7.6-3.2-17.7-4.1-25.9-2.2"/><path d="M871.119 672.992c-17.2 5.5-31.2 20-36.1 37.6-1.8 6.5-3.2 38-1.7 38 .6 0 1.3-5.5 1.6-12.8.7-13.8 3.8-28.6 7.7-36.3 3.9-7.6 14.6-17 25.4-22.4 5.3-2.6 9.6-4.9 9.6-5.1 0-.7-2.4-.3-6.5 1M873.419 701.992c-5.6 5.9-7.9 12.2-8.1 22.3-.1 10.8 1.8 18.1 8.2 30.3 11.6 22.6 13 25.5 14.1 30.2 1.8 7.1.5 13.2-3.5 17.6-1.8 2.1-8.6 6.7-15.2 10.4-11.4 6.5-19.5 13.1-22.3 18.3-.7 1.4-1 2.8-.5 3.2.4.5 1 .2 1.2-.5 1-2.6 5.5-7.2 6.5-6.5.6.3.8.2.5-.4-.8-1.3 5.6-5.8 15.8-11.3 25.1-13.3 26.7-22 10-54.5-4.6-9-8.9-18.9-9.8-22.7-3.7-14.7-1.2-28.6 6.7-37.5 3.8-4.4.8-3.4-3.6 1.1M745.819 719.192c-1.2.8-2.1 2.1-2 2.7.3 1.5-4 8.7-5.3 8.7-.5 0-.8.3-.7.7.2.5-.8 2.5-2.1 4.6-2 3.3-2.5 3.6-4 2.5-1.4-1.2-1.4-1.1-.3.4 1.2 1.5.4 3-5.9 12-4 5.7-8.2 11.7-9.5 13.5-1.2 1.8-2.4 3-2.6 2.8-.3-.3-.5.1-.5.8 0 1.4-4.1 7.4-14.4 21.2-12.6 16.8-22 24.5-31.8 26.1-6 1-15.5-1.4-20.4-5l-4.2-3 6-.8c3.3-.4 8-1.5 10.5-2.4 5.1-1.9 14-8.5 18.5-13.5 27-30.7 42.7-47.1 54.3-56.9 10.1-8.5 12.7-10.9 11.6-11-.7 0-1.4.7-1.8 1.5-.3.8-1 1.5-1.6 1.5-1.1 0-3.2 1.6-9.4 7.1-2.3 2-5.6 4.5-7.4 5.6-5.4 3.3-24.9 22.8-36.1 36.3-8.4 10-20.4 21.5-25.7 24.6-4.1 2.4-6.2 2.9-15.3 3.4-9.3.6-11.6 1.1-19.1 4.4-19.5 8.6-42 22-43.9 26.3-1.7 3.6-1.3 6.1 1 7.3 3.8 2.1 26 4 53.1 4.7l26.7.6-4.5 3c-7.8 5.1-14.4 12-14.4 15 0 3.9 3.1 5.3 14.1 6.6 37.4 4.3 79 3 90.4-2.6 6.6-3.3 7.8-5.4 15-24.3 5.6-14.7 8.3-20.4 13.8-28.5 3.9-5.7 10.3-12.5 11.8-12.5 1.8 0 2.3 5.2 2.7 26.6.4 23 .4 23.2 2.7 24.4 2.4 1.3 6.9.7 9.1-1.1.8-.6 1.2-5.3 1.3-13.2.3-23.1 2.7-36.6 9.4-52.2 1.9-4.4 3.7-10.1 4.1-12.6 1.1-7.3-1.8-18.9-7.5-30.5-5.4-11-8-14.4-10.7-14.4-2.2 0-13.3 11.2-21.7 21.8-7.5 9.6-8.9 13.2-1.7 4.6 2.6-3.1 7.5-8.7 11-12.3l6.3-6.6-6.2 10.5c-3.4 5.8-10.6 19.4-15.9 30.3s-10 19.4-10.5 19c-.4-.4-.5-.2-.1.5.9 1.5-7.7 19.9-13.2 27.8-7.3 10.8-14.9 15.4-25 15.4-6.7-.1-11.8-1.7-17.4-5.6l-4.1-2.9 4.6-.7c11.3-1.6 20.7-6.8 28.4-15.7 2.8-3.3 3.8-3.9 4.5-2.9.7.9.8.8.4-.5-.4-1.1.2-2.9 1.5-4.5 1.1-1.5 4.7-6.4 7.9-10.9 3.1-4.5 6.1-7.9 6.5-7.5.5.4.5.1.1-.5-.7-1.2 4.9-10.3 10.1-16.6 2.4-3 2.9-4.7 1.4-4.7-1.2 0-9.7 10.9-18.2 23.3-3.8 5.6-7.7 11.2-8.7 12.5-1.8 2.3-1.8 2.3-1.2-3.2.3-3.1 1.1-6.1 1.8-6.8 1.6-1.6 1.5-5.8-.2-8-1.8-2.4-6.3-3.9-9.4-3.1-10.6 2.5-23.7 17.2-34.1 38-2.2 4.4-4.7 8.5-5.5 9.2s-4.7 2.8-8.7 4.7c-3.9 1.9-8.3 4.3-9.8 5.3-1.8 1.3-5.3 2.1-11.6 2.5-15.7 1.2-72.9-2.2-76.7-4.5-3.3-2.1 13.1-13.1 34.7-23.5 17.6-8.4 16.3-8.2 21.6-3.2 6.2 6 12.9 8.2 22.7 7.6 9.1-.6 14.2-2.8 21.5-9.6 9.4-8.8 15-16.4 50.7-68.2 6.2-9.1 11.6-16.9 12-17.3 2.1-2.4 10.9 19.8 11.7 29.5 1 11.6-2.6 17.7-13.8 23.4-2.7 1.3-4.9 2.9-4.9 3.4 0 .9 6.1-.9 10-3 1.2-.6 3.1-1.3 4.2-1.5 1.1-.3 2.2-.6 2.3-.7 1.4-1.9 5.5-12.2 6-15 1.5-8.3-5.2-29.4-12.1-38.5-2.9-3.8-3.2-3.9-6.2-1.7m62.9 26.9c5.1 10.6 7.3 19.4 6.6 26.7-.7 7.7-3.1 11.4-10.7 16.7-7 5-6.6 6.7.6 2.7 2.8-1.6 4.4-2 4.1-1.2-1 2.5-4.5 15.1-5.2 18.5-.4 1.9-1.2 11.7-1.9 21.9-.8 13.4-1.5 18.7-2.4 19-.7.2-1.2 0-1.1-.5.3-1.9-.2-3.4-1-2.9-.5.4-1.1-7.6-1.3-19.1-.2-16.1-.6-20.4-2-23.1-.9-1.7-1.2-3.2-.8-3.2.5 0 1.5 1.8 2.1 4 1.5 4.9 2.9 5.2 2.9.5 0-4-2.9-7.5-6.1-7.5-3.8 0-9.3 4-14.3 10.4-8 10.3-11.3 17-20.6 41.9-1.2 3.1-2.6 5.5-3.1 5.2-.5-.4-.6.1-.3 1 .9 2.4-5.7 8-11 9.4-9.9 2.5-25.3 3.4-47.6 2.8-28-.8-48-2.8-48-4.7 0-4 19.7-18.2 38.5-27.7l11.3-5.7 3.8 3.8c9.5 9.3 24.3 11.9 35.6 6.2 9-4.5 16.6-14.8 26.4-35.6 12.1-25.9 21.2-43.6 29.2-57.2l8.7-14.8 1.9 2.3c1 1.2 3.6 5.8 5.7 10.2m-73.2 41.7c.5 1.3 1.1 6.4 1.5 11.3l.7 9.1-3.3 4.1c-3.7 4.7-11.1 11.3-14.8 13.4-2.1 1.1-24 3.1-24 2.1 0-1.4 7.9-11 8.5-10.4.5.4.5.1 0-.6-1-1.8 8.8-16.2 15.1-22.2 5.5-5.2 11.1-8.9 13.7-9 1 0 2.1 1 2.6 2.2M239.619 723.992c2.2 2.7 22.2 8.4 37.5 10.8 10.5 1.6 50.6 1.6 61 0 10.9-1.7 28.9-5.2 29.4-5.8 1.4-1.4-1.7-1.6-7.5-.5-20.1 3.7-58.3 5.2-78.2 3.1-12.6-1.4-28.2-4.4-35.6-7-7-2.4-8.2-2.5-6.6-.6M852.319 752.592c-.3 1.4-.8 6.1-1 10.5-.8 13.1-6.3 25.4-16.2 35.8-15.9 16.8-21.7 30.3-16.5 38.5 2.5 4 10.9 8.2 16.4 8.2 5 0 3.9-1-4.2-4-7.5-2.7-10.2-5.7-10.2-11.4 0-7 4.1-14.2 15.3-26.9 9.1-10.2 12.5-15.6 15.1-23.7 2.8-8.5 4-19.6 2.7-25.5-.7-3.6-.8-3.7-1.4-1.5M137.119 754.792c-7.1.5-13.4 1.3-14 1.8-1.6 1.3-.4 18.9 1.5 20 .8.6 2 .8 2.6.6.7-.3 7.5-.8 15.3-1.2 15.5-.8 16.1-1 16.1-7.3 0-3.2.4-3.4 11-4.6 7.3-.9 17.5-3.1 22.8-5.1 4.7-1.8 5.8-4 1.5-3.1-13.8 3-32.9 6.7-34.4 6.7s-1.9-.7-1.9-3.3c0-4-1.6-5.7-4.9-5.6-1.5.1-8.4.6-15.6 1.1m17.5 9.7v6.9l-9.7.6c-5.4.4-11.6.9-13.9 1.2l-4.1.6-.6-3.9c-.4-2.1-.7-5.3-.7-7 0-4.2.5-4.3 23.3-5.1l5.7-.2zM899.619 830.892c-.1 6 7.5 14.7 19.3 22 4.2 2.7 7.7 4.9 7.7 5s-13.8.2-30.8.2c-34.8 0-39.6-.7-47.2-7.2-3.4-2.9-4-4-4-7.3 0-4.1-1.4-6.1-2.4-3.4-1.7 4.4-.6 8.6 3.2 12.4 7.8 7.8 24.5 10.9 48.1 8.9 12.7-1.1 32.4-.7 39.9.7 4.5.9 3.4-1.3-2.6-5-17.4-10.8-24.4-16.5-28.2-23.1-1.7-2.8-3-4.2-3-3.2"/></svg>