<svg xmlns="http://www.w3.org/2000/svg" width="702.208" height="867.385" viewBox="0 0 526.656 650.538"><path d="M239.907.906c-8.2 1-21.2 4.6-29.6 8-7.3 3.1-21.9 11.5-26.7 15.5-1.6 1.4-3.5 2.2-4.1 1.8q-1.05-.6-.6.3c.7 1.1-13.6 15.6-14.6 14.8-.4-.3-.5-.2-.2.1.2.4-1.5 3.2-3.8 6.3-19.6 25.8-30.1 54-34.4 91.8l-1.7 15.3h-47.7c-36.9 0-47.9.3-48.6 1.2-1.2 1.5-1.4 4.2-4.8 66.8-2.7 50.7-4.1 73.8-5.5 97.5-.6 8.8-1.7 28.1-2.5 43-3 53.8-6.5 115.4-7.5 132-.5 9.3-1.5 25.8-2 36.5-.6 10.7-1.9 34.1-3 52s-2.2 36.4-2.4 41.1c-.4 5.9-.2 9.1.7 10.2 1.1 1.6 15.3 1.7 197.7 1.5l196.5-.3.3-2.4c.2-1.3-.2-2.8-1-3.2-.7-.5-88.3-.9-194.6-.9H6.407l.6-6.3c.4-3.4 2.7-42.7 5.2-87.2 7.9-142.3 8.3-150.5 9.9-176.5 4.8-82.6 10.5-188 10.5-194.5v-4.5h91.1l-.6 17.7c-.4 9.8-.8 18.3-1 18.9s-1.6 1.4-3.2 1.7c-10 2-15.5 16.4-10.3 26.7 5.4 10.6 19.9 13.4 28.7 5.7 8.7-7.6 9.5-19.7 2-27.7-1.6-1.7-3.7-3-4.8-3-2.5 0-3.6 2.7-2 4.9 3.9 5.4 5.1 8 5.1 11.2 0 5.1-3.6 10.1-8.7 11.8-3.8 1.4-4.5 1.3-8.3-.4-6.1-2.7-7.4-5.4-7.1-13.9.1-1.8 1.4-4 3.9-6.5l3.7-3.6.5 7.9c.4 5.9.9 8.2 2.2 8.9 1.2.8 2.1.7 3.2-.2 1.3-1.1 1.6-3.5 1.6-11.5 0-18.4 2.4-56.6 4.5-72.6 3.6-27.4 11.4-51.2 23-70.9 5.5-9.2 16.2-22.4 17.6-21.6.5.4.6-.1.3-.9-.6-1.7 10.6-11.3 21.9-18.8 24.5-16.2 58.7-21.8 84-13.7 29.5 9.4 53 33.9 64 66.9 5.7 17 9.6 49.6 8.2 68.2l-.7 8.7-8.2.3c-7.9.3-8.1.4-8.1 2.8v2.5l44.1.3 44.1.2.6 39.3c.4 21.5 1 59.7 1.3 84.7 1.4 99.8 1.7 109.2 3.6 110.4 1.4.8 2.1.7 3.3-.5 1.4-1.4 1.4-7.5.6-57-.6-30.5-1.3-78.7-1.7-107.2l-.7-51.7h14.1c7.7 0 14.3.4 14.6.9.4.5 2.6 19.1 5.1 41.3 5.3 48.6 15.1 134.5 20.6 181.8 2.2 19 4.2 37.4 4.6 41 .6 7.1 1.6 9 4.5 9s3.2-2.3 1.9-13.4c-.7-5.5-1.4-11.9-1.7-14.1-.6-5.6-7.1-61.1-8.4-72-.6-5-3.5-31.1-6.5-58-3.1-27-7.3-65.2-9.6-84.9-2.2-19.8-4.2-36.3-4.5-36.8-.3-.4-8.1-.8-17.4-.8h-16.9l-.6-3.3c-.3-1.7-.6-5.7-.8-8.7l-.2-5.5-35.2-.3-35.3-.2v-18.3c0-25.7-2-41.1-7.7-59.2-4.2-13.4-13.8-31.7-20.5-39.2-1.2-1.2-1.7-2.7-1.3-3.4.5-.7.4-1-.2-.6-.5.3-3.2-1.7-5.9-4.5-21.7-22.4-51.8-32.8-83.1-28.7"/><path d="M238.107 23.106c-30.2 8.8-53.8 31.8-67.8 66.2-6.6 16.2-10.9 35.7-12.3 55.5l-.7 10h-9.7c-10.2 0-12.7 1-11.4 4.4.6 1.5 8.6 1.6 93.5 1.6h92.9l-.1 4.2c0 2.4-.6 10.8-1.2 18.6l-1.2 14.4-3.8 1.3c-13.3 4.6-16.8 21.5-6.6 31.5 8.9 8.6 22.6 6.7 29.5-4.1 1.9-3 2.4-5.2 2.4-10.1 0-7-2-11.5-6.5-14.4-2.5-1.6-2.7-1.6-4.3 0-1.4 1.3-1.4 1.9-.4 3.4 7.3 10 6 19.2-3.3 22.8-5.4 2-10.2.7-14-3.7-4.6-5.5-2.7-15.2 3.6-18.4l3-1.6-.3 7.7c-.3 6.3 0 7.8 1.4 8.7 4.2 2.8 4.7.4 7.8-42.4 3.1-42.3 3.8-72 1.9-85.6-2.4-17.7-8.5-34.2-16.8-45.3-8.8-11.7-16-17.3-29.6-23-7.7-3.2-8.6-3.4-23-3.7-13.3-.2-15.9 0-23 2m37.1 6.2c13.4 3.4 27 13.2 34.7 24.8 5 7.5 9.3 18.2 11.7 29.4 2.6 11.5 3.7 36.2 2.5 57.6l-.7 13.7h-159.9l.5-4.8c.3-2.6.8-7.6 1.1-11.2 1-10.2 4.4-26.6 7.7-37 11.7-36.6 33.7-61.4 62.8-70.9 13.1-4.3 26.9-4.8 39.6-1.6M183.607 277.806c-10.3 1.3-21.3 5.7-27.4 11.1-2.1 1.8-4 2.7-4.7 2.3q-1.05-.6-.6.3c.4.6-.3 1.9-1.4 2.9-2.8 2.5-9 11.6-12.1 17.9-3.6 7.1-6.5 17.1-7.4 25.1l-.7 6.9-7.9 3.8c-10.2 5-17.8 12.3-22 21.4-2.8 5.8-3.3 8-3.3 14.3 0 6.6.5 8.5 3.3 14.2 6.7 13.6 21.6 22.6 43.5 26.3l3.8.6-2.6 3.5c-10 13.1-13.9 22.7-13.9 34.4-.1 12.2 5 20.2 16.4 25.8 4.8 2.4 6.7 2.7 15 2.7 6.5-.1 11.2-.6 15-1.9 6.3-2.1 16.2-6.9 20.2-9.8 1.6-1.1 3.3-1.6 3.8-1.3.6.4.9.2.8-.2-.2-.5 2.4-3.2 5.7-6 3.3-2.7 9.1-8.3 12.8-12.2l6.9-7.3 7.6 2.1c12 3.1 23.8 5.1 31.1 5.1h6.6l-9.4 5c-24.3 12.9-34.7 25.5-34.5 42 .1 12.8 5.7 21.4 18 27.2 6.2 3 8 3.3 18 3.6 8.6.3 13.5-.1 22-1.8 8.2-1.7 13-2.1 19.1-1.7 8.4.5 9.5-.1 4.5-2.7s-13.3-2.9-24.8-1.1c-25.4 4.1-40 .6-48-11.5-4-6-4.5-15-1.1-22.3 5.1-11.1 13.1-17.8 34.7-29 12.4-6.4 15.8-7.7 23.9-9.1 19.6-3.5 35.1-10.9 53.7-25.8 4.4-3.4 8.1-6.5 8.4-6.8 2.6-3 17.1-13 23.1-16.1 19.7-9.8 42.8-9.2 54.2 1.6 2.2 2.1 2.7 3.4 2.4 5.8-.3 3.1-.5 3.2-7.2 4.5-3.9.6-7.7 2-8.7 3-.9.9-5.5 8.9-10.2 17.7-4.6 8.8-11.2 20.9-14.6 27-3.3 6-7.7 14.3-9.6 18.2l-3.6 7.3 3.7 27.7c2 15.3 4.9 37.7 6.5 49.8 1.7 12.1 3.6 27.6 4.5 34.5 3 25.5 4.6 36.6 5.5 38.7.5 1.2 2.3 2.9 4.1 3.8 2.8 1.5 4.4 1.6 12.8.6 5.3-.6 20.6-2.2 34.1-3.6 68.2-6.9 67.2-6.8 70.2-9.3 3.1-2.7 3.6-6.3 1.9-16.3-.5-3-1.4-10.1-2.1-15.9-.6-5.8-1.8-15.5-2.6-21.5-.8-6.1-2.8-22.3-4.4-36-7.1-58.6-9.1-73.1-10.1-75.1-.9-1.8-20.1-20.2-47.9-46-3-2.8-6.8-5.7-8.4-6.5-1.7-.8-3.8-2.8-4.8-4.5-1.7-3-1.7-3.3.2-9 1.1-3.2 2.7-7.4 3.6-9.2 1.7-3.6 1.2-5.2-1.6-5.2-2.3 0-4.3 2.9-6.5 9-.8 2.5-1.8 5.1-2 5.8-.4 1-1.5.6-4.3-1.5-7.2-5.6-13.6-7.7-25.7-8.1-10.4-.4-11.7-.2-20.5 2.8-5.2 1.7-11 4.1-13 5.2-7.9 4.8-14.7 9.4-17.7 12.2-16.2 14.5-34 26.1-47.8 30.9-12.8 4.5-13.1 4.4-6.4-2 7.5-7.2 12.4-15.1 14.4-23.4 2-8.6 1.9-13.1-.5-21.8l-2.1-7.4 3.8-3.6c21.4-20.2 23.2-52.7 4.2-76.7-2.7-3.4-4.5-6.5-4.1-6.9.4-.5.2-.5-.4-.2-.7.4-3.4-1.1-6-3.2-10.1-8-19.1-11.1-34.1-11.8-9.4-.5-12.8-.2-20.9 1.7-5.3 1.2-11 2.8-12.8 3.5-3 1.3-3.4 1.2-9.1-3.1-15-11.3-35.8-17.3-52.5-15.4m22.6 8c8.5 2.2 17 6 24.7 11.1l4.9 3.2-3.4 2c-18.3 11-34.2 26.5-37.3 36.5-.5 1.7-1.1 2.1-2.3 1.6-1-.4-10.5-.9-21.2-1.1-16.2-.3-21-.1-28.2 1.5l-8.7 1.8.6-4.6c1.3-11.3 12.5-36.2 15.4-34.4.5.3.8 0 .7-.8-.2-.7.2-1.2.9-1.1.7.2 1-.3.7-1-1.1-3 15.1-12.9 25.1-15.3 7.8-1.9 19.2-1.7 28.1.6m87.4 13.9c7.6 2.5 14.6 6.3 14.3 7.9-.2.6.3.9 1 .6 2-.7 12.1 10.5 15.5 17.2 5.2 10.3 6.5 16.6 5.9 27.7-.5 8.8-.9 10.7-4.5 18-2.1 4.5-6 10.4-8.6 13.2l-4.6 5-1.8-2.5c-7.8-11.3-23.5-22.4-38.9-27.4l-5.3-1.8v-8.6c0-16.2-5.1-28.3-19.2-45.9-1-1.3 2.2-2.4 13.7-4.9 8.3-1.8 24.2-1.1 32.5 1.5m-49.9 7.8c4.4 4.9 9.8 12.9 12.4 18.5 4 8.7 6.7 24.6 4.9 29.1-.4 1.2-1.3 1.3-4.7.5-2.3-.6-9-.8-15-.5-6.4.3-11 .1-11.3-.5-1-1.6-16.4-8.7-23.6-10.9-7.7-2.4-7.7-2-.6-11.6s16.4-17.6 29.2-25c5.2-2.9 5.7-2.9 8.7.4m-54.5 37.8c1.9.6 2.1 1.1 1.3 4.3-1.2 5.1-1.1 14 .2 18.6 1 3.5.8 4-1.7 6.7-1.5 1.5-3.2 2.6-3.7 2.2-.6-.3-.7-.2-.4.4.4.5-.5 2.5-1.9 4.4s-3.6 5.4-4.9 7.9-4.6 7-7.3 10l-4.9 5.5-4.4-3c-5.9-4-15.2-13.6-18.3-18.9-4.9-8.4-8.6-21.6-8.6-30.8 0-4.6.9-5.1 14.2-7.2 9.2-1.5 35.5-1.5 40.4-.1m20.4 4.6c3.6 1 8.8 2.9 11.5 4.2l5 2.4-5.5 1.3c-5.1 1.2-19.8 7.8-22.6 10.1-.8.7-1.3.3-1.8-1.3-1-3.7-.7-13.3.5-16.6 1.2-3.6 1-3.6 12.9-.1m-79.7 7.7c1.5 15.6 9.5 30.6 22.7 42.5 4.1 3.7 8.1 7.2 8.9 7.6 1 .7.1 2.1-4 6-6.3 6-8.4 6.3-21.6 3.1-21.8-5.2-33.6-16.8-33.7-33-.1-11.5 6.9-22.4 18.8-29.5 3.3-1.9 6.5-3.5 7.1-3.5.8 0 1.5 2.6 1.8 6.8m125 3.7c2.6.4 4.7 1.1 4.7 1.8-.1 1.8-4.5 12.3-6.5 15.3l-1.7 2.6-3.4-6.8c-1.9-3.8-4.8-8.3-6.5-10l-3.1-3.2 2.8-.5c2.9-.4 5.1-.3 13.7.8m-14.5 7.8c4 5.3 7.2 12.3 7.2 15.6 0 1.9-11 12.7-14.8 14.4-1.8.8-3.7.3-10.5-3.1-9.3-4.6-16.3-10.2-20.8-16.9-3-4.3-3-4.5-1.2-5.9 3.9-3.1 17.1-8.9 23.8-10.5 8.6-2 10.7-1.2 16.3 6.4m32.6-3.3c12.5 4.3 24.3 12.4 31.3 21.5 1.8 2.4 3.3 4.6 3.3 4.8 0 1-8.6 5.5-14.5 7.6-11 4.1-35.3 6.8-39.1 4.3-.8-.4-1.1-3.4-.9-8.5.2-6.4.7-8.4 2.8-11.5 3.1-4.4 8.7-16.5 8.7-18.7 0-2 1.5-1.9 8.4.5m-67.8 25.8c2.7 2.3 8 5.8 11.9 7.8 3.8 2 7.2 3.9 7.5 4.1.8.7-2.5 2.3-3.8 1.8-.7-.3-1.1-.1-.7.4 1.2 2.1-33.1 13.1-35.8 11.5-.6-.4-3.6-2.5-6.5-4.7l-5.2-3.9 3.3-4.7c1.8-2.5 5.3-8 7.6-12.1 2.4-4.1 5.7-9 7.4-10.7l3-3.3 3.3 4.8c1.7 2.6 5.3 6.7 8 9m42.1 6.6c-.2 1.9-.7 3.8-1 4.3-.6 1-6.7.5-6.7-.5 0-.5 7.2-7.1 7.8-7.2.2 0 .2 1.5-.1 3.4m65.2 5c1.6 6.6 1.3 14.6-.8 20.8-2.3 6.6-5 11-6.2 10.2-.5-.3-.6.1-.3.9.7 1.8-9.8 11.5-16.9 15.6-5.2 3-6 3.1-16.3 3.1-11.4 0-23.4-1.6-34.6-4.6l-6.6-1.8 4-6c4.1-6.4 12.8-23.2 14.6-28.4l1-3.1 7.5.6c14.9 1.1 34.4-2.9 46.8-9.6 2.9-1.7 5.6-2.8 6-2.6.4.3 1.2 2.5 1.8 4.9m-67.7 5.9c2 .5-15.9 33.1-19.3 35.3-1.7 1-18.9-8-28.1-14.8-7.7-5.8-8.1-6.2-5.8-6.9 15.5-4.5 26.9-8.7 33.5-12.3l7.9-4.3 5.6 1.4c3 .8 5.8 1.5 6.2 1.6m-74.4 5.1c1.5.8 3.6 2.3 4.6 3.5l1.9 2.1h-17.5l3.8-3.5c2.2-1.9 4-3.5 4.2-3.5s1.5.6 3 1.4m18.8 16.2c7.9 6.6 14.4 10.9 24.7 16.1l7.7 3.9-4.3 4.2c-2.4 2.3-4.7 3.9-5.2 3.5-.4-.5-.5-.3-.2.3.4.6-1.5 3.1-4.1 5.6-15.5 14.4-38.4 23.5-52.2 20.7-7.7-1.6-12.6-4.3-15.5-8.7-7.1-10.9-4.4-26.6 7.5-42.7l5.5-7.4 10.5-.3c5.8-.2 12.4-.5 14.8-.6 3.9-.2 4.9.3 10.8 5.4m260-3.8c.7.4 7.6 6.8 15.5 14.3s19 17.8 24.7 23c7.4 6.8 10.5 10.4 11.2 12.9.6 1.9 2.6 16.1 4.4 31.5 1.9 15.4 6 49.5 9.2 75.7 3.2 26.3 5.5 48 5.2 48.3-.8.8-109.9 11.8-110.5 11.1-.3-.3-3.2-21.4-6.4-46.8-3.2-25.5-6.9-54.6-8.3-64.8-5-35.7-5-36.4-3.4-39.6.8-1.6 7.1-13.3 14-25.9 6.8-12.7 14.2-26.2 16.3-30.2 3.9-7.2 3.9-7.2 8.9-8l5.1-.8.3 5.4c.3 5 .1 5.6-2.7 7.8-5.9 4.6-6.4 12.7-1 18.8 5.8 6.6 14.9 5.2 18.9-2.9 1.1-2.3 2-5.4 2-6.8 0-3.8-4.1-9.2-7.8-10.3-3.2-.9-3.2-1-3.2-7.2v-6.3h3.3c1.7 0 3.7.4 4.3.8m-3.6 23.5c0 3.7-2.5 6.7-5.6 6.7-3 0-6.6-4.6-5.8-7.4.9-2.9 1.3-3.1 2.6-1.8 1.9 1.9 4.6 1.4 5.3-.9 1-3 3.5-.5 3.5 3.4"/><path d="M450.207 525.306c-8.3 2.9-15.5 11.5-17.9 21.1-1.1 4.6-1.4 4.9-4.7 5.2-4.1.4-6 1.8-6 4.3 0 2 .5 2.2 6.3 1.9 3.5-.1 3.7 0 3.7 2.8 0 1.7.3 3.7.6 4.6.5 1.3-.1 1.6-3 1.6-2.5 0-3.8.6-4.6 2-1.6 3-.4 4 5.1 4 4.8 0 4.9.1 7 4.5 6.1 12.9 22.8 18.4 36.3 12 6.2-2.9 10.1-6.7 9.2-9-1.1-2.8-3.4-2.7-8.1.5-8.7 6-16.7 6.3-24.6 1-4.6-3-8.7-8.7-7.3-9.9.5-.5 5.4-1.3 10.9-2 10.3-1.2 13.1-2.5 11.9-5.4-.8-2.1-3.5-2.1-16.2-.3-5.1.7-9.4 1-9.6.7-.3-.3-.7-2.3-1.1-4.3-.8-4.2-1.5-3.9 14.5-5.9 5.2-.6 10.1-1.6 10.8-2.2 1.3-1.1 1.6-4.3.4-5.1-.4-.2-5.5.2-11.2.9-14.7 2-14.3 2-13.5-1.3 1.1-4.6 5.5-11.2 8.8-13.3 7.2-4.4 13.1-4.6 22.5-.8 3.1 1.3 3.5 1.2 4.8-.5 1.8-2.5.4-4.2-5.1-6.7-4.8-2.2-14.3-2.4-19.9-.4"/></svg>