<svg xmlns="http://www.w3.org/2000/svg" width="1135.804" height="1198.995" viewBox="0 0 851.853 899.247"><path d="m62.014 1.647-5.5 1.1v300.7c0 165.3.3 301 .8 301.4.4.4.9.5 1.2.2s.5-135.1.5-299.6.3-299.3.7-299.5c.5-.2 2.5-.7 4.5-1.1l3.7-.7.3 295c.2 162.2.6 295.3 1.1 295.7.4.4 1 .4 1.5 0 .4-.4.8-133.3 1-295.2.1-161.9.5-294.4.7-294.4.3 0 4.4 2 9.2 4.4 4.9 2.4 16.5 8.1 25.8 12.6 9.4 4.5 22.7 10.9 29.7 14.3l12.8 6.2v208c-.1 102.4.5 134.5 2.6 134.5 1 0 1.3-9.9 1.4-51 0-51.5.6-60.6 4.2-72 1.2-4 3.7-7.2 4.9-6.4.5.3.9.1.9-.4 0-.6 3.6-2.9 8-5.1 4.4-2.3 8-3.8 8-3.4 0 .5-.9 4.1-2 8.1-1.1 3.9-2 7.6-2 8.1 0 .6 1.8 2.1 4.1 3.4l4 2.4-2.3 2c-6.6 5.4-6.5 4.6-.2 20.5 9.4 23.8 15.8 38.4 16.2 36.7.1-.8-2-8-4.9-16-2.8-7.9-5.2-15.7-5.2-17.2 0-1.6-.3-2.3-.7-1.7-.8 1.3-.8 1.3-4.7-9.3l-2.4-6.8 4.3-4 4.3-3.9-3.5-3c-1.9-1.7-3.8-3-4.2-3-1.3 0-.8-3.1 2-12.7 2.5-8.6 3-9.4 7.6-12.9 2.7-2.1 4.5-3.1 4.1-2.3-1.2 1.9-.7 15.4 1 26.9.8 5.2 2.1 15.6 3 23 .8 7.4 2 17.1 2.5 21.5s1.4 12.3 2 17.5c2 17.1 2.1 18 3.1 18 1.2 0 1.1-3.5-.2-20.1-.9-11.6-6.9-62.5-8.4-71.5-.5-2.7-.2-3.3 2.3-4.3 2-.9 3.6-.9 5.6-.1 3.7 1.4 9.5 1.3 12.6-.3 2-1 3-1 5.6.3l3.1 1.5.6 24.5c.4 14 .3 28.3-.3 33.5-1.2 11.3-1.3 34.2-.1 33 .5-.6 2.1-14.3 3.5-30.5 3-32.4 4.9-45.2 7.3-48.9l1.6-2.5 3.7 4c3 3.3 4 5.5 5.8 12.9 3.6 14.7 4.2 20.8 5.2 47.9.6 14.3 1.2 26.2 1.5 26.4 1.6 1.6 2-3.2 1.8-22-.2-15.1-.8-25.3-2.4-36.2-2.9-20.8-5.9-29-11.9-32.4l-2.8-1.6 4.2-3.1c5.4-4.1 20.7-13.8 21-13.3 1.4 1.9 6.6 11 6.6 11.6.1 1.3 5 6.7 5 5.4 0-1.4-5.2-11.9-8.5-17.2-2-3.2-2.1-3.7-.7-5.8.8-1.2 2-2.2 2.6-2.2 1.1 0 6.4 5.2 12.5 12.2l2.4 2.7-2.2 5.2c-1.2 2.8-2 5.3-1.8 5.5.2.3 1.8-1.7 3.5-4.3l3.1-4.7 1 2.8c1.2 3.1 4.7 51.8 5.6 78.1.3 9.3.9 19 1.3 21.5.6 4 .7 3.5 1.2-4.5.8-14.5-.7-58.1-3-82.9-.4-4.9-.4-10-.1-11.5.7-2.5.8-2.5 3.5 2.2 1.5 2.6 3.1 4.7 3.6 4.7 1.4 0 2.9-2.5 4.1-7.2.9-3.1 1.7-4.4 2.6-4.1.7.3 1 1 .6 1.6-.3.5-.2.7.4.4.6-.4 3.4 1 6.4 3.1 4.9 3.4 5.4 4.2 6.2 8.7.5 2.8.4 26.6-.1 53s-.5 54.5-.1 62.5 1.7 35.6 2.8 61.5c1.2 25.8 2.4 50.3 2.7 54.2.7 7.7 2.4 10.1 2.4 3.3 0-4.4.4-4.6 6.2-2.9 2.7.7 5.6.7 10-.1 7.1-1.3 8.8-2.3 8.8-5.4 0-2 .4-2.1 13-2.1 12.8 0 13.1 0 14.3 2.4 1.6 3.3 6.3 4.4 16.3 3.9 6.5-.3 8.7-.9 11.4-2.8 1.9-1.3 6.9-3.2 11.3-4.1 4.4-1 8.3-2.1 8.8-2.6s.4-9.5-.1-20.2c-.9-17.9-2.2-27.1-3.7-27.1-.6 0 .3 41.2.9 44.1.2.9-1.9 1.7-6.6 2.6-3.8.7-8.5 2.2-10.5 3.4-4.9 3-10.3 3.9-18.2 3.2l-6.6-.6-1-14.6c-.5-8-.6-15.6-.2-16.8.5-1.2.9-5.5 1-9.6.1-4.2.5-8.1.9-8.7.6-1 2.3-1 7.6-.1 9.1 1.6 15.4.6 23.9-3.6 6.1-3.1 8-3.6 15-3.7 4.8-.2 9.5-.9 11.8-1.9l3.7-1.6v-18.3l6.3.6c4.1.5 8 1.7 11.4 3.7 2.9 1.6 6.6 2.9 8.3 2.9h3.1l-.5 5.7c-1.2 13-1.6 24.9-.8 26 .4.7 2.9 1.7 5.6 2.3 2.6.6 6.9 2.2 9.4 3.5 5.7 3 10.4 3.2 17.9.5 3.2-1.1 7.8-2 10.4-2 4.3 0 4.7.2 5.2 2.9.8 4.1 4.7 5.1 19.4 5.1 10.1 0 13.4-.4 18.1-2.1 3.1-1.2 8.6-2.5 12.2-3 9.4-1.4 12-2.6 12-5.8 0-5-3-42.1-4.5-55.4-1.9-17.4-4-30.5-7.1-44.6l-2.6-11.4 1.9-15.1c1.1-9.3 1.7-19.7 1.5-27-.3-10.8 1.2-29.9 2.5-32 .3-.4.8-.4 1.2.2.9 1.4 5.1-.4 5.1-2.3 0-2.6-3-7.7-6.3-10.4-4.9-4.2-10-8-13.4-10.2-1.8-1.2-3-2.5-2.7-3s-.1-.6-.9-.3c-1.4.5-3.9-3.6-6.7-10.9-.6-1.7-2.2-3.3-3.9-4-2.2-.8-3.1-1.9-3.5-4.3-.7-3.3-.2-5 2.9-10.1l2-3.3h68.4l-2.5 3.7c-2.1 3.1-2.5 4.6-2.1 8.1.4 3.8.2 4.4-1.7 5.2-3 1.1-4.1 2.7-6.1 9-1.2 3.6-3.5 7.3-6.7 10.9-5.7 6.3-8.1 10.4-7.6 13.4.3 2 .5 2 2-.8l1.6-2.9v5.4c.1 6.3-2 19.7-4.9 31.8l-2 8.3 2.6 12.7c1.4 7 3.1 14.4 3.7 16.5 1.4 4.6.2 13-4.4 31.1-3.1 12.4-3.2 16.1-.4 21.8 1.9 3.6 2 9.3.5 18.6-3.2 20.5-6.5 105.3-4 102.7 1-1.1 2.4-22.1 4.1-64.5 1-23.5 2.6-44.7 3.6-47.8q.45-1.35 2.7 1.5c2.1 2.5 2.3 3.6 1.9 10-.4 6.3-.2 7.2 1.6 8.2 3 1.6 19.3 3.5 23.4 2.7 4.1-.7 4.5-1.5 5.5-9.4.5-4.3 1.3-6.3 3.4-8.4 3.5-3.6 3.5-3.5 3.8 17.7.1 9.3.5 21.3.8 26.5s.4 13.2.3 17.7c-.1 9-.5 8.5 6.5 9.5 1.2.2 2.1 1.2 2.2 2.3 1.6 19.2 2.8 28.7 3.5 29.1.4.3.8-6.5.8-15v-15.6l2.8-.5c6.3-1.3 10.2-2.6 10.8-3.7.4-.6.6-3.6.5-6.7-.2-3.1-.4-8.5-.5-12.1s-.6-8.3-1-10.6l-.8-4 8.9.4c8.8.4 23-1.1 24.6-2.7.4-.4.8-35.6.8-78.2 0-79-.3-88.3-3.8-93.8-1.3-2.1-1.3-2.5 0-3.9 1.8-1.8 1.9-1.4 3.6 10.2 1.2 8.1 4.6 15.4 10 21.3l3.9 4.3 5.8-7c7.6-9.1 10.3-13.9 13.9-24.4 1.6-4.7 3.3-8.6 3.7-8.6 1.7 0 2 3.1.5 6.8-4.1 10.3-2.7 27.5 3.2 39.2l2.9 5.9-2.3 13.9c-4.8 29.2-4.9 33-2.1 50.3 6.4 39.5 9.8 80.2 11.2 134l.7 26.6-3.3.6c-1.8.4-5.4.7-7.9.7-2.6 0-6.9.7-9.5 1.6-5.5 1.9-24.5 1.6-28.3-.4-1.2-.7-5.4-1.6-9.4-2.2s-7.5-1.3-7.8-1.5c-.6-.7-.6-3.1.3-47 .4-21.5.5-38.7.1-38.3-2 1.9-5.6 84.8-3.8 87.5.5.7 4 1.7 7.8 2.3 3.9.5 9.9 1.9 13.3 3 8.1 2.5 22.5 2.8 28 .4 2-.8 7.7-1.9 12.5-2.4 4.9-.5 9.5-1.4 10.4-2.1 1.3-1.2 1.5-4.6.9-28.9-1.2-48.8-5.4-98.3-11.2-133-2.9-17.1-2.9-20.2.7-43.5 3.3-21.8 3.3-21.7 1.1-28.6-2.6-7.8-3.7-18.1-2.8-25.3.7-5 1-5.5 3.4-5.8 2.1-.2 2.8-.9 3-2.9s-1-4.2-5-8.8c-2.9-3.3-5.8-6.1-6.4-6.1-1.9 0-5.8-5-8.9-11.3-1.8-3.7-4-6.7-5.5-7.4-3.7-1.8-3.9-7.4-.6-11.8 1.4-1.8 2.6-3.8 2.6-4.4 0-.7 5.2-1.1 15.5-1.1h15.5v249.7c0 137.4.3 252.2.7 255.2.6 5 .7 5.2 1.7 3 .8-1.7 1.2-98 1.4-335.9l.2-333.5 9.3-4.5c5-2.4 22.4-10.8 38.6-18.7s29.5-14.3 29.7-14.3.4 163.4.4 363.1v363.1l-2.7-.6c-1.6-.3-5.3-.6-8.3-.7s-6-.4-6.6-.6-.9-4.4-.6-12.1c.3-10 .1-12.4-1.6-16.2-3.9-9.1-11.4-13.5-18.9-11.2-2.6.8-4 .7-6.1-.4-1.5-.8-4.4-1.4-6.5-1.4-10.2 0-19.3 10-25.1 27.5-1.9 5.8-1 5.6-16.3 3.4-6.6-.9-8.6-.9-9.8.1-.8.7-1.5 1.7-1.5 2.3s-1.1 4.8-2.5 9.4l-2.6 8.3h-9.4v-30.9l8-.5c4.4-.4 10-.7 12.5-.9l4.5-.2.3-27.9c.2-29.3.1-30.6-4.2-30.6-1.2 0-6.2-1.7-11.2-3.8l-8.9-3.8-.3-4.8-.3-4.7 14.5.7c12.6.6 14.8.5 17.1-1 1.9-1.2 2.5-2.5 2.5-5 0-2.8-1.2-4.7-6.4-10.4-5.5-6-6.6-7.8-7.7-12.9-2.7-12.4-6.8-17.2-20.3-23.7l-9.4-4.5-.7-6.3c-2-18.8-3.7-29.3-4.8-30-.7-.4-5.6-.8-10.9-.8h-9.7l-.6-3.8c-1.4-8.2-3.7-14.4-7.5-20.1-5.3-8-7.8-9.6-15.4-9.6-13.2 0-19.5 7.3-23 26.5l-1.1 6.5-8.9.5c-8.3.5-9 .4-10.3-1.7-.8-1.2-2.3-2.5-3.4-2.8-1-.3-3.1-2.5-4.6-4.8-4.5-6.6-8.4-8.7-16.3-8.7-6.3 0-6.7-.2-9.1-3.2-1.3-1.8-3.5-5.3-4.9-7.8-3-5.4-8.3-8.6-16.6-10.1-9-1.5-10.6-2.5-17.4-10.1-10.4-11.6-17-13.1-32.4-7.3-3.6 1.4-8.4 2.5-10.5 2.5s-6.2.5-9.2 1c-5.2 1-5.4 1-8.2-2-5.4-5.7-7.2-6.3-31.3-8.7-8.1-.8-13.1 2.8-25.9 18.7-5 6.3-5.5 6.6-11.6 7.8-15.6 3.2-15.6 3.2-23.2 13.2-3.2 4.2-3.6 4.5-7.8 4.3-2.4-.1-7.5-.8-11.3-1.4-5.3-1-7.8-1-11.3-.1-5.5 1.5-7.7 3.2-12.8 9.5-6.3 7.9-8.1 9.7-13 12.8-4.7 3-4.7 3-4.3 7.9l.3 5-3.3-.6c-3-.6-3.3-.4-3 1.2.4 2.1 4.1 2.8 21.3 4.2l9 .7-5.8 2.3c-3.2 1.2-6.5 2.2-7.3 2.2-.9 0-1.4.6-1.1 1.2.6 1.9 8.5 1 12.5-1.3 1.9-1.1 3.8-1.6 4.4-1.3.7.4.8.2.4-.4-.7-1.2 3.1-3.5 7.6-4.6 2-.4 3.9.2 7.9 2.9 3 1.9 6 3.5 6.7 3.5.9 0 .4 1.2-1.5 3.4-2.6 3.2-3.3 3.5-8.6 3.5-4.5.1-5.9.5-6.4 1.8-.3 1-2.3 3.6-4.4 5.8-2 2.2-5 6.2-6.6 9-1.6 2.7-4 5.5-5.4 6.2-1.3.7-2.4 1.8-2.4 2.4 0 4.2 7.5-.5 10.4-6.3 1.2-2.5 3.2-5.5 4.6-6.8l2.5-2.3v38.9c0 35.5.5 43.2 2.5 41.2 1-1 1.5-19.4 1.5-54.8v-32h3.4c5.7 0 6.6.8 6.6 5.6 0 2.4.7 8.8 1.5 14.2 1.5 10.2 1.3 12.7-1.9 27.7-1.4 6.8-1.3 8.2 1 17.7.3 1.5 1.5 3 2.5 3.3 2 .7 2.4 3 1.3 8.3-.5 2.5-1.2 3.1-4 3.7l-3.4.6v10.3c0 5.7.3 12.4.6 15 1.3 8.8 2.4 4.5 2.4-8.9 0-12.6.1-13.5 1.9-13.5 1.1 0 3.2.6 4.8 1.4 3 1.5 21.6 4.7 27.3 4.6 4.2 0 5.5-.8 6.4-3.8l.7-2.2h159.9v68l-91.2.2c-60 .2-91.3.6-91.3 1.3s30.8 1.1 89.8 1.3l89.7.2v12.9l-89.4.3c-49.2.2-89.8.6-90.2 1-.4.5-.4 1.1 0 1.5.4.5 61.3.9 135.4 1.1 74 .1 134.8.4 135 .6s.7 3.2 1.2 6.6c1 6.7 2.2 9 5.1 9 3.1 0 15.7 4.7 18.6 6.9 2.8 2.3 7.3 2.7 9 1 .6-.6 3.5-1.9 6.5-2.9 4.5-1.4 5.3-2.1 5.6-4.4.3-2-.6-3.6-3.5-6.4-2.1-2-4.6-4.2-5.5-4.7-.9-.6-1.9-1.9-2.2-3.1-.6-2-.2-2.1 9.8-2.6 5.8-.3 11.8-.3 13.4.1l2.9.6-5.2 18.5c-2.9 10.2-5.5 19.8-5.9 21.3l-.7 2.8-3-2.5c-2.7-2.3-4-2.6-10.6-2.6h-7.6l-5.2-5.4c-4.4-4.6-6.2-5.8-12.4-7.6-9.6-3-14.5-2.4-20.8 2.3-9.8 7.4-13.8 9-25.3 9.7-12 .7-15 2-18.1 8.1-1 2.1-1.9 4.3-1.9 4.9s-2.1 3.9-4.6 7.2c-4.1 5.3-5 5.9-7.3 5.3-1.4-.3-5-.9-7.8-1.2-6.6-.7-9 .7-13.7 8-2.3 3.6-4.4 5.8-6.7 6.6-16.9 6.5-21.7 12.5-15.1 19.1 2.1 2.1 4.8 3.2 10.8 4.5 4.3.9 10.6 2.5 13.8 3.6 3.5 1.1 8.8 1.9 12.7 1.9 3.7 0 7.1.4 7.4 1 .3.5 2.2 1 4.1 1 4.5 0 9.8 2.2 14.8 6.4 2.3 1.8 7.2 5.4 10.9 7.9 8.2 5.7 10.4 5.8 21.9 1.7 10-3.5 20.4-6.2 39.7-10.1 17.2-3.5 18-3.5 28.4-.8 9.3 2.4 15.8 2.6 44.4 1.4 20.6-.8 22.1-1.3 20.9-5.8-.3-1.3-2.4-4.4-4.6-7l-4-4.6 10.7 3c6 1.6 13.7 3.7 17.2 4.6l6.4 1.6 19.4-3.8c10.6-2.1 19.8-4.2 20.4-4.6.9-.5.7-5.3-.7-18.5l-1.9-17.9 2.7-.3c1.9-.2 3-1 3.3-2.5.3-1.2.4-181.3.3-400.2l-.3-398-7.3-1.4-7.2-1.3-7.8 3.7c-4.2 2.1-17.4 8.5-29.2 14.2s-26.9 13.1-33.5 16.4l-12 5.9h-601.1l-7.5-3.6c-4.1-2-10.5-5.1-14.4-6.9-6.1-2.9-19.1-9.1-52.6-25.3-9.3-4.6-8.9-4.5-16.9-2.8m784.6 3.6c1.2 0 1.4 60.8 1.4 396.9 0 243.9-.4 397.2-.9 397.6-1.1.6-2.4-1.2-2.8-4-.1-1.1-.5-3.8-.8-6-4.8-32.6-4.5-3-4.5-409.9V3.947l3.1.7c1.7.3 3.8.6 4.5.6m-93.6 44.5v6.5h-599v-6.4c0-3.5.4-6.6 1-6.8.5-.2 135.3-.2 299.5 0l298.5.2zm0 58.5v48h-13v-25.9c0-22.4.2-26 1.5-26.5 1.3-.4 1.5-1.9 1.3-6.8l-.3-6.3-62.7-.3-62.8-.2-.1 2.7c-.1 1.6-.2 4.1-.4 5.8-.1 1.7.4 3.8 1.4 4.9 1.4 1.6 1.6 5 1.5 27-.1 13.8-.4 25-.8 24.8-.3-.1-1-.2-1.5-.2-.6 0-.6-1.1 0-2.9 1.4-3.9-.9-8.8-5.6-12-1.9-1.2-4.3-4.2-5.3-6.5-1-2.2-2.9-6.5-4.2-9.4s-4.3-7-6.6-9.2c-5.7-5.2-10.4-5.9-21.7-3-7.3 1.9-9.3 2-13.7 1.1-2.8-.6-6.6-1.1-8.4-1.1-1.9 0-3.9-.7-4.7-1.6-2.6-3.1-6.8-4.4-14.3-4.4-6.5 0-7.7-.3-9-2.2-.8-1.2-1.2-2.6-.9-3.1.3-.6.1-.7-.5-.4-.5.4-2.9-.9-5.2-2.8-7-5.9-12.2-6.6-25.5-3.5-9.9 2.3-13.5 2.4-25.4.9-14.2-1.9-19 .4-29 14-4.9 6.6-5.3 6.9-11.8 8.6-9.2 2.4-12 4.7-15.5 12.2-3.1 6.6-4.5 7.6-6.5 4.3-1.7-2.6-5.6-4.5-12.2-5.9-6.7-1.4-9.8-3.6-19.9-14.4-5.2-5.7-11.5-7.5-20.2-5.9-8.4 1.6-13.8.9-21.9-2.7-11.5-5.1-19.2-4.5-30.2 2.5-2.7 1.6-4.8 4.2-6.6 7.8-2 4.2-3.3 5.6-5.5 6-1.5.3-4 .9-5.6 1.2-2.3.5-3.2 0-5.9-3.3-1.7-2.2-5.2-5-7.7-6.3-2.5-1.4-4.6-3.2-4.6-4.1s-1.2-2.9-2.7-4.5-2.6-3.3-2.5-3.7c.1-.5-.2-.6-.7-.3s-2.6-.1-4.7-1c-3-1.3-5.8-1.5-12.4-1.1-8 .6-8.6.5-13-2.2-12.2-7.7-23.9-5.9-32.2 4.8-2 2.6-4.2 5.9-4.8 7.2-.7 1.4-3.8 3.8-7.6 5.8-6.9 3.6-9.4 6.8-9.4 12.1 0 2.4-.4 3-2.1 3-2.6 0-7.9 5.5-7.9 8.2 0 1 .5 2.8 1 3.9.9 1.5.7 2.3-.5 3.6-2.4 2.3-3.7 6.3-3 9 .5 2.1.3 2.3-2.2 1.9-1.5-.2-3.1-.5-3.5-.5-.5-.1-.8-21.5-.8-47.6v-47.5h599zm-14-11.5v3.5h-119v-7h119zm-510.5 4.2c9.5 5.5 12.5 6.5 13.2 4.6.2-.6-1.1-1.5-2.9-1.9-3.2-.7-3.2-.8-.8-1.5 6.9-2 17.7 1.2 20.8 6.1 1.1 1.9 1 2-3.1 2s-7.1 1-14 4.5c-2.3 1.2-3.3 1.2-6.5.1-6.3-2.2-22.5-2.8-26.8-1-4.8 2-3.2 3.5 2.5 2.4 5-.9 17.9.2 26.1 2.3 6 1.5 8.7 1.3 7.1-.7-.8-.9.4-1.7 4.5-3.1 4.8-1.6 6.3-1.7 11.1-.7 7.1 1.5 11.6 4.9 16.6 12.9 3.2 4.9 5.2 6.8 9.1 8.8l5 2.5h-4c-2.2 0-6.4-1.3-9.9-3-5.6-2.7-8.3-3.1-6.9-.9.3.5 2.9 2.1 5.7 3.6 4.1 2 7.2 2.7 14.6 3.2 9.1.6 9.4.7 12.2 4.1 3 3.5 3.8 8.3 1.7 9.6-1.5 1-8.6.6-10.7-.6-1-.5-4-.3-7.6.6-7.2 1.7-33.2 1.9-39 .3-2.7-.8-5.9-3-10.1-7.3-12.7-12.6-20-17.3-27.4-17.6l-3.5-.2 4-1.9c2.2-1 5.5-2.1 7.3-2.5 3.4-.7 4.5-3.4 1.4-3.4-3.5 0-11.9 3-15.7 5.6-3.7 2.5-4.2 2.6-13.6 1.9-11.8-.9-13.8-1.9-12-6.3 1-2.3 3.2-4 9.8-7.3 4.8-2.5 8.9-5.1 9.1-5.8.3-1 0-1.2-1.2-.8-1.5.6-1.5.4-.2-2.1.8-1.5 2.9-4.2 4.8-6.1 7.8-8 15.8-8.1 29.3-.4m282-3.3c3.2 1.4 13 10.4 12.2 11.2-.2.3-3.3-.5-6.8-1.6-7.5-2.3-6.9-2.2-6.9-1.1 0 .5 2.4 2.1 5.3 3.5 4.6 2.2 5.8 2.4 9.7 1.5 10.1-2.2 13.2-2.3 16.6-.4 1.9 1 3.4 2.1 3.4 2.5 0 .3-2.1 1.6-4.6 2.8-3.8 1.9-4.9 2.1-6.2 1-2.8-2.4-19-1.2-31.4 2.4-5.2 1.5-4.9 3.2.5 2.4 14-2.2 22.8-3.1 26.9-2.8l4.8.4-4.6 5.9c-5.6 7.3-9.2 9.3-15.1 8.5-3.7-.5-4.7-.2-7.5 2.2-3.2 2.7-15.9 9.2-18.1 9.2-.5 0-3.4-1.8-6.3-4-5.2-4.1-12.4-6.4-12.4-4.1 0 .6 1.2 1.6 2.8 2.2 1.5.6 5.1 2.6 8 4.6 4.8 3.1 5.3 3.8 4.7 6.2-1 3.9-2 4.5-5.4 3.1q-3.15-1.2-6.3-6.9c-4.2-7.5-13.7-16.6-20.5-19.8-5.1-2.5-5.4-2.8-4.9-5.5.3-1.7 1.5-4.2 2.6-5.8 2.2-3.1 2.7-6.4.9-5.8-.7.2-2.8 3.4-4.7 7.1-3.4 6.5-3.5 6.8-1.7 8.7 1 1.1 2.4 2 3.2 2 .7 0 1.3.4 1.3.9 0 1.3-12.2 2.5-15.7 1.6-3.3-.8-5.3-2.3-5.3-3.9 0-1.9 16.6-22.2 20.3-24.8 2.7-2 4.4-2.3 11.2-2.2 4.4 0 11.2.3 15 .7 5.6.6 8.4.4 14-1.2 8.5-2.3 16.4-2.6 21-.7m226 31.8c0 21.6-.2 25.4-1.5 25.9-.8.4-26.4.7-56.7.8l-55.3.2v-52.1h113.5zm-410.9-21.8c3.2 1.3 11.3 5.1 17.9 8.5l12 6.1-10 .1c-10 .1-10 .1-5.6 1.5 5.8 1.8 23.3 2.3 23.9.6.5-1.7 7.5-1.5 11.9.3 5.2 2.2 7 4 9 9.4.9 2.5 3.3 7.2 5.2 10.5 3.4 5.7 3.4 5.9 2.3 11.5-.8 3.7-.8 6.9-.2 9.6 2 8.6 1.8 9.1-6.2 11.5-4 1.1-10.4 3-14.1 4.1-3.7 1.2-7.3 1.9-8 1.6s-1.9-2.4-2.6-4.8-2.3-6.7-3.6-9.4c-1.3-2.8-2.8-6.8-3.4-9.1-1.5-5.6-11.8-20.2-17.2-24.2-2.4-1.8-7.4-5.6-11-8.4-7.3-5.7-13.7-8.7-18.6-8.7-4.9-.1-4 1.3 1.7 2.8 6.2 1.6 6.9 2.6 2.2 2.8-5.3.2-17.2-1.9-17.2-3 0-2.7 3.8-8.2 7.3-10.4 9.1-5.8 15.3-6.5 24.3-2.9m40 6.2c2.2 1.5 4.6 3.5 5.3 4.5 1 1.8.9 1.9-1.2 1.4-1.3-.4-4.1.1-6.2.9-3.7 1.6-4 1.6-7.4-.8-2-1.3-5.8-3.5-8.5-4.8l-4.9-2.3 3.4-.6c1.9-.4 6.1-.7 9.4-.8 5-.1 6.8.4 10.1 2.5m225.1 2.4c4.4 2.7 8.3 8.3 11.7 16.9 2.3 5.8 3.6 7.7 6.7 9.8 2.1 1.4 4.1 3.4 4.5 4.5.8 2.7-.3 6.5-2.2 7.2-2.2.9-32.2.7-36.2-.2l-3.4-.7 4.3-2.5c4-2.2 5.3-2.4 16-2.1 12.1.2 17.2-.4 16.6-2.2-.2-.7-5.7-1.1-15.3-1.1h-14.9l-7.8 4.3c-4.3 2.4-12.7 6.3-18.5 8.6l-10.6 4.3-1.3-2.7c-1.8-3.6-6.5-6.4-16.5-9.9-7.7-2.7-17.1-4.9-19-4.4-1.8.5-.5-.8 4.4-4.3 5-3.6 5.3-3.7 11.4-3.1 4.7.5 7.3.2 10.3-1 4.6-1.8 5.6-4 1.4-2.9-8.5 2-8.1 2.1-4.7-1.6 1.7-1.9 4.5-5.3 6.3-7.6 1.9-2.6 5.3-5.2 8.7-6.9 5.1-2.5 6.1-2.6 13.2-1.9 9.9.9 12.7.8 18.2-1 6.5-2 12.9-1.8 16.7.5m-164.8 7.1c-1.4 2.7 0 6.1 3.4 8.4 2.8 1.8 11.1 2.3 20.7 1.1l6.5-.8 5.5 5 5.4 4.9-26.8-.3c-21-.2-27.1-.5-27.8-1.6-2.1-3.3-1.9-5.9.6-10.3 2.7-4.5 4.7-6.1 9.5-7.6 4-1.2 4.3-1.1 3 1.2m-128.6 2.8c5.2 1.4 8.9 1.7 15 1.4l8.2-.5 6.5 5.2c3.6 2.9 6.4 5.6 6.3 6.1-.2.4.3.6 1.1.3s1.7-.1 2.1.5c1.3 2.2-8.1 1.2-12.8-1.3-5.3-2.9-11.7-4.4-11.7-2.8 0 2.6 17.9 8.9 25.7 9.1 2.7.1 3.7.9 6.4 4.8 1.8 2.7 3.7 5.1 4.3 5.5 2.1 1.4-4.4 1.9-21.9 1.6l-18-.3.3-3c.1-1.7-.8-4.7-2.1-7-2.2-3.9-6.9-7.1-18.2-12.4-2.2-1-4.8-2.8-5.9-3.9-1.8-2.1-1.8-2.2.5-3 1.3-.5 3.1-1.2 3.9-1.5 2.4-.9 3.2-.8 10.3 1.2m101.6 8.8c1.9 1.5 2.7 3 2.9 6.1.2 3.2.7 4.1 2.3 4.4 1.1.2 2.8 1.5 3.7 3.1 2.6 4.2.8 6.1-5.9 6.5-5.4.3-5.4.3-5.6-2.7-.1-1.6-1.8-6-3.7-9.8-1.9-3.7-3.7-7.8-4.1-8.9-.5-2-.3-2.1 3.6-1.4 2.3.4 5.3 1.7 6.8 2.7m-203.4-1.4c15.4-.7 20.8.3 25.4 5.1l3.1 3.2-27.7-.1c-15.3-.2-28.1-.3-28.5-.4-.5 0-.8-1.4-.8-3 0-5.3 2.9-6.3 14.5-5.4 5.5.4 11.8.7 14 .6m214.8 10.8c-.5.4-1.8 0-3.1-.9-2.1-1.6-2.1-1.8-.6-4.1l1.7-2.3 1.4 3.3c.7 1.8 1 3.6.6 4m89.4 2.9c-.8 2.2-.8 3.8 0 6 1.1 3 1.1 3-2.4 3-2.8 0-3.4-.3-2.9-1.6 1-2.7-.4-3.5-3.4-1.9-3.7 1.9-3.9 1.9-3.3-.5.7-2.6 2.7-4.1 8.2-6.1 2.5-1 4.7-1.8 4.8-1.8.1-.1-.4 1.2-1 2.9m-265.3 3.5 5.3 5.4-35.9.1c-23.4 0-36.5-.3-37.8-1-2.8-1.5-2.7-6.4.2-8.4 1.9-1.4 6.7-1.6 32.6-1.6h30.4zm238.3-.7c1.2 2.5 2 4.9 1.7 5.2-1 1-58 1.1-60.6.1-2.1-.8-2.4-1.4-2-4.3.7-5.8 1-5.8 31.1-5.8l27.6.1zm46.1 2.2c12.6 4.1 19.2 7.5 19.2 10 0 3-2.5 2.5-14.1-2.5-5.7-2.4-11.9-4.5-13.7-4.5-4.4 0-7.2-1.6-7.2-4 0-2.9 4.7-2.6 15.8 1m-166.4 13.2 2.4 5.8h-200.8v-5.3c0-3 .3-5.6.6-6 .3-.3 44.5-.5 98.1-.4l97.4.2zm173.2-1.5c10.1 4.8 10.9 4.9 15.6 2.9 1.8-.8 6.7-2.8 10.9-4.4l7.6-3.1 96.6-.1h96.7v12h-356.7l-.7-4.6c-.3-2.6-.6-5.3-.6-6.1 0-1.1 9.5-1.3 60.8-1.1l60.7.3zm-167.1 17c2.5 7.3 3.6 7.5 17.5 2.9 5.8-1.9 12.4-4 14.8-4.6s4.6-1.8 4.9-2.6c.4-1.2 24.1-1.4 178.9-1.4h178.4v17h-15.9c-12.9 0-16.1-.3-17.1-1.5-1.6-1.9-5.1-1.9-7.6 0-2.8 2.1-40.1 2.2-43 0-2.5-1.9-6.8-1.9-8.4 0-1.8 2.2-38.6 2.2-41.4 0-1.1-.8-2.9-1.5-4.1-1.5s-3 .7-4.1 1.5c-1.6 1.2-7.1 1.4-31.9 1.4s-30.3-.2-31.9-1.4c-1.1-.8-2.9-1.5-4.1-1.5s-3 .7-4.1 1.5c-2.9 2.2-51.6 2.2-53.4 0-1.6-1.9-5.1-1.9-7.6 0-2.9 2.2-73.6 2.2-75.4 0-1.6-1.9-5.9-1.9-8.4 0-2.9 2.2-41.8 2.2-43.6 0-1.6-1.9-5.1-1.9-7.6 0-2.8 2.1-55.2 2.1-58 0-2.5-1.9-6.8-1.9-8.4 0-1.9 2.2-60.2 2.2-62-.1-1.6-1.8-5.1-1.8-7.6.1-1.5 1.2-6.6 1.4-27.6 1.5h-25.8v-17h202.5zm-143 16.3c.3 1.1.3 2.4 0 3-.4.6-11.7 1-31.1 1h-30.4v-6h30.4c29.5 0 30.5.1 31.1 2m69.5 1v3h-67v-6h67zm66.3-.8c.3 1.2.4 2.5.1 3s-14.5.8-31.5.8c-25.4-.1-30.9-.3-30.9-1.5 0-.7-.3-2-.6-2.9-.6-1.4 2.6-1.6 30.9-1.6 31.5 0 31.5 0 32 2.2m51.6 0c.5 1.3.6 2.7.1 3.1-.4.4-11.4.7-24.6.5l-23.9-.3-.3-2.8-.3-2.7h24.1c24 0 24.1 0 24.9 2.2m83.4.4c.2 1.4 0 2.8-.7 3-.6.2-18.6.3-40 .2l-39-.3-.7-2.8-.7-2.7h80.6zm61.1-1c1.7 4.5 2.2 4.4-28.3 4.4-25.4 0-29-.2-29.5-1.6-1.7-4.5-2.2-4.4 28.3-4.4 25.4 0 29 .2 29.5 1.6m72.1.4c.3 1.1.3 2.5 0 3-.4.7-12 1-34.5 1l-33.8-.1-.4-3-.5-2.9h34.3c33.3 0 34.3.1 34.9 2m49.9.2c.3 1.3.6 2.7.6 3.1s-10.5.7-23.4.7l-23.4-.1-.4-3-.5-2.9h46.5zm50.4 1 .3 2.8h-23.5c-19.7 0-23.6-.2-23.6-1.4 0-.8-.3-2.2-.6-3-.6-1.5 1.7-1.6 23.2-1.4l23.9.3zm33.2-.2v3.1l-14.7-.3-14.8-.3-.3-2.8-.3-2.7h30.1zm-540.2 8.7c-1.9 2-2.7 4.1-2.9 7.3-.3 5.1-1.4 7-3.9 7-1.7 0-8 6.2-8 7.9 0 .5-1.2 1.1-2.7 1.4-1.6.4-5.5 3-8.8 6-3.3 2.9-10.7 7.9-16.5 11-11.3 6-13.1 7.5-14.8 12.2-.8 2.2-1.1-4.5-1.1-26.3l-.1-29.2h61.4zm69.3-.1c-1.5 2-2.1 4.1-2.1 8 0 4.9-.2 5.4-2.5 6-1.4.3-3.7 2.2-5.2 4-1.4 1.9-3.2 3.4-4 3.4-.7 0-2.8 2.2-4.4 4.9-2.1 3.3-5.1 6.2-9.6 9.1l-6.5 4.1-3.6-1.7c-3.9-1.8-9.9-7.2-9.5-8.6.2-.4-.1-.8-.5-.8-.5 0-1.9-.9-3.2-2s-3.1-2-4.1-2-3.1-1.9-4.8-4.4c-1.7-2.4-4.4-4.9-6-5.6-4.6-1.9-5.2-6.6-1.5-12.4l2.9-4.5 33.3-.1h33.3zm66 0c-1.5 2-2.1 4.1-2.1 8 0 5.2-.1 5.4-3.5 6.8-2.2 1-4.1 2.7-5.1 4.9-1.1 2.3-2.6 3.7-4.3 4.1-1.4.3-5.2 3.1-8.5 6.1-3.2 3-7.4 6.3-9.3 7.2-3.2 1.5-3.6 1.4-6.7-.2-2-1.1-3.8-3.1-4.5-5.1-1.4-3.8-6.4-8.4-9.2-8.4-1 0-1.9-.6-1.9-1.4 0-2.3-4.7-7.3-7.5-8-2.2-.6-2.5-1.2-2.5-5 0-2.9.8-5.7 2.3-8l2.2-3.5 31.3-.1h31.3zm51.9.6c-1.2 2-2 5.1-2 7.8 0 4.2-.3 4.7-3.4 6.4-2.6 1.4-4.2 3.4-6.2 8-1.9 4.5-3.9 7.1-7.4 9.8-2.7 2.1-5.2 3.8-5.7 3.8s-3.3-2.5-6.3-5.5-6.1-5.5-7-5.5c-.8 0-2.6-2.1-3.9-4.6-1.6-2.9-3.7-5.2-5.8-6.2-3-1.4-3.3-2-3.3-6 0-3.1.7-5.3 2.6-7.8l2.6-3.4h47.8zm83 0c-1.2 2.1-2 5.1-2 8 0 4.2-.3 4.8-3.3 6.5-2.4 1.5-3.7 3.2-4.6 6.4-.9 2.9-2.7 5.5-5.2 7.7-2.1 1.8-4.1 4.3-4.5 5.5s-3.2 5-6.4 8.3c-5.7 6.1-5.7 6.1-6.8 15-.7 4.9-1.6 13.4-2.2 18.9-.5 5.5-1.7 17-2.5 25.5-.9 8.5-1.9 19.1-2.3 23.5l-.8 8-.7-9c-3.1-37.8-6.5-69.9-7.8-74.3-.7-2-3.4-5.2-7.1-8.5-11.1-9.6-15-14-17.2-19.7-1.6-4.2-2.8-5.8-5.3-7s-3.3-2.2-3.4-4.5c-.3-5-.1-6.1 2.3-9.8l2.3-3.6 39.7-.1h39.8zm62.1-.8c-2.2 2.3-2.9 5.1-3 11.8-.1 1.6-.7 2.8-1.4 2.8-2.1 0-5.3 4.1-8 10.1-1.4 3.1-3.7 6.5-5.2 7.5-1.4 1.1-5.5 4-9 6.6l-6.3 4.7-4.1-3.5c-2.7-2.4-4.1-4.4-4.1-6 0-3.5-1.5-2.9-3.9 1.6-1.3 2.5-2.3 6.9-2.7 12-.6 7.5-1.4 9.4-2.9 7-1.2-1.9-2.4-1-3.4 2.7-4.5 17.3-10.3 65.9-7.5 63.1.1-.2 1-5.5 1.8-11.8 1.6-11.6 5.7-36.1 7.4-43.5l.9-4 .6 5.5c.3 3 .9 12.5 1.1 21 .3 8.5 1.2 21.1 2.1 28 .8 6.9 1.5 15.6 1.5 19.5 0 6.2.8 13.8 4 40 .7 6.1.6 7.2-1.2 9.4-1.1 1.5-3.2 2.7-5.1 2.9-2.6.3-2.9.1-1.9-1.1.7-.8 2.6-2 4.2-2.7 3.1-1.3 4-3 1.6-3-5.4 0-7.8 1.4-9.6 5.4-1.5 3.5-2.5 4.4-6.1 5.6-9 3-17.8.4-21.2-6.3-1.8-3.5-1.8-4.6-.7-17.5 1.1-13.2.5-34.2-1-34.2-1.1 0-2 48-.9 50.1 1.4 2.7-2 2.5-5.6-.3-2.7-2.1-2.7-2.4-2.2-9.2.4-3.9 1.3-12.7 2.2-19.6.8-6.9 1.7-21.5 2-32.5 1-39.5 1.6-51.1 2.9-56.9.8-3.3 1.2-6.5.9-7.2-.4-1.2 1.8-12.2 3.8-18.9.5-1.7 1.8-4.1 2.9-5.5l2.1-2.5-.7 2.7c-.7 3.2 1.3 12.3 3.4 15.6l1.5 2.3 2.2-2.3c2.2-2.2 3.5-4.4 11.7-19.5l3.9-7.2-1.7-3.6c-.9-2-2.8-4.1-4.1-4.6-1.9-.7-2.3-1.6-2.3-4.9 0-2.4.9-5.7 2.3-8l2.2-4h58.8zm121 1c-1.4 2.2-2.1 5-2.1 8.2 0 4.5-.3 5-3.2 6.4-2.4 1.1-3.6 2.8-5.1 6.8-1.3 3.4-3.2 6.3-5.4 7.9-1.8 1.4-5.2 4.3-7.5 6.4l-4.3 3.9-2.2-2.8c-1.3-1.5-3.2-4.4-4.3-6.4-1.1-2.1-3.1-4.5-4.5-5.4s-2.5-2.3-2.5-3.1c0-2.5-3.2-7.1-5.7-8.2-3.4-1.5-3.2-8.2.3-13.3l2.7-3.8h45.9zm50.9-.9c-1.8 1.9-2.5 4-2.8 8.3-.4 5.1-.8 6-3.2 7.4-1.9 1.1-3.3 3.2-4.5 6.7-2.1 6.5-10.8 14.8-14.7 14.2-.5 0-.7.2-.7.6.7 4.1-4.9-.4-7.3-6-2.3-5.1-4.6-7.7-6.7-7.7-.9 0-2.3-1.7-3.3-4-1-2.6-2.6-4.4-4.3-5-2.6-1-2.7-1.4-2.3-5.9.3-3.1 1.4-6 2.9-7.9l2.4-3.1h23.4l23.4-.1zm-502.5 17.9c1.8.8 4.1 2.7 5.1 4.3 1 1.5 3 4.4 4.4 6.3 2.9 3.8 4.4 8 2.8 8-.5 0-.6.5-.2 1.2.8 1.2.7 1.2-7.3-3.9-2.9-1.8-6.3-3.3-7.7-3.3s-5.1 1.6-8.3 3.5l-5.8 3.5-.3-4.1c-.3-4.2 1.2-7.4 3.1-6.2.5.3.7.1.4-.5-1.1-1.6 2.5-6.9 5.8-8.6 3.8-1.9 3.9-1.9 8-.2m72.2.8c3.2 2.5 9 15.8 6.9 15.8-.2 0-3.2-1.3-6.7-3-8.2-3.8-13.6-8.6-12.2-10.9 2.3-3.7 8.5-4.7 12-1.9m65.2-.2c1.8 1 9.1 14.7 9.1 17.1 0 1.6-1 1.2-6.2-2.1-3.3-2.2-6.5-4-6.9-4-.5 0-3.1 1.3-5.9 3-2.8 1.6-5.3 3-5.5 3-.3 0-.5-1.6-.5-3.5 0-4 5.9-14.1 8.7-14.8 1.9-.5 4.9.1 7.2 1.3m317-.3c1.2 1 2.6 3.4 3 5.3 1 4.5-1.2 7.2-5.6 6.8-2.8-.2-7.1 1.8-10.1 4.9-.7.7-2 1.3-2.7 1.3-1.7 0-1-2.6 1.4-5.3.9-1.1 2.5-4.2 3.6-7 1.3-3.2 3.1-5.7 4.6-6.4 3.1-1.6 3.3-1.6 5.8.4m-265.6.5c.9.7 2.8 4 4.3 7.3 1.5 3.5 4 7.2 6 8.8 6 5 6.2 7.4.2 3-7.6-5.6-12.3-8.3-14.2-8.3-2.2 0-6.5 2.3-14 7.2-3.2 2.1-6.1 3.7-6.3 3.4-.3-.2 2.2-3.1 5.5-6.3 3.9-3.8 6.2-7 6.7-9.2 1.3-6.2 7.4-9.2 11.8-5.9m83.9 1.4c1.6 3.4-1.4 9.4-4.7 9.4-1.2 0-4.1 1.4-6.3 3-4.7 3.4-5.2 2.5-2.2-3.8 1.1-2.2 2-4.7 2-5.4 0-5.6 9-8.2 11.2-3.2m60.4-1.8c.6.4 2.5 3.4 4.2 6.7 1.6 3.3 3.9 6.9 5.1 7.9 1.2 1.1 2.1 2.3 2.1 2.8 0 1.5-2.6.9-4.3-1-1-1-3.9-2.9-6.6-4.2l-4.9-2.3-3.9 2.3c-2.1 1.3-5.5 3.7-7.6 5.3-5.1 4-5.8 2.7-1.2-2 2.1-2.1 5-6.6 6.6-10.1 2.6-5.8 3-6.2 6.1-6.2 1.8 0 3.8.4 4.4.8m73.4 4c2 5.7.7 7.8-4.6 7.4-3.4-.2-4.4.2-8.2 3.9-4.3 4.3-5.7 3.8-2.3-.9 1-1.5 2.6-4.9 3.5-7.7 2.3-6.5 3.3-7.7 7-7.3 2.7.3 3.3.9 4.6 4.6m101.5 1.9c1.7 3.4 4.3 7.6 5.9 9.2 4.5 4.7 2.4 4.8-4 .2-7.6-5.5-10.4-5.4-18.3.4-6.5 4.8-8.1 4.8-3-.1 1.7-1.6 4.2-5.4 5.6-8.4 3.5-7.5 4.2-8.1 7.7-7.8 2.7.3 3.5 1.1 6.1 6.5m-389.3 6.5c-.3 4.3.4 9.6 5.2 36.3 5.3 29.7 7.5 53.6 7.5 81.5.1 24.1 1.1 47 2.1 47 .9 0 1.9-5.8 2.2-12 .2-7 1.6 14.1 1.7 27.6l.1 12.1-5.5 1.8c-4.9 1.7-6.1 1.8-11.7.6-3.5-.7-6.6-1.6-6.9-1.9-.3-.4-1.4-17.2-2.3-37.4-2.2-45.3-2-135.9.2-132.7 1.9 2.8 3.9 11.1 6.1 26.1 2.4 16.1 8 44.7 9.2 46.8 2.2 3.9.1-15.3-5.1-46.6-3.3-19.2-5.8-27-10.1-31.4-2.8-2.7-2.9-3.3-2.3-8.2.6-4.6 1.3-5.8 5.3-9.5 2.5-2.3 4.6-4.2 4.6-4.3 0 0-.1 1.9-.3 4.2m347.2.4c1.4 2.6 2.6 5.2 2.6 5.9s1.2 2.1 2.8 3.1l2.7 1.8-2.5.7-2.5.6 2.7 1.1c7 2.9 7.7 10.8 7.8 94.9v60.3l-2.2.4c-1.3.3-4.4.8-7 1.1-2.7.3-4.8 1-4.8 1.5 0 1 11.4 1.8 11.8.8.2-.5.8-.8 1.3-.8s.9 2.7.9 5.9v5.9l-3.7 1.3c-4 1.3-22.6 1.9-23.8.7-2.2-2.2-2.7-99-.6-116.8 2.2-19 7.8-38 12.6-43.3 2.8-3 3.3-5.2.9-4.3-.9.3-2 .6-2.5.6-1.1 0-6.2 10.1-7.7 15.5-2.3 8.2-5.1 22.3-6.4 32.5-.9 7.4-1.3 25.2-1.3 60 0 27.2-.3 46.6-.6 43-.9-8.3-3.4-30.8-5.4-47.5-2.1-17.6-5.2-47.1-6-57.5-.5-6.6-.3-9.4.9-12.5.9-2.2 3.6-11.3 6.1-20.2 5.2-18.8 8.4-25.8 15.5-33.7 2.9-3.1 5.3-5.6 5.5-5.6s1.5 2.1 2.9 4.6m-448.5.8c1.3 1.2 3.6 3.3 5.2 4.8 1.5 1.6 3.1 2.8 3.7 2.8.5 0 1.5.6 2.1 1.4.9 1 .6 1.7-1.1 2.8-5.3 3.5-7.6 7-9.5 14.1l-1.8 7.2-.7-13.5c-.4-7.4-.8-14.8-.8-16.3s-.5-3.7-1.1-4.9c-1.3-2.4-.1-1.9 4 1.6m68.6.6c2.3 3.4 2.7 4.7 2.2 8.5-.2 2.5-.7 4.9-1 5.2s-1.8-.8-3.2-2.3c-1.9-2.2-2.4-3.6-2-5.8.3-1.6.5-4.4.5-6.2 0-1.9.2-3.4.4-3.4s1.6 1.8 3.1 4m334.2 8.8c7.9 10.3 8.4 12 9.4 27.5 2 34.5 3.9 53.4 9.9 103.7.6 4.7 1.7 14.6 2.5 22s2.2 18.2 3 24c2.7 19.1 2.7 17.7.3 19.4-1.7 1.2-1.8 1.6-.6 1.6 1.8 0 2.8 2.8 2.8 8.1 0 3.4-.3 3.7-4.2 4.9-4.6 1.3-10.5 1.5-13.8.5-1.7-.5-2-1.5-2-6.1v-5.4h4.3c5 0 8.7-.9 8.7-2.1 0-.5-3.1-.9-7-.9h-7l-.1-10.3c0-5.6-.4-19-.8-29.7-.7-19.2-.7-19.6 1.6-23.6 3.4-6.1 3.7-11.3 1.4-27.4-3.7-25.9-5.2-43.9-4.6-54.5.5-8.9.4-9.7-.8-7.6-1.3 2.2-1.4 1.8-2-5.4-.4-4.3-.7-11.9-.7-16.9 0-6.2-.3-8.6-1-7.6-1.2 1.9-1.3 26.1 0 38.7.5 5.4 1.4 15.6 2 22.8.6 7.1 2 19.3 3.1 27 2.8 19.5 2.9 21.2 1.7 24.8-1.2 3.5-6.8 10.9-11 14.5-2 1.7-2.8 3.5-3.3 7.5-.3 2.8-.9 5.9-1.1 6.9-.7 2.4-4.7 3-11.7 1.8-11.7-2-10.7-1.1-10.7-9.1 0-6.5-.2-7.3-3.8-12.2-5.2-6.9-7.2-11-7.2-14.4 0-1.5 1.8-10.9 4-20.9 3.5-15.8 9-48.6 9-53.7 0-1-.4-1.6-.9-1.3-.9.6-2.2 7.1-4.1 20.5-1.5 10.1-2.6 11.8-3.4 5-.4-3-1.4-9.5-2.2-14.6-1.5-8.7-1.5-9.5.5-18.5 2.7-12.3 3.9-20.2 4.5-32.2.3-5.5.8-10.1 1-10.3s.6 3.2.9 7.6c.7 11.5 2.6 13.9 2.8 3.6l.1-8 5.5-4.8c4.9-4.3 5.7-4.7 7-3.4s1 2.1-2.6 6.8c-3.2 4.2-4.5 7.2-6.1 14.4-2.7 11.2-3.7 21.5-2.2 21.5 1.2 0 2.1-3.1 4.8-16.5 2.9-14.7 6.4-19.8 15-21.1 2.4-.3 4.4-1.1 4.4-1.6 0-.7-1.7-.8-4.4-.5-4.2.6-4.3.5-3.8-1.9.2-1.3 1.4-3.1 2.5-3.9 1.9-1.4 2.2-1.2 4.6 2.8 1.4 2.3 4 6.2 5.8 8.5m-266.7.1c-1.9 1.6-3.6 2.8-3.6 2.8-.1-.1-.4-3.3-.7-7.1l-.5-6.9 4.1 4.2 4.1 4.1zm357.9-4.1c3.3 2.8 3.4 2.9 2.1 6.8-2.1 6.5-8.8 18.6-13 23.4-3.3 3.7-4.1 4.2-5 3-1-1.5-3.3-8.8-6.9-21.7l-2-7.3 3.2-2.2c1.8-1.2 3.4-2.5 3.7-2.9.3-.3 2.2-1.8 4.3-3.2l3.8-2.6 3.2 1.9c1.8 1.1 4.7 3.2 6.6 4.8m-316.5 2.4c-.3.4-.2.7.3.6 1-.3 7 2.9 7.7 4.1.3.5.1 2.3-.5 4-1.2 3.4-1.8 3.5-18.4 3.2-6.9-.2-7.1-.2-10.7-4.4-2.1-2.3-3.8-4.5-3.8-5 0-.4 3.4-3 7.6-5.7l7.5-4.9 5.5 3.6c2.9 1.9 5.1 4 4.8 4.5m144.4-1.7 3.2 2.2-3.9 5.9c-6.3 9.4-13 11.9-18.8 7-2.7-2.3-7.1-10.1-6.2-11 .2-.2 3.7-2.7 7.8-5.5l7.4-5.1 3.6 2.2c2 1.2 5.1 3.1 6.9 4.3m110.8-2.4c-.8 1.3-2.6 4.4-3.9 6.9-3 5.7-5.1 6.2-6.7 1.6-1.3-3.9-.5-5.2 6.6-10 4.3-2.9 6.4-2.1 4 1.5m-312.1.3c1.9 1.4 1.5 1.5-4.7 1.6-3.8 0-6.8-.2-6.8-.5s1.4-1.4 3.2-2.5c3.2-1.9 4.2-1.8 8.3 1.4m129.4-1.7c-.8 1-2.5 3.9-3.8 6.5-2.6 5.6-4.6 7.4-3.9 3.5.3-1.5.1-2.4-.3-2.1-.5.3-.9-.6-.9-2 0-1.5.6-2.6 1.3-2.6s2.3-1.1 3.5-2.5c2.6-3 6.5-3.7 4.1-.8m-265.9 1.3 2.5 2h-5.2c-2.8 0-5.9-.3-6.8-.7-1.5-.5-1.4-.8.6-1.9 3.4-1.9 6-1.7 8.9.6m434.4-.8c-.4.6-.9 2.3-1 3.7s-.8 5.5-1.5 9.1l-1.2 6.5-1.9-4.2c-1.7-3.9-1.7-4.5-.3-8 .9-2.1 2.6-4.8 3.7-6 2.3-2.5 3.4-3 2.2-1.1m-359.9 2c2.7 1.2 2.7 1.4 1.7 3.9-.6 1.3-1.1 1-2.9-1.7-2.5-3.8-2.4-3.9 1.2-2.2m279.8 6.2c2.5 2.2 4.4 4.3 4.1 4.8-.3.4.3.5 1.2.1 1.6-.6 1.5-.3-.3 2.3-2.7 3.9-4.5 18.4-4.2 34.5.1 7.3-.5 17.3-1.5 24.2-2 14.8-2 23.7 0 32.3 4.3 18.7 7.5 44.7 10.5 84.8 1.4 18.1 1.7 17.2-7.1 18.1-3 .3-8 1.6-11 2.8-9.5 3.7-32.9 3.7-34.9-.1-.4-.9-1.1-7.6-1.5-14.9l-.6-13.2 2.7-1.3 2.8-1.3-.2-24.5c-.3-32.6-1.9-66.9-4.4-92.5-1.1-11.5-2.2-21.9-2.4-23s-.7-4.7-1-8c-1.1-10-2.3-15.3-4.7-19.4-1.3-2.2-2-4.1-1.8-4.3.3-.2 2-1.7 3.9-3.2l3.5-2.8 1.4 4.7c6.3 21.8 24.2 20.7 35.5-2.2 2.3-4.7 1.8-4.8 10 2.1m-250 0c-.7 1.3-1.1 1.3-2.8 0-2-1.5-2-1.5.5-3.4s2.5-1.9 2.8 0c.2 1.1 0 2.6-.5 3.4m21.9-3.3c2.6 1.4 11.6 1.5 13 .1.7-.7 1.8-.7 3.4 0 2.7 1.3 3.2 5.2 1.3 10.7-.9 2.5-.9 3.8.1 5.6 1.3 2.4 1.2 4.6-.6 22-.3 3.3-1 8-1.5 10.5-1.5 7.4-4.6 27.8-6 39l-1.3 10.5-.8-8c-2.3-24.8-3.2-32.5-5.4-47.5-2.5-17.3-5.7-36.6-6.9-41.3-.8-3 .9-3.6 4.7-1.6m166.9 5.8 6.4 5.9-2.9 2.8c-1.6 1.6-3.8 4.8-4.8 7.2-2.5 5.5-5 18.4-3.8 19.6.6.6 1.1.4 1.3-.5.3-.8 1.4-5 2.6-9.4 2.3-8.3 5.8-15.6 7.7-16.2 3.5-1.1 9 62.3 11 124.3l.6 21.1-2.8.8c-1.6.4-6.6 1-11.1 1.4-7.9.6-8.3.6-8.3-1.4 0-1.1-.3-4.4-.6-7.3-.5-4.1-.3-5.7 1-7.1 2.2-2.4 2.2-6.8 0-21.6-1.4-9.7-1.8-18.9-1.8-47.2-.1-19.4-.4-34.9-.8-34.5-.5.6-1.3 5.1-3 17.5 0 .7-.6-8.3-1.3-19.8-1-20.3-1-21.1.8-22.6 1.4-1.2 1.8-2.3 1.3-4.2-.7-3 .4-14.7 1.4-14.7.5 0 3.7 2.7 7.1 5.9m-132-1.2c1.7 5.4 8.2 16.3 11.6 19.4 4.2 4 10.3 7.9 12.4 7.9 2.4 0 12.5-9.4 15.3-14.4 1.3-2.2 3.2-6.5 4.1-9.5l1.7-5.3 4.4 4.3 4.3 4.4 1.5 13c.9 7.1 2 17.9 2.5 24 .6 6 1.7 17.7 2.5 26 2.1 20.1 4.4 52.4 5.2 72l.7 16-6.2 1.8c-3.5 1-6.5 1.6-6.8 1.4-1.2-1.3-4.2-60.8-4.3-84.7 0-21.1-.3-26.2-1.2-25.2-2 2-1.6 66.9.5 95.2 2.3 31 2.5 28.7-2.3 30-2.3.6-6.9 2.4-10.4 4-7.2 3.3-16.4 4-23.9 1.8l-4-1.2.7-9.1c.9-13.2-3.2-87.7-5.9-106.5-1.9-13.4-4.3-23.9-6-26.4-1.1-1.5-1.5-5.2-1.5-14.6 0-7-.5-15.2-1.1-18.4-1-5.4-.9-5.8 1.3-7.6 3.2-2.6 3.5-2.5 4.9 1.7m82.9 2.7c-.4 1.8-1.1 4-1.6 4.7-.5.8-1 4.1-1 7.4-.1 3.3-.6 9.4-1.2 13.5s-1.1 16.9-1.2 28.4c0 24.1-1.2 42.9-4.1 63.8-1.6 11.4-1.8 15.1-.9 16.8 1.4 2.6 1.1 3.1-1.8 2.3-1.2-.3-2.2-1.3-2.2-2.2-.1-.9-.5-7.7-1-15.1-1-14.4-.7-19.7 3.5-62.5 5.2-52.1 5.3-52.8 10.3-58.8 2-2.3 2.1-2.2 1.2 1.7m194.6 3.2c1.3.4 2.4.7 2.4.8 0 1-8 28.9-8.4 29.4-1.1 1-.6-18.9.6-28.2 1.1-8.3 1.3-8.8 2.1-5.8.7 2.1 1.8 3.4 3.3 3.8m88.4-2.3c0 .6-.9.2-2-.8s-2-2.3-2-2.8c0-.6.9-.2 2 .8s2 2.3 2 2.8m-357.7 4c-.7 1.2-1.9-.3-2.8-3.3l-.8-2.5 2.1 2.5c1.1 1.4 1.8 2.9 1.5 3.3m-19.6-.6c-2.9 1.5-3.4.8-1.2-1.7 1.4-1.5 2-1.7 2.6-.8.5.8 0 1.7-1.4 2.5m213.3.8c0 .8-.4 1.5-1 1.5-.5 0-1-.7-1-1.5s.5-1.5 1-1.5c.6 0 1 .7 1 1.5m123.5 6.2c.7 2.4 1 4.1.5 3.8-.8-.5-3.1-8.7-2.9-10.7.1-.7.4-.4.6.7.3 1.1 1.1 3.9 1.8 6.2m-289.3-2.2c-2.1 3.6-6.7 8.3-9.5 9.8-3.1 1.7-3.7 1.7-6.3.4-2.7-1.4-7.1-5.7-10.4-10-1.3-1.7-.6-1.8 12.8-1.5 9.1.2 13.8.6 13.4 1.3m-47.2 9.9c0 7.4-.4 10.3-2.1 13.7-1.7 3.7-1.9 3.9-1.5 1.4.3-1.7.9-7.8 1.2-13.8.4-5.9 1.1-10.7 1.6-10.7.4 0 .8 4.2.8 9.4m2.7-4.2c-.2 1.3-.4.5-.4-1.7-.1-2.2.1-3.2.4-2.3.2 1 .2 2.8 0 4m.3 17.2c0 .3-.4.8-1 1.1-.5.3-1 .1-1-.4 0-.6.5-1.1 1-1.1.6 0 1 .2 1 .4m1.3 5.4c6.4 7.1 12.5 90.3 10.8 149.3-.3 12.4-.4 12.6-3 14.2-1.4.8-5.2 2.2-8.4 3-6.1 1.6-11.4 1-13.6-1.7-.9-1-5-17-5.1-19.7 0-.3 1.2-1.9 2.6-3.4l2.6-2.9-.6-14.5c-.4-8-1.1-21.8-1.7-30.6-1.4-19.8-.7-32.5 3.2-61.3 3.1-22.9 4.3-27.9 8.1-31.9 2.6-2.8 3-2.8 5.1-.5m-20.6 63.9c-.3 1-.5.2-.5-1.7s.2-2.7.5-1.8c.2 1 .2 2.6 0 3.5m104.4 39.3c2.1 0 2.4 2.2 1.3 7.9-.6 3-.9 3.2-4.8 2.9l-4.1-.3-.3-5.9-.3-5.9 3.2.7c1.7.3 4 .6 5 .6m8.9 3c1.4 2.6 6.1 5 10 5 2.9 0 3 .2 3 4.5 0 4.1-.2 4.5-2.5 4.5-1.3 0-4.4-.9-6.7-1.9-2.4-1.1-5.1-2.2-6-2.5-1.4-.4-1.8-1.6-1.8-5.4 0-6.4 1.8-8.3 4-4.2m38.5 14.1c.6 10.5 1.1 14.2 2.1 14.6.8.3 1.4.9 1.4 1.5 0 .5-.4.7-.9.4-1.3-.8-2 2.7-2.6 13.4-.8 12.3 1 10.1 2.3-2.9.6-5.4 1.5-9.8 2.3-10.6s4.6-1.5 9.2-1.7l7.7-.3v22.5h-5.7c-3.2.1-6.9.7-8.3 1.5-3.3 1.9-13.7 1.9-17.4 0-1.6-.8-5.3-2.2-8.4-3.1l-5.5-1.6.7-16.2c.4-8.8.9-18.4 1.2-21.2.6-5.1.6-5.2 4.5-5.7 2.1-.3 5.1-1.4 6.6-2.6 1.6-1.2 4.4-2.1 6.5-2.1h3.6zm25.5 4.3v5.3l-8.5 1.1c-5.6.8-9.4.8-11.1.2-2.2-.9-2.5-1.5-2.2-5.2l.3-4.3 9.3-.7c5.1-.3 9.6-.9 9.9-1.2 1.6-1.6 2.3-.1 2.3 4.8m-83.2 2.8c.3 5.6.3 5.6-3 6.6-1.8.6-5 1.3-7 1.5l-3.8.6v-11.5l5.8-1.6c3.1-.8 6.2-1.4 6.7-1.3.6.1 1.1 2.7 1.3 5.7m-109.3 17.3c1.1.4 4.1.7 6.7.6l4.7-.2-.9 3c-.5 1.7-1 5.4-1.1 8.3-.3 4.2 0 5.4 1.3 5.6s1.8-.9 2.3-5.3c.4-3 1.1-5.7 1.5-6 2-1.2 2.7 14.4 1.6 33.6l-.8 12.7-3.6.6c-5.2.8-16.2.7-16.2-.2-.1-.4-.3-3-.5-5.7-.2-2.8-.6-11.4-1-19.3l-.5-14.2h3q3 0 3-1.5t-3-1.5h-3v-6.5c0-6.3.1-6.4 2.3-5.6 1.2.5 3.1 1.3 4.2 1.6m45.7 33.9.3 11.3-9.7.6c-5.3.3-11.2.3-13.2 0-3.5-.5-3.6-.7-3.6-4.8 0-2.3.3-6.9.6-10.2l.6-6 4.7.9c3.5.7 6.2.4 11.6-1 3.9-1.1 7.3-2 7.7-2.1.4 0 .8 5 1 11.3m76.5 8.4c3.3 1.3 6.1 1.6 8.9 1.2 5.3-.8 11.9 1.9 14.1 5.8.9 1.6 3.2 4 5.2 5.3 5.7 3.9 9.4 8.7 5.6 7.3-1.8-.7-7.7 1.5-7 2.6.3.4 3.1 1 6.4 1.2 7.2.5 11.2 3 15.9 9.8 4.7 6.9 6.2 7.9 12.8 9.1 3.2.6 6.4 1.7 7.1 2.6.6.8 1.6 1.2 2.1.9 1-.6 6.9.9 9.1 2.3 1.1.7.9 1.3-1 3.2-1.3 1.3-2.8 2.3-3.4 2.1-.5-.2-.7 0-.3.4 1.1 1-4.6 6.2-7.4 6.8-1.3.3-3.9.7-5.8 1-4.8.8-7.6 3-10.1 7.7-2.9 5.8-5.5 6.4-15.8 4-12.5-2.8-12.8-3.1-24.7-13.6-9.3-8.2-11.9-9.9-17.6-11.7-3.8-1.2-6.8-2.6-6.8-3 0-1.4-2.8-.8-3.4.7-.4 1.2-1.5 1.4-3.8 1.1-1.8-.3-8.7-.8-15.2-1.1-6.6-.2-12.4-.9-12.9-1.4-1.5-1.5 1-6.6 4.8-10 2.4-2.1 5.7-3.4 13.1-5.1 5.5-1.2 10.3-2.7 10.9-3.1 1.2-1.2 9.5-1.1 13.1 0 1.6.6 6.2 2 10.3 3.1 5.4 1.6 7.1 2.4 6.2 3.3-1.3 1.3-1.5 3.7-.2 3.7.4 0 4.1-3.2 8.1-7.1 4.9-4.8 6.5-6.9 4.9-6.4-1.3.4-3.7 1.7-5.3 2.8-3.6 2.6-6.4 2.4-16.9-.8-5.7-1.8-10.2-2.6-13.2-2.3-2.5.2-4.5.1-4.5-.2s2.7-3.2 6-6.5c5.4-5.3 7.4-8.5 5.3-8.5-1 0-8.4 7.1-13.5 12.8-3.7 4-6.9 5.5-15.2 6.9l-3.9.6 2.8-3.9c5.8-7.8 18-21.2 21.5-23.7 3.2-2.2 7.7-2.2 13.7.1m75.9 6c2.1 1.6 5.7 5.1 7.9 7.8 6.3 7.8 16.1 17.4 17.8 17.4 2.7 0 2.9-1.9.4-2.6-1.4-.3-3.7-1.9-5.3-3.5l-2.8-2.9 3.4.6c11.4 2 19 5.9 19 9.9 0 .7 1.4 3 3.1 5.1l3.1 3.9-3.6.9c-2.7.6-4.5.4-7.2-.9-7.6-3.6-15.9-2.9-23.5 2.2l-4 2.6-3.7-2.1c-2-1.1-7.5-3-12.1-4.2-10.9-2.7-13.6-4.2-16.5-8.9-2.7-4.2-7.5-8.6-10.5-9.6-1.1-.3-2.5-2.1-3.1-4s-2.5-4.6-4.1-6l-3.1-2.5h7.4c5.5 0 9.2-.8 15.3-3 10.7-3.9 16.9-3.9 22.1-.2m-117.6 21.1c-1.1 1.7-2.9 3.3-3.9 3.6-2 .6-3.7 3.5-2.1 3.5.5 0-.2 1.6-1.5 3.6-1.4 2-2.5 4.7-2.5 5.9 0 1.7-.9 2.4-5.1 3.4-5.1 1.3-5.1 1.3-8.1-1.6l-3-3 4.2-5.9c2.3-3.2 5.3-6.5 6.8-7.3 2.2-1.2 13.1-4.4 16.5-5 .5 0-.1 1.2-1.3 2.8m252.4 4.6c5 3.3 7.3 9.4 10.2 26.5 1.2 7.5 1.9 19.3.7 13.2-.2-1.2-.8-2.2-1.2-2.2-1.3 0-1.9 7.8-1.2 14.5l.6 6h7l.3-6c.2-3.3-.1-7.8-.7-10s-1.2-5.5-1.3-7.3l-.3-3.4 9.1-.1 9-.2 3.3 27c1.8 14.8 3.5 28.5 3.8 30.2.5 3.2.4 3.3-3.2 3.3-2 0-6.9-1-10.8-2.2-6.2-1.8-7.6-2-11.6-.9-2.5.7-6.6 2.5-9.1 4.1-6.3 4-12.4 5.3-14.5 3.1-.8-1-1.2-2-.9-2.3s-.2-.5-1.2-.4c-2.2.1-5.9-7-7.5-14.4-1.6-7.6-3.3-10.6-7.9-13.6-3.4-2.3-4-3.2-4-6.3 0-4.5-3.2-11.6-6.2-14.1-1.3-1-4-2.3-6-3-3.3-.9-3.8-1.5-3.8-4 0-1.5-.3-3.5-.6-4.4-.5-1.4.8-1.6 10.5-1.6h11.1l-.2-6.8c-.1-5.6-.2-5.9-.5-2-.3 3.5-.8 4.8-2 4.8-1.3 0-1.4-.8-.9-4.8 1.1-7.5 3.4-14.8 5.6-17.3l2-2.4-1 2.8c-1.3 3.6-1.3 4 .2 3.1.8-.5.9-.2.3 1.2-.5 1-1.1 8.9-1.4 17.4-.3 8.6-1 14.9-1.4 14.2-1.7-2.6-2.7.1-2.7 7.2 0 6.1.3 7.6 2.1 9.2 1.5 1.4 2.4 1.6 3.7.8 3-1.9 3.7-5.9 2.4-13.4-.7-3.9-1.2-8.6-1.2-10.5v-3.5h14.9c8.8 0 15.2-.4 15.6-1 1-1.6-4.5-22.2-6.8-25.7-1.2-1.8-3.9-4.1-5.9-5.3-2.1-1.2-3.8-2.3-3.8-2.5 0-.7 4.7 1.3 7.4 3m-13-1.1c-1.7.8-4.1 2.4-5.4 3.7-2.2 2.3-2.2 2.3-1.1.2 1.4-2.8 5-5.3 7.6-5.3 1.5.1 1.2.4-1.1 1.4m7.5 4.2c3.4 2.8 5.6 8.9 6.7 18.4l.7 6h-23.6l.6-7c.7-8.9 3.6-15.3 7.9-18 4.1-2.5 4-2.5 7.7.6m8.4 6.1c.8 1.6 1.9 5.5 2.6 8.8s1.5 6.8 1.7 7.7c.3 1.1 0 1.8-.9 1.8-1 0-1.6-1.9-2.1-7.1-.3-3.8-1.3-8.6-2.1-10.5-1.7-4.1-1.1-4.6.8-.7m-292.5 1.8c6.6.4 12.8 4.5 16.3 10.8 1 1.7.8 1.7-2.8.1-5.6-2.4-7.3-2.8-7.3-1.5 0 2.1 21 10.8 23.1 9.6 1.4-1-.2-3.3-3.1-4.5-1.5-.6-3.8-2.2-5-3.5l-2.2-2.3 4.8-.9c2.7-.4 5.8-.7 6.9-.5 2.6.3 6.3 3.9 8.6 8.5 1.2 2.3 3.9 4.9 6.9 6.8 9.4 5.8 7.7 11.9-4.2 15-4 1.1-5.8 1-12-.4-9.1-2.1-14.6-2.2-19.8-.1s-6.9 1.6-16.7-5c-8.9-6-14.3-8.6-17.9-8.6-4.4 0-3.4 1.8 2.1 3.6 3.1.9 5.8 2.1 6.1 2.5 1.3 2.1-16.3 3.2-25.9 1.6-4.8-.8-4.8-.8-4.5-4.5.2-3 1-4.1 3.7-5.7 4-2.4 7.9-6.1 14-13.4 6.7-8.1 9.3-9.4 17.1-8.5 3.6.3 8.9.8 11.8.9m192.8 4.5c10.2 5.2 11.4 5.6 11.4 4.2 0-.5-1.9-1.8-4.2-2.8l-4.3-1.9 5-.7c13.6-1.9 14.9-2 18.5-.1 1.9 1 4.6 3.5 6 5.6 1.4 2 3.9 4.6 5.6 5.6 3.7 2.2 5.5 6.6 4.2 10-.8 2.1-1.3 2.3-5.9 1.9-5.3-.5-8.2-2.8-5.1-3.9 1.7-.6 2.8-.5 7 .7 3.3 1 1.8-2.1-1.8-3.6-2.2-.9-4.6-.9-10.5.1-6.3 1-8.4 1-11.4-.1-2-.7-5.5-1.3-7.8-1.2-5.6 0-19.3 3.3-19.3 4.5 0 1 7.5.5 15.5-.9l4-.7-6 4.8c-3.3 2.7-7.5 6.1-9.3 7.6-1.7 1.6-5.7 4-8.7 5.5-5.4 2.5-5.7 2.5-8.2.9-1.8-1.2-3.7-1.5-6.3-1.1-2.9.5-4.3.1-7.1-2-2.6-1.9-4.1-2.4-6.6-1.9-3.7.7-9.9-.7-12.8-2.9-1.6-1.2-1.8-1.8-.8-3.9 1.6-3.5 5.8-6.1 9.6-5.9 7.8.2 22.7-5 22.7-7.9 0-1.4-1.6-1.1-6 1.2-2.3 1.2-4.3 1.9-4.6 1.7-.2-.3 2.9-3.7 6.9-7.5 7.1-6.7 12.2-9.6 18.1-10.1 1.2-.1 6.7 2.1 12.2 4.8m-121.4 3.7c3.5 1.5 7.9 3.7 9.8 5l3.5 2.4-15-.2c-12-.1-15 .2-15 1.2 0 1.6 8.4 2.6 23.3 2.8 10.1.1 12.4 1 18.4 7.3l2.6 2.8h-9.1c-5.1 0-10.2.3-11.4.6-4.1 1.1-1.3 2.4 5.1 2.4 3.4 0 6.5.3 6.9.6.3.3-2 2-5.1 3.6-3.1 1.7-6.6 3.9-7.8 4.9-2 1.9-2.1 1.9-7.5-1-3-1.6-6.9-3.2-8.7-3.6-2.7-.6-3.1-.9-2.1-2.1s.7-2-1.4-4.2c-1.4-1.5-3-4-3.6-5.5s-2.5-3.6-4.3-4.5c-3.5-1.9-5.7-4-10.6-10.1l-3.4-4.2 10.4.6c8.1.5 16.1-.1 18.5-1.4.1-.1 3 1.1 6.5 2.6m141.2 15.4c2.1-.1 4.8.1 5.9.5 4.2 1.3-7.4 3.4-14.4 2.6l-6.4-.8 3-1.7c1.8-1 4-1.5 5.5-1.1 1.4.3 4.2.5 6.4.5m26.3 3.1c-.3.8-.6.5-.6-.6-.1-1.1.2-1.7.5-1.3.3.3.4 1.2.1 1.9m-33.2 4.9c3 1.1 5.5 2.5 5.5 3 0 1.3-8.9 1.1-13.1-.2-1.9-.6-4.1-1.3-4.9-1.6-1.2-.4-1.2-.7.4-1.9 2.7-1.9 5.5-1.8 12.1.7m25.2 1.7c2.6 2.1 5.4 4.6 6.2 5.5 1.4 1.8 3.1 2.2 3.1.8 0-1.3-5.7-8.1-6.3-7.5-.3.3-.8.1-1.2-.5-.8-1.5 1.1-1.4 6.6.3 6.7 2 10.4 4.2 12.9 7.3 2.1 2.6 2.2 3.5 1.7 14.6-.6 12.2-.3 14.7 1.7 14.7.9 0 1.1-1.7.8-6-.4-5.7-.3-6 1.8-6 3.9 0 7.7 5.3 8.9 12.4 1.6 9.1 3.3 12.5 8.6 17.1 2.6 2.2 6 5.6 7.6 7.7l2.9 3.6-4.2-.5c-3.8-.4-4.1-.3-2.5 1 2.4 2 2.2 2.4-1.8 3.7-2.6.9-4.4.9-7 0-1.9-.6-3.5-1.5-3.5-2 0-.4-1.2-1.3-2.7-1.9-1.6-.6-5.3-2.5-8.3-4.1-5.3-2.8-5.4-2.9-2.3-3 2.1 0 4.6 1.1 7.7 3.4 4.3 3.4 5.7 4 8.4 3.7 2.6-.2.9-2-5.8-6.1-7.7-4.7-6.6-4.6-24.8-2.4l-5.2.7-4.8-5.3c-5.8-6.4-10.8-9.8-16.1-10.6-3.3-.5-4.3-1.2-5.7-4.3-.9-2-2.5-5.4-3.5-7.5-1.1-2.2-1.9-5.8-1.9-8.1 0-2.2-.5-4.6-1.2-5.3-.8-.8-4.9-1.2-11.9-1.2h-10.7l-.5-2.8c-.3-1.5-.2-2.8.2-3 .4-.1 3.2-1.8 6.1-3.7 3-1.9 5.7-3.5 6.1-3.5s2.8 1 5.5 2.1c4.2 1.9 5.9 2.1 13.9 1.5 11.2-.8 14.7-1.5 14.2-3-.2-.6-2.1-1.2-4.3-1.4-2.1-.1-4.9-.8-6.2-1.4-2.2-1.1-2.2-1.3-.5-1.9 1-.4 4.3-.8 7.5-.8 5.1-.1 6.1.3 10.5 3.7m-174.7-.3c0 .8-.4 1.5-1 1.5-.5 0-.7-.7-.4-1.5.4-.8.8-1.5 1-1.5s.4.7.4 1.5m53.8.1c3.2.8 6.3 1.7 7 2 .8.2-1.7 2.4-5.5 5-3.7 2.5-7.2 5.2-7.6 6-.7 1.2-3.4 1.4-13.3 1.3-6.8 0-12.4-.5-12.4-.9 0-1.2 2.9-4 5.4-5.1 1.2-.6 3-1.5 4.1-2.2 5-3.1 7.3-4.2 11.5-5.8 2.5-.9 4.7-1.7 4.8-1.8.2 0 2.9.6 6 1.5m193.1 7.1c.1 2.4-.3 4.3-.8 4.3-1 0-2.1-9.9-1.2-11.4.8-1.6 2 2.6 2 7.1m-168.9-1.6c-6.2.8-8 1.5-8 3 0 1.4 9.9.6 18.1-1.5 5-1.4 5.6-1.3 8.8.5 2.4 1.4 4.4 1.9 6.5 1.5s4.1 0 6.4 1.4c4.5 2.8 4 4-1.5 3.9-4.4-.1-4.5-.2-1.9-.9 1.6-.5 3.4-.6 3.9-.3.6.3.7.1.3-.5-.9-1.5-6.7-1.5-10.3 0-1.5.6-5.9 4.2-9.8 7.9-8.4 8-11 9.1-12.6 5.5-1.1-2.4-9.7-7.3-20.8-11.8l-3.4-1.4 2.4-2.3c1.3-1.2 5.8-3.9 10-6l7.7-3.9 4.6 2.2 4.6 2.1zm132.2-.6c.4 5 .1 6.5-1.3 6.5-.5 0-.9-2.5-.9-5.5 0-6.6 1.6-7.4 2.2-1m-236.3 3.2c4.6 1.4 6.1 1.5 11 .4 3.1-.8 7.1-1.6 9-1.8 4.8-.8 17.2 2.4 20.7 5.2l2.9 2.4h-4.5c-3.2.1-4.1-.2-3-.9 2-1.3.6-2.4-2.3-1.6-4.5 1.1-6.7 4-10.1 13.1-1.9 4.9-4.3 11-5.4 13.5l-2.1 4.5v-6.3c-.1-3.4-.5-6.2-1-6.2-1.9 0-2.4 9.8-1.2 23.5 1.9 23.6 1.4 27.1-4.7 32.9l-3.1 2.9-12.8-2.2c-7-1.2-14-2.1-15.4-2.1-3.1 0-5.2-2.2-7.4-7.4-1.8-4.2-1.8-4.6 2-24.6 1.3-6.9 2.5-14.8 2.7-17.5.3-5.4-1.4-7.7-2.2-2.9-.3 1.6-.8 2.4-1.1 1.9-1.2-1.9-2-12.5-1.4-17 .8-5.2 3.7-7.8 12-10.7 5.4-1.9 8.6-1.8 17.4.9m86.1 10.8c8.4 3.3 13.9 6.5 15.7 9.1 1.2 1.8 1.1 2.4-.9 4.9-2.1 2.8-2.2 2.8-3 .6-.9-2.6-11.2-7.6-19.1-9.3-2.9-.6-5.5-1.4-5.9-1.8-1.1-.9 3.3-6 5.1-6 .9 0 4.5 1.1 8.1 2.5m-16.8 1.5c-2.9 5-.6 7.6 12.2 13.8 15.2 7.4 15.8 7.5 20.9 2 2.3-2.4 5.6-5 7.4-5.7 1.7-.7 5.7-3.9 8.8-7.2l5.7-5.9h43.8v65h-151l.6-2.8c.3-1.5.8-3.3 1-4s-.1-6.9-.7-13.6l-1.1-12.3 3.7-8.4c2.1-4.6 4.5-10.7 5.5-13.4 1-2.8 2.3-6.2 2.9-7.8l1.1-2.7h40.9zm240.2 8.8c2.6 1.5 6.7 4.3 9 6.4 3.8 3.3 4.5 4.7 6.6 12.5 2 7.5 2.9 9.4 6.4 12.8 7.9 7.7 9.8 12.7 5.4 13.9-3 .8-15.5.6-19.3-.3-2.9-.7-2.8-.8 2.4-2.4 3-.9 6.1-1.7 6.8-1.7.8 0 1.1-.5.7-1.1-1.3-2.2-10.6-.4-16.9 3.3-3.3 1.9-7.1 4.1-8.5 4.9s-2.7 1.6-3 1.9c-2.3 2.3-7.9 5.4-10.2 5.6-4 .5-5.9-.7-15.3-9.3-11.4-10.4-11.6-10.6-15.7-15.6l-3.8-4.5 3.7-.7c2.1-.4 4.9-1.5 6.3-2.4 3.6-2.6 8.6-4.9 11.7-5.5 3.3-.6 12.9 2.6 12.6 4.3-.4 1.4-1.2 1.4 10.7-.4 9-1.4 10.4-1.4 13 0 1.6.8 3.4 2.4 4 3.5s1.7 2 2.5 2c1.9 0 1.9-.4 0-4-2.2-4.2-6.8-6.3-12-5.6l-4.3.7-.6-6.8c-.4-3.7-.9-8.8-1.3-11.2-.5-4.2-.5-4.3 1.8-3.6 1.3.4 4.6 1.9 7.3 3.3m-222.7.9c6.7 2.7 11.1 6.2 6.2 5-1.4-.4-6.4-2.5-11-4.7-9.4-4.4-6.2-4.7 4.8-.3m88.5 9.2c.2.8-.5 1.5-1.4 1.6-1.5.3-1.8-.4-1.8-3.8.1-4.2.1-4.2 1.5-1.6.8 1.4 1.5 3.1 1.7 3.8m12.7 7.1c2.2 1.1 5.6 4 7.8 6.6 2.1 2.5 4.9 5.8 6.1 7.1l2.4 2.6-2.7-.7c-3.9-1-2.7 1.6 1.3 3 1.8.5 3.1 1.2 2.8 1.5-1.5 1.5 13.9 1.2 17.6-.4 3.3-1.4 3.6-1.3 9.8 2.4 9.7 5.9 10.4 8 2.8 7.8-2.9-.1-4.5-.3-3.5-.6 2.6-.7 2-2.3-.9-2.3-3.3 0-9.5 4.4-16.3 11.5-3 3.1-6.7 6.3-8.4 7.1-3.3 1.8-8.8 1.2-10.7-1.1-.9-1.1-.5-1.7 1.9-3 3-1.5 4.2-3.5 2.1-3.5-.6 0-2.5.7-4.2 1.6-4.3 2.2-9.7.5-15.7-5-2.5-2.4-5.4-4.6-6.3-4.9-1.6-.6-1.8-2.3-1.8-16.2v-15.5h6c4.1 0 7.4.7 9.9 2m33.3 14.6c4 2.1 2.2 3.4-4.7 3.4-4.4 0-11.5-2.8-11.5-4.5 0-1.3 13.3-.4 16.2 1.1m37.6 7.6c1.6 1.6 1.5 4.5 0 5.5-1.7 1-16.9 1.3-16.3.3.3-.4 3.1-1.8 6.2-3 3.2-1.3 6.2-2.7 6.8-3.2 1.2-1.1 1.9-1 3.3.4m8.7 4.8c1.8 2 1.7 2-1.8 2-3 0-3.4-.3-3-2 .3-1.1 1.1-2 1.8-2 .6 0 2 .9 3 2m7 8 2.7 2.5-2.9.6c-1.5.3-14.2.3-28.1.1l-25.3-.5 2.5-2.6 2.5-2.6h45.9zm-98 1 2.9 3h-4.2c-4.4 0-4.5-.1-3.6-3.8.8-2.9 1.5-2.8 4.9.8m128.5-.5c0 2.2-.4 2.5-3.6 2.5h-3.7l3.4-2.4c1.9-1.3 3.5-2.5 3.7-2.5.1-.1.2 1 .2 2.4m-140.4 6.1c-.3.8-.6 3.3-.6 5.5v3.9h-155.7l.5-2.7c.3-1.5 1.7-4 3.1-5.5l2.6-2.7h75.4c68.5-.1 75.3 0 74.7 1.5m133.9 3.4c0 5-1.9 5.2-5.8.5l-2.8-3.4 3.3-.9c4.6-1.2 5.3-.7 5.3 3.8m-59.5-3.3c0 .2-1.7 1-3.7 1.8-2.1.9-5.5 2.9-7.5 4.5-3.6 2.9-4 3-14 3-10.3-.1-10.3-.1-7.2-1.8 1.7-.9 4.6-2.9 6.5-4.3 1.9-1.5 4.3-2.9 5.4-3 2.2-.4 20.5-.5 20.5-.2m43.4.7c6 2.5 10.4 7.3 11 11.9 3.7 29.9 3.6 30.6-1.5 44.8-6.6 18.5-7.1 21.2-4.9 29.1 1.3 4.5 0 7.8-3.2 7.8-3.1 0-20.2 4.1-21.2 5.1-3.5 3.2-7.6-2.2-7.6-9.9 0-2.1 1.8-12.6 3.9-23.3 3.7-18.2 4.4-23.9 4.2-33.2-.1-5.2-2.1-3.7-2.2 1.6 0 2.3-.4 6.2-.7 8.7-.7 4.4-.8 4.1-4.5-10-5.9-22.4-6.5-23.8-9.7-25.5-3.4-1.8-6.7-1.9-7.2-.4-.2.6-2.1.9-4.3.7l-4-.3 6.9-3.3c7.1-3.3 13.9-4.2 18.8-2.3 1.3.5 4.8 1.2 7.8 1.5 4.9.6 5.3.5 3.7-.8-1.7-1.3-1.5-1.5 3-2.1 2.6-.4 5.3-.8 5.8-1 1.8-.6 2.5-.5 5.9.9m-290.9 1.7c2.2.5 6.3.9 9.1.9h5.1l-.8 5.6c-.4 3.1-1 5.9-1.4 6.2-1.1 1.1-10 .5-19.2-1.3l-9.3-1.8v-4.3c0-7.1.5-7.6 6.9-6.9 3.1.4 7.4 1.1 9.6 1.6m197.6.3c2.4 1.3 6.2 3.3 8.4 4.5l3.9 2.1h-6.1c-6.3 0-5.8.2-18-7.7-3.8-2.5 7-1.5 11.8 1.1m122.8.7c2.2 1 4.4 1.9 5 1.9.5 0 1.2.3 1.4.7.8 1.3-13.5 1.3-15 .1-.7-.6-1.3-2.2-1.3-3.5 0-2.2.3-2.4 3-1.8 1.6.3 4.7 1.5 6.9 2.6m-133.2 3.3 8.8 5.4.3 24.2c.3 27.5 1.1 25.8-8.9 17.4-3.2-2.7-6.1-5.8-6.5-6.9s-.8-9.6-.8-18.8c-.1-14.6-.3-17-1.8-17.8-.9-.5-1.5-1.7-1.3-2.7.2-.9.4-2.7.4-4 .1-1.2.3-2.2.5-2.2.3 0 4.4 2.4 9.3 5.4m151.5 29.1c-.3 25.4-.3 25.5-2.5 26s-33.7 1.2-33.7.8c0-.1 1.4-3.9 3-8.5 1.7-4.5 3-9.9 3-11.9 0-3.9-2.6-25.6-3.5-29.7l-.5-2.2h34.5zm-80.4-11.8c1.8 6.8 2.7 11.9 2.2 12.1-.6.2-1 1.3-1 2.3 0 1.1.4 1.8.9 1.5 2.7-1.7 6.1 11.3 5 18.7-.5 2.7-1 5.1-1.1 5.2-.2.2-14.6.7-32.1 1.2l-31.7.8v-26.1c0-14.3.2-26.3.5-26.6s12.6-.6 27.4-.7l26.8-.2zm127.5 26c-.7.2-2.1.2-3 0-1-.3-.4-.5 1.2-.5 1.7 0 2.4.2 1.8.5m5.8 2.4 2.4 2-3-1.7c-3.9-2.4-4-2.4-2.8-2.4.6 0 2.1.9 3.4 2.1m15.7.5c4.6 3 6.6 9.7 6.6 22.4.1 13 1.2 11.8-9.7 10.5-5.4-.6-5.8-.8-5.2-2.8 1.5-5.1 1.6-20.2.2-25l-1.5-4.7 2.6-.1c2.6 0 2.6-.1.5-.9-1.3-.5-2.3-1.2-2.3-1.6 0-1.1 6.2.5 8.8 2.2m-216.1 6.8c3.3 2.6 5.3 5 5.5 6.6l.3 2.5 18.5-.2c10.2-.2 25.2-.5 33.4-.9l14.9-.6-.6 2.9c-2.9 12.9-3.8 21.4-2.9 24.3l1.1 3h-83.9v-6.4c0-4.4.5-6.7 1.5-7.6 1.2-1 1.5-4.1 1.5-16.2v-15l2.8 1.7c1.5 1 5 3.6 7.9 5.9m196.3-6c0 .2-1.5 2.7-3.4 5.4-2.7 4.1-3.6 6.8-4.6 13.6-.7 4.8-1.5 8.8-1.9 9-.3.2-4.1-.2-8.4-.8l-7.8-1.1 3.9-8c6.1-12.6 12.2-18.5 19-18.5 1.7 0 3.2.2 3.2.4m7.8 4.1c-.3.3-.9-.2-1.2-1.2-.6-1.4-.5-1.5.5-.6.7.7 1 1.5.7 1.8m-.8 4.2c.9 2.4 1 6 .5 12.9l-.7 9.6-6.1-.7c-3.4-.4-6.5-1-6.8-1.4-1.7-1.7 4.8-18.7 8.9-23.4 1.8-2 2.3-1.6 4.2 3m-81.2 19.5-.3 15.3-8.3.3-8.3.3 1.7-3.3c1.5-2.8 1.5-4 .5-9.4-1.2-5.9-1-7.8 1.5-16.7.4-1.4 1.7-1.7 7-1.7h6.5zm33.9 0c4.6.7 8.3 1.5 8.3 2 0 .4-.7 3.3-1.5 6.4-1.4 5.5-1.2 8 .5 6.9.5-.3 1.8-3.4 3-7 2-6 2.3-6.4 4.8-6 1.5.3 7.7 1.2 13.7 2 6.1.9 12.2 1.8 13.6 2.1l2.5.5-1.4 6.9c-.9 3.9-1.3 7.3-.9 7.6 1.3 1.3 2.6-.9 4.1-7.4l1.7-6.8 9.5 1.5c7.2 1.1 9.4 1.8 9.4 3 0 .9-1.1 10.1-2.5 20.6-5 38.5-7.7 64.3-7.8 75.7-.1 6.5-.4 11.8-.7 11.8s-8.4-2-18.1-4.6l-17.7-4.7-3.1-8.2c-4.7-12.4-9.2-15.9-24.2-19-10.6-2.2-10.7-2.3-13.4-6.5-1.4-2.2-4.5-5.1-7-6.6-3.4-2-4.4-3.1-3.9-4.3.3-.9 1.3-4.1 2.1-7.1 2.8-10.8 16.5-58.5 17-59.3.6-1 2.3-.9 12 .5m88.2 28.5c1.3 9.8 2.9 22.1 3.6 27.3.8 5.2 1.6 12 2 15 .3 3 1.2 10.4 2 16.5 2.8 22.8 2.9 26.2.9 26.9-6.3 1.9-35.7 7.4-37 6.9s-1.5-1.5-.9-4.7c.3-2.3 2.1-17.8 4-34.6 1.8-16.8 4.4-39.6 5.6-50.8l2.4-20.2h15.1zm-140.5-8.3c1.6 5.4 2.2 4.9-9.5 8.4-3.3.9-5.9 2-5.9 2.4 0 1.1.5 1 9.5-1.2 4.4-1.1 8.5-2 9.2-2 1.7 0 8.3 5.9 8.3 7.5 0 1.1-10.2 5.5-12.6 5.5-.5 0-3.6-1.4-6.8-3-3.2-1.7-6.5-3-7.2-3s-1.8-.8-2.3-1.8c-.7-1.4-1.8-1.7-4.5-1.4-3.3.4-3.5.2-4.1-3.1-1.3-6.7-1-6.9 12-10.3 6.6-1.7 12.1-3 12.2-2.9.2.1.9 2.3 1.7 4.9m-17.4 29.6c2.5 1.2 5.4 3.4 6.5 4.8 4.7 6 5.1 6.2 12.5 6.2 7.6 0 12.2 1.6 14 4.9.9 1.7.5 2-3.3 2.6-2.3.4-4.9 1.1-5.8 1.6-2.2 1.1-17-3.2-19.7-5.7-1.1-1-2.2-2.8-2.4-3.9-.5-2.7-2.2-2.6-2.6.2-.5 3.6 2.6 7.2 7.9 9 2.7 1 4.9 2.1 4.9 2.4 0 .4-2.4 1-5.2 1.3-8.8 1.2-24 6.8-22.4 8.3.2.2 4.8-.7 10.2-2.1 5.5-1.3 14-3.2 18.9-4.1 5-.9 10.9-2.3 13.2-3.2 7.6-2.8 15.4 0 19.9 7.1 2.8 4.4 2.8 4.4 14 7.1 6.1 1.5 12.5 3.5 14.2 4.5 4.4 2.7 7.8 7.7 9.7 14.5 1.5 5.2 2.8 6.9 9.6 13.6 4.4 4.3 7.9 8.2 7.9 8.7 0 1.8-3.1 2.2-17.8 2.3-8.1 0-17.4.4-20.7.9-8.4 1.1-33.9-3.5-31-5.6 3.1-2.3 1.1-2.5-3.6-.5-2.4 1.1-10.5 3.1-17.9 4.6-17 3.4-31.7 7-38.4 9.5-2.8 1.1-5.2 2-5.3 2-.2 0-1.7-6.2-1.7-7.4-.1-.5-.7-1.1-1.5-1.4-1.1-.4-1.3.5-.9 4.1 1 9.1-2.4 8.5-17.7-2.7-3.8-2.9-8.3-6-10-7.1l-3-1.9 2.6-1c1.4-.6 3.3-1.6 4-2.3 1.9-1.5 19.3-.9 26.5.9l5.2 1.3-2.9 3.5c-1.6 1.9-2.9 3.8-2.9 4.2 0 3.4 11.5-6.4 12.6-10.7 1.9-7.7-2.8-17.4-11.9-24.3-7.1-5.4-7.4-7.7-1.4-9.2 7.8-2.1 8-2.1 6.8-3.3-1.7-1.7-12.2 1-12.9 3.5-.5 2.1-3.1 1.9-8.4-.7-3.2-1.6-4.4-.8-2.3 1.5 1.4 1.5 1.2 1.8-2.6 2.9-6.7 2-17.8-.8-18-4.7-.2-3.3.4-4.7 5.9-13.9 3.3-5.3 6.7-9.7 8.2-10.4 1.4-.6 7.3-1.5 13.1-1.8 11.3-.7 12-1 24.4-9.8 4.7-3.3 5.4-3.5 11-3 3.5.2 8 1.4 10.5 2.7m-84.2 35.4c2.2.8 5 1.2 6.3.9 1.5-.4 2-.3 1.5.5-1.2 1.9 3.9 6.1 8.3 6.8 4.9.8 4.4 2.4-.7 2.4-4.1 0-12.2-3.3-12.2-5 0-.5-.7-1-1.5-1-2.8 0-1.5 3 2.5 5.6 2.2 1.5 3.8 3 3.5 3.4s2.1.7 5.3.5c3.9-.1 8.5-1.4 14.4-3.9 4.8-2 9.3-3.6 10.1-3.6 1.5 0 5.9 3.2 14 10.1 3.1 2.6 7.7 9.3 7.7 11.2 0 .2-2.3-.1-5-.7-3.8-.7-6.1-.7-9.3.3-12.8 3.8-13.1 3.9-19.5 2.8-6.9-1.1-12.4.1-16.9 3.6-2.4 1.9-2.4 1.9-6.1-.6-3.6-2.3-9.3-4.8-23.2-10-3.6-1.3-8.2-3.1-10.3-3.9l-3.8-1.4 7.3-2.5c5.9-2.1 8.1-2.4 11.8-1.7 6.3 1.1 7 .5 2.2-1.9l-4.2-2 2.6-3.9c5-7.6 7.6-8.6 15.2-6m-36.2 22.5c-.4.5.3.7 1.4.4 2.1-.6 24.3 7.2 31.9 11.2l4.6 2.4h-4.5c-4.2 0-25.9-5.2-32.3-7.8-1.5-.6-3-1.8-3.3-2.6-.8-1.9.2-4.5 1.6-4.5.6 0 .9.4.6.9m90.8 8.7c2.8.4 4.6 1.2 4.6 2 0 2.3-2 2.6-7.8.8-3.1-.9-6.3-1.7-6.9-1.7-.7 0-1.3-.4-1.3-.9 0-1 4.9-1 11.4-.2m-35.8 3.9c-5.1 2.7-9.8 3.6-10.6 2-.6-1.2 8.2-4.3 12.4-4.4 2.7-.1 2.5.1-1.8 2.4"/><path d="M222.714 110.347c1.8 1.1 3.8 1.9 4.5 1.6.7-.2-.1-1.1-1.9-2-4.5-2.4-6.4-2.1-2.6.4M460.314 125.247c-3.5 1.4-2.8 3 1 2.4 6.5-1.1 7.7-1.5 7.7-2.4 0-1.2-5.7-1.2-8.7 0M663.714 115.947c-.4.3-.7 3-.7 6v5.3h34v-12h-16.3c-9 0-16.7.3-17 .7m30.3 5.3v3h-28v-6h28zM493.014 359.147c0 5.6.4 10.3 1 10.6.6.4 1-3.2 1-9.9 0-6.4-.4-10.6-1-10.6s-1 4-1 9.9M239.014 247.647c0 .2.7.7 1.6 1 .8.3 1.2.2.9-.4-.6-1-2.5-1.4-2.5-.6M369.014 414.247c8.6 1.8 9 2 8.4 3.5-.4.8-1.4 1.5-2.4 1.5-1.4 0-1.8.9-1.8 4.2-.1 4.5-1.3 5.8-5.5 5.8-1.6 0-2.6.4-2.2 1 .8 1.3 6.1 1.3 8.6 0 1.4-.8 1.9-2.1 1.9-5.5 0-3.9.3-4.5 2.5-5.1 5.7-1.4.8-5.2-7.6-5.9-5.9-.4-6.1-.4-1.9.5M452.814 513.947c-1 .2-1.8.9-1.8 1.5 0 1.2 5.9.3 7.4-1.2 1-1-2.2-1.2-5.6-.3M515.414 524.447c-.3.4.1 1.1.9 1.4 2.3.8 8 0 8.4-1.2.4-1.3-8.5-1.5-9.3-.2M516.614 551.147c-.6.9 3.5 2.4 4.3 1.5.6-.5-1.8-2.4-3.1-2.4-.4 0-.9.4-1.2.9M620.014 572.647c0 2.9 2.1 12.2 3.2 14.4 1.7 3.2 16.7 13.2 19.8 13.2 2.6 0 0-2.4-8-7.3l-8.5-5.2-2-7.7c-1-4.3-2.5-8-3.2-8.2-.7-.3-1.3.1-1.3.8M456.714 602.847c-2 2.1 1 2.4 18.6 2.2 11.9-.2 19.2-.7 19.2-1.3 0-1.1-36.7-2-37.8-.9M675.814 617.947c-3.8 1-1.5 2.3 4 2.3 5.2-.1 5.5-.2 3.8-1.5-1.9-1.5-4.4-1.7-7.8-.8M822.614 750.347c-.3 3.4-.6 21.7-.6 40.6v34.5l-3 2.9c-5.2 5.2-10.3 11.9-9.6 12.6.4.4 3.9-2.5 7.9-6.4l7.2-7.2 2.9 1.6c10.2 5.4 12.2 4.6 3-1.3l-5.3-3.4-.1-39.2c0-36.9-.9-49-2.4-34.7M618.514 796.247c-.3.5-.3 1 0 1 .4 0-.3 1.2-1.4 2.6-2.2 2.8-2.8 6.4-1.1 6.4.6 0 1.5-1.2 2-2.6.8-1.9 1.5-2.4 3-1.9 2.3.7 2.3.8.9-3.4-1.1-3.2-2.3-3.9-3.4-2.1M721.514 808.147c-.6 1 4.2 4.9 9 7.4 3.5 1.8 6 4.4 6.9 7.3.6 1.8-.1 2.4-5.1 4.3-3.1 1.2-7.8 3.7-10.5 5.7-2.7 1.9-5.4 3.2-6 2.8-.7-.4-.8-.3-.4.5.4.6 0 1.9-1 2.8-3.2 3.2.4 2.4 5.4-1.1 2.7-2 8.4-5.2 12.7-7.1l7.8-3.6-.6-3.6c-.4-2.3-2-5-4.2-7.3-1.9-2-3.4-3.8-3.3-4.1.2-.2.1-.3-.1-.2-.2.2-2.3-.8-4.7-2.2-4.8-2.8-5-2.9-5.9-1.6M749.014 841.947c-4.8.4-7.3 1.9-4.9 2.8 2.8 1 24.2-.9 24.7-2.3.4-1.2-8.5-1.4-19.8-.5M593.014 824.147c-3.8.5-4.1.7-1.9 1.2 3.5.8 9-.1 8.3-1.2-.3-.5-.8-.8-1.2-.7-.4 0-2.7.4-5.2.7M164.014 270.447c0 1.5.4 3.8.9 5.1 1.4 3.7 4.9 30.4 6.1 47.2.6 8.2 1.5 15.6 2 16.5 1.5 2.5 1.1-29.3-.5-41.3-2-15.1-8.5-36.1-8.5-27.5M216.014 351.247c-7.2.9-18.4 4.7-25.4 8.6-7.2 4-18.6 15.4-23.3 23.1-2.2 3.9-5.4 10.8-7 15.4-2.5 7.5-2.8 9.7-2.7 20.4 0 6.6.6 13.3 1.2 14.8 1.1 2.7.9 3.1-3.3 7.4-6.6 6.5-9.7 13.3-10.3 21.9-.4 6.6 1 14.4 2.6 14.4.4 0 .7-4.2.7-9.3 0-8 .4-9.9 2.7-14.7 4-8.2 8.1-12.5 15-15.9 4.5-2.3 7.4-3.1 11.2-3 5.9.1 11.2 1.7 6.1 1.9-3.3.1-10.9 3.2-11.9 4.9-.9 1.4-.6 1.4 3.9-.5 4.7-1.9 14.9-2 19.5 0 3.6 1.5 8 5.6 9.8 9.1.5 1.1 1.3 4.1 1.7 6.7.9 5.9 2.5 5.3 2.5-.8 0-8-5.4-15.4-13.8-19.2-3.6-1.6-4-2-2.2-2.5 2.9-.7 8 .8 12 3.8 4.1 3 5.4 3.2 4 .5-1.9-3.6-9.5-7.2-14.7-7-14.3.6-15.7 0-17.3-7.4-1.6-7.8-3.3-7.2-2.8.9.4 6.1.3 6.5-1.7 6.5-1.1 0-3.7.9-5.8 1.9-2 1-4 1.5-4.3 1-1.5-2.5-1.5-21.8 0-28.9 5-23.7 23.1-42.5 46.6-48.7 8.8-2.3 23.7-2.2 31.5.1 8.2 2.4 18.1 7.7 24 13 2.8 2.3 6.5 5.1 8.4 6.1 6.1 3.1 12.7 10.2 15.7 16.8 3.2 7.1 4.5 21.1 2.5 26.8-1.4 4.1-.8 4.8 1.4 1.6 2.2-3.5 3.5-13.1 2.4-19.5-1.8-11.8-9.7-23.2-19-27.6-2.5-1.2-6.8-4.4-9.5-7.1-11.5-11.5-31.9-17.8-50.4-15.5"/><path d="M274.814 384.747c-.3.4-.2 2 .4 3.6 1 2.9.6 12.1-.7 18.4l-.7 3 2.4-3.5c1.7-2.6 2.3-4.8 2.3-9.5-.1-5.8-2.3-13.3-3.7-12M84.514 395.647c-1.3 1-1.5 5.8-1.3 37.6l.3 36.5h9v-73.9l-3.2-.7c-1.9-.4-3.9-.2-4.8.5m4.5 37.1c0 22.3-.4 34.5-1 34.5s-1-12.2-1-34.5.4-34.5 1-34.5 1 12.2 1 34.5M816.514 395.547c-1.3 1.1-1.5 5.4-1.3 37.6l.3 36.5 2.5.6c1.4.4 3.6.3 4.8-.1l2.2-.8v-36.5c0-26.5-.3-36.7-1.2-37.2-1.9-1.2-5.6-1.3-7.3-.1m4.5 37.2c0 22.3-.4 34.5-1 34.5s-1-12.2-1-34.5.4-34.5 1-34.5 1 12.2 1 34.5"/><path d="M283.814 409.947c-1 18.1-10.2 32.7-26.3 41.4-3.8 2.1-18.2 6.9-20.6 6.9-1 0-2.1.4-2.4 1-1.2 1.9 7.6 1 15.8-1.7 9.6-3.1 17.3-7.7 23.2-13.9 4.4-4.5 11.4-17.1 11.6-20.8.1-1.2.5-.1.9 2.4.6 3.3.3 6.8-1.2 13.3-1.9 7.8-2 9.4-.9 15.5 1.2 6.3 1.1 7.2-1.4 15-1.4 4.5-3 8-3.5 7.7-.6-.3-.7 0-.5.7.3.8-1.1 4.9-3 9.2l-3.7 7.8-1.9-2.1c-5.4-5.8-9.9 2.1-7.6 13 1 4.7-.3 5.2-9.3 3.8-5.4-.9-6.7-1.5-6.3-2.7 1-2.5-2.1-.8-3.4 2-1.5 3-3.3 14.4-3.3 21.1 0 2.6.7 7.7 1.6 11.2 1.4 5.4 2.4 7.1 6.5 11 2.6 2.5 5.3 4.5 5.9 4.5.5 0 1 .4 1 .8s-4.5 2-10.1 3.6c-30.3 8.4-59 7.4-82.2-2.9l-4.9-2.1 6.3-3.2c8.2-4 17-11.8 20.8-18.5 3.4-6 6.1-15.9 6.1-23 0-3.3.4-4.7 1.4-4.7 2.6 0 13.1-5.2 17.2-8.5 2.2-1.8 5.1-5.4 6.5-7.9 1.7-3.3 3-4.6 4.6-4.6 1.2 0 2.3.6 2.6 1.2.3 1 .8.9 1.8-.3.8-.9 3.6-2.7 6.2-4 6.4-3.1 11.7-7.7 14.5-12.8 1.3-2.2 2.2-4.1 2-4.1s-2.9 2.4-5.9 5.3c-5.5 5.3-16.5 11.7-20.1 11.7-1.5 0-1.7-.5-1.1-2.8 1.4-4.7.8-16.5-1-19.8-1.7-3.3-4.4-6-5.2-5.2-.3.3.2 1.9 1.1 3.7 2.2 4.3 3.1 11.7 2.2 16.8-1.1 6.1-5.5 14.9-9.3 18.8-8 7.9-21.8 11.3-33 8-6.7-1.9-13.7-6.4-13-8.2.2-.7-.1-1.2-.7-1-1.9.4-5.6-6.1-6.9-12-1.2-5.3-.7-11.6 1.7-20.3.6-2.2.5-2.3-.9-1-1.9 1.9-4.7 11.2-4.7 15.9 0 2-1.4 6.5-3 10-5.6 11.7-5 18.5 2 26.6 4.1 4.8 6.6 4.6 2.7-.2-5.2-6.3-6.2-14-3-21.9 1-2.4 2-4.4 2.3-4.4.4 0 1.2 1.6 1.9 3.5 3.2 8.9 16.5 17.4 28 17.8 7.1.2 7.1.1 4.5 12.4-2 9.8-4.1 13.9-10.7 20.6-6.5 6.7-15.6 11.4-29.2 15.1-24.3 6.7-30.9 8.8-35.6 11.1-6.6 3.4-16.7 13.6-26.3 26.5-13.6 18.3-20.8 27-21.9 26.3q-.9-.45-.3.6c.5.7-1.4 3.6-4.6 7.4-3 3.4-9.1 10.8-13.7 16.5-4.8 5.9-8.7 10-9.3 9.6-.7-.4-.8-.2-.4.5s-.9 3.1-3.1 5.9c-11.3 13.7-26.2 36.6-29.3 44.9-2.7 7.2-2.7 16.6 0 21.1 1.1 1.8 1.7 3.8 1.4 4.4-.4.7-.2.8.4.4.7-.4 2.6.6 4.4 2.4 7.8 7.3 34.9 23.4 57.8 34.3 33.5 15.9 48.7 23.8 51.4 26.5 3.5 3.8 4.5 8.5 4.6 22.4 0 7.5-.6 13.3-2.1 19.5-2.5 10.5-2.1 17.3 1.4 28.3 2.1 6.5 2.3 8.4 1.6 14.5-1.4 11.8-1.1 21.5.5 21.5 1 0 1.6-1.9 2-6.8 2.5-27.9 5.8-43 16.2-75.7 8.2-25.3 9.7-33.3 9.1-46.5-.8-15.8-3.3-25.1-20.2-75.5-7.9-23.7-15.9-48.6-17.8-55.4-1.9-6.9-3.9-12.7-4.6-12.9-1.6-.5-.7 4.8 3.4 21.3 1.8 7.1 3.1 13.3 2.9 13.7-.3.4-3.5 2.7-7.2 5.2-8.7 5.8-23.9 18.6-37.3 31.4-9.9 9.4-10.9 10.1-13.8 9.6-3.6-.8-14.1.4-14.1 1.5 0 .5 4 1 8.8 1.3l8.8.4 12.5 10.9c6.8 6.1 15.1 13.2 18.4 16 3.3 2.7 8 6.8 10.5 9.1 7.5 6.8 20.3 16.9 25 19.9 5.9 3.7 16.3 13.7 18.4 17.8 1.7 3.1 1.6 3.5-2.2 16.7-2.2 7.4-5.6 18.7-7.5 25-4.4 14.2-8.7 30.7-8.7 33.7 0 1.3-.4 2.3-1 2.3-.5 0-1-.3-1-.8 0-.4-.7-4-1.5-8-1.5-6.9-1.4-7.6.7-15.5 1.9-6.8 2.3-10.7 2.2-23.2 0-24.9 2.8-22.3-52.4-49.4-15.7-7.7-31-15.4-34-17.1-31.8-18.3-37.9-24.8-35.1-37.3 1.6-7.3 5.2-14.6 12.3-25.1 12.5-18.4 22.1-30.8 23.2-30 .3.2.4.1.1-.2-.5-.7 2.8-5.2 11.5-15.5 14.8-17.8 23.6-28.6 33.3-41.5 18.2-24 25.2-29.7 42.2-34.4 4.4-1.2 12.5-3.5 17.9-5.1l9.9-2.9 3.1 2.3c6.4 4.8 20.3 9.1 34.9 10.8 18.5 2.1 40.2-.4 59.7-6.9l8.6-2.8 6.8 2.8c3.8 1.5 13.5 4.8 21.6 7.2 19 5.7 24.6 8.4 30.7 14.9 7.2 7.6 11.7 17.8 23.4 52.7 5.6 16.8 11.5 33.9 13 38 5.8 14.8 16.4 39 17.2 39 1.5 0-2.4-12-11.7-35.8-3.1-7.9-5.6-14.6-5.6-15 .1-.4 1.6 2.4 3.4 6.3 1.9 3.8 4.1 7.9 4.9 9 4 5 1.2-2.8-7.7-21.9-5.2-11.1-11.8-26.9-14.6-35.1-6-17.9-13.6-33.9-18.5-39.2-2-2.1-4.3-5.4-5.1-7.3-2-4.6-7.7-26.7-10.4-40-2.6-13.6-4.4-18.4-7.5-20-1.9-1-2.2-1.6-1.3-2.2s.6-.7-.7-.4c-1.5.4-4.1-1.2-10-6.5-8-7.1-11.8-9.4-13.6-8.3-1 .6-.5-.8 5.4-14.1 2-4.4 4.6-11.3 5.8-15.2 1.3-4 2.7-6.9 3.1-6.6.5.3.7 1.2.4 2s-.2 1.2.3.9c1.2-.8 3.1 4 3.1 7.9 0 1.9-.9 5.8-2 8.6-2.2 5.5-1.9 7.5.5 4.3 4.8-6.4 5.8-17.2 2-22.8-5.8-8.6-6.8-11.6-6-18 1.1-8.3 1-21.2-.3-32.5-1.4-12.6-2.8-13.6-3.4-2.4m-14.1 87.5c1.2 2.4 4.4 10.2 7.3 17.4 4.9 12.5 9.1 19.7 10.5 18.2.3-.3-.1-2-.9-3.7-.9-1.6-1.6-4.3-1.6-6 0-1.6-.5-3.3-1.1-3.7-1.1-.6-7.1-13-8.4-17.1-1-3.6 2.1-1.9 10.2 5.8 4 3.8 9 7.7 11.3 8.9 2.2 1.1 4 2.2 4 2.5 0 2.3 8.7 39.2 10.9 46.2l2.8 9-5.5-2.5c-3-1.4-10.4-4-16.4-5.8-6.3-1.9-11.6-4-12.4-5.1-2.7-3.6-5.3-12.3-5.9-20-.8-9.4-2.7-17.8-6.6-28.8-3.2-9.3-4-14-2.8-17.3 1.2-3.2 2.3-2.7 4.6 2m-10.9 15.3c3.4 0 6.2.2 6.2.4s-1.1 1.6-2.5 3.3c-3.3 3.9-3.3 9.6.1 18.8 2.4 6.5 4.4 9 6.8 8.7.6-.1 1.7 2.7 2.6 6.3s2.5 7.8 3.4 9.3l1.8 2.7-4.3-1.5c-9.3-3.3-20.7-9.5-23.7-12.9-1.7-2-3.6-5.2-4.1-7.3-1.2-4.2-1.4-19.6-.4-25.6.6-3.9.6-3.9 4.2-3 2 .4 6.4.8 9.9.8m8.2 7.4c0 1 .7 3.5 1.5 5.4 1.9 4.7 3 14.2 1.7 15.1-1 .6-2.9-1.1-3.1-2.9-.1-.6-1-3.4-2.1-6.3-2.2-5.9-2.5-9.4-.9-12.3 1.2-2.3 2.9-1.6 2.9 1m-140.1 175.8c16.1 47.3 21.6 69.2 20.4 81l-.5 4.1-3-3.4c-1.6-1.8-5.3-5-8.1-7.1-2.9-2-7.3-5.5-9.8-7.7-2.5-2.3-9-7.8-14.5-12.2-5.4-4.5-11.7-9.7-13.8-11.5-2.1-1.9-10.7-9.2-19-16.3s-15.3-13-15.5-13.3c-1.7-1.4 48.6-44.3 51-43.6.5.2.8 0 .8-.5-.2-1.4.1-2.5.6-2 .3.2 5.4 14.9 11.4 32.5"/><path d="M338.214 582.447c.6 1.7 3.6 3.4 4.5 2.4.4-.4-.1-1.4-1.1-2.2-2.4-1.7-3.9-1.8-3.4-.2M293.014 677.147c0 .5 2 5.6 4.4 11.4 4.1 9.7 4.3 10.7 3.5 15.8-2 12.5-4.1 41.5-4.2 56.9l-.1 16.5 5.3 15c18.8 52.9 22.7 67.9 25.6 99.7.5 4.9 1.1 6.8 2.1 6.8 1.9 0 1.9-8.4-.1-23.6-2.9-21.8-7.9-40.3-19.2-70.3-3.6-9.7-7.3-19.9-8.1-22.6-1.7-5.9-2.4-31.8-1.2-44.5.5-4.7 1.4-14.3 2.1-21.3l1.2-12.8 4 7.8c11.3 22.6 19.4 35.8 25.7 42.2 19.2 19.6 40.2 18.1 47.4-3.3 5.5-16.3 3.6-35.9-5.4-53.6-3.2-6.3-5.4-9-7.4-9-.8 0 .3 3.1 3 8.3 8.6 16.7 11.1 34.4 7 50.6-5.3 20.8-23 22.8-41.1 4.7-8.5-8.5-13.2-16.4-30.3-50.4-11.3-22.4-14.2-27.4-14.2-24.3M456.014 688.747c0 1.3 2.8 1.5 19.5 1.5s19.5-.2 19.5-1.5-2.8-1.5-19.5-1.5-19.5.2-19.5 1.5"/><path d="M456.314 753.147c-1.7.4-5.9 2.2-9.2 4-5.6 2.9-6.7 3.1-16.2 3.1-12.1 0-15 1.1-21.3 8.1-2.4 2.7-5.2 4.9-6.3 4.9-2.7.1-9.3 3.3-12.9 6.3-2.8 2.4-4.1 2.7-10 2.7-3.8-.1-9.6-.7-12.9-1.5s-7.6-1.5-9.5-1.5c-5.1 0-13.1 4.1-17.1 8.8-1.9 2.3-5.6 5-8.1 6.1-7.5 3.2-11.2 9-7.5 11.8 2.6 2.1 11.6 4.4 19.4 5s8.1.7 8.7 3.3c.3 1.5 1.3 3.1 2.3 3.5 4.9 2 13.8 3.6 23.3 4.1 8.7.5 12 .3 19.3-1.5 11.5-2.7 16.5-2.6 26.2.5 4.4 1.4 10.5 2.8 13.6 3.1l5.5.5 6.3-5.6c6.9-6.1 9.8-7.2 20.9-7.9 6.6-.4 8.7.2 6.2 1.8-1.6 1-1.1 6.1.8 7.8 4.3 3.9 43.2 5 49.9 1.4 1.8-.9 4.4-3.9 6.2-6.9 4.2-7.4 11.6-15.5 16.2-17.9 4.8-2.4 4.8-2.4 5.1 9.6l.3 9 2.8.3c3.9.5 5.3-1 5.5-6 .5-8 2.3-16.3 5.3-23 1.6-3.6 2.9-8.4 2.9-10.5 0-9.6-6.6-22.3-11.5-22.3-5.3 0-15.6 6.5-26.7 16.7-3.1 2.9-6.2 5.3-6.9 5.3s-4.2-1.7-7.8-3.7c-6-3.4-7.5-3.8-16.1-4.3-9.1-.5-9.8-.7-15.5-4.6-14.8-10.1-22.5-12.7-31.2-10.5m18.4 4.6c2 .9 6 3.8 8.9 6.5 6.5 6.2 8.6 7 19.9 8 6.9.6 10.1 1.4 13.8 3.5 2.6 1.5 4.5 3.1 4.2 3.6-.4.5.1.6.9.3 2.5-1 1.9.4-2.1 4.5-5.8 5.8-12.9 10.8-16.5 11.6-1.8.4-5.4 2-8.1 3.6-4.1 2.5-5.7 2.9-12.6 2.9-6.7 0-8.1-.3-9.7-2.1-1-1.2-6.4-4.4-11.9-7.3-10.5-5.3-13-6.5-10.5-4.7 1.2.9 1 1.1-1 1.1-4.7-.1-10.2-1.8-12.7-4.2l-2.5-2.3 2.9-1.2 2.8-1.2-2.5-.2c-1.4-.1-3.3 0-4.3.1s-3.3-1.2-5.2-2.8c-2.5-2.3-5-3.3-10.5-4.2l-7.2-1.2 2.4-2.5c4.7-5.1 8.9-6.4 18.2-5.7 8.3.7 8.7.6 15.8-2.9 4-1.9 8.2-3.7 9.3-4 4.6-1.1 14.8-.6 18.2.8m85.3 1.5q0 2.1 1.8 1.8c4-.7 8.2 16.7 5.3 22.1-.7 1.2-5.5 4.2-11.4 7-11.9 5.7-17.3 10.5-24.1 21.5l-4.6 7.4-6.6 1.2c-9.8 1.9-37.9-.1-40.6-2.8-1.7-1.7 1.3-4.6 11.7-11.3l8.9-5.8 2.3 2.3c1.3 1.3 5 3.1 8.2 4 6.7 1.9 12.9 1.1 18.9-2.5 1.9-1 3.8-1.6 4.4-1.3.6.4.8.2.4-.4-.3-.5 1.3-2.5 3.6-4.4 2.3-1.8 3.8-2.7 3.4-1.9-.6 1-.5 1.2.3.7.6-.4.9-1.2.5-1.7-.3-.6.2-1.9 1.2-3 2.8-3.2-.3-2.2-4.3 1.4-9.3 8.1-16.2 11.7-22.3 11.7-3.1 0-11.4-3.2-12.4-4.8-.3-.5.5-1.3 1.9-1.6 1.3-.3 4-2 5.8-3.6 1.9-1.6 3.8-2.6 4.2-2.2.5.4.5.2.2-.4-.9-1.5.7-3.1 14-14.6 10.7-9.3 26.3-20.8 28.3-20.8.6 0 1 .9 1 2m-136.7 18.6c2.7 1.6 19.7 16.8 19.2 17.2-.2.3-2.7-.5-5.4-1.7-5.4-2.3-7.1-2.6-7.1-1.2 0 1.5 7.9 4.9 15.2 6.5 5.8 1.3 7.3 1.4 11.4.1 5.5-1.6 9.3-.5 14.9 4.4 2.2 1.9 4 2.7 5.6 2.4 1.3-.2 3.5 0 4.8.5 1.8.6-1 1-10.2 1.5-14.2.6-17.7 2-25.2 9.6-2.1 2.3-4.8 4.1-6 4.1-3.3 0-19-4.8-28.2-8.6-8.6-3.6-18.3-5.5-18.3-3.7 0 .5 2.4 1.5 5.3 2.2 2.8.6 6.3 1.8 7.7 2.6l2.5 1.4-2.8.1c-1.5 0-6.7 1-11.4 2.2-8.1 2-9.4 2.1-18.7.9-11.1-1.3-17.4-2.8-19.3-4.3-1-.8-.9-1.7.5-4 2.5-4.4 8.9-9.8 11.5-9.8 3.2 0 10.3-4.8 15.8-10.6 10.9-11.5 15.6-13.7 28.5-13.1 4.5.3 8.8.9 9.7 1.3m-54 6.9c3.2.8 7.7 1.5 9.9 1.5h4.2l-2.9 3c-2.6 2.7-3.4 2.9-11.4 3.2-9.5.3-11.8 2.1-3.3 2.6 6 .4 6.8 1.7 1.6 2.7q-3.6.6-8.4 5.4l-4.7 4.7-6.8-.2c-6.9-.3-15.5-1.9-18.7-3.6-2.7-1.4-.3-4.4 5.7-6.9 2.7-1.1 6.8-4 9-6.4 2.2-2.3 5.4-4.9 7-5.8 3.8-2.1 11.4-2.1 18.8-.2m193.5 8.5c-.5 1.7-1.6 6.9-2.3 11.8l-1.2 8.7-.2-7.7c0-4.2-.5-8.8-1.1-10.2-1-2.6-.7-2.9 5.7-5.5.1-.1-.3 1.3-.9 2.9m-108.7.2c5.3 1.5 4.9 2.8-.8 2.8-4.3-.1-8.3-1.7-8.3-3.4 0-1 4.9-.7 9.1.6M454.714 835.547c-9 1.9-10.3 2-16 .6-3.4-.8-9.1-1.4-12.7-1.3-6.9 0-9.9 1.3-18.7 8-2.3 1.7-7.7 4.3-12 5.9-8.9 3.1-10.3 4-10.3 6.6 0 2.8 2.6 4.7 9.4 6.8 3.6 1.1 9.8 4.3 14.5 7.5 4.5 3.1 9.2 5.8 10.4 6.1 1.4.4 6.2-.9 12.7-3.5 13.4-5.4 21.7-6.2 30.5-3.1 7 2.5 10.4 2.6 17.1.7 2.7-.8 8.7-2 13.4-2.7 11.6-1.6 15.3-3.8 14.2-8.3-.8-3.4-2.3-4.7-9.7-8.2-3.9-1.9-9.8-5.7-13-8.6-10.9-9.9-12.1-10.2-29.8-6.5m25.1 7.1c4.1 3.6 10.1 7.8 13.5 9.5 4.1 2 5.4 3 4 3.1-1.2 0-5.9 1.2-10.5 2.6-4.6 1.5-8.7 2.7-9.3 2.8-.5.1-2 .5-3.1.9-1.4.5-4.6-.1-8.4-1.4-8.5-2.9-12.3-2.2-27.7 5.2-16.4 7.8-17.7 8-24.1 3.8-2.8-1.8-4.8-3.7-4.5-4.2.3-.6.1-.7-.4-.4-1.2.8-20.3-8-20.3-9.3 0-.5 2.4-1.6 5.3-2.6 6.9-2.2 11.5-4.6 19.1-9.8 7.7-5.3 11.8-6 21-3.9 7.9 1.8 19.6 1.3 28.1-1.1s9.4-2.2 17.3 4.8m23.1 16.5c3.8 2.4-11 6.7-26.8 7.7-6.5.4-9.7.2-13-1-2.4-.9-5.6-1.6-7.2-1.6-4.2 0-4.5-1.8-.4-2.6 2.4-.4 5-.1 7.8 1 5.5 2.1 13.2 2 18.8 0 10.9-4.1 18-5.3 20.8-3.5"/><path d="M440.014 843.847c0 .7 8.9 4.6 12.8 5.5 1.7.4 3.2.5 3.2.3s-3-1.7-6.6-3.4c-6.4-2.9-9.4-3.7-9.4-2.4"/></svg>