<svg xmlns="http://www.w3.org/2000/svg" width="889.149" height="906.756" viewBox="0 0 666.861 680.067"><path d="M1.161 1.2c-1.2 1.4-1.6 593.7-.4 620.3l.6 14h17l.5-314.7.5-314.7 8.5 6.3c4.7 3.4 17.8 12.9 29.2 21l20.7 14.6.1 289.2c0 159 .3 289.5.6 289.9.3.5 12.1.9 26.3.9 20.4 0 26.1-.3 27-1.3.6-.8.8-1.7.4-2-.3-.4-12-.7-26-.7h-25.3V365.2c0-142.4.2-259.1.4-259.3s6.5-.3 14-.1c15.4.3 14.5-.3 15 10.1.2 4.1-.1 5.4-1.4 6.1-1 .5-2.3 3-2.9 5.5-.6 2.6-2 5-3.2 5.8-3.4 2-6 8.1-5.3 12.5.4 2.6-.1 6-1.6 10.8-2.2 6.8-2.3 7.7-2.1 51 .2 26-.2 48.1-.8 53.5-.9 8.4-2.8 31.9-3.4 42.4-.2 3.4.2 4.1 2.6 5.3 3.2 1.5 3.1.5 1.3 21.4-.8 9-1.8 23.2-2.2 31.5-.6 14.4-.5 15.3 1.2 16 2 .8 32.5.9 35.9.1 1.8-.4 2-1.3 2-9.8 0-6.6-.4-9.5-1.2-9.8-1-.3-1.3 1.7-1.3 7.6v8.1l-5.7.7c-6.8.9-19.7.9-24.5 0l-3.4-.6.3-5.8c.1-3.1 1-17.7 1.9-32.5 1.7-27.6 1.5-29.7-2.2-29.7-.8 0-1.4-.3-1.4-.8 0-.4 1.2-14.4 2.6-31.2 2.4-28.7 2.6-32.8 2-69.6l-.7-39.1 3-9.5c3-9.1 6.7-14.8 8.6-13.1.4.5.5.3.1-.4-.9-1.6 5.2-6 8.9-6.5 2.6-.3 3.1.1 4.2 3.2.6 1.9 1.2 5 1.2 6.8.1 3 0 3.2-1.5 1.8-.8-.9-1.7-1.6-1.8-1.6-.2 0 .3 2.3 1 5 2 7.8 4.4 31.9 4.9 49.5.3 8.8.7 36 1 60.5l.5 44.6-2.9 1.1-2.9 1.1.5 20.3c.5 21.5.6 22.9 2.3 22.9.6 0 1-7.1 1-20.5V310l2.5-1c1.4-.5 2.5-1.5 2.6-2.2 0-.7 0-23.4-.1-50.3-.1-49.2-.9-70.6-3.5-91-1.1-8.4-1.2-11.7-.3-14.1 1.7-4.7-.7-15.1-4.2-18.4-1.5-1.4-3.2-4-3.8-5.9-.7-1.9-1.8-4.2-2.6-5-.8-.9-1.5-4.6-1.8-8.9l-.4-7.2h46.4l.4 7.4c.3 6.6 0 7.8-1.9 10.1-1.3 1.4-2.3 3.4-2.3 4.4 0 2.6-2.1 8.2-2.9 7.7-.4-.3-1.7 1.1-3 3-1.7 2.5-2.2 4.3-1.9 7.1.3 2.1-.2 5.8-1 8.3-1.5 4.8-2.6 23-3.8 63.9-.6 20.8-.5 24.3.7 23.9 1.1-.4 1.5-3.8 2-14.9 1.6-36.9 3-63.7 3.4-67.1.6-4.4 3.2-10.5 5.8-13.2 2.5-2.8 2.1-4.1-.7-2.3-2.2 1.5-2.3 1.5-2.3-.8 0-3.9 2.2-5 9.6-4.7 7.5.4 9.5 1.8 10.5 7.2l.6 3.5-2.1-2.8c-3.7-4.9-5.7-2-2 3.1 1.5 2.3 2.2 7 3.9 28.6 1.9 24.1 3.1 30.7 4.8 26.1.6-1.6-.6-22-2.5-41.7-.4-4.6-.3-8.2.2-8.7s.8-3.7.5-7c-.3-4.8-1-6.7-3-8.9-1.5-1.5-3.3-5.2-4.1-8.5-.9-3.3-2.2-6.6-3-7.5-.9-1.1-1.6-4.5-1.9-9.2l-.3-7.5h126.2c69.5 0 126.3.3 126.3.6s-.9 1.4-2 2.4c-1.5 1.4-2 3.1-2 7.2 0 4.7-.3 5.5-2.5 6.5-1.7.8-3.2 3.1-5 7.8-2.3 6.1-3.4 7.4-12.7 15.6-5.6 4.9-11 10-12 11.4-3.7 5.1-9 49.8-15.3 128.5-1.4 17.6-2.8 34.8-3.1 38.1l-.7 6.2 5.2 1.7c5.8 1.9 5.6.9 4.2 18-.4 5.1-.4 9.8.2 10.8 1 2.1 8.1 5.6 11.3 5.7 1.2 0 3.2-1.1 4.5-2.5 3.3-3.4 5.3-3.1 7.7.9 2.6 4.5 6.3 6.3 15.4 7.7 8.6 1.4 34.3.6 43.3-1.3l6-1.3V365c0-2.5-.3-8.9-.7-14.3-.7-9.6-.7-9.7 1.5-9.7 5.3-.1 5.1 1.2 5.5-42.3.5-51.4-.9-83.5-5.4-119.7-1.9-15.7-2.7-18.7-5.9-22l-2.6-2.8 4.6-4.3c2.6-2.4 5-4.5 5.4-4.7.5-.1 1.4 1.1 2.1 2.8 4.1 10 16.5 9.2 25.8-1.6 3.9-4.6 4.1-4.7 6.4-3.2 4.5 3.1 15.3 12.9 17 15.6 3.8 6.2 4.9 21 5.8 78.7.4 30.2 1.1 59.7 1.4 65.5.4 5.8.8 15.1 1 20.7.5 11.9 1.6 10.9-13.6 11.9l-9.6.7-.6-5.4c-2.9-25.6-7.1-111.2-6.3-127.7.4-8.4.2-11.2-.6-10.9-3.9 1.2-3.3 51.3 1.3 115.7.5 7.4.9 15.5 1 17.8v4.4l-10.2-.4c-8.6-.2-10.3-.1-10.3 1.2 0 1.2 2 1.6 10.6 1.8l10.7.3.5 2.8c.5 2.4 1.2 2.9 4.8 3.4 4.2.5 18-.5 23.2-1.8 2.7-.7 2.7-.8 2.7-8.4-.1-4.2-.7-25.6-1.4-47.6s-1.1-47-.8-55.5c.8-26.1-2.4-61.4-6.1-68.7-.9-1.6-5.6-6.3-10.4-10.4-4.8-4-9.4-7.9-10.1-8.6-.6-.6-2.1-1.4-3.1-1.8-1.1-.3-3-3.1-4.4-6.5-1.4-3.2-3.7-6.6-5.1-7.6-3.4-2.2-3.5-8-.3-12.9l2.2-3.4 25.8-.3c14.1-.2 25.7-.1 25.7 0 0 .2-.9 1.5-2 2.9-1.4 1.8-2 4.1-2 7.4 0 4-.4 5.1-2.2 6.1-1.3.7-2.7 1.1-3.1 1-.5-.1-.6.2-.3.7 1.4 2.2-3.7 11.8-9.1 17.2-3.3 3.5-5.4 6.3-5.1 7.4.2 1.5.7 1.3 3.1-1 1.5-1.6 3-2.5 3.3-2.2.4.3 1.5 3.9 2.6 7.9 2 7.7 8.7 21.9 10.5 22.5s11-15.3 13.9-23.9c1.4-4.3 2.8-7.8 3.2-7.8.3 0 1.3.7 2.3 1.6 1.4 1.2 1.6 2.7 1.2 7.2-.7 7.6 1.2 20.1 4 27.2l2.4 5.7-1.8 11.4c-3.1 20.3-3.4 31.9-1 44.9 2.9 16.2 5.7 37.6 7.6 57.5 1.6 16.9 6.6 87.8 6.2 88.1-.1.1-6 .7-13.1 1.3-9.7.8-16.2.8-26.3-.1l-13.3-1.1v-21.8c0-13.5-.4-22-1-22.4-1.7-1-1.9 1-2.7 23.9-.6 16.4-.5 22.3.4 23.1.7.7 4.7 1.3 9.5 1.4 4.6.1 10.3.5 12.8.8 5.9.8 7.4.8 20.5 0 17.6-1.2 16.5-.7 16-8.5-.2-3.7-.7-13.7-1-22.2-1.5-39.3-7.3-97.7-12.1-120.3-2-9.7-1.8-23.8.7-41.3l2.2-15.1-2.8-6.8c-1.8-4.5-2.9-9.5-3.2-14.6-.6-7.6-.5-7.7 1.8-8.1 1.7-.2 2.5-1 2.7-2.8.2-1.9-1-3.8-5.3-8-3.1-3-6.8-6.6-8.2-8s-3.5-5-4.7-8c-1.3-3.3-3.1-5.9-4.4-6.5-3.1-1.4-3.1-9.3 0-13.5l2.2-3h38.6l-.2 182.7-.3 182.8-6.9.3-6.9.3.4-26.8.4-26.8-48.9-.3c-27-.1-49.4.2-49.9.7-.4.4-.8 3-.7 5.7s.3 14.3.3 25.9l.2 21-7.3.3-7.3.3.6-3.4c.4-2.1.1-4.8-.9-7.1-1.2-2.8-1.3-4.3-.5-5.8 1.6-2.9 1.4-7-.5-10.7-1.3-2.4-1.5-3.6-.7-4.4 3-3-.2-11.7-4.9-13.7-1.7-.7-15.9-1-43.2-.8l-40.6.3-2.5 2.3c-3.3 3.1-4.3 8.6-2.3 11.7.9 1.4 1.2 2.6.6 3-.5.3-1.5 2.3-2.1 4.4-1 3.2-.9 4.4.5 7.2 1.5 3 1.5 3.4 0 5.7-1.1 1.7-1.5 3.8-1.1 6.8l.5 4.4h-5.9c-4.5 0-5.9.4-5.9 1.4 0 .8.8 1.7 1.8 2 .9.3 53.5.5 116.7.5h116.3c.7.1 1.2 1.5 1.2 3.6v3.5l-116.2.2c-109.8.3-116.3.4-116.6 2-.3 1.7 5.7 1.8 116.2 1.8h116.6l-.2 33.3-.3 33.2-105.1.1c-57.8.1-105.6.4-106.3.8-.6.4-.9 1.2-.6 1.7.4.5 42.3.9 106.6.9h105.9v67h-140.1c-132.8 0-140 .1-139.7 1.8.3 1.6 8 1.7 140.3 2.2l140 .5 15 4.8c35.2 11.3 55.7 16.7 63 16.7 4.2 0 7.6-.5 8.3-1.2.9-.9 1.2-74.4 1.2-324.4 0-293.8-.1-323.2-1.6-323.8-.9-.3-4.9-.6-8.9-.6-6.6 0-7.7.3-12.1 3.3-2.7 1.8-12.8 8.2-22.4 14.2-9.6 6.1-22.4 14.3-28.5 18.2l-11 7.3h-505l-24.8-17.6c-14.4-10.2-24.4-18-24-18.6.3-.7.1-.8-.6-.4-.6.4-2.9-.7-5.3-2.5-3.7-3-4.8-3.3-12.2-3.7-6.1-.3-8.5 0-9.3 1m13.7 316.8v314h-4.9c-4.2 0-5-.3-5.4-2.2-.8-3.4-.9-608-.1-617.6l.7-8.2h9.7zm647.8 6.7-.3 320.8-5.2.3-5.3.3V4h11zm-15.1 320c-.2.1-2.3-.3-4.8-1.1-2.4-.8-16.5-4.9-31.4-9.2-14.8-4.2-27.3-8-27.8-8.4-.4-.3-.7-130.6-.7-289.6V47.5l7.4-5c4.1-2.8 11.8-7.7 17.1-11 12.5-7.8 18.9-11.9 30.5-19.4l9.5-6.2.3 319.2c.1 175.6.1 319.4-.1 319.6M578.861 54v7h-498v-6.3c0-3.5.3-6.7.7-7 .3-.4 112.4-.7 249-.7h248.3zm0 24.5V92h-20c-17.2 0-20.4-.2-22.7-1.7-2.4-1.6-2.7-1.6-5.5 0-4.4 2.5-45.2 2.5-49.5 0-2.7-1.5-3.2-1.5-6.3 0-4.9 2.5-53.2 2.5-58.3.1-3.1-1.5-3.6-1.5-6.5 0-2.8 1.4-14.8 1.6-123.8 1.6s-120.9-.2-122.5-1.6c-1.8-1.6-5.9-1.2-5.9.7 0 .5-8.4.9-20.3.9-16.6 0-21-.3-23.6-1.6-2.9-1.4-3.4-1.4-5.6 0-1.9 1.2-5.2 1.6-15 1.6h-12.5V65h498zm-465 20.5v3h-33v-6h33zm50 0v3h-46.7l.5-3 .4-3h45.8zm254 0v3h-250v-6h250zm64 0v3l-30.2-.2-30.1-.3-.1-2.8-.2-2.7h60.6zm55.8.3.3 2.7-26.2-.2-26.2-.3-.3-2.8-.3-2.7 26.2.2 26.2.3zm41.2-.3v3h-38v-6h38zm-100.9 9.6c-1.5 1.9-2.1 4.1-2.1 8 0 4.3-.3 5.4-1.9 5.9-1.1.3-3 3.2-4.7 7.1-2.3 5.4-3.8 7.3-9.8 12.2-3.9 3.1-8 6.7-9.1 8l-2 2.2-11.2-8.2c-6.6-4.9-11-8.8-10.8-9.6.3-.7.1-1.1-.4-.8s-1.8-1.7-3-4.5-3.4-5.7-4.9-6.7c-3.9-2.5-4.2-7.2-.6-12.3l2.7-3.9h59.8zm-313.2 20.8c1.5 6.2 1.6 6.2-2.8 5.8l-3.8-.4.9-4.1c1-4.4 2.5-7 3.8-6.2.4.3 1.3 2.5 1.9 4.9m251.3-4.2c.9.7 2.9 3.9 4.4 7.1 3.2 7 2.3 8.8-2.6 5.2-1.9-1.4-3.9-2.5-4.4-2.5-.6 0-3.7 2-6.8 4.5-3.2 2.5-6 4.5-6.3 4.5-1.6 0-.1-2.9 2.4-4.8 1.7-1.2 3.5-4 4.5-6.8 2.5-7.5 5.4-9.8 8.8-7.2m64.6.5c1 1 2.5 3.4 3.3 5.3.7 1.9 2.4 5 3.7 6.7 3 4 1.3 4.3-3.5.6-3.2-2.5-9.3-4-9.3-2.4 0 .4-2.2 2.4-5 4.4-2.7 2.1-5 3.5-5 3.1 0-.3 1.5-2.3 3.3-4.5 1.9-2.1 3.9-5.7 4.6-7.8 1.1-3.9 3.4-7.1 5.1-7.1.4 0 1.7.8 2.8 1.7m55.5-.5c.9.7 2.4 3.3 3.2 5.8.9 2.5 2.8 5.7 4.2 7.2 3.9 4.1 2.4 4.2-3.3.2-3.6-2.6-5.5-3.4-7.4-2.9-1.4.3-3 .6-3.7.7s-1.1.4-1 .8-1.3 1.9-3 3.4c-3.9 3.3-4.2 2.7-.9-1.7 1.3-1.8 3.1-5.4 4.1-8 2.3-6.1 4.7-7.8 7.8-5.5m-421.7 2.5c.3 1.6.7 3.3.9 3.9.2.7-.9 1.4-2.4 1.7s-4.9 2.7-7.4 5.3c-2.6 2.6-4.7 4.4-4.7 4 0-1.9 3.2-6.6 4.5-6.6 1.8 0 3-2.3 3.9-7.3.9-4.6 4.2-5.3 5.2-1m424.5 14c2.7 2 4.9 4 4.9 4.3s-.3 1.5-.6 2.7c-.6 2.2-1.1 2.3-10 2.3-7.6 0-9.4-.3-9.5-1.5-.1-.8-.2-1.9-.3-2.4-.1-.8 9.3-9.1 10.3-9.1.2 0 2.6 1.7 5.2 3.7m-121.6-.2 2.9 2.4-5.2 18.3c-9.6 34-20.4 84.9-21.6 101.8-.2 3-.2-10.3.1-29.5.2-19.3.6-38.2.9-42 .7-10 4.3-38.5 5.1-41.7.5-1.8 3.1-4.3 7.2-7.3 3.6-2.5 6.7-4.5 7-4.5.4.1 1.9 1.2 3.6 2.5m12.9 8.9c-.4 4.5-.7 8.7-.7 9.4 0 .8-1.8 2.5-3.9 3.9-4.4 2.9-4.5 3.6-1.8 8.1 1.1 1.8 2 4 2 5 0 .9-3.4 10-7.5 20.2-4.2 10.2-9.4 23.4-11.6 29.5-2.2 6-4.4 12-4.9 13.3-1.2 2.8-1.3 6.2-.2 6.2.4 0 1.4-1.7 2.1-3.8.8-2 4.4-10.9 8.1-19.7 13.8-32.7 18-43.3 18-45.6 0-1.3-.9-3.9-2.1-5.8-1.1-1.8-1.9-3.4-1.7-3.5.2-.2 1.7-1.2 3.4-2.4 3-2 3.2-2.5 3.6-10.2.3-4.4.7-8.3 1.1-8.6.8-.8 15.3 11.1 17.3 14.1 2.9 4.5 6.5 35.5 8.4 73.5 1.2 23.4 1.3 100 .2 101.8-1.2 1.8-9.6 2.6-19.4 1.8l-8.4-.7.1-72.5c.1-39.8-.1-72.4-.5-72.4s-1.1 1.5-1.4 3.2c-1.2 5.8-2.6 143.2-1.5 144.3.5.5 6.4 1.2 12.9 1.4l12 .3v7.7c0 4.2.3 9.9.6 12.7l.6 5.1-7.8 1.1c-19.7 2.8-38.3 2.2-46.1-1.5-7.4-3.5-8.2-10.6-6.4-55.8 1.4-34.2 2.6-51.7 4.7-64 3.9-23.4 16.2-74.2 23.6-97.7l3-9.7 2.5 1.6c2.3 1.6 2.4 1.9 1.7 9.7m52.4-8.7 3.5 2.7-3.7 3.2c-2.1 1.8-5 3.6-6.5 3.9-5.6 1.2-11.7-3.5-7.7-5.9 1-.6 3.4-2.3 5.3-3.9 4.4-3.3 4.8-3.3 9.1 0m-86.7 8.4c-2.4 10.8-5.5 43.4-6.2 64.9-.2 5.8-1.4-8-2.4-26.5l-.7-14 3.1-3.8c2.9-3.7 3-4 1.4-6.3-1.8-2.7-1.2-5.8 2.8-15.1 2.4-5.5 3.3-5.2 2 .8m-8.8 7c-1.3 3.3-1.4 4.8-.5 7.1.9 2.4.7 3.5-1 6.4-1.9 3.3-2 4.6-1.5 20.2.3 9.2 1.4 22.8 2.4 30.2 3.1 22.9 1.7 127.7-1.8 137.8-1.3 3.8-3.8 4.2-8.6 1.2-4-2.4-3.9 0-1.3-33.5 4.5-57.5 5-65.7 5-82.7 0-9.7-.3-18.4-.6-19.3-1.5-3.8-2.4 1.5-2.4 14.6 0 12.4-1.3 34.8-4 67.4-.5 6.6-1.1 14.2-1.2 16.9-.2 5.2-1.4 6.4-4.8 4.6-2-1.1-2.2-1.7-1.6-7.3 1-10.8 3.5-40.7 4.6-56.2 1.1-15.2 4.7-54.5 5.5-60 .2-1.7 1.6-11.8 3.1-22.5 1.4-10.7 3.2-20.4 3.9-21.5 1.2-2 5.8-7.4 6.2-7.5.2 0-.5 1.9-1.4 4.1m150 5.1c-2.1 3.9-4.3 7.3-4.9 7.5-1.1.4-2.2-1.7-5.5-10l-1.9-4.7h16.2zm-144.6 115.5c-.2 1.6-.4.5-.4-2.2 0-2.8.2-4 .4-2.8.2 1.3.2 3.5 0 5m-2.1 80.1c-1.2 1.1-1.4-.4-.8-5.3l.7-5 .3 4.9c.2 2.6.1 5.1-.2 5.4m171.4 66.7v2.5h-46.5c-44.4 0-46.5-.1-46.5-1.8 0-1 .3-2.2.7-2.5.3-.4 21.3-.7 46.5-.7h45.8zm-116.6 7.4c1.1 1.2 1.6 3.1 1.4 5.3l-.3 3.3-42.5.3c-39.1.2-42.6.1-43.7-1.5-1.9-2.4-1.6-5 .7-7.3 1.9-1.9 3.3-2 42.3-2 38.5 0 40.5.1 42.1 1.9m116.1 19c0 19.2-.1 20-2 20.5-1.1.3-21.7.6-45.7.6h-43.8v-41h91.5zm-113.6-2.7c1.2 2.1 1.3 3.1.3 5.2l-1.2 2.6h-43.3c-32.3 0-43.6-.3-44.5-1.2-1.7-1.7-1.5-5.8.5-8 1.5-1.7 4-1.8 44.2-1.6l42.5.3zm-.7 13.5c2.2 2 2.4 6.6.2 8.7-1.4 1.4-6.7 1.6-43.8 1.6-45.3 0-44.9 0-46.1-5.2-.5-1.9-.1-3.2 1.4-4.7 2.1-2.1 2.8-2.1 44.3-2.1 37.8 0 42.3.2 44 1.7"/><path d="M630.361 282.2c-.3.7-.4 20.6-.3 44.3.3 40 .4 43 2.1 43.3 1.6.3 1.7-2.3 1.7-44.2 0-39.4-.2-44.6-1.5-44.6-.9 0-1.8.6-2 1.2M499.061 443.1c-2 .8-2.3 1.5-2 5.6l.3 4.8h36v-10.8l-16-.2c-8.8-.2-17 .1-18.3.6m31.4 4.9c0 1.8-.9 1.9-14.8 2.2-14.8.3-14.8.3-14.8-2 0-2.2.1-2.2 14.8-2.2 14 0 14.8.1 14.8 2M246.561 124.4c-9.9 3.6-13.3 12.8-7.6 20.7 2.4 3.4 2.4 3.6-.4 4.3-1.3.3-4.2 1.9-6.5 3.5-4.4 3.2-6 7.6-4.8 12.6.8 3 6.8 7.2 11.6 8.1 1.9.4 5.1 2.1 7 3.9s5 4.2 6.8 5.3c2.8 1.7 3.1 2.1 1.7 3.2-1.7 1.4-2 5.6-.5 6.5.6.4 0 1.9-1.5 3.7-2.5 3-3 6.1-1 6.2.6.1 1.4-.9 2-2.1.5-1.2 2-2.6 3.2-3.2 2-.9 2.3-1.7 2.1-5.3-.2-3.4 0-4.2 1.2-3.9 4.2 1.1 5.5.6 5.2-1.9l-.3-2.5h9.4c8.3 0 9.7-.3 13-2.5 5.1-3.5 7.1-7.6 6.5-13.1-.3-2.4-.8-5.1-1.2-5.9-.3-1 .6-2.2 2.7-3.5 1.8-1.1 4-3.7 5-5.7 4.6-9.5-3.7-18-19.8-20.3-2.8-.4-5.9-1.5-7-2.5-2.7-2.4-5.7-3.9-11.3-5.6-5.8-1.7-10.6-1.7-15.5 0m19.3 5.3 5.4 2.7-4.7 1.2c-7.1 1.8-12.8 5-17 9.7l-3.8 4.2-2.5-3c-4.8-5.9-4.3-11.3 1.5-15.2 5-3.4 13.9-3.2 21.1.4m11.2 9.4c1.8 2.3 3.8 10.9 2.6 10.9-.3 0-2.5-.7-4.9-1.6s-8.7-1.9-13.9-2.3l-9.5-.6 3.4-2.4c4.9-3.5 14.2-7.1 17.5-6.9 1.8.2 3.7 1.3 4.8 2.9m11-1.1c6.9 2.6 10.2 6.4 9.4 10.9-1 6.6-5.9 9.5-10.5 6.2-2.3-1.7-2.9-3-3.4-7.6-.3-3.1-1.3-6.7-2.1-8-.9-1.4-1.6-2.7-1.6-3 0-1 3.1-.5 8.2 1.5m-16.2 13c2 .5 4.4 1.6 5.5 2.4 1.8 1.3 1.8 1.5.2 3.9l-1.6 2.5-7.1-1.4c-6.3-1.2-12.7-3.8-16.9-6.9-3.4-2.4 11.8-2.9 19.9-.5m-27 .4c0 .3-.4 1.6-1 3-.5 1.4-1 5.7-1.2 9.5-.2 7-.3 7-2.8 6.4-7-1.6-10.7-7.3-7.9-12.4 1.3-2.5 12.9-8.3 12.9-6.5m21 10.2 7.4 2.2-5.2 2.6c-2.9 1.5-7.2 2.9-9.5 3.2-4.2.6-4.5.4-8-3.7s-4.4-6.9-3.1-10.3c.5-1.3 1.3-1.2 5.7 1.1 2.9 1.5 8.6 3.7 12.7 4.9m17.9-2.5c-2.2 1.4-3.3 1-1.9-.6.7-.8 1.7-1.2 2.2-.9.6.4.5 1-.3 1.5m6.1 10.5c0 3.5-.5 4.7-3 6.7-6.4 5.4-12.8 5.7-22.7 1-5.5-2.5-6.8-4.3-3.2-4.3 3 0 10.4-3.6 14.2-7 2.4-2 4.6-3 7.8-3.2 5.4-.4 6.9 1.1 6.9 6.8m-41.9-.1c.5-.4.9-.1.9.4 0 .6-.7 1.1-1.5 1.1-.9 0-1.5-.9-1.4-2.3.1-1.7.2-1.8.6-.4.2.9.9 1.5 1.4 1.2m10.6 9 4.8 3.8-3.5-.7c-3.6-.7-11-5-11-6.5 0-1.9 5.2-.1 9.7 3.4M198.861 210.4c-12.8 3.8-25.3 11.4-32.7 20-1.7 1.9-3.5 3.2-3.9 2.8s-.4-.2-.1.4c.4.7-.2 2.2-1.2 3.5-2.8 3.6-7.5 13.5-10.2 21.4-2 5.9-2.4 8.9-2.4 19.5 0 9 .5 14.1 1.8 18.1l1.7 5.6-3.7 3.9c-4.7 5-9.1 14.4-9.9 21.4-.6 5.5.9 14 2.5 14 .5 0 1.1-4.2 1.3-9.3.4-7.2 1.1-10.5 3.2-15.1 4.7-10.2 16.1-18.6 25.1-18.5h4l-4.5 2.3c-4.7 2.5-8.7 6.2-7.8 7.2.4.3 2.4-.4 4.6-1.5 2.1-1.1 6-2.5 8.5-3.2 7.6-1.9 18 1.5 22.8 7.4 2.5 3.1 3.1.4.6-3.1-2.3-3.2-10.2-8.2-13.1-8.2-1 0-1.4-.5-1.1-1 1.5-2.4 10.9-.2 15.4 3.5 3.3 2.8 4.1 3.1 4.1 1.2 0-2-4-5.4-8.5-7.2-3.2-1.4-5.7-1.6-13.7-1l-9.8.7-1.4-3.4c-1.3-2.9-2.2-6.6-2.5-10.1-.1-.5-.6-.5-1.2-.1-1 .6-.6 7 .7 11.6.4 1.3 0 1.8-1.4 1.8-1 0-3.9 1-6.4 2.3l-4.6 2.3-1.2-3.5c-.6-2-1.4-8.6-1.7-14.6-.6-12.9 1.3-21.7 7.4-34.4 4.9-10.2 16.9-22.4 27.2-27.6 18.8-9.4 42.2-10 59.1-1.5 5.9 3 17 10.9 17 12.1 0 .4 2.4 2.1 5.4 3.8 8.4 4.7 12 8.4 15.5 15.9 4.2 9.2 5 17.8 2.6 26.8-.9 3.5-1.5 6.8-1.1 7.1.3.3 1.6-1.6 2.8-4.3 1.9-4.1 2.3-6.6 2.3-14.9 0-9.3-.2-10.5-3.2-16.5-3.8-7.7-9-13.3-15.2-16.5-2.5-1.3-7.1-4.7-10.1-7.5-6.3-6-15.9-11.1-26.2-14-10.4-2.9-26.6-2.7-36.8.4"/><path d="M279.861 261c-.1.3-.2 4.3-.4 9-.2 5.5-1 10.6-2.4 14.5-2.9 8-10.3 18.6-16.2 23.3-6.1 4.8-17.9 10.8-25 12.5-2.9.8-5.6 1.9-5.8 2.6-.5 1.4-.9 1.4 8.2-.4 12.3-2.3 26.2-10.7 33.3-20 1.7-2.2 4.5-6.7 6.2-10l3.1-6-.5 5c-.3 2.7-1 6.4-1.6 8.1-.5 1.8-.9 8.1-.7 14 .3 10.1.1 11.4-2.6 17.9-4.4 10.7-15.6 32.7-17.9 35.2-2.4 2.7-7.5 3-15.5.9-4.5-1.1-5.5-1.1-6.7.1-2.4 2.3-3.6 8.3-4.2 20.4-.7 13.9.9 18.9 7.7 23.7 2.2 1.7 3.7 3.3 3.2 3.6s-6.3 1.4-12.9 2.6c-17.2 3-34.6 4-49.3 2.9-12.4-1-16.2-1.6-25.2-4.5l-4.8-1.6 6.8-3.3c14.2-7.2 22.4-18.1 25.2-33.8 1.1-6 1.5-6.8 3.9-7.3 12.8-2.9 20.4-7.6 26.1-16.2 2.7-4.2 4.2-5.5 7.4-6.3 9.8-2.6 19.6-10.1 23.6-17.9 3.1-6.1 1.5-6.2-3.7-.2-2.5 2.8-4.9 4.9-5.4 4.6s-.8 0-.7.7c.3 1.4-9.8 8.5-13.6 9.5l-2.6.6.5-7.3c.6-8-1.6-16.8-4.4-17.7-1.1-.4-1.2.1-.7 1.9 2.2 7.1 2.5 12.5 1.1 18.1-2.9 11.6-8.2 18.3-18.4 23.4-5 2.6-6.6 2.9-15.1 2.9-7.8 0-10.4-.4-14.7-2.4-2.9-1.3-5.3-2.7-5.3-3.1s-1-1.1-2.3-1.7c-3.4-1.6-7.6-8.3-9.4-14.9-1.7-6.6-1.1-12.8 1.7-18.6 1.7-3.5 1.6-4.8-.1-4.8-.4 0-2 2.4-3.4 5.4-4.9 10.1-3.1 22.6 4.7 31.9 4.4 5.3 13.8 10.5 21.8 11.9l6.1 1-.7 4.7c-1.9 12.4-7.8 22.5-16.9 28.5-6.3 4.3-11.8 6.3-28 10.6-6.6 1.8-14.4 4.4-17.3 5.8-23.6 11.4-27.4 43.2-12.1 101.2 4.9 18.4 18.6 59.8 22.9 68.9 2.2 4.6 3.7 8.8 3.3 9.4-.3.6-.1.7.5.3.7-.4 1.2-.3 1.2.2 0 1.6 8.1 10.2 10.9 11.7 2.6 1.3 2.7 1.7 2.4 7.7-.5 8.9-2.8 18.8-8.5 37.8-6.3 20.9-6.6 22.3-4.2 21.8 1.4-.2 2.8-3.6 6.2-14.8 8-26.7 9.3-32.8 9.9-45.6.6-13.4-.4-22.4-4.2-37.9-3.5-14-27.7-86.7-28.6-85.8-1.6 1.7 2.4 16.3 14.1 51.8 10.3 31.3 12.5 39 14 50.1 1.7 11.7 1.4 12.5-3.3 8.4s-8.9-12.3-15.4-30c-9.4-25.4-15.8-46.6-21.2-70.5-4.2-18.3-5.4-27.4-5.4-40-.1-17.3 3.7-29.1 11.4-35.9 5.9-5.1 8.2-6.2 21.7-10.2l11.6-3.4 6.2 2.5c9.7 3.9 16.8 5.4 30.6 6.5 18.7 1.5 44.2-.9 62.4-6l6.4-1.7 16.2 4.9c18.8 5.7 24.4 8.4 30.2 14.1 7.2 7.2 11.7 18.3 23.1 57.7 4.7 16 11.2 34 18.5 51 3.2 7.4 6.1 14.5 6.5 15.8.3 1.2 1 2 1.5 1.7 1.1-.7-2.2-12.6-5.6-20.7-1.4-3.3-2.4-6.2-2.2-6.3.2-.2 2.6.4 5.3 1.4 4.7 1.6 5.1 2 6.7 6.8 1 2.9 2.3 10.2 3 16.2 2.3 21-3.1 41-12.6 46.7-7.4 4.4-18.9 1-27.7-8.3-6-6.2-16.2-22-15.3-23.6.4-.7.3-.9-.1-.5-1 1-3.7-3.6-17.8-31s-13.3-26-14.8-24.5c-.9.9 1.1 5.7 9.1 21.5 5.6 11.2 11 21.6 12 23.3 1.6 2.8 1.7 3.8.4 13.5-.7 5.8-1.6 17.7-2 26.5-.8 18.6 0 24.1 7 48.5 8.3 28.9 8.5 29.5 10.7 27.3.8-.8-.2-5.6-4-18-7.2-23.9-9.1-32.4-9.8-44.1-.6-10.1 1.2-39.4 2.7-42 .5-1 1.3-.3 2.8 2.3 1.2 2 2.2 3.8 2.2 4.1 0 1.2 9.6 14.9 13.6 19.3 9.3 10.3 23.2 14.1 32.7 8.9 10.6-5.8 17.1-27.8 14.7-49.3-.9-8.5-6.6-33-8.9-38.7-3.3-8-18.2-61.2-23-82.3-2.2-9.4-4.8-17.1-9.5-27.9-3.6-8.1-8.4-19.8-10.7-25.9-5.2-14.3-5.3-14.3-9.8-16.7-2.1-1-6.6-4.9-9.9-8.6-6.2-6.7-8.2-7.6-12.9-6-2 .6-1.8-.2 2.5-9.6 2.6-5.7 4.9-10.5 5.2-10.8s.7-1.2.9-2c3.2-12 3.3-12.3 2.3-19.7-.7-4.8-.7-8.5-.1-10.1 2.7-7 2.9-11.5 1.4-25.4-.8-7.8-1.9-14.6-2.5-15.2-.5-.5-1-.8-1-.6m2.5 103c4 3.8 7 7.2 6.6 7.6-.3.3-.1.5.4.4 3-.6 7.5 2.9 7.5 5.8 0 .8 1.1 4 2.4 7.1s4.2 10.1 6.4 15.6c2.3 5.5 5.9 14 8 19 2.2 5.1 5.7 16.4 8.1 26 5 20.8 9.8 38.7 15.1 56.5 4.5 15.2 4.5 15.1 2.7 14.4-.7-.2-3.3-.6-5.7-.7l-4.5-.3-3.7-10.9c-2-6.1-5.7-18.1-8.2-26.7-5.5-19.1-9.5-29.5-14-37-1.9-3.1-3.1-6-2.7-6.4.3-.4.1-.4-.5-.1s-2-.4-3-1.6c-1.1-1.2-3.1-3-4.4-4-2.5-1.7-2.5-1.7.8-.2 2.8 1.3 3.2 1.4 3.2.1 0-.8-1.5-2.5-3.2-3.7-7.1-5-12.1-11.6-14.3-18.9-1.7-5.4-6-13.9-11-21.5-5.5-8.4-7-11.8-6-13.5 1.2-1.9 4.4.9 12 10.5 7.5 9.3 10.8 12.5 13.2 12.5 2 0 1.5-2.4-.7-3.8-1.5-.9-2-2.3-2-5.2 0-2.2-.4-4.8-.9-5.8-.5-.9-1.4-2.8-2.1-4.2-.6-1.4-2.9-4.5-5.1-6.9l-4-4.4-3.5 1.6c-3.2 1.6-6.4 2.2-6.4 1.4 0-.2.7-1.9 1.6-3.6 1.5-3.1 6-6 9.3-6.1.8 0 4.7 3.1 8.6 7m-6.7 8.3c2.4 2.4 4.4 5.6 4.8 7.5.4 1.7.4 3.2.1 3.2-.2 0-2.4-2.6-4.8-5.8-2.4-3.1-5-6.1-5.6-6.5-.7-.4-1.3-1.2-1.3-1.7 0-2.1 2.8-.8 6.8 3.3m-24.8.1c2.5.1 5.4-.2 6.5-.6 2.4-.9 2.5.6.5 9.3-1.1 4.8-1 5.9.4 8.7.9 1.7 1.6 3.9 1.6 4.8s1.1 3.2 2.6 5.1c2.7 3.6 6.2 4.3 8.8 1.8 1.7-1.8 1.8-1.7 4.7 6.1 2.6 7.1 6.7 13.3 11.1 16.9l3.3 2.6-4-2c-2.2-1.1-9.6-3.6-16.5-5.6-24.5-6.9-30.8-10.1-33.4-16.6-1.9-4.7-2.1-16.4-.5-25.7l1.1-6.4 4.7.8c2.5.4 6.6.8 9.1.8m13.1 11.8c1.2 2.4 3.3 5.8 4.7 7.6 2 2.6 2.3 3.8 1.5 5-1.7 2.9-4.3 2.7-4.3-.2 0-1.4-.5-2.5-1.1-2.4-1.3.4-3.9-6.7-3.9-11 0-1.7.2-3.2.5-3.2.2 0 1.4 1.9 2.6 4.2m76.9 135.8c1.7.9 6.7 14.7 5.7 15.6-.2.3-1.7-.1-3.3-.7-3.4-1.4-4-1.6-5.8-1.8-1.4-.1-4.8-7.1-6.2-12.5l-.7-2.9 4.3.7c2.3.4 5 1.1 6 1.6M33.461 282.6c-.3.9-.6 20.7-.6 44 0 38 .2 42.5 1.6 43.1.9.3 2 0 2.5-.8 1-1.6 1.3-83.8.3-86.3-.3-.9-1.2-1.6-1.9-1.6s-1.6.7-1.9 1.6"/><path d="M203.861 306.7c0 .6.8 1.7 1.8 2.4 1.6 1.3 1.6 1.3.2-.6-.8-1.1-1.6-2.2-1.7-2.4q-.3-.3-.3.6M207.361 312c.3.5.8 1 1.1 1 .2 0 .4-.5.4-1 0-.6-.5-1-1.1-1-.5 0-.7.4-.4 1M422.861 521c0 2 .7 2 29.9 2 24.7 0 30-.2 30.4-1.4.3-.8.3-1.7 0-2-.4-.3-14.1-.6-30.5-.6-29.1 0-29.8 0-29.8 2M424.161 589.7c-.7.2-1.3 1.1-1.3 1.9 0 1.2 4.8 1.4 30.1 1.4 28.1 0 30-.1 29.7-1.8-.3-1.6-2.6-1.7-28.8-1.9-15.7-.1-29.1.1-29.7.4"/></svg>