<svg xmlns="http://www.w3.org/2000/svg" width="879.949" height="894.146" viewBox="0 0 659.962 670.61"><path d="M491.5.21c-32.5 3.2-60.9 17.7-88 44.9-30.3 30.3-51.4 68.4-68.4 123.3-10.8 34.9-16.8 70.9-19.2 115.5-4.4 81.8 19.2 168.5 59 216 6.8 8.2 18.3 19.6 24 23.8 2.3 1.7 2.8 2.5 1.9 3.2-.9.6-.8.7.4.3 1-.3 3.9.9 7 3 11.1 7.4 27.4 14 40.8 16.5 10.5 2 32.8 1.5 43.8-.9 22.1-5 41.9-15.6 61.6-33.1 3.8-3.3 7.3-5.8 7.9-5.4.5.3.7.1.4-.4-.4-.6 1.6-3.5 4.4-6.4 46.2-48.5 79-128.9 88.6-216.9 2.2-20.3 2.5-70.6.5-87.5-4.8-41.1-13.4-71.8-29-103.5-9.9-19.9-18.8-33.1-33.6-49.3-3.9-4.4-7-8.3-6.8-8.9.1-.5-.2-.7-.8-.3s-2.7-.8-4.8-2.7c-14.9-13.5-36.5-24.5-56.2-28.7-9.5-2-26-3.2-33.5-2.5m19.4 8.4c61.3 6.3 111.2 64 130.6 151 6.2 27.6 7.9 44.6 7.9 77 0 27.6-.6 37.5-4 61.5-3.5 24.7-12.1 61.7-19.2 82.5-22.6 65.9-59.4 118.8-99.7 143.1-13.7 8.3-31.7 14.9-45.3 16.5-7.7 1-24.3.7-31-.6-37.6-6.8-71.2-35.8-94.4-81.5-22.7-44.6-34.3-97.9-34.2-157 .1-31.3 2.6-57.4 8.5-88.5 8.1-42.8 27.3-93.6 46.7-123.5 13.3-20.4 33.2-42.7 48.3-54.3 21.1-16 48.3-26.2 72-27.1 2 0 8.2.4 13.8.9"/><path d="M489.5 21.71c-16.2 2.3-36.5 11.4-52.5 23.5-23.4 17.8-42.6 42.6-59.5 76.9-25.8 52.5-39.5 114.4-39.5 179.1 0 27 2 48.3 6.6 71.4 5.5 27.2 11.7 46.9 21.5 68.6 8.6 19 17.2 33.3 27.4 45.8 2.4 3 4.1 5.7 3.7 6.1s-.2.5.4.3 3.5 2.1 6.5 5c7.4 7.3 14.3 12.5 23.5 17.8 10.4 5.9 28 11.4 22 6.9-1.1-.8-2.7-1.5-3.5-1.5-3 0-17.9-8-24.7-13.3-10.3-7.9-11.9-9.4-19.4-17.9-6.3-7-6.8-8-6-10.5.5-1.5 3.7-13.6 7.1-26.8 6.3-24.6 14.4-52.8 16-55.5.6-1.1.8-.6.9 1.7 0 4.4 6.1 27.5 10.5 40.3 6.2 17.8 20.9 46.5 30.2 58.8 3.6 4.8 4.7 2.9 1.2-2.3-3.6-5.4-13.7-24.8-16.8-32.5-1.2-3-2.6-6.4-3.1-7.5-3.1-7-8.3-21.7-11.3-32-3.6-12.3-7.9-32.4-7.1-33.6.2-.4 2.4-1.2 4.9-1.8 9.8-2.5 31.7-13.2 30.1-14.8-.3-.3-4.3 1.1-9 3.1s-19 6.3-31.8 9.6c-28.9 7.3-28.4 7.1-36 11.1-6.5 3.5-17.1 13.2-18.3 16.8-1.2 3.8-2.3 2.2-5.4-7.7-25.1-79.7-18.4-183.3 17.1-267.2 14.7-34.6 36-65.7 58.3-85 20.9-18.1 47-29 69.6-29 16.7 0 39.7 8.1 54 19 13.3 10.1 28.6 26 27.3 28.2-.4.7-.3.8.4.4 2-1.2 15.4 20.5 23.6 38.4 10.4 22.7 19.1 54.2 23.2 84.5 2.6 18.4 2.6 65 0 86-3.4 28.5-9.2 55.8-17.5 81.5-5.2 16.5-5.1 16.2-7 15.7-5-1.6-25.6-9.9-30.1-12.2-22.9-11.6-31.1-27.8-30.9-60.8 0-8.5 2.4-30.6 4.1-38.2.3-1.4 1.6-2.2 3.9-2.6 4.9-.8 7.3-2.3 11.2-7.1 5-6.2 10-17.8 8.3-19.5-.9-1-2.2.7-3.5 4.7-2.7 8.4-14.2 19.1-19 17.5-2.9-.9-3.9 1.3-6.8 14.6-2.4 11.1-2.7 14.5-2.7 32.9-.1 21.7.2 23.6 5.2 36.4 3.6 9.2 14 19.9 24.1 24.9l7 3.5-9.6 8.8c-5.4 4.9-10.1 8.8-10.6 8.6q-.75-.15-.3.6c.7 1.2-3.8 5.4-4.8 4.5-.4-.5-.6-.4-.4.2.5 1.6-5.3 8.6-6.6 7.8-.6-.3-.8-.3-.4.2.4.4-4.8 6.9-11.4 14.4-18 20.1-42.4 51.2-58.1 73.8-5.9 8.6-6.3 9.3-4.8 9.3.8 0 17.9-20.6 28.5-34.4 3.8-4.9 27.5-33.6 28.6-34.6.3-.3 1.8-2.1 3.4-4 5.9-7.2 19.6-21.9 34.6-37.3l15.6-15.9 12.7 4.2c7 2.3 12.7 4.4 12.7 4.6 0 .3-1.4 4.2-3.1 8.7-8.9 23.3-35.7 71.4-38.4 68.9-.5-.4-.6-.2-.2.4 1.4 2.5-19.9 26.4-32.8 36.8-20.8 16.9-39.6 24.9-61.2 26.3-6.3.4-10 1-9.6 1.6 1 1.6 22.9.1 31.6-2.2 21.1-5.6 44.9-21.8 63-43 4.5-5.3 8.4-9.8 8.7-10.1s2.8-3.7 5.6-7.5c24.3-33.8 42.1-72.8 54.9-119.9 7.3-27.1 10.6-46.2 13-74.4 5.7-68.5-6.7-131.3-35.9-181.2-7.6-13.1-15.8-23.5-27.5-35-15.3-15.1-26.4-22.1-44.1-27.9-14.3-4.6-28-5.9-41.5-4M414 397.81c-5.3 13.8-13.9 45.3-18 66.2-3.3 16.4-2.9 16.1-8.5 7.5-5.9-8.8-18.4-33.7-21.6-43l-2.3-6.6 3.6-4.9c8-10.9 16.2-16 33.8-21 15.9-4.5 15.4-4.6 13 1.8"/><path d="M507.5 80.21c-1.1.2-4.5.9-7.5 1.5-12 2.3-25.2 8.2-34.9 15.6-4.9 3.7-12.6 12.3-13.6 15.1-.3.9-3.5 3-7.2 4.7-16.6 7.4-27.3 24.6-27.3 43.9 0 7.8 1.8 19.6 3 19.6.4 0 .8-4.8.7-10.8 0-5.9.6-13.2 1.3-16.2 3.4-14.5 13-27.2 24.6-32.5 3.6-1.6 6.8-3.9 7.7-5.4 12.9-21.8 48.7-34.7 79.9-28.7 13.5 2.6 35.9 13 34.2 15.8-.4.7-.2.8.4.4 1.6-1 13.3 10.4 18.9 18.6 6 8.7 10.1 16.7 13.7 26.8 3.2 8.7 7.1 24.9 8.1 33.3.8 6.2 3.2 7.7 2.7 1.6-1.1-13.3-3.8-28-6.7-37.4-12.2-39.1-44.9-64.7-84-66-6.6-.2-12.9-.2-14 .1"/><path d="M471.7 129.51c-4 2.6-5.6 5.3-6.3 10.4-.5 3.5-.3 4.5 1 5 1.8.7 2.1.3 3-4 1.6-7.4 9.4-10.8 14.7-6.3l2.4 1.9-4.3-.3c-2.3-.2-4-.1-3.8.2.3.2-.9 1.2-2.6 2.1-3.3 1.7-5.7 4.6-4.6 5.6.3.4 2.4-.3 4.7-1.4 4.5-2.3 12.3-2.8 13.9-.9.5.7 3.3 7.1 6.1 14.1 7.8 19.5 12.9 25.7 28.3 34 13.7 7.5 16.2 10.7 17.3 22.2.4 4.6 1.4 8.4 3 11.1 1.3 2.3 2.2 4.4 2 4.8-.3.3-.2.4.1.2.3-.3 2.6.6 5 1.9 2.9 1.5 7 2.6 12.1 3 23.4 2.2 31.6 14.6 23.2 35.3-3.9 9.9-4.7 16.4-2.5 22.9 1.6 4.9 6.6 11.1 6.6 8.3 0-.7-.6-2.1-1.4-2.9-4.5-5.3-4.2-14.9 1-26.3 7.4-16.1 5.5-27.7-5.6-35.9-4.7-3.5-8.9-4.8-18.8-6-14.6-1.7-19.1-5.7-20.8-18.9-1.2-9.7-6.1-16.2-15.7-21.1-7.1-3.7-15.4-9.7-18.6-13.6-3.6-4.3-7.6-12.4-11.6-23.3-4.2-11.4-7-16.3-11.4-20.3-3.5-3.2-4.8-3.7-8.9-3.7-2.9 0-5.8.7-7.5 1.9M444.3 141.51c-10.6 7.7-19.5 31-19.7 52.1-.1 9.3-.4 11-2.5 13.8-1.2 1.8-2.7 2.9-3.3 2.6-.7-.4-.8-.2-.4.4.8 1.3-3.3 5.4-4.7 4.5-.6-.3-.7-.2-.4.4.4.6-1.3 3-3.7 5.5-9.2 9.6-12.4 21.6-8.6 32.7 2.1 6.3 2.1 6.5.3 11-1.2 3.2-1.8 7.2-1.8 13.1 0 9.3 1.8 13.9 9.3 24.5 10.3 14.5 10 24-1.3 41.6-2.8 4.4-3.8 7-4.2 11.5-.5 6.3 1.3 13.4 3.7 14.2.9.3 1.1-.1.6-1.4-1.5-3.9-1.8-10.6-.7-14.7.7-2.4 3.4-7.2 6-10.8 2.6-3.5 5.6-8.4 6.5-10.9 3.5-9 1.3-21.4-5.4-30.5-11.6-15.8-12.4-25.5-3.6-45.8 4.4-10.1 5.4-13.7 3.9-13.7-.5 0-2.4 3-4.3 6.6s-3.9 6.5-4.5 6.5c-3.2-.2-2.9-13.5.5-20.6 1.8-3.8 17-21.5 19-22.3.9-.3 1-.5-2.1 12.8-3.8 16.9-1.5 31 10.3 62.9 10.3 28.1 14.4 33.6 26 34.8l5.5.5.4 7.2c.9 16.2.3 48.2-1 54.1-.7 3.3-1.3 6.1-1.2 6.2 1.2 2.6 5.4-9.1 7.1-20.1 1.3-7.7.9-42.6-.4-45.7-.6-1.4.1-1.8 3.8-2.3 19.6-3 44.2-18 57-34.9 4.5-5.8 2.5-5.4-4 1-9.6 9.3-24 18.1-39.4 24.1-8.7 3.3-13.9 4.4-21.6 4.4-7.5-.1-13.2-2-16.6-5.8-2.3-2.7-14.2-35-17.9-49-3.9-14.3-4.4-28.2-1.6-40.4 1.3-5.7 1.6-11.4 1.5-24-.2-15.5-.1-17 2.5-25.5 3.5-11.4 9.3-23.7 12.4-26.7 2.5-2.3 7.5-2.9 12.6-1.4 3.8 1.2 3.5-.9-.5-3.4-4.6-2.8-8.8-2.5-13.5.9M152.3 37.51c-13.1 2.4-24.3 6.1-36.4 12-13.8 6.9-21.2 12.2-31.7 22.8-19.5 19.7-30.1 42.4-32.7 69.9l-.7 7.1-5.4.6c-3.2.3-8.5 2.1-13.1 4.3-14.4 6.9-25 20.5-28.9 37.2-2.4 10.1-1.5 26.4 2.1 36.2 5.6 15.3 16.5 27.9 29.8 34.5 27.4 13.4 57.3 4.7 69.3-20.2 8.2-16.9 8.4-35.8.8-54.9-7.4-18.7-24-33.4-41.4-36.6l-6.1-1.2.7-6c1.7-15.4 8.6-34.8 17.2-48.1 5.5-8.5 20.4-23.5 29.1-29.4 14-9.5 32.9-16.7 53.1-20.3 18.6-3.2 45.8-.7 66.9 6.2 24.8 8.1 51.5 26.7 58 40.5 2.1 4.6 2.3 5.9 1.8 17.5-.5 14.2-2.1 20.7-7.6 32.5-4.7 10.1-10.3 18.5-17.6 26.4-3.1 3.2-5.2 6.2-4.7 6.5 1.4.8 15.8-12.9 20.6-19.8 8.9-12.4 14.9-27.4 16.2-40.1.6-6.2.7-6.4 2-3.9 2.2 4.2 6.1 17.4 7.5 25.4.7 4.1 1.2 12.9 1.2 19.5 0 10.4-.4 13-2.7 20-4.3 12.5-4.5 20.6-.7 34.6 4.2 15.7 4.1 20.5-1 37-2.3 7.4-5.9 18.3-8.1 24.4-2.2 6-4.8 14.9-5.8 19.6-3.6 16.9-6 19.5-17.5 19.2-4.6-.1-11.1-1.3-19.1-3.6-17-5-19-5.2-24.4-2.5-2.5 1.3-5.6 4-7.2 6.3-7.1 10.4-22 51.5-25.7 70.8-1.4 7.3-2.1 14.5-2 22 .1 11 1.6 21.2 3.2 21.2.5 0 1-6.8 1.2-15 .2-8.3.9-17.4 1.7-20.3 1.3-5.1 1.4-5.3 3.1-3.5 5.3 5.9 18.9 39.6 31.1 76.9 10.1 31.2 26.6 91.1 26.6 97.1 0 2.3 1.7 5 2.5 4.1 1.5-1.4-6.7-43.2-13.5-69.4-10.6-40.7-21.5-73-32.5-95.6l-3.3-6.6 9.7 5.1c18.5 9.8 31.7 18.9 30.4 21-.4.6-.1.7.6.3 1.2-.8 5.6 3.7 11.3 11.5 8.5 11.7 14.6 30.2 18.3 55.4 2.6 17.7 6.1 31.9 13.1 52.6 13.9 41.4 15.2 54.2 9.8 95.4-2.4 18.2-2.8 23.1-1.6 22 1.3-1.4 7.8-34.6 9.3-47.5 1.4-12.8.6-28.2-2.1-40.5-1.1-5-5.1-18.7-9-30.5-8.4-26.3-10.2-33.5-13-52-3.8-25.5-6.9-36.9-13.7-50.5-8.8-17.7-21.5-28.3-50.8-42.6-9.1-4.4-18.1-9.5-19.9-11.2l-3.4-3.2 5.3-16c7-21.2 15.2-41.8 18.9-47.4 4-5.9 6.2-6.1 19.8-2.3 15.6 4.5 20.3 5.4 27.4 5.4 12.1-.1 18.2-5.9 20.5-19.7.6-3.8 2.5-10.8 4.1-15.5 1.7-4.7 4.1-12.1 5.5-16.5s4.2-13.3 6.4-19.8c5-15.2 5.1-20 .4-36.6-1.9-6.9-3.5-13.1-3.5-13.8s1.7-1.6 4-1.9c4.9-.8 9-3.8 9-6.6 0-1.5-.4-1.8-1.7-1.3-3.2 1.3-8.7 2.4-9.5 1.9-1.3-.8-1-2.6 2.2-12.9 3.5-11.5 4-23.4 1.5-40-2.2-14.7-6.3-25.4-13.6-36.2-1.6-2.3-2.9-4.7-2.9-5.3 0-3.2-7.2-14.2-13.5-20.5-15.6-15.8-39.8-28.3-67-34.6-13.3-3-44-3.6-58.2-1m-89.5 121.1c.2.5.9.7 1.7.4.7-.3 4.7 1.1 8.8 3.1 20.3 9.9 33.3 36.2 29.7 60.1-2.3 15.6-11.1 28.8-22.6 34.1-2.9 1.3-8.8 2.9-13.2 3.5-7.2 1.1-8.8 1-16.6-1-18.8-4.6-32.1-17.6-38.4-37.6-2.2-7.1-2.2-24.3.1-31.6 5-16.1 18.4-28.8 33.7-32 5.2-1 16.3-.4 16.8 1"/><path d="M213.9 176.61c-10.1 5.3-15.8 22.2-13 39 1.3 8.4 7.4 20.4 12.2 24.2 3.9 3.1 11.9 5.1 11.9 2.9 0-.6-.7-1.4-1.5-1.7-.8-.4-1.2-1-.9-1.5s-.1-.6-.9-.3c-2 .7-7-4.2-9.5-9.2-1.2-2.3-2.9-8.2-3.8-13.2-1.9-10.7-1-18.3 3.1-26.8 3-6.2 6.6-8.8 11.9-8.8 3.2-.1 4.4.6 7.1 3.6 1.7 2.1 3.7 5.5 4.3 7.7 1.3 4.2 3.9 6.1 4.9 3.5.3-.8.2-3.3-.1-5.6-1.7-10.3-7.5-15.8-16.7-15.8-3.3.1-6.8.8-9 2M188.7 225.31c-1.3 2.1-3 4.9-3.7 6.3-3 5.9-10.2 16-11.1 15.5-.5-.4-.6 0-.3.8.6 1.8-10.5 13.4-16.5 17.1-6.2 4-15.8 7.4-22.7 8.1-11 1.2-25.6-2.7-36.1-9.6-2.6-1.6-3.3-1.8-3.3-.6 0 2.1 8 9.2 13.9 12.2 2.8 1.4 5.1 3 5.1 3.6 0 .7-1.1 6.7-2.5 13.6-3.1 15.3-7.9 30-14 42.8-3.9 8.2-6.1 11.3-13.5 18.9-40.9 42.6-64.6 76.5-75 107.4-6 17.8-9 39-9 62.6 0 18.4 2 55.9 3.1 57.1.5.5.9-.9.9-3.5.1-16.1 2.1-65.2 3-73 1.4-13 4.6-29 7.6-38 3.1-9.4 13.8-31.7 16.6-34.8 1.2-1.2 1.8-2.2 1.4-2.2-.6 0 10.9-17.6 12.4-19 .3-.3 3.9-5 8-10.5 11.2-15.1 37.1-47.4 38-47.4.3 0 1.9 2.7 3.5 6.1 3.9 8.1 15.8 25.1 25.1 36 7.1 8.2 8.8 10.8 6.2 9.2-.7-.4-.8-.3-.4.5.4.6 1.1.9 1.6.6 1.2-.8 18.6 18.8 33.6 38 8.3 10.6 11 14.5 9.8 14.5-5.2.2-39.7 5.9-40.6 6.8-2.1 2.1.5 6 15.4 22.7 45.4 51.1 72 90.5 87.6 130.2 5.7 14.4 11.6 34.8 13.4 46 .8 5.1 1.6 7.3 2.6 7.3.9 0 1.2-.8.8-2.8-.2-1.5-.8-5.4-1.1-8.7-1.8-17.6-10.6-46.7-20-66.4-14.5-30.1-40.8-67.9-71.1-102.1-1.7-1.9-6.7-7.6-11.2-12.6l-8.1-9.2 4.7-.7c2.6-.4 10.5-2 17.6-3.6 7-1.6 13.2-2.9 13.6-2.9.7 0 12.4 17.5 18.3 27.5 24.5 41.1 41.8 80 51.5 114.9 3.5 12.8 5.8 14.2 3.1 1.9-3-13.8-8.5-33-12.8-44.6-14.7-39.5-38-82.4-63.5-116.7-11.2-15-15.1-19.7-39-46.5-6.4-7.2-11.4-13.6-11.1-14.3s.1-1-.5-.7c-2.1 1.3-24.8-30.4-23.4-32.7.4-.7.3-.8-.4-.4-2.3 1.4-1.1-2 2.8-7.9 2.1-3.3 4.3-6.5 4.7-7 .4-.6.9-1.5 1-2 .1-.6 1.8-4.6 3.7-9 4.7-10.8 8.4-24 9.8-35l1.1-9 11.6-.1c9.7 0 12.6-.4 17.6-2.4 7.4-2.8 14.8-7.6 19.9-12.9 2.2-2.2 4.4-3.7 4.9-3.4.6.3.7.2.4-.4-.4-.5.5-2.5 1.9-4.4 3.9-5.2 9.1-14.8 13.4-24.9 4.4-10.1 4.4-10 3-10-.5 0-2 1.7-3.3 3.7M656.4 336.41c-.7.4-1.4 7.2-1.8 16.6-1.9 43.2-10.1 76.8-27.3 111-10.3 20.6-30.7 49.7-33.6 47.9-.6-.3-.7-.2-.4.3.8 1.3-6 8.7-7.3 7.9-.5-.3-.8 0-.5.7.2.7-2.1 3.3-5.1 5.8-3.1 2.5-6.8 5.6-8.2 6.8-4.8 4.3-16.8 11.8-25.6 16.1-15 7.3-30.7 11.5-46.6 12.4l-4.5.2-.3 30.6c-.2 26.6 0 30.8 1.3 31.9.9.7 1.9 1 2.3.6s.9-13.7 1.2-29.4l.5-28.7 5-.3c14.8-.8 34.8-6.9 49.1-14.8 5.3-2.9 10.1-5.1 10.6-4.8s.7.1.6-.4c-.2-.6 3-3.3 7-6.1 8.9-6.3 25.4-22.1 33.5-31.9 23.4-28.7 40.3-65.3 48.2-104.7 3.5-17.4 4.5-26.7 5.2-47.5.5-15.4.3-18.7-.8-19.7-.8-.7-1.9-.9-2.5-.5M488.9 634.91c-6.7 4.5-8.9 14.4-4.6 20.8 3.3 4.8 8.3 7.9 12.9 7.9 3.8 0 10.8-2.5 10.8-3.9 0-.3 1.1-1.8 2.4-3.2 2.1-2.2 2.4-3.5 2.3-8.5-.3-9.9-5.9-15.4-15.5-15.4-3.5 0-5.9.7-8.3 2.3m14.9 5.2c4.9 3.5 4.3 13.4-.9 16.1-4.5 2.3-8.7 1.8-12-1.5-3.8-3.9-3.9-8.7-.3-13 2.1-2.6 3.3-3.1 6.8-3.1 2.3 0 5.1.7 6.4 1.5"/></svg>