<svg xmlns="http://www.w3.org/2000/svg" width="1146.491" height="838.428" viewBox="0 0 859.868 628.821"><path d="M385.36 1.3c-.2.7-.3 9.1-.2 18.7.3 14.8.5 17.5 1.8 17.5s1.5-2.9 1.8-18.8c.2-16.4 0-18.7-1.3-18.7-.9 0-1.8.6-2.1 1.3M648.26 35.9c-4.3 2-8.3 7.8-8.3 12.1 0 3.2 3.6 2.6 4.3-.8 1.3-6.6 9.7-10.8 15.4-7.9 4.1 2.2 5.4 4 6 8.6.4 3 0 4.8-1.7 7.5-1.2 2-2.5 3.6-2.8 3.6-.4 0-2 1.1-3.7 2.4-2.7 2.1-3.1 3.1-3.5 9.1l-.5 6.8-5 1.3c-4 1-6 2.3-10 6.6-2.7 3-6.3 6-8 6.7-4.2 1.7-13.5 8.1-16.5 11.2-1.4 1.5-7.2 4.8-13 7.4-22.6 10.1-25.7 12.9-29.4 25.3-3.1 10.6-11.9 69.2-10.9 72 .3.7 1.3 1.2 2.2 1 1.2-.3 1.9-3.1 3.3-12.8 7.8-56.3 10.9-68.9 18-72.6 11.2-6 25.3-12.3 25.6-11.5.2.5-1.3 5.6-3.2 11.2-2 5.6-3.6 10.4-3.6 10.6s2.5 2 5.7 3.9l5.6 3.7-3.9 3.6c-7.4 6.9-8.1 3.8 8.2 36.3 17 34 27.3 53.9 28.5 55.2 1.7 1.9 1.9-.2.3-4-3.4-8.3-5.1-12-21.7-45.7l-17.2-34.8 6-5.4c6.8-6.1 6.7-6.6-1.7-11.2-2.7-1.5-4.7-3.2-4.6-3.9.2-.6 2.1-6.8 4.3-13.7 3.2-10.2 4.5-12.8 6.4-13.7 1.3-.6 4.2-2.6 6.5-4.5l4.1-3.4-.3 7.3c-.7 12.9 5.4 48.6 16.9 99.1 7.2 31.8 8 34.5 9.4 34.5 1.6 0 2.7-3.3 5.5-16 11.7-53 21.1-103.6 21.3-115l.2-9.5 6.2 4.5c3.4 2.5 6.2 4.9 6.2 5.5.1.5 1.9 6.6 4.1 13.4 2.3 6.8 3.9 12.5 3.8 12.6-2.9 2.3-9.1 5.4-10 4.9-.7-.4-.8-.3-.4.4s.2 1.2-.3 1.2c-2.6 0-.7 3.2 4.6 8l5.8 5.1-2.9 5.4c-1.5 3-3.2 5.2-3.7 4.9s-.6.1-.4.9c.3.7-1.8 6-4.6 11.8-2.8 5.7-6.8 14-8.9 18.4s-6.6 13.8-10 21c-7.1 14.8-12 26.8-12 29.1 0 5 2.3.6 30.5-58.1 2.9-6.1 7.8-16.1 10.9-22.3l5.6-11.3-5-5.4-5.1-5.3 2.5-1.8c1.3-1.1 3.8-2.7 5.5-3.6 2.7-1.5 2.9-2 2.1-4.5-.4-1.5-2-6.5-3.4-11.1-1.4-4.5-2.8-8.8-3.2-9.4-.5-.8-.2-.9 1-.5 1 .4 2 .7 2.2.7.3 0 .2.5-.2 1.2-.4.6-.3.8.3.5 1.5-.9 24.2 9.9 27.5 13 1.5 1.5 3.4 4.7 4.3 7.2 4.8 14.8 11.1 59.7 16.9 122.6 5 52.5 6.7 71.8 6.4 72.1-.6.6-28.8 3.7-29.3 3.3-.5-.6-4-44.5-5.6-71.4-.6-9.9-.9-32.8-.7-51 .3-29.6.1-33-1.3-33.3-1.3-.2-1.7 1.1-2.2 7.4-1 11-.8 75.8.3 88.9.4 6 .7 11.1.7 11.2-.3.2-15.2 2.1-22.9 2.8l-6.8.7v5.6c0 3.1.5 7.4 1.1 9.4.9 3.6 1.2 3.8 4.9 3.8 2.2 0 8.5-.5 14.1-1.1 7.6-.8 10.3-.8 10.9 0 .4.7 1.2 9.4 1.9 19.4s1.6 21.9 2 26.5l.6 8.2-4 1.1c-7.9 2.2-21.2 4-34 4.6-14.2.6-18.8-.4-21.8-5-1.8-2.8-4-12.5-7.6-33.5-3.2-18.4-3.2-13.8.9-46.2 1.8-13.8.2-31-2.8-31-1.3 0-1.4 1.5-.8 10.7.5 9.1.1 15-2.9 38.2-3.8 29.9-7.8 54.9-9.6 60-.7 2-1.6 3-2.5 2.7-.8-.3-1.1 0-.8.8.8 2.1-5 3.6-14.3 3.6-7.5 0-8.4.2-8.1 1.7s1.7 1.8 9.3 2.1c16.5.5 19-2.1 23.5-24.6 1.6-8.4 3-16.7 3.1-18.5 0-1.8 1.3 3.6 2.9 12 4.2 22.7 5.8 26.6 12.7 29.8 3.2 1.6 5.7 1.7 19.3 1.2 8.5-.3 18.2-1.1 21.5-1.7 12.1-2.1 19.7-4.3 20.2-5.6.3-.8.1-6.8-.3-13.3l-.9-11.9 7.5-.6c12.5-1.1 22.4-2.8 24.7-4.2 1.9-1.2 2.2-2.1 1.8-5.7-1-8.6-5.5-57.4-5.5-59.8v-2.5l18.5.4c10.7.3 23-.1 29.2-.8 6-.6 11.9-1.2 13.2-1.3 2.2-.2 2.9.8 6.3 8.8 11.7 27.2 18.7 60 23.2 108.5 3.2 34.3 8.1 105.9 7.2 106.7-.9.9-5.9 1.6-14.7 2l-9.6.5-.7-17.9c-1.7-42.1-2.7-51.5-5.2-49-.8.8-.6 16.4.7 43.6.5 12.3.6 22.7.2 23.1-1.6 1.4-19.9 7.8-24.3 8.5-2.5.4-5.4.9-6.5 1.2-1.1.2-8.1.9-15.4 1.4-21.5 1.7-35-.1-58.1-7.6-5.8-1.9-12.5-3.7-14.8-4.1-3.9-.6-4.2-.9-4.2-3.8 0-3.7 8.7-92.4 9.5-97.4.5-2.4.2-3.4-1-3.8-.9-.4-2-.3-2.5.2s-3.2 24.7-6.1 53.7c-4.4 44.4-5.1 53-3.9 53.7.8.5 4.3 1.4 7.9 2 3.5.6 10.3 2.5 15 4.1 13.9 4.9 25.2 6.9 41.6 7.5 20.5.8 35.9-1.2 51.5-6.8 10.6-3.7 12.6-4.1 25.5-4.8 8-.4 15.2-1.3 16.8-2 3.3-1.6 3.2-.4 1.2-34-6.4-106.3-13.2-149.5-29.5-187.5-6.4-15-6.2-22.8 1.5-54 2.1-8.3 4.1-19.3 4.5-24.5.8-10.8 4.6-21.5 12.4-35 2.5-4.4 4.6-8.6 4.6-9.5 0-3.5-14.8-13.7-28.9-19.9-5.3-2.4-6.8-2.7-8.4-1.7-3.2 2.1-11.8-2.9-16.4-9.4-4.2-5.9-7.2-8.1-12.9-9.3-3.9-.8-3.9-.8-4.2-5.9s-.2-5.2 4.1-8.2c7.4-5.1 9.4-11.8 5.7-19.8-3.5-7.9-13-10.7-20.1-6-3.7 2.4-8.1 10-7.2 12.3.9 2.5 3.6 1.1 4.8-2.6 1.3-3.8 6.5-8 9.9-8 1.2 0 3.5.9 5.3 2 5.9 3.6 6.3 13.9.6 17.7-6.5 4.5-7.3 5.9-7.3 12.3 0 5.6-.2 6-2.2 6-4.8.1-10.4 3.7-14.9 9.6-3.6 4.7-5.2 6-7.9 6.5-4.2.6-8 2.6-8 4 0 1.6 3.1 2.3 5.1 1.1 1.6-1 2.3-.5 5.5 4.6 3.9 6.1 19.9 34.3 25.5 45.1 1.9 3.6 3.9 6.6 4.4 6.8 1 .3 3.9-3.7 8.2-11.6 1.4-2.5 6.2-10.9 10.6-18.6 4.5-7.7 9.2-16.1 10.4-18.7 1.3-2.6 2.8-5 3.4-5.3 1.9-1.2 20.8 8.8 28.8 15.3l2.4 1.9-3.5 5.9c-9.3 15.4-12.6 24.5-13.8 37.7-.5 5.3-2.3 14.8-3.9 21-1.6 6.1-3.5 13.9-4.1 17.2s-1.6 8.3-2.1 11.1l-1 5.2-9.7 1.2c-8.9 1.2-52.8 1.7-53.9.7-.2-.3-1.3-9.2-2.4-19.8-4.5-44.7-11-87.3-14.4-94-4.2-8.3-6.2-9.9-23.1-18-10.4-5-18.7-9.7-22.6-13-6.5-5.2-12.7-8.9-15.1-8.9-.7 0-2.8-2.1-4.7-4.6-3.7-5.2-8.3-8.4-12-8.4-3.8 0-4.5-1.3-4.2-7.5.3-4.7.7-5.5 2-5 .9.3 1.3.3.9-.1s.8-1.8 2.6-3.1c7-5.2 8.9-14.7 4.1-21.7-4.4-6.4-11.4-8.1-19.1-4.7m17.3 48.2c1.9 1.1 4.8 4.2 6.6 6.7 1.7 2.6 4 5.7 5.1 6.9 1.6 1.8 1.9 3.2 1.5 6.8-.3 2.5-.8 4.8-1 5.1-.3.2-4.7-1.7-9.8-4.3-5.3-2.7-10.6-4.7-12.4-4.7-1.7.1-7.4 2.2-12.6 4.7l-9.5 4.6-.3-5.4c-.3-5.3-.1-5.7 5.1-12.2 3-3.8 6-7.3 6.8-7.9 4.8-3.8 14.6-4 20.5-.3m-5.1 21.8 3.8 1.8-3.7.7c-2 .4-5.8.4-8.3 0l-4.6-.7 3.4-1.8c4.3-2.3 4.7-2.3 9.4 0m125.9 2.7c2.9 1 5.3 2.7 6.4 4.3 3.1 4.9 6.5 8.6 10.3 11.2l3.9 2.5-5.3 1.7c-7.6 2.4-20.2 4-25.9 3.2-5.3-.8-17.7-5-19.3-6.6-.7-.7-.4-1.3.8-2 .9-.6 3.6-3.5 5.8-6.5 6.4-8.7 13.5-11.1 23.3-7.8m-131.9 3.5c5.1 0 10.9-.3 12.8-.6 4.6-.9 9.7 1.7 9.7 4.9 0 5.8-19.8 106.8-21.3 108.2-1.3 1.3-20-89.5-21.3-103.5l-.6-6.6 3.3-1.7c1.9-1 4.4-1.5 5.7-1.2 1.3.2 6.5.5 11.7.5m152.7 24.1c-1.6 2.9-5.5 9.8-8.7 15.3s-7.3 12.7-9.2 16-3.8 6.3-4.1 6.7c-.4.4-3.1-4-6-9.7-3-5.8-8.3-15.5-11.8-21.6-3.6-6.1-6.3-11.3-6.1-11.5s1.7.2 3.3 1c7.7 3.8 26 3.7 38.9-.2 3.3-1.1 6.2-1.8 6.3-1.6.2.1-.9 2.6-2.6 5.6m12.8 115.1v4.4l-8.2 1.2c-10.9 1.7-38.5 2.5-47.3 1.4l-7-.8-.5-4-.6-4 25.6-.1c14-.1 28-.6 31-1.2 3-.5 5.8-1 6.3-1.1.4 0 .7 1.9.7 4.2m-99 37.1c0 .7.3 3.4.6 5.8l.6 4.5-8.8.7c-4.9.4-10.8.9-13 1.2-4 .4-4.2.3-4.8-2.7-.6-3.2-.8-7.8-.3-8 .1-.1 5.4-.7 11.7-1.4 6.3-.6 12.1-1.3 12.8-1.4.6 0 1.2.5 1.2 1.3M318.96 38.5c-1.1 1.3.1 3 8.6 11.8 11.3 11.7 12.2 12.4 13 10.3.6-1.6-6.6-10.4-15.9-19.4-3.9-3.8-4.5-4.1-5.7-2.7M443.56 48.2c-5.3 5.7-9.6 10.8-9.6 11.5 0 3.1 2.4 1.8 8.6-4.4 3.6-3.8 7.1-6.7 7.8-6.5.6.2.8 0 .3-.4-.4-.4.9-2.4 2.9-4.5 3.5-3.6 3.8-5.9.9-5.9-.7 0-5.6 4.6-10.9 10.2M378.46 68.2c-5.5 1.5-12 6.1-15.6 11-5.1 7.1-7.6 18.9-3.7 17.6.7-.3 1.8-2.4 2.5-4.9 2.2-7.8 7.1-14.6 12.3-17.4 4.2-2.2 12.6-3.3 17.6-2.4 10.6 2 19.4 12.6 19.4 23.5 0 9.5-2.3 13.9-13 24.4-12.6 12.3-14.4 15.7-14.5 27.5 0 7.4.3 9 1.5 9 1.1 0 1.6-1.8 2.1-7.5.8-9.6 1.8-13.7 3.1-11.8.6.9.7.6.3-1-.6-2 .8-3.8 9.4-12.1 12.2-11.9 15.1-17.1 15.1-27.3 0-11.8-5.7-21.5-15.3-26.2-6-3-15.3-4-21.2-2.4M127.16 121c-14.5.6-20.7 1.2-21.8 2.1-1.5 1.2-1.6 3.3-1 17.4l.6 16-4.4-12.8c-2.5-7.1-5-13.5-5.7-14.3-1.7-2.1-5.1-1.7-13.6 1.7-4.3 1.7-13.6 5.3-20.7 8s-13.6 5.5-14.4 6.1q-1.35 1.2-.9 4.5c.6 3.2.5 3.3-1.6 1.8-1.2-.8-2.7-1.5-3.3-1.5s-5.9 3.4-11.8 7.6c-6.1 4.4-11.1 7.2-11.7 6.8-.7-.4-.9-.3-.5.4.3.6-.5 1.9-1.9 2.9-10.2 7.2-11.5 8.5-11.5 11 0 2.4 5.3 11.2 17.2 28.5 2.2 3.2 3.6 6.3 3.3 6.8-.4.6-.2.9.3.8 1.2-.4 46.4 67.1 45.6 68.3-.3.5-.1.8.4.7 1.5-.4 18.3 25.2 17.5 26.6-.3.6-.3.8.2.4 1.1-1 7.8 8.9 7 10.2-.4.6-.2.9.4.8.6-.2 6.3 7.6 12.7 17.2s12.5 18 13.6 18.6c3.1 1.7 5.3.8 17.7-7.7 6.2-4.3 11.8-7.6 12.4-7.2.5.3.7.2.4-.4-.7-1.1 5.4-4.3 8.1-4.3 3.8 0 5.3-2.6 9.1-16.5 3.2-11.7 11-39.9 22.6-82.5 1.3-4.7 4.7-16.8 7.5-27 12.4-44.7 20-73 20-74.3 0-3.5-3.1-4.8-23.5-10.3-25.6-6.8-25.6-6.8-27.7-5.2-1.6 1.2-6.6 18-6.9 23.2-.3 4.1-1.7-8-1.8-15-.1-5.1-.5-7.5-1.6-8.4-2.1-1.7-7-1.9-30.3-1m27.8 15.8c0 6.6.3 16 .6 20.9l.7 9-22.7.8c-12.5.4-22.9.5-23.2.2-.3-.2-.8-9.7-1.1-21l-.6-20.6 8.9-.4c4.9-.1 15.3-.4 23.2-.5l14.2-.2zm59.4 1.8c-.1 1.1-1.4 6.4-2.9 11.9s-3.8 13.8-5 18.5c-1.9 7-2.7 8.6-4.4 8.8-2.4.4-2.7 1.7-.7 2.9 1.7 1 1.7 1-4.3 22.7-2.5 8.9-4.9 15.5-5.9 16.3-1.3.9-1.4 1.5-.5 2.1 1 .6.9 1.9-.3 5.7-2 6.6-6.3 22-7.5 27-.6 2.2-1.4 4.4-2 5-.5.5-.9 2-.9 3.3s-1.3 7-2.9 12.6c-1.6 5.5-4.8 17.4-7.2 26.3s-4.5 16-4.7 15.8-.9-13.6-1.6-29.9l-1.1-29.5 2.8.5c1.5.2 4.1.6 5.7.9 1.7.2 3 .3 3 0 0-.4-7.6-4-10.1-4.8-1.4-.5-1.7-3.2-2.1-19.9-.3-10.6-.4-19.4-.3-19.6.2-.2 5.4 1 11.6 2.7 7 1.9 11.7 2.7 12.3 2.1 1.9-1.9-1.7-3.8-12.8-6.5l-11.4-2.7-.7-21.6c-.6-19.7-.5-22.4 1.3-29.7 1.1-4.4 3-12.3 4.2-17.5s2.6-11.1 3.1-13.1l.9-3.7 22.3 5.8c19.2 5 22.2 6 22.1 7.6m-122.8-4.9c-.4 1-.4 1.4 0 1 .6-.6 8.9 21.3 12.8 33.8.5 1.7 0 2.3-3.1 3.4-12.2 4.3-27 10.5-28.2 11.6-1.3 1.2-1.2 1.5.3 2.1 1.4.5 20.6-6.2 31.6-11 1.2-.5 2.3 1.7 5.4 10.6 2.1 6.2 5.1 14.5 6.6 18.5l2.8 7.1-12.7 4.5c-6.9 2.4-13.3 4.7-14.1 5-1.1.5-3.3-2.1-8-9.1-3.6-5.3-8.6-12.7-11.2-16.3-2.7-3.7-4.8-7-4.8-7.3s-1.6-2.7-3.5-5.2c-5-6.5-8.2-12.1-11.9-21.2-4.6-11.1-5.1-13.1-2.9-13.8 1-.4 10.1-3.9 20.3-8 10.2-4 19.1-7.3 19.9-7.4.8 0 1.1.6.7 1.7m-40.4 35.5c5.8 8.4 10.8 15.8 11.2 16.5.8 1.5-7.1 7.6-8.8 6.6-.6-.3-.8-.3-.4.2.4.4-1.6 2.5-4.5 4.6-2.8 2.1-6.9 5.1-8.9 6.6-3.3 2.4-5.2 6.3-3 6.3 1.1 0 7.6-4.5 22.5-15.7 5.5-4.2 6-4.3 7.2-2.6.8 1 5.7 8.2 11 16.1 10.6 15.7 10.6 15.9 3.7 18.8-4 1.6-23.2 15.1-23.2 16.2 0 .9-6 4.6-6.4 4-.5-.5-23.4-35-34.5-51.6-5.5-8.4-10.1-15.6-10.1-16.1 0-1.4 24-18.2 25.1-17.5.5.3.8 0 .7-.6-.2-.8 3.3-4 7.8-6.9.1-.1 4.9 6.8 10.6 15.1m105 20.5c.3 10.4.2 19.1-.2 19.6-.3.4-7.7.6-16.4.5l-15.7-.3-6.4-17.5c-3.6-9.6-6.4-18.1-6.5-18.7 0-.9 4-1.3 15.3-1.6 8.3-.1 18.4-.4 22.3-.5l7.2-.2zm.8 31.1c0 3.8.3 12.4.7 19l.6 12.2h-20.1l-1-3.8c-.6-2-3.5-10.6-6.5-19l-5.4-15.2h31.7zm-29.9 11.4c3.1 9.2 6 17.2 6.3 17.7.6.9-2.6 2.3-12.5 5.4l-4.7 1.5-5.8-8.6c-3.3-4.8-8.3-12.1-11.2-16.2l-5.4-7.4 2.9-1.3c6.9-3 21.9-8.2 23.2-8 .8.1 3.7 6.8 7.2 16.9m-29.5 5.1c3 4.3 5.2 8.3 4.8 8.9s-.3.8.4.5c.8-.6 8.2 8.2 8.2 9.8 0 .2-4.4 3.3-9.7 6.9-5.4 3.5-13.1 8.9-17.2 12s-8 5.6-8.6 5.6c-1.8 0-9.8-12.8-8.9-14.2.4-.7.3-.8-.4-.4-1.1.6-13.1-16-12.1-16.7.2-.2 5.8-4.1 12.4-8.6 6.6-4.6 13.6-9.8 15.5-11.6 6.2-5.8 5.8-6 15.6 7.8m39.7 23.7c.8 2.5 5.2 15.1 9.6 28 4.5 12.9 7.7 23 7.2 22.5-.5-.6-6.1-8.7-12.4-18.1s-13.5-20-16.1-23.5-4.4-7-4.1-7.7c.2-.7.1-1-.4-.7s-1.2.1-1.6-.4c-.6-1.1 14.6-6.2 15.6-5.2.4.3 1.3 2.6 2.2 5.1m21.1 6.7c.3 6.5.8 19.4 1.1 28.8l.5 17-8.9-26c-4.9-14.3-9.4-27.2-10-28.8l-1.1-2.7h17.8zm-40.5-1.4c2.5 3.4 12.9 18.7 23.2 34 13 19.4 18.5 28.4 18.2 29.7-.5 1.9-32 23.2-34.9 23.6-1.2.2-5.4-4.5-6.5-7.1-.2-.6-9.5-14.7-20.7-31.4s-20.2-30.4-20-30.6c.2-.1 4.5-2.9 9.5-6.3 5.1-3.4 13-8.9 17.5-12.1 4.6-3.3 8.5-6 8.8-6s2.5 2.8 4.9 6.2"/><path d="M166.96 170.9c0 1.4 1.3 2 7.7 3.7 20.9 5.5 21.5 5.6 22.6 4.5 1.9-1.9-.4-3-12.6-6.1-12-3.1-17.7-3.7-17.7-2.1M124.06 316.9c-3.4 2.6-4 9.7-1.2 13.3 2.6 3.2 7.8 4.5 11.2 2.8 6.2-3.2 7.7-9.7 3.3-14.9-2.1-2.6-3.3-3.1-6.7-3.1-2.5 0-5.2.8-6.6 1.9m10.7 3.9c1.8 2.3 1.5 4.9-.8 7.2-2.6 2.6-5.5 2.5-7.4-.2-2.2-3-2-5.4.5-7.9 2.2-2.2 5.5-1.9 7.7.9M523.66 173.4c-5 1.8-6.2 3-8.8 8.3-1.5 3.1-1.8 4.8-1.1 5.5 1.5 1.5 4.2.2 4.2-2.1 0-3.7 4.2-7.3 9.1-7.8 3.8-.4 5-.1 7.6 2.1 1.7 1.4 3.3 3.9 3.7 5.6.7 3.6-1.8 10.5-3.4 9.5-.6-.4-.9-.2-.8.4.2.5-1.3 2.3-3.2 3.9-3 2.6-3.5 3.7-4 8.7l-.5 5.8-5 1.2c-3.7 1-5.8 2.3-8.5 5.4l-3.5 4.1h-18.1c-22.5 0-21.4-.8-21.4 14.5 0 8.1.4 11.3 1.5 12.5 1.2 1.4 1 3.5-1.9 18-6.1 30.5-11.7 64.3-16.2 97.8-1.4 10.2-1.5 13.5-.6 14.4 1.9 1.9 2.9-.1 4.1-8.7 5-37.4 8.7-60.1 15.8-96.8l4.6-23.7 52.5.2 52.5.3 1.9 9c4.6 22.2 11.1 60.1 16.2 94.1 11.7 79 12 81.5 10.6 82.4-2 1.3-17.2 2.3-21.7 1.5l-4-.6-1.7-23.2c-3-39.7-3.9-47.2-5.6-47.2-2.3 0-2.2 3 .8 41.5 1.6 19.5 2.5 35.9 2.1 36.4-3.5 4.1-41.4 6.6-72.3 4.7-11.6-.7-21.5-1.3-22.1-1.4-.5-.1-1 .7-1 1.8 0 1.6 1 2.2 5 2.9 8.1 1.5 71.7 1.3 80.5-.2 9.9-1.7 14.4-3.9 14.8-7.3l.3-2.7 12.2-.4c15.2-.5 18.4-1.7 17.9-6.8-2.1-22.4-19.8-137-25.3-164-4.4-21.2-4.3-20.7-2.7-22.3 1-1.1 1.3-3.9 1.1-11.8-.2-5.7-.3-10.7-.3-11.1s-.7-1.4-1.6-2.2c-1.3-1.3-4.6-1.6-20.2-1.6h-18.6l-3.6-4.1c-2.6-3.1-4.7-4.4-8.5-5.3-4.6-1.2-5-1.6-5.3-4.6-.5-5.1.5-7.3 4.3-9.8 4.6-3 7.5-7.7 7.5-12.6 0-10-10.1-17.5-19.3-14.2m13.6 45.9c1.8.8 3.8 2.1 4.6 3 1.2 1.6.2 1.7-12.8 1.7-15 0-15.8-.4-9.7-4.1 3.7-2.3 13.1-2.6 17.9-.6m47.5 18.9.3 9.8h-111.1v-9.4c0-6.6.4-9.6 1.3-9.9.6-.3 25.5-.5 55.2-.4l54 .2zM379.46 177.5c-3.5 3.4-3.4 8.6.2 12 8.1 7.4 19-3.2 12.2-11.9-2.8-3.6-8.9-3.7-12.4-.1m9.9 3.1c1.8 4.6-.7 8.1-4.9 7-2.9-.7-4.4-4.9-2.5-7.1 1.7-2 6.6-1.9 7.4.1M587.36 176.1c-.9 1.5.5 35.2 1.6 36.3 2.1 2.1 3-1 3-9.8 0-15.6-1.1-27.6-2.6-27.6-.7 0-1.6.5-2 1.1"/><path d="M349.96 228.7c-11.6 1.9-24.5 7.1-33.7 13.4-2.4 1.7-4.8 2.7-5.3 2.4-.6-.4-.9-.3-.8.2.2.4-3.1 4.3-7.3 8.5-13.7 14-21.9 32.2-22.2 49.3-.1 4.9.1 10.8.5 13.1.8 4.1.7 4.1-3.2 5.9-5.1 2.3-13.1 10.7-16.3 17.1-7.9 15.8-5.3 34.4 6.7 47.2 2.5 2.7 4.3 5.1 4 5.4s.1.6.8.5 4.5 1.4 8.3 3.3c6.5 3.3 7.6 3.5 16.5 3.5 6.6-.1 10.7-.6 13.3-1.7 3.5-1.6 3.7-1.6 3.7.2 0 3.6-4.9 17.5-7.8 22.1-3.8 6-9.2 11.3-15.6 15.4-6 3.8-10.5 5.7-27.8 11.9-14.6 5.2-24.5 9.6-28.8 12.6-1.6 1.2-3.5 1.8-4 1.5-.6-.4-.9-.3-.8.2.2.5-1.6 2.8-3.9 5.2-18.2 19-19.9 56.8-6.3 142.1 1.7 10.7 3.4 19.8 3.8 20.2s1.3.3 2-.1c1.1-.7.9-3.7-1.2-16.7-6.8-42.7-10.2-78.8-9.3-98.9 1.4-28.2 8.4-42.5 25.7-51.8 6.3-3.4 10.4-5.1 27.7-11.6l8.2-3 7.8 3.9c15.7 7.7 29.1 10.9 48.9 11.7 17.2.7 28.5-1 45.8-6.8l11.8-3.9 17.3 6.9c28.6 11.3 35.7 16.2 42.8 29.9 2.3 4.3 10.8 28.4 21.2 59.5 18.4 55.5 20.1 60.1 21.4 59.2 1-.6.3-4.3-3.3-16.3-1.7-5.8-2.1-8.4-1.3-8.7 1.8-.5 7.7-1.5 12.3-2.1l4.1-.6 4.1 15.4c2.2 8.4 5 19.3 6.2 24.3 2.6 10.5 2.6 10.6 4.5 9.8 2.2-.8 1.9-2.5-3-21.9-5.1-19.8-5.9-22.8-12.2-43.9-6.4-21.6-13.4-45.9-20.4-70.5-3.3-11.8-7.8-26.9-9.9-33.5-4.1-12.7-7.8-27.2-10.6-42-2-10.4-3.5-13.8-6.9-16.1-1.4-.9-2.2-2.1-1.8-2.7q.45-.9-.6-.3c-1.9 1.2-6.6-2.9-13.5-11.9-3.6-4.6-8-9.3-9.6-10.5-2.7-1.9-2.9-2.5-2.4-6.3.3-2.3.9-5.1 1.4-6.2 1.4-3.2 2.2-9.5 2.1-15.9-.1-5.6 0-6 3.9-9.6 5.4-5 5.3-8-.5-14.4-6.1-6.8-7.5-10.1-7.5-18.4 0-7.5-1.3-12.7-3-11.7-.6.3-1 5.1-1 10.9 0 11.3.5 12.5 8.6 22 1.9 2.2 3.4 4.6 3.4 5.4s-1.8 3.1-4.1 5c-3.9 3.4-4 3.6-3.9 9.6 0 3.3-.4 8.3-1 11.1-.5 2.7-1.3 6.7-1.6 8.7-.7 4.2-1 4.4-3.8 2.3q-3.9-3-6.9.3c-2.6 2.9-2.1 8.3 1.3 13.4 2.5 3.8 2.9 5 2.1 7.1-2.3 5.9-5 6.4-33 5.4-4.7-.2-5.6.1-7.2 2.3-3.2 4.3-5.2 14.6-5.3 26.6-.1 10.4.1 11.3 2.6 15.1 1.5 2.3 4.5 5.6 6.7 7.4l3.9 3.4-4.1 1.3c-12.2 3.7-23.7 6.2-33.2 7.2-19.2 2.1-43.9-1.8-60-9.4l-7-3.3 5.5-2.8c9.2-4.6 17-11.6 23-20.3 3.2-4.9 7.5-17.1 8.6-24.5.3-2.6 1-4.7 1.4-4.7 1.3 0 8.8-7.8 11.4-11.9q7.2-11.25 6.3-24.6c-.5-8.4-2.6-14.9-5.1-15.8-2.3-.9-2.4 1.1-.3 8.7 3.5 12.6.1 25.1-9.7 35.4-5.1 5.4-9.9 8-18.2 9.7-20.5 4.3-39.8-9.2-43.5-30.3-2.7-15.2 5.6-31.9 19.2-38.5 14.7-7.2 30.5-4.7 42.9 6.9 2.6 2.4 5.2 4.4 5.9 4.4 4.4 0-4.9-10.5-13.5-15.2-6.7-3.6-17.6-5.4-24.6-4-3.9.7-5.5.7-6-.1-.4-.7-.8-5.3-.8-10.3 0-37.2 29.1-68.4 68.8-73.4 18.7-2.4 38.8 2.6 49.7 12.3 2.2 1.9 5.7 4 7.9 4.7 5.7 1.7 13.7 10.1 16.7 17.5 2.1 5.2 2.4 7.6 2.3 17.7 0 9 .3 11.5 1.2 10.7 2-1.6 3.7-13.2 2.9-19.9-1.4-12.4-11.7-26.9-21.1-30-2-.7-6.3-3.3-9.7-5.9-7.6-5.7-13.8-8.4-23.9-10.5-7.1-1.5-23.5-2-29.8-.9m72 143c4.5 2.9 8.9 7.6 8.3 8.6-.3.6-.1.7.5.3.6-.3 2.3 1 3.9 3 1.5 2 4.3 5.2 6 7.2 1.8 2.1 3.3 4 3.3 4.4s3.2 3.1 7 5.9c3.9 2.8 7.2 6 7.5 7.2s2.1 9.7 4 18.9c1.9 9.1 5.1 21.7 7.1 28 2 6.2 5.3 17.6 7.4 25.3s5.6 20.1 7.8 27.5 6.5 22.3 9.6 33c3.2 10.7 6.6 22.4 7.7 25.9 1 3.5 1.9 6.7 1.9 7.1 0 .7-8.9 2.7-14.8 3.3-2.2.2-3.1-2-16.1-41.3-7.6-22.8-15.2-44.3-16.9-47.7-3.3-6.8-8.1-13.6-12-16.9l-2.4-2.2 2.6.5q6.3 1.2-3.6-6.3c-3.5-2.6-7.1-5.7-8.1-6.8-2.5-2.9-6.2-10.3-9.2-18.1-1.3-3.7-5.8-12.6-9.9-19.8-7.3-13-8-14.4-7.7-18 .3-5.1 8.1 1 15.6 12.3 4.3 6.5 12.5 15 14.4 15 1.6 0 2.3-2 1.2-3.3-.6-.8-.7-4.1-.2-9.1.9-9.6-.1-12.1-11.3-28.7-5.1-7.5-7.6-12.1-7.6-14 0-3.3.6-3.5 4-1.2m2.5 19.3c.3.5-.1 1-1 1s-1.3-.5-1-1c.3-.6.8-1 1-1s.7.4 1 1m6.2 11c3.3 5.6 4.1 10.9 2.4 16.9-.6 2.2-1.5 1.3-9.3-9.2-8-10.9-9.3-13.6-5.5-12.1.9.3 2.4.1 3.4-.5 3.3-2 5.6-.7 9 4.9m-37.1-3.8 8.2 1.2.5 4.2c.3 2.8 2.8 8.3 7.6 16.7 3.9 6.8 8.7 16.4 10.6 21.3s4.2 10.1 5 11.7c.9 1.5 1.3 3.2 1 3.7-.4.6-.3.9.2.8.5-.2 3.1 1.7 5.9 4.1l4.9 4.3-5.5-2.9c-3-1.7-11.5-5.3-18.8-8.2-23.2-9-31.4-14.1-34.1-21.4-2.1-5.6-1-23.8 2-33.5 1.2-3.6 1.2-3.6 12.5-2M644.16 263.6c-1.6 1.1-2.2 2.5-2.2 5.3 0 8.7 10.9 9.9 12.6 1.3.5-2.4.1-3.6-1.9-5.6-3-3-5.3-3.3-8.5-1m5.8 4c1.1 1.2 1.1 1.8-.2 3.1-1.9 1.8-3.8 1-3.8-1.6 0-3.3 2-4 4-1.5"/><path d="M414.76 274c-.3.8-.9 4.1-1.2 7.3-1.7 16.6-12.9 38.2-24.8 47.7-6.9 5.6-18.1 11.3-26.5 13.6-3.5.9-6.3 2.1-6.3 2.5 0 1.3 2.1 1.1 10.3-.7 8.7-2 18.5-6.7 25.1-12.2 2.7-2.3 5.4-3.8 5.9-3.5q.9.45.3-.6c-.4-.6 0-1.8.9-2.7 5.8-5.9 13.8-21.1 16-30.9 1.5-6.4 1.8-23.8.3-20.5M367.96 348.9c0 2.4-12.4 13-19.4 16.6-7.9 4.1-9.3 5.5-5.2 5.5 6.1 0 17.8-7.3 22.7-14.1 1.9-2.5 3.6-4.5 3.9-4.4.3.2.6-.8.6-2.1.1-1.5-.4-2.4-1.2-2.4s-1.4.4-1.4.9M86.56 360.6l-4.9 1.5.6 4.3c.6 4 .4 4.3-2.3 5.3s-3 1.6-3 5.6c0 4.1-.3 4.6-3 5.6-2.7.9-3 1.4-3 5.4 0 3.8-.4 4.5-2.7 5.6-2 .9-2.8.9-3.4 0-.4-.8-2.1-1-4.8-.5-3.8.6-4.1.4-5.6-2.4-1.7-3.3-2.2-3.5-6-2-2.3.9-2.8.7-4.3-2-1.9-3.4-3.7-3.7-8.8-1.5-3.4 1.4-3.5 1.6-3.2 6.2.3 4.1 0 4.8-1.4 4.7-1-.1-1.5.2-1.2.7s0 .9-.7.9c-.8 0-1 1.4-.7 4.5.5 4.1.3 4.7-2.4 6.6-2.6 1.9-2.9 2.5-2.3 5.9s.3 4-2.3 5.9c-2.8 1.9-2.9 2.4-2.1 5.8.8 3.5.6 4-2.2 6.3-2.7 2.3-2.9 2.9-2.3 6.7.6 3.6.4 4.2-1.7 5.4-3.4 1.7-4 2.9-3.3 6.7.5 2.7.2 3.8-2.1 6.2s-2.7 3.5-2.1 6.1c.5 2.8.2 3.7-2.4 6l-3 2.8 1.8 4.6c1.7 4.7 1.7 4.7 5.7 4.2 3.7-.5 4.2-.3 5.8 2.4 1.6 2.8 2 3 5.5 2.4 3.4-.5 4.1-.3 5.6 2s2.2 2.6 5.4 2c3.3-.5 4-.3 6 2.4 1.9 2.6 2.6 2.9 5.8 2.4 2.6-.4 3.5-.3 3 .5-.7 1.2 3.6 2.8 6.5 2.4.9-.2 2.4.9 3.3 2.2 1.4 2.2 1.9 2.4 4.3 1.5 2.5-.9 3-.7 5.3 2 2.2 2.7 3 3 6.1 2.5s3.8-.2 5.3 2.1 2.3 2.6 5.9 2.3 4.2-.1 5.6 2.5c1.5 2.6 1.9 2.8 5.8 2.2 3.6-.5 4.2-.3 4.8 1.4.9 2.9 4.3 3.5 8.9 1.6 3.8-1.6 3.8-1.7 3.2-5.7-.6-3.7-.4-4.3 2.4-6.7s3-2.9 2-6.1c-.7-2.5-.7-3.6.1-3.9.6-.2 2.1-1.3 3.2-2.4s3.6-2.1 5.7-2.2c3.4-.3 3.9 0 5.4 3.2 1.6 3.3 1.9 3.5 5.7 3.1 3.8-.3 4.2-.1 5.7 2.9 1.7 3.5 2.8 3.9 8.1 2.3 4.3-1.2 5.1-2.4 4.4-6.6-.5-2.8-.1-3.4 2.3-4.6 2.6-1.2 2.9-1.9 2.7-5.5-.1-3.8.1-4.2 2.8-5.2 2.6-.9 2.9-1.4 2.9-5.5 0-4 .3-4.6 2.5-5.2 3.2-.8 4.4-3 3.8-7.2-.5-2.9-.2-3.3 3.2-4.8 3.7-1.5 3.7-1.6 3.2-5.9-.6-4-.5-4.4 2.3-5.5 3.2-1.3 3.3-1.6 3-6.6-.1-2.6.5-3.5 3.4-5.2 3.2-1.9 3.4-2.3 2.9-5.9-.4-3.4-.2-4 2.7-5.5 2.8-1.6 3.1-2.1 2.5-5-1.7-7.5-2.2-8.1-6.6-7.5-3.8.5-4.1.3-5.7-3s-1.8-3.4-5.7-2.8c-3.9.5-4.2.4-5.8-3.1-1.7-3.4-1.9-3.5-5.5-2.9-3.4.5-4 .3-5-1.9-.8-1.8-1.9-2.6-3.6-2.6-1.6 0-2.7-.7-3.1-2-.5-1.6-1.5-2-4.9-2-3.9 0-4.4-.3-6-3.6-1.6-3.5-1.9-3.6-5.7-3.1s-4.1.3-5.7-3c-1.5-3.2-1.9-3.4-5.5-3s-4.1.2-5.9-2.9c-1.8-3-2.5-3.4-6.3-3.4s-4.4-.3-5.5-3-1.7-3-5.4-3c-3.8 0-4.4-.3-5.7-3.2-1.7-3.9-2.2-4-8.3-2.2m5.8 6.8c1.4 3.3 1.6 3.4 5.5 2.9 4-.5 4.1-.4 5.6 3.1 1.5 3.6 1.7 3.7 5.5 3.1s4.1-.5 6.1 2.9c1.9 3.2 2.5 3.6 6.4 3.6s4.4.3 5.4 3c.9 2.7 1.4 3 5.3 3 3.8 0 4.5.4 6.1 3.1 1.5 2.7 2.1 3 5.3 2.6 3.2-.5 3.7-.2 4.6 2.4.8 2.4 1.6 2.9 4.3 2.9 2.4 0 3.4.5 3.8 2 .4 1.6 1.4 2 4.6 2 3.5 0 4.3.4 5.6 3 1.4 2.6 2.1 3 5.9 3 3.9 0 4.5.3 5.6 3.1 1.2 2.8 1.7 3 5.3 2.7 3.4-.2 4.1.1 4.8 2 .8 2 .4 2.5-2.5 3.7-3.2 1.4-3.4 1.7-2.9 5.4.5 3.6.3 4.1-2.6 5.5-2.8 1.5-3.1 2.1-3.1 6.1s-.3 4.6-3.1 6.1c-2.8 1.4-3.1 1.9-2.7 5.6.3 3.7.1 4.1-3.3 5.9-3.5 1.7-3.7 2.1-3.2 5.8.5 3.5.3 4-2.3 5.2-2.5 1.2-2.9 2.1-3.2 6.1-.3 4.2-.6 4.7-3.4 5.7s-3 1.4-2.6 5c.3 3.6.1 4.1-3 5.5-3.2 1.6-3.3 1.9-2.7 5.5.6 3.4.4 3.9-1.5 4.4-1.8.4-2.4-.1-3.6-3-1.5-3.4-1.7-3.5-5.8-3-4.1.6-4.3.5-6-2.9-1.6-3.4-1.9-3.6-5.7-3.2-3.8.3-4.2.1-5.7-2.9-1.3-2.8-2.1-3.3-5.2-3.3-2.4 0-4.1-.7-5.3-2.1-1-1.1-2.5-1.8-3.3-1.5-1 .4-2.2-.7-3.6-3-2-3.4-2.3-3.6-6-3s-3.9.5-5.4-3-1.7-3.6-5.4-3.1c-3.6.5-4.1.2-5.9-2.9-1.8-3-2.5-3.4-6-3.4s-4.3-.4-5.6-3-2.1-3-5.5-3c-3.3 0-4.1-.4-5.2-2.8-1.1-2.2-2-2.7-5.1-2.8-3.4 0-5.6-1.4-5.7-3.5 0-.4 1.4-1.2 3-1.9 2.7-1.1 3-1.7 3-5.5s.4-4.5 3.4-6.3c3.2-1.9 3.4-2.2 2.6-5.7s-.7-3.7 2.7-5.3c3.3-1.6 3.5-1.9 3-5.8-.4-3.9-.2-4.2 3.1-5.8s3.4-1.9 2.8-5.7-.5-4.1 2.3-5c3.3-1.2 4.4-3.4 3.7-7.3-.4-2 .2-2.9 2.9-4.5 3.1-1.8 3.3-2.2 2.8-6-.4-3.2-.2-4.1.9-4.1 3.3 0 5.2-2.7 5-6.9-.2-3.5 0-4.1 1.7-4.1 1.4 0 2.5 1.1 3.5 3.4m-51 23.2c.3.9.4 2 .1 2.4-.3.5 1.9.7 4.9.4 5.2-.4 5.4-.3 6.6 2.6s1.5 3 5.5 2.4c3.9-.5 4.5-.3 6 2 2 3 2.1 2.8-2.4 5.1-3.1 1.5-3.3 1.9-2.7 5.4.5 3.4.3 3.8-3 5.6s-3.4 2-2.9 6c.6 3.9.5 4.1-2.9 5.8-3.5 1.6-3.6 1.8-3 5.7.6 3.8.5 4.1-2.5 5.1-3.6 1.3-4 3.8-1.6 9.5 1.4 3.5 1.6 3.6 5.4 2.9 3.9-.6 4.1-.6 5.6 3 1.4 3.6 1.7 3.7 5.3 3.1 3.7-.5 3.9-.4 5.6 3 1.6 3.5 1.9 3.6 5.5 3 3.5-.5 3.8-.4 5.4 2.9 1.5 3.2 2 3.5 6.1 3.5 3.9 0 4.5.3 5.6 3 1.1 2.6 1.7 3 5.4 3 3.4 0 4.4.5 6.1 3 1.2 1.8 2.9 3 4.1 3s2.7.7 3.4 1.5 2.1 1.5 3.1 1.5c1.9 0 3.9 2.7 3.9 5.3 0 .7-1.2 1.9-2.6 2.6-2.4 1.1-2.6 1.5-2 5.5.7 4.2.5 4.5-2.4 6.3-3.2 1.8-3.5 3.4-1.5 8.4.4 1.1 0 1.8-1.4 2.2-1.6.4-2.5-.2-3.8-2.4-1.8-3-4.1-3.6-7.4-1.9-1.6.9-2.2.6-3.7-2-1.6-2.9-2-3.1-5.8-2.6-3.7.5-4.3.2-6.3-2.4-2-2.7-2.6-3-6.1-2.4-2.7.4-4 .3-4-.5 0-.6-.9-2-2-3.1-1.6-1.6-2.5-1.8-4.5-1s-2.7.6-3.5-1c-.8-1.4-2.1-2-4.5-2-2.5 0-3.7-.6-4.6-2.1-.9-1.8-1.7-2-4.7-1.5-3.1.5-3.9.2-6.2-2.5-2.2-2.7-2.8-2.9-5.1-2.1-2.9 1.2-3.8.8-6.2-3.1-1.5-2.2-2.1-2.6-3.7-1.7-2.9 1.6-5.8 1.2-6.5-.9-1-3.4-3.1-4.4-6.4-3.3-4.4 1.6-5.1-1.4-1.2-5 2.7-2.6 2.9-3.1 1.9-6s-.9-3.4 2-5.8c2.8-2.3 3-3 2.5-6.7s-.2-4.3 2.2-5.9 2.7-2.2 2.2-6.1c-.4-3.9-.2-4.6 2.2-6.1 3.7-2.4 4-3.1 2.8-6.5-.9-2.7-.7-3.3 1.8-5.3 2.4-1.9 2.7-2.7 2.3-6.2-.5-3.5-.3-4.1 2.4-5.7 2.8-1.6 2.9-2 2.3-6.1-.5-3.9-.4-4.4 2.1-6 2.3-1.5 2.5-2.3 2.1-5.5-.3-2.1-.2-4 .1-4.3 1.1-1.2 4-.5 4.6 1M236.56 527.9c-.8 1.2 3.8 22.1 10 46.1 4.6 17.7 15.8 52.7 17.4 54.4 1.5 1.5 4.1-1.3 3.1-3.3-3.7-7.1-15.4-46.9-22.2-75.1-2.1-9.1-4.3-17.8-4.7-19.4-.8-3.1-2.6-4.4-3.6-2.7M410.56 571.8c-.8 1.3 6.4 18.5 17.5 42.1 3.3 6.8 5.9 12.7 5.9 13.1 0 1.3 2.6 1.9 4 1 1.1-.7 0-3.6-4.9-13.7-3.5-7-7.8-16.2-9.6-20.3-9.4-21.5-11.3-24.8-12.9-22.2"/></svg>