<svg xmlns="http://www.w3.org/2000/svg" width="946.336" height="710.143" viewBox="0 0 709.752 532.607"><path d="M334.853.207c-41.4 6-72.3 19.1-101.8 43.2-26.9 22.1-49.9 58.6-57.8 92-1.1 4.5-1.7 8.7-1.4 9.2 1.2 2 3.5.9 4-1.8 3-15.2 16.4-45.8 26-59.7 11.1-16 30.2-36.4 32.6-34.9.7.4.9.3.5-.4-.8-1.3 4.3-5.4 5.7-4.5.6.3.7.1.3-.5-1-1.6 14.9-11.8 29.9-19.2 57.3-28.3 125.7-24.8 180.4 9.3 15.7 9.7 37.6 30 46.3 42.7 2.1 3 4.9 6.8 6.2 8.5 3.7 4.7 13 22.9 17.6 34.5 5.1 12.6 8.5 26.2 10.8 42.4 1.3 9.2 2.1 12.1 3.2 12.1 2.2 0 1.7-14.4-.9-27.1-8.9-43.4-34.3-83.6-69-109.1-4.7-3.4-9-6.6-9.6-7.1-5.6-4.5-29-15.6-43.5-20.7-18.9-6.5-31.7-8.6-55.5-9-11.5-.2-22.3-.1-24 .1M145.853 18.607c-18 1.9-38.7 14.5-45.1 27.5-2.1 4.5-2.6 6.5-2.2 10.5.9 9.3 8.5 14.2 21.8 14.2l7.8-.1-1.4 2.7c-4.3 8.3 2.2 17.2 12.6 17.2 2.7 0 3 .3 3 3.2 0 4.4 3 9 7.4 11.8 3.7 2.2 4.8 2.1 5.2-.5.1-.9-.4-1.1-1.4-.8-1.1.5-1.3.3-.7-.7.5-.8.4-1.1-.2-.7-2.3 1.4-6.9-7-5.9-10.8.3-1.1 2-2.7 3.8-3.5 2.1-1 3.3-2.2 3.3-3.5 0-2.9-4.1-3.2-7.8-.5-2.4 1.8-3.8 2.1-7.5 1.6-7.8-1.1-10.2-4.6-7.7-11.2 1.3-3.3 2.3-4.5 4.3-5 15-3.3 23.6-8.9 19.6-12.8-3.3-3.4-10.9-1.1-20.3 6-4 3.1-5 3.4-11 3.4-12.6-.1-18.9-2.9-20.5-9.3-2-7.8 7.4-19.7 21.2-26.7 12.9-6.6 24.9-9.2 31.6-7 3.1 1 3.6 1.6 3.6 4.2 0 2.3.4 2.9 1.7 2.6 3.5-.7 2.8-7.9-.9-9.9-3.6-2-7.9-2.5-14.3-1.9m3.2 42.1c-3 1.7-8.7 4-8.7 3.4 0-.7 8-4.3 9.5-4.4.6 0 .2.4-.8 1"/><path d="M332.853 22.707c-61.5 8.1-113.6 50.1-132.4 106.4-4.6 13.7-6.8 25.2-5.1 26.9s2.6-.3 5.3-11.1c4.5-17.9 13.1-37.2 23.1-51.5 9.6-13.8 26.8-31.5 31.3-32.3 1-.1 1.7-.7 1.6-1.3-.7-3.2 30.1-19.9 46.8-25.2 19.1-6.2 27.4-7.4 49.9-7.4 21.8-.1 28.8.8 47.5 6 11 3.1 31.5 12.4 41 18.5 19.4 12.6 39.5 33.5 49.4 51.3 7.8 13.9 11.4 22.3 15 34.6 5.5 18.9 7.3 35.2 6.1 54-1.5 21.9-5.8 37.9-15.9 58.5-19.1 38.8-55.4 68.8-97.6 80.4-16.2 4.5-24.4 5.5-43.5 5.5-10.3 0-22-.5-26.5-1.3-9.3-1.5-26.1-6.1-35.5-9.8-9.7-3.8-22-10.5-21.3-11.6.3-.6.1-.7-.5-.3-1.1.7-10.3-4.8-11-6.6-.2-.4-.9-.8-1.5-.8-.7 0-3.7-2-6.7-4.5s-6.1-4.5-6.7-4.5c-1.9 0-1.5 2.5.7 4.5 1.1 1 1.7 2.2 1.3 2.8q-.45.9.6.3c.6-.4 3.3 1.1 6.4 3.7 15.7 13.4 41.4 24.9 67.6 30.4 11 2.3 15 2.6 32.1 2.6 17.4 0 21-.3 33-2.7 15.7-3.2 28.1-7.6 43.5-15.5 6.1-3 11.5-5.5 12.2-5.5.7.1 1.1-.2 1-.6s4.3-4.1 9.8-8.2c5.5-4.2 13.6-11.2 17.9-15.6 4.4-4.5 8.4-7.8 8.9-7.5q.9.45.3-.6c-.4-.7.9-3.1 3.2-5.9 13.4-15.9 26.1-43.9 30.7-67.3 2.3-11.6 3.1-36.3 1.6-48.5-1.3-10.4-4.7-25-8-34.6-2.1-6-11.1-25.9-12.1-26.8-.4-.3-2.7-3.7-5.2-7.5-17.7-27.4-45.6-49.6-77.8-61.8-13.9-5.3-21.5-7.2-35.6-9.2-11.3-1.6-34.6-1.8-44.9-.4"/><path d="M352.453 38.007c-.8.9-1.1 4.9-.9 11.7.3 9.6.4 10.4 2.3 10.4s2-.8 2.3-10.6c.2-8.1-.1-10.9-1.1-11.8-1.1-.9-1.7-.8-2.6.3M352.053 90.207c-.4.4-.7 18.8-.7 41v40.2l-2.4.6c-5 1.2-8.5 9.4-6.6 15.2 2.4 7.1 10.5 10.4 17.5 7.2 2.3-1 2.9-.8 5.8 1.9 1.7 1.6 8.8 7.5 15.7 12.9 6.9 5.5 18.3 14.6 25.3 20.2 10.4 8.3 13.2 10.1 14.3 9.1.8-.6 1.4-1.5 1.4-1.8 0-.4-3.1-3.2-6.9-6.2s-6.7-5.7-6.4-6.2c.2-.4 0-.6-.5-.5-.5.2-10.7-7.5-22.6-17-18.9-15.2-21.5-17.6-20.6-19.2 2.6-4.9-.7-13.3-6-15.3l-3-1.1-.2-40.6c-.3-35.6-.5-40.5-1.8-40.8-.9-.1-1.9 0-2.3.4m6.7 87.5c3.7 2.9 3.7 8.9 0 11.8-1.5 1.2-3.3 2.1-4.1 2.1-2.6 0-7.4-3.4-6.8-4.8.2-.7 0-1-.5-.7-2.2 1.4-.9-5.7 1.5-8 3-3 6.4-3.2 9.9-.4M113.353 156.107c-46.1 9.3-74.6 57-59.5 99.7 1.4 4 2.8 8.1 3.2 9 .4 1.4 0 1.8-1.8 1.8-4.2 0-14.2 5.5-18.3 10-2.1 2.3-4.8 6.3-5.9 8.9-3.2 7-2.8 22.1.6 22.1 1 0 1.2-1.5.9-5.8-.5-6.9 2.2-15.4 6.8-21.2 3.2-4 13.1-9.7 14.9-8.5.6.3 1.1.1 1.1-.6 0-1.7 13.9-.5 17.8 1.5 4.8 2.5 6 1.8 2.5-1.4-1.8-1.6-5.1-3.4-7.5-4-6.7-1.8-7-2.1-9.4-10.4-5.7-19.2-5.3-34.7 1.3-51.6 10.7-27.4 34.8-44.1 65.8-45.7 15.9-.8 34.8 2.7 46.7 8.8 7.3 3.7 8.1 1.6 1-3-6.4-4.1-17-8-26.2-9.7-9.3-1.7-25.4-1.6-34 .1M580.853 175.007c-5.9 2.6-12.7 13-11.1 17.1 1 2.7 2.6 1.5 5-3.8 2.5-5.8 4.9-8.3 6.7-7.1.7.4.9.3.5-.4-.9-1.5 6.5-3.7 9.6-2.9 7.5 2 12.4 8.8 11.5 15.9-.7 5.1-2.7 8-8.6 12.6-6.2 4.7-7.1 6.6-7.1 15.6v7.4l-3.7.7c-6.4 1.2-13.2 5.6-18 11.6-3 3.8-5 5.5-6.1 5.2-1-.2-6.6 2.8-12.9 6.8l-11.2 7.1-2.5 7.2c-1.3 3.9-4.2 11.8-6.5 17.6-3.1 8-3.7 10.7-2.9 11.8.7.7 3.9 2.7 7.2 4.4l6 3-2.6 2.2c-8.7 7.2-10.8 9.2-10.8 10.7 0 1 1.7 4.8 3.8 8.6 2.1 3.7 5.7 10.2 7.9 14.3 4.8 8.8 15.1 26.8 24.8 43.2 6.5 10.9 8.5 13.5 8.5 10.8 0-1.3-13.3-27-25.9-50-12.9-23.4-14.6-26.8-14.1-27.2.3-.2 3.5-3 7.1-6.1s6.9-5.3 7.4-4.9c.4.4.3-.3-.4-1.5-.6-1.2-4.2-3.9-8-6l-6.9-3.8 5.8-15.5 5.8-15.5 9.3-6.3c7-4.6 9.5-5.8 9.7-4.7.5 2.4 2.1 1.8 5.5-2.2 12.3-14.3 15.3-16.2 25.3-16.3 7.1 0 11.9 1.7 16.9 6.1 3.3 2.9 4.9 5.9 2.3 4.3-.7-.4-.8-.3-.4.5.4.6 1.1.9 1.5.6.5-.2 2.1 1.4 3.7 3.6 2.9 4.2 5.8 6.4 7.4 5.4.5-.3.6-1.3.3-2.2-.7-1.8.1-1.5 5.1 2.1 1.6 1.2 5.1 3.7 7.9 5.6l5 3.5 5.3 15.5c3 8.5 5.4 15.6 5.4 15.6 0 .1-1.9 1.2-4.2 2.4-2.4 1.2-5.8 3.4-7.7 4.8l-3.4 2.6 7.3 6.6 7.2 6.6-4.7 8.7c-2.7 5.1-5.1 8.4-5.7 8-.7-.3-.8-.1-.4.5.6 1-1.7 5.9-11.2 23.2-2 3.6-4.1 6.8-4.6 7.2-.6.4-.8.8-.4.8s-1.9 5.3-5.1 11.7c-9.3 18.8-15.8 36.3-13.5 36.3.5 0 1.8-1.9 2.8-4.3 3.2-6.8 18.6-37.8 21.7-43.5 1.6-2.8 4.2-7.6 5.8-10.5 1.6-2.8 5.3-9.7 8.4-15.2 3-5.5 6.8-12.5 8.6-15.7 1.7-3.1 3.1-6.4 3.1-7.5 0-1-2.9-4.2-6.6-7.2l-6.5-5.4 6.8-3.8c3.7-2.1 7.1-3.6 7.5-3.3.9.6-1.2-6.6-6-19.7l-3.9-10.7 4.1 1.8c13 5.6 27.6 12.6 31 14.9 4.7 3 8.1 9.3 9.6 17.1 1.7 8.7 13.1 125.3 15.7 159.3.5 6.5.9 7.7 2.4 7.7 1 0 2-.3 2.3-.8.7-1.2-8.5-106.5-13-147.7-2.5-23-5.1-31-12.1-37.7-2.7-2.6-19.1-10.7-34.2-17-4.2-1.8-8-3.7-8.6-4.3-.5-.7-2.6-2.3-4.5-3.5-1.9-1.3-3.7-2.7-4-3-2.4-2.6-12.2-8-14.5-8-.9 0-4.7-3.1-8.4-6.9-5.8-6-7.5-7.2-12.9-8.8l-6.2-1.8v-7.1c0-6.9 1.5-10.6 3.4-8.6.4.4.6.2.4-.5-.1-.6 1.6-2.5 3.9-4.2 5.6-4.1 8.3-9.5 8.3-16.7 0-7.5-2.3-12-7.9-15.5-3.6-2.3-5.6-2.9-10-2.9-3.1.1-7 .7-8.6 1.4M186.853 176.607c.3.5 2.4 1.5 4.5 2.1 5.2 1.6 14.5 10 17.4 15.8 1.3 2.5 2.9 7.8 3.6 11.8 1 6.2.9 8.5-.5 15.9-1.9 9.4-1.5 15.8 1.2 20.2.9 1.5 4.5 5.7 8 9.4 3.5 3.6 6.3 7.2 6.3 7.8 0 .7-2.1 3.2-4.6 5.6-4.5 4.1-4.6 4.5-3.9 8.1.4 2.1.7 4.9.6 6.3-.4 8.6-.8 11.7-1.5 12.9-.5.7-.8 4.2-.7 7.7.2 11.6-.9 13.1-8.7 11.3-8.7-2-13.1-1.4-16.6 2-2 2-4.2 3.1-6 3.1-3.9 0-9.3 2.8-11.5 5.9-5.9 8.4-9.3 34.2-6.1 46.1 1.6 5.8 2.5 4.2 2.2-3.8-.4-8.8 3.2-30.2 6.2-36.9 1.9-4.1 3.1-5.4 5.3-5.8 1.5-.4 3.4-.9 4.2-1.1.9-.3 1.1.1.7 1.2-.3.8-.6 1.8-.6 2 0 .3-.4.3-.8 0-.9-.5-1 0-1.8 12.4-.3 5.2-.2 11.1.3 13 .9 3.3 1.2 3.5 5 3.4h3.9l-1.9 4c-2.5 5-3.5 18.9-1.8 23.7.6 1.8 2.5 14.8 4.1 28.8 6.8 57.4 13.6 96 16.4 93 .2-.2-1.1-12.1-3-26.4-1.8-14.3-5.2-40.4-7.4-58-2.3-17.6-4.8-34.9-5.7-38.4-2.8-11.4-.9-18.4 9.1-33.8 6.2-9.6 6.4-12.6 1-16.3l-3.7-2.4-2.9 3.4c-2.6 3.1-2.9 4-2.3 8.3.5 4.4.4 5-2.7 8l-3.3 3.2-.6-8.5c-.8-9.5.4-14.4 4.9-21.8 3.2-5.1 5.5-5.8 12.9-4.3 3.1.6 7.2 1.1 9 1.1 3.1 0 3.6-.4 5.1-4 .9-2.2 2.1-3.8 2.7-3.7.5.2 3.3 3.5 6.2 7.3 4 5.1 5.3 7.7 5.3 10.2 0 1.9-2.2 8.9-4.9 15.5-6.6 16.6-9.8 26.2-10.6 32.3-1.3 10.1 4.6 27.5 19.5 57.9 11.2 22.6 20.9 38.9 22.4 37.4.4-.3-5.2-12.5-12.3-27-14-28.6-18.4-38.9-22.5-51.7-2.8-9.1-3.2-14-1.5-20.8 1.1-4.4 3.2-5.7 5.5-3.4.6.6 5.2 1.9 10.3 3 24.8 5.5 33.2 16.8 38.5 52.1.8 5.8 3.1 25.2 5.1 43 4.3 39.2 4.2 38.9 6 38.9 1.9 0 1.9-1.8 0-24.9-4.1-50.5-8.2-75.3-14.6-88.7-7.8-16.4-20.8-24.5-41.6-25.9-3.6-.2-6.8-.6-7-.9-.2-.2 2.5-7.7 6-16.7 6.4-16.2 7-18.3 6.8-22.6-.1-2.9-11.3-16.8-15.1-18.8-2.6-1.3-3-2.1-3-5.6 0-2.2.7-5.1 1.6-6.4.9-1.4 1.3-3.2.9-4.5-.4-1.2-.1-3.5.6-5.1.9-2.4.9-3.8-.1-7-1.5-4.4-.4-7.7 2.2-7.1.7.2 1 0 .6-.4s.6-2.3 2.3-4.2c4.1-4.7 3.4-6.9-5.1-15.8-8.2-8.6-9.6-12.1-8.5-21.3.5-3.6.9-11.1.9-16.6.1-9.4-.1-10.5-3.3-17.3-3.7-7.9-8.8-13.2-15.5-16.3-4.3-2-12.2-2.6-11.1-.9m15.5 157.5c1 1.2 1 2.1 0 4.5-2 4.9-3.6 5.4-3.8 1.4-.5-6.4 1.2-9 3.8-5.9M221.953 179.907c-3.5 2.6-.9 3.7 8.9 3.7 7.1 0 9.4-.3 9.8-1.4.9-2.4-1.4-3.2-9.3-3.5-5.2-.2-8.1.2-9.4 1.2M478.653 179.307c-.7.2-1.3 1.3-1.3 2.4 0 1.8.8 1.9 11.5 1.9 10.6 0 11.5-.1 11.5-1.9 0-1-.7-2.2-1.6-2.5-1.9-.7-18.3-.7-20.1.1"/><path d="M536.053 182.307c-.4.3-.7 2.7-.7 5.3 0 15.8-5.5 41.1-13 60-7.9 20.1-27.7 50.5-31.3 48.3-.6-.4-.7-.1-.2.6.9 1.6-6.6 9.5-19 19.9-32 26.9-74.4 42.2-116.8 42.2-29.6 0-56.5-6.4-83.5-19.6-7.8-3.9-14-6.3-14.9-6-2.7 1.1 1.1 4.1 12.6 10 25.4 13 48.3 19 77.6 20.2 51.1 2.3 99.3-15.8 138-51.7 4.7-4.3 8.2-7.9 7.9-7.9s.2-.7 1.1-1.6c.9-1 4-4.7 7-8.3 22.7-28.2 36.7-64.7 38.2-99.4.5-10.8.4-12.7-.9-12.7-.8 0-1.8.3-2.1.7M184.953 190.807c-.3 1.3-.8 4.5-1.1 7.3-1 7.3-5.2 19.1-9.5 26.5-4.5 7.7-11.8 16.3-13.1 15.4-.5-.3-.8-.1-.7.5.3 1-10 10.1-11.4 10.1-.5 0-.8.7-.8 1.5 0 2.3 2.1 1.8 7.8-1.8 11.7-7.4 22.2-20.7 27.8-35.2 2.9-7.7 4.8-26.5 2.6-26.5-.7 0-1.4 1-1.6 2.2M148.053 261.707c-1 2.8-1.7 5.6-1.7 6.2 0 3.8-5.7 15.2-10.7 21.2-6.6 8-9.3 14.4-9.3 21.9 0 5.6 1.5 11.4 2.7 10.2.4-.3.5-3.1.4-6.1-.4-7.9 2-13.9 8.9-22.5 3.3-4.1 6.9-10 8.1-13 1.9-5 4.9-18.2 4.9-21.6 0-3.1-1.8-1.1-3.3 3.7M580.353 261.007c-4.1 1.8-10.5 4.9-14.2 6.8l-6.7 3.5-.6-3.9c-.7-3.8-2-5.6-3.3-4.4-3.1 3.2 6 58.6 19.3 117.1 2 8.8 3.8 16.2 4.1 16.4 2.1 2.2 0-12.2-9.1-60.9-5.8-31.2-9.5-53.4-9.5-57.5s1.7-4.7 8-2.6c6.7 2.2 36.1 2.1 41.2-.1 4.3-1.9 7.8-1.3 7.8 1.2 0 2.3-7.5 42.3-12.9 69-9.4 46.1-11.9 71.9-10.6 105.5.6 13.8 1.1 17.5 2.1 17.5.8 0 1.4-.8 1.5-1.8 0-.9.4-15.4.9-32.2.9-33.4 2.7-48.9 9.6-82.5 9.9-48.4 14.7-76.2 14.9-86 0-4.2-2.7-4-3.6.3-.4 1.8-.9 3.5-1.1 3.8-.3.2-6.2-2.3-13.1-5.6-7-3.3-13.7-6.2-14.9-6.4-1.3-.3-5.5.9-9.8 2.8m20.8 6.6c6.6 3.1 7.1 3.5 5 4.3-3 1.2-25.9 1.4-32.3.3l-5-.8 10-4.8c8.9-4.2 10.3-4.6 12.5-3.5 1.4.6 5.8 2.7 9.8 4.5"/><path d="M134.453 276.607c-2.4 2.2-4.8 3.7-5.4 3.3-.5-.3-.7-.2-.4.4 1.4 2.3-16.9 9.3-24.5 9.3-4.8 0-4.9 1.6-.2 2.2 6.5.8 16.1-1 22.2-4.1 7.1-3.6 16.9-12.2 15.8-13.9-1.2-2-2.9-1.3-7.5 2.8M62.353 280.507c-4.5 1.4-8.9 4.1-10 6.1-.9 1.7-.8 2 .7 2 1 0 3-.8 4.3-1.7 1.9-1.3 4.6-1.7 12.1-1.8 8.5 0 10.1.3 12.8 2.2 3.5 2.7 4.1 2.8 4.1.9 0-2.1-5.8-6.2-10.5-7.5-4.5-1.2-9.8-1.3-13.5-.2M45.453 295.907c-4.3 5.2-5.4 17.8-2.2 25.6 3.8 9.4 14.8 17.1 24.7 17.1 7.7 0 15-2.6 19.9-7.1 2.3-2.1 4.5-3.9 4.7-3.9.9 0-1.6 6.3-4 10.2-2.1 3.3-4.2 5.4-9.7 9.2-1.8 1.3-1.9 1.5-.3 2.1 2.6 1 10-4.1 13.6-9.4 4.8-7.1 6.3-12.5 6.5-23.1.1-7.8-.2-10.3-2-14.1-3.3-7.2-6.3-8.3-3.8-1.4 2 5.7 1.9 14.3-.3 18.5-1 1.9-2.3 3.4-3.1 3.2-.7-.1-1 .2-.6.8.3.5-.6 2.1-2 3.5-10.1 9.3-27.3 8.6-35.6-1.4-4.9-6-5.8-12.8-3.3-27.4.6-3.8-.4-4.8-2.5-2.4M352.053 303.207c-.4.4-.7 5.4-.7 11.1 0 8.6.3 10.5 1.6 11 2.7 1 3.4-1.8 3.2-12.2-.3-8.1-.6-10-1.8-10.3-.9-.1-1.9 0-2.3.4"/><path d="M107.253 315.807c0 .7 0 3.4.1 6 .2 6.3-2.7 20-5.6 26.6-1.3 3-2.4 6-2.4 6.7 0 3.3-30.2 23.4-35.1 23.5-.9 0-5.4 1.9-10 4.1-4.6 2.3-9.3 4.2-10.5 4.3-1.2 0-2.1.3-1.9.6s-3 2.6-7.1 5c-18.7 11-28.8 28.2-32.4 55-1.3 9-2.9 41.7-2.2 43.7.4 1.4 3.1 1.8 3.3.5.4-2 .7-5.7 1.3-16.2 1.7-28.1 5.6-48.2 11.3-58 7.7-13.2 16.2-19.7 39.9-30.5l7.3-3.3 2.5 4.2c11.1 19 64.2 60.2 104.8 81.4 4.2 2.2 7.5 4.1 7.3 4.3s1 .5 2.6.6c3.8.3 3.1-.8-2.9-4.3-7.7-4.5-44.2-28.7-54.3-35.9-23.7-17-55.8-45.8-54.6-49 .4-.8.3-1.4-.1-1.2-.4.1-.7-.3-.8-.8 0-.6 2.6-2.2 5.8-3.6 3.3-1.4 6.4-3.1 7-3.7.7-.7 1.6-1.2 2-1.2 1.2 0 10.7-7.1 14-10.5 9.4-9.4 14.2-22.5 14.3-38.5 0-9.2-.2-10.5-1.7-10.8-1-.2-1.8.2-1.9 1M505.053 329.307c-.9.8-.9 20.7-.1 21.6.3.3 1.2.3 2 0 2-.7 2.1-22.3.1-22.3-.8 0-1.7.3-2 .7M668.353 346.807c0 19.2 3.7 133.2 4.8 147.3.6 7.7 1 9 2.6 9.3 1.9.4 1.9-.4 1.2-27.4-.3-15.4-1.3-45.7-2.1-67.4s-1.5-47-1.5-56.1c0-19.5-.5-22.9-3.1-22.9-1.8 0-1.9 1-1.9 17.2M483.653 363.307c-10.7 3.7-21.2 19-23.5 34.1l-1.2 7.2h-16.8c-12.6 0-17 .3-17.3 1.2-.9 2.9-11.7 123.8-11.2 125.2.6 1.4 8.6 1.6 73.7 1.6 62.1 0 73.1-.2 73.6-1.4.5-1.3-7.5-103.5-9.4-119.6l-.7-6.5-11.2-.3-11.1-.3-1.1-6.7c-2.4-13.7-5.7-20.9-13.3-28.2-7.3-7-20.8-9.8-30.5-6.3m19.1 6.7c6.3 4.7 11.6 18.7 11.6 30.2v4.4h-50.7l.8-5.1c2.4-14.9 8.7-25 19.2-30.7 5.9-3.1 14.1-2.7 19.1 1.2m16.1 13.6c2.4 4.8 4.5 13.2 4.5 18 0 2.3-.5 3-1.9 3-1.5 0-1.9-1.1-2.5-6.8-.9-8.4-2.4-14.6-4.8-19.7l-1.9-4 2.2 2.5c1.1 1.4 3.1 4.5 4.4 7m-61.2 35.9c-.6 10.2.2 12.6 3.2 10.1 1.1-.9 1.5-3.4 1.5-8.4 0-3.9.3-8.1.6-9.4l.6-2.2h51.7l-.2 10c-.2 7.6.1 10.1 1.1 10.5 2.7 1 3.2-.8 3.2-10.6v-9.9h27.6l1.8 21.2c1.6 20.1 4.2 50.5 6.9 82.5l1.2 14.3-69.3.2-69.4.3.6-6c1-10.4 4.5-47.9 7.1-76.5 1.4-15.1 2.8-29.4 3.1-31.8l.5-4.2h28.8z"/></svg>